#N canvas 420 0 838 916 10;
#X obj 1100 493 hsl 128 15 1 1000 0 0 empty empty empty -2 -8 0 10
-262144 -1 -1 0 1;
#X obj 985 454 tgl 30 0 empty empty empty 17 7 0 10 -262144 -1 -1 1
1;
#X obj 996 523 float;
#X floatatom 995 573 0 0 0 0 - - -;
#X obj 998 547 + 1;
#X floatatom 1099 578 10 0 0 0 - - -, f 10;
#X obj 51 343 loadbang;
#X msg 116 384 reset;
#X floatatom 48 402 5 1 60 0 - - -, f 5;
#X msg 50 431 frame \$1;
#X obj 1128 531 hsl 128 15 0 24 0 0 empty empty empty -2 -8 0 10 -262144
-1 -1 4800 1;
#X obj 1087 556 +;
#X obj 1094 522 t b;
#X msg 952 497 0;
#X msg 184 367 fullscreen \$1;
#X obj 183 333 tgl 15 0 empty empty empty 17 7 0 10 -262144 -1 -1 0
1;
#X msg 58 372 60;
#X msg 152 408 dimen 1024 768;
#X msg 214 310 2;
#X obj 996 596 s vidClk;
#X text 1095 478 coarse;
#X text 1172 515 fine;
#X text 955 436 GO! vidClk;
#X text 278 409 max;
#X obj 58 124 tgl 30 0 empty empty empty 17 7 0 10 -262144 -1 -1 0
1;
#X obj 54 185 sel 0 1;
#X text 14 161 master fade;
#X obj 1062 460 hsl 128 15 0 10000 0 0 empty empty empty -2 -8 0 10
-262144 -1 -1 0 1;
#X text 1063 441 secs;
#X msg 1055 267 0;
#X obj 947 153 tgl 30 0 empty empty empty 17 7 0 10 -262144 -1 -1 0
1;
#X text 895 131 strobe blank;
#X obj 1091 291 s vidG;
#X obj 1039 291 s vidB;
#X obj 983 291 s vidR;
#X obj 1091 291 s vidG;
#X obj 1039 291 s vidB;
#X obj 983 291 s vidR;
#X obj 131 258 line 0 17;
#X obj 132 282 s masterLvl;
#X msg 160 427 dimen 1900 1080;
#N canvas 1196 571 682 322 gemwin 0;
#X obj 102 122 tgl 15 0 \$0-gemstart \$0-gemstart empty 17 7 0 10 -262144
-1 -1 1 1;
#X obj 102 161 r \$0-gemstart;
#X obj 102 182 select 1 0;
#X msg 102 214 create \, 1;
#X msg 177 215 destroy;
#X obj 102 239 t a;
#X obj 318 54 inlet;
#X obj 318 255 gemwin;
#X obj 311 96 t a a;
#X obj 318 287 outlet;
#X obj 350 128 route create destroy;
#X obj 350 150 t b;
#X msg 350 172 1;
#X obj 390 150 t b;
#X msg 390 172 0;
#X obj 350 195 t f;
#X msg 350 219 set \$1;
#X text 118 122 rendering;
#X obj 112 22 key;
#X obj 111 47 select 113;
#X obj 113 68 t b;
#X connect 1 0 2 0;
#X connect 2 0 3 0;
#X connect 2 1 4 0;
#X connect 3 0 5 0;
#X connect 4 0 5 0;
#X connect 5 0 8 0;
#X connect 6 0 8 0;
#X connect 7 0 9 0;
#X connect 8 0 7 0;
#X connect 8 1 10 0;
#X connect 10 0 11 0;
#X connect 10 1 13 0;
#X connect 11 0 12 0;
#X connect 12 0 15 0;
#X connect 13 0 14 0;
#X connect 14 0 15 0;
#X connect 15 0 16 0;
#X connect 16 0 0 0;
#X connect 18 0 19 0;
#X connect 19 0 20 0;
#X connect 20 0 0 0;
#X coords 0 -1 1 1 85 40 1 100 100;
#X restore 68 462 pd gemwin 60;
#X obj 1099 597 s vidMilli;
#X obj 996 523 float;
#X obj 998 547 + 1;
#X obj 993 501 metro 100;
#X msg 132 232 1 \$1;
#X msg 189 231 0 \$1;
#X obj 192 68 vsl 15 128 0.01 30000 0 0 empty empty empty 0 -9 0 10
-262144 -1 -1 0 1;
#X obj 149 67 vsl 15 128 0 30000 0 0 empty empty empty 0 -9 0 10 -262144
-1 -1 0 1;
#X text 148 47 in;
#X text 187 50 out;
#X obj 131 206 i;
#X obj 189 207 i;
#X floatatom 97 34 10 0 0 0 - - -, f 10;
#X floatatom 185 33 10 0 0 0 - - -, f 10;
#X obj 1063 78 vsl 15 128 0 100 0 0 empty empty empty 0 -9 0 10 -262144
-1 -1 0 1;
#X floatatom 1065 237 10 0 0 0 - - -, f 10;
#X obj 949 246 del;
#X obj 876 184 r vidClk;
#X obj 917 218 spigot;
#X obj 876 208 t b;
#X obj 923 244 bng 15 250 50 0 empty empty empty 17 7 0 10 -262144
-1 -1;
#X obj 1102 215 t b;
#X text 1049 60 255 ms;
#X obj 1109 75 vsl 15 128 0 10000 0 0 empty empty empty 0 -9 0 10 -262144
-1 -1 0 1;
#X text 1097 59 10k ms;
#X obj 1063 216 +;
#X msg 95 128 stop;
#X obj 346 311 vsl 15 64 0 1 0 0 empty empty empty 0 -9 0 10 -258113
-1 -1 0 1;
#X obj 367 311 vsl 15 64 0 1 0 0 empty empty empty 0 -9 0 10 -4160
-1 -1 0 1;
#X obj 389 310 vsl 15 64 0 1 0 0 empty empty empty 0 -9 0 10 -4034
-1 -1 0 1;
#X text 378 284 R B G;
#X obj 406 395 s vidG;
#X obj 354 395 s vidB;
#X obj 298 395 s vidR;
#X obj 406 395 s vidG;
#X obj 354 395 s vidB;
#X obj 298 395 s vidR;
#X text 368 271 immediate;
#X msg 1282 532 8.333;
#X msg 1343 534 16.7;
#X obj 338 231 spigot;
#X obj 411 190 tgl 30 0 empty empty empty 17 7 0 10 -262144 -1 -1 0
127;
#X obj 335 191 r vidClk;
#X obj 337 255 t b;
#X obj 840 97 vsl 15 128 0 1023 0 0 empty empty empty 0 -9 0 10 -262144
-1 -1 0 1;
#X obj 840 231 int;
#X floatatom 840 253 5 0 0 0 - - -, f 5;
#X obj 840 272 s dmxFlicker;
#X obj 22 54 t b;
#X obj 22 32 r vidClk;
#X obj 332 509 diffuseRGB;
#X msg 187 485 lighting \$1;
#X obj 187 461 tgl 15 0 empty empty empty 17 7 0 10 -262144 -1 -1 1
1;
#X obj 268 28 tgl 15 0 empty empty empty 17 7 0 10 -262144 -1 -1 1
1;
#X obj 791 720 cnv 15 220 210 empty empty empty 20 12 0 14 -24198 -66577
0;
#X obj 951 820 gemhead;
#X msg 808 839 1 1 1;
#X floatatom 1024 795 5 0 0 0 - - -, f 5;
#X msg 808 858 1 1 0;
#X obj 803 885 spot_light;
#X obj 955 888 translateXYZ 0 0 2;
#X floatatom 817 734 5 0 0 1 linear_attenuation - -, f 5;
#X floatatom 869 771 5 0 0 2 cone_cutoff_angle - -, f 5;
#X floatatom 907 801 5 0 0 2 decay_at_edges - -, f 5;
#X obj 907 820 t b f;
#X obj 869 840 t b f;
#X text 809 822 color;
#X obj 951 842 rotateXYZ -33 0 0;
#X obj 867 860 pack 0 90 3;
#X obj 811 788 tgl 20 0 empty \$0-onoff empty 17 7 0 10 -262144 -1
-1 0 1;
#X obj 716 834 tgl 15 0 empty empty empty 0 -6 0 8 -262144 -1 -1 0
1;
#X msg 734 834 debug \$1;
#X floatatom 1018 774 5 0 0 0 - - -, f 5;
#X floatatom 1037 814 5 0 0 0 - - -, f 5;
#X floatatom 1094 809 5 0 0 0 - - -, f 5;
#X floatatom 1081 788 5 0 0 0 - - -, f 5;
#X floatatom 1100 828 5 0 0 0 - - -, f 5;
#X obj 386 558 text2d;
#X obj 388 583 text3d;
#X obj 436 556 textextruded;
#X obj 442 581 newWave;
#X obj 329 554 polygon;
#X obj 386 534 curve;
#X obj 327 581 curve3d;
#X obj 431 528 specularRGB;
#X msg 1378 593 setCartesian 2 3 \$1 1 0;
#X msg 1391 616 setSpherical 2 3 \$1 45 45;
#X msg 1362 658 print;
#X msg 1465 176 draw line;
#X msg 1465 196 draw fill;
#X msg 1465 215 draw point;
#X obj 152 657 camera;
#X obj 152 545 gemhead;
#X obj 135 582 tgl 15 0 empty empty empty 0 -6 0 8 -262144 -1 -1 1
1;
#X obj 158 563 tgl 15 0 empty empty empty 0 -6 0 8 -262144 -1 -1 0
1;
#X obj 207 608 tgl 15 0 empty empty empty 0 -6 0 8 -262144 -1 -1 0
1;
#X obj 264 586 tgl 15 0 empty empty empty 0 -6 0 8 -262144 -1 -1 0
1;
#X msg 207 624 left \$1;
#X msg 233 602 right \$1;
#X obj 48 620 tgl 15 0 empty empty empty 0 -6 0 8 -262144 -1 -1 0 1
;
#X obj 74 598 tgl 15 0 empty empty empty 0 -6 0 8 -262144 -1 -1 0 1
;
#X msg 74 614 up \$1;
#X msg 48 636 down \$1;
#X msg 240 558 reset;
#X msg 158 580 forward \$1;
#X msg 135 598 reverse \$1;
#X msg 39 752 speed \$1;
#X floatatom 36 731 5 0 0 0 - - -, f 5;
#X floatatom 40 695 5 0 0 0 - - -, f 5;
#X msg 352 650 lookX \$1;
#X msg 352 687 lookY \$1;
#X msg 352 723 lookZ \$1;
#X floatatom 352 634 5 0 0 0 - - -, f 5;
#X floatatom 352 707 5 0 0 0 - - -, f 5;
#X floatatom 352 670 5 0 0 0 - - -, f 5;
#X msg 40 713 distance \$1;
#X obj 1239 35 r vidClk;
#X obj 1242 71 twoColorStrobe;
#X obj 1411 30 tgl 31 0 empty empty empty 17 7 0 10 -262144 -1 -1 1
1;
#X obj 1165 261 gemhead 5;
#X obj 494 187 threeColorStrobe;
#X obj 778 148 tgl 30 0 empty empty empty 17 7 0 10 -262144 -1 -1 1
1;
#X obj 486 146 r vidClk;
#X obj 418 325 gemhead 4;
#X obj 1107 362 cnv 15 80 60 empty empty empty 20 12 0 14 -24198 -66577
0;
#X obj 1114 398 alpha;
#X msg 1130 341 auto \$1;
#X obj 1130 323 tgl 15 0 empty empty empty 0 -6 0 8 -262144 -1 -1 1
1;
#X obj 1133 375 tgl 15 0 empty empty empty 17 7 0 10 -262144 -1 -1
1 1;
#X floatatom 1157 375 2 0 19 0 - - -, f 2;
#X obj 574 392 cnv 15 80 60 empty empty empty 20 12 0 14 -24198 -66577
0;
#X obj 587 428 alpha;
#X msg 597 371 auto \$1;
#X obj 597 353 tgl 15 0 empty empty empty 0 -6 0 8 -262144 -1 -1 1
1;
#X obj 600 405 tgl 15 0 empty empty empty 17 7 0 10 -262144 -1 -1 1
1;
#X floatatom 624 405 2 0 19 0 - - -, f 2;
#X obj 259 -12 gemhead 1;
#X obj 676 415 shininess;
#X obj 708 389 hsl 128 15 0 127 0 0 empty empty empty -2 -8 0 10 -262144
-1 -1 0 1;
#X obj 331 -70 varColorStrobe;
#X obj 333 -107 r vidClk;
#X obj 766 -116 tgl 30 0 empty empty empty 17 7 0 10 -262144 -1 -1
1 1;
#X floatatom 487 -108 5 0 0 0 - - -, f 5;
#X obj 257 108 world_light;
#X obj 752 451 counter 360;
#X obj 755 408 tgl 15 0 empty empty empty 17 7 0 10 -262144 -1 -1 1
1;
#X msg 828 416 draw line;
#X msg 844 440 draw fill;
#X msg 864 460 draw point;
#X obj 552 490 3dSphere;
#X obj 1318 255 3dSphere;
#X obj 1471 126 counter -72 72;
#X obj 1232 296 emission;
#X obj 752 429 metro 30;
#X obj 485 360 specular;
#X connect 0 0 11 0;
#X connect 1 0 45 0;
#X connect 2 0 4 0;
#X connect 3 0 19 0;
#X connect 4 0 2 1;
#X connect 4 0 3 0;
#X connect 5 0 42 0;
#X connect 6 0 16 0;
#X connect 7 0 41 0;
#X connect 8 0 9 0;
#X connect 9 0 41 0;
#X connect 10 0 11 1;
#X connect 10 0 12 0;
#X connect 11 0 5 0;
#X connect 11 0 45 1;
#X connect 12 0 11 0;
#X connect 13 0 2 0;
#X connect 14 0 41 0;
#X connect 15 0 14 0;
#X connect 16 0 8 0;
#X connect 18 0 14 0;
#X connect 24 0 25 0;
#X connect 25 0 53 0;
#X connect 25 1 52 0;
#X connect 27 0 11 1;
#X connect 27 0 12 0;
#X connect 29 0 34 0;
#X connect 29 0 33 0;
#X connect 29 0 32 0;
#X connect 30 0 60 1;
#X connect 38 0 39 0;
#X connect 40 0 41 0;
#X connect 43 0 44 0;
#X connect 44 0 43 1;
#X connect 45 0 2 0;
#X connect 46 0 38 0;
#X connect 47 0 38 0;
#X connect 48 0 53 1;
#X connect 48 0 55 0;
#X connect 49 0 52 1;
#X connect 49 0 54 0;
#X connect 52 0 46 0;
#X connect 53 0 47 0;
#X connect 56 0 67 0;
#X connect 57 0 58 1;
#X connect 58 0 29 0;
#X connect 59 0 61 0;
#X connect 60 0 58 0;
#X connect 61 0 62 0;
#X connect 61 0 60 0;
#X connect 63 0 67 0;
#X connect 65 0 67 1;
#X connect 65 0 63 0;
#X connect 67 0 57 0;
#X connect 68 0 38 0;
#X connect 69 0 75 0;
#X connect 70 0 74 0;
#X connect 71 0 73 0;
#X connect 80 0 0 0;
#X connect 81 0 0 0;
#X connect 82 0 85 0;
#X connect 83 0 82 1;
#X connect 84 0 82 0;
#X connect 85 0 69 0;
#X connect 85 0 70 0;
#X connect 85 0 71 0;
#X connect 86 0 87 0;
#X connect 87 0 88 0;
#X connect 88 0 89 0;
#X connect 91 0 90 0;
#X connect 93 0 41 0;
#X connect 94 0 93 0;
#X connect 95 0 185 0;
#X connect 97 0 109 0;
#X connect 98 0 101 1;
#X connect 99 0 109 2;
#X connect 100 0 101 1;
#X connect 102 0 101 0;
#X connect 103 0 110 0;
#X connect 104 0 107 0;
#X connect 105 0 106 0;
#X connect 106 0 110 0;
#X connect 106 1 110 2;
#X connect 107 0 110 0;
#X connect 107 1 110 1;
#X connect 109 0 102 0;
#X connect 110 0 101 2;
#X connect 111 0 101 0;
#X connect 112 0 113 0;
#X connect 113 0 101 0;
#X connect 114 0 109 1;
#X connect 115 0 109 3;
#X connect 116 0 102 2;
#X connect 117 0 102 1;
#X connect 118 0 102 3;
#X connect 130 0 192 11;
#X connect 131 0 192 11;
#X connect 132 0 192 11;
#X connect 134 0 133 0;
#X connect 135 0 147 0;
#X connect 136 0 146 0;
#X connect 137 0 139 0;
#X connect 138 0 140 0;
#X connect 139 0 133 0;
#X connect 140 0 133 0;
#X connect 141 0 144 0;
#X connect 142 0 143 0;
#X connect 143 0 133 0;
#X connect 144 0 133 0;
#X connect 145 0 133 0;
#X connect 146 0 133 0;
#X connect 147 0 133 0;
#X connect 148 0 133 0;
#X connect 149 0 148 0;
#X connect 150 0 157 0;
#X connect 151 0 133 0;
#X connect 152 0 133 0;
#X connect 153 0 133 0;
#X connect 154 0 151 0;
#X connect 155 0 153 0;
#X connect 156 0 152 0;
#X connect 157 0 133 0;
#X connect 158 0 159 0;
#X connect 159 0 194 1;
#X connect 160 0 159 1;
#X connect 161 0 194 0;
#X connect 162 0 196 1;
#X connect 163 0 162 1;
#X connect 164 0 162 0;
#X connect 165 0 196 0;
#X connect 167 0 192 0;
#X connect 168 0 167 0;
#X connect 169 0 168 0;
#X connect 170 0 167 0;
#X connect 171 0 167 1;
#X connect 174 0 173 0;
#X connect 175 0 174 0;
#X connect 176 0 173 0;
#X connect 177 0 173 1;
#X connect 178 0 185 0;
#X connect 179 0 191 0;
#X connect 180 0 179 1;
#X connect 181 0 185 1;
#X connect 182 0 181 0;
#X connect 183 0 181 2;
#X connect 184 0 181 1;
#X connect 186 0 191 6;
#X connect 187 0 195 0;
#X connect 188 0 191 11;
#X connect 189 0 191 11;
#X connect 190 0 191 11;
#X connect 193 0 192 6;
#X connect 193 0 192 5;
#X connect 193 0 192 4;
#X connect 194 0 167 0;
#X connect 195 0 186 0;
#X connect 196 0 179 0;
