#N canvas -7 0 839 900 10;
#X obj 501 179 hsl 128 15 0 127 0 0 empty empty Max\ Size 10 5 0 10
-1 -258049 -262144 2400 1;
#X floatatom 448 159 7 0 0 0 - - -, f 7;
#X text 334 214 size;
#X obj 368 217 *;
#X msg 34 60 draw line;
#X msg 50 84 draw fill;
#X msg 70 104 draw point;
#X obj 163 224 rotateXYZ;
#X floatatom 448 96 7 0 0 0 - - -, f 7;
#X floatatom 448 115 7 0 0 0 - - -, f 7;
#X floatatom 448 134 7 0 0 0 - - -, f 7;
#X obj 187 259 polygon_smooth;
#X floatatom 448 35 7 0 0 0 - - -, f 7;
#X floatatom 448 54 7 0 0 0 - - -, f 7;
#X floatatom 448 73 7 0 0 0 - - -, f 7;
#X obj 136 144 translateXYZ;
#X obj 38 -20 inlet;
#X obj 499 39 hsl 128 15 -360 360 0 0 empty empty X\ Translation 10
5 0 10 -1 -258049 -262144 6350 1;
#X obj 499 57 hsl 128 15 -360 360 0 0 empty empty Y\ Translation 10
5 0 10 -1 -258049 -262144 6350 1;
#X obj 499 75 hsl 128 15 -360 360 0 0 empty empty Z\ Translation 10
5 0 10 -1 -258049 -262144 6350 1;
#X obj 500 98 hsl 128 15 -360 360 0 0 empty empty X\ Rotatation 10
5 0 10 -1 -258049 -262144 6562 1;
#X obj 500 117 hsl 128 15 -360 360 0 0 empty empty Y\ Rotatation 10
5 0 10 -1 -258049 -262144 6562 1;
#X obj 500 136 hsl 128 15 -360 360 0 0 empty empty Z\ Rotatation 10
5 0 10 -1 -258049 -262144 6562 1;
#X obj 501 160 hsl 128 15 0 1 0 0 empty empty Size 10 5 0 10 -1 -258049
-262144 1200 1;
#X obj 80 -19 inlet;
#X obj 122 -20 inlet;
#X obj 162 -18 inlet;
#X obj 206 -19 inlet;
#X obj 248 -20 inlet;
#X obj 288 -18 inlet;
#X obj 334 -18 inlet;
#X obj 374 -16 inlet;
#X obj 418 -18 inlet;
#X obj 458 -16 inlet;
#X obj 250 440 outlet;
#X obj 684 -16 loadbang;
#X obj 684 6 t 0;
#X msg 670 256 draw line;
#X msg 686 280 draw fill;
#X msg 706 300 draw point;
#X obj 692 213 inlet;
#X text 602 19 draw;
#X obj 250 408 triangle;
#X connect 0 0 3 1;
#X connect 1 0 42 1;
#X connect 3 0 1 0;
#X connect 4 0 42 0;
#X connect 5 0 42 0;
#X connect 6 0 42 0;
#X connect 7 0 11 0;
#X connect 8 0 7 1;
#X connect 9 0 7 2;
#X connect 10 0 7 3;
#X connect 11 0 42 0;
#X connect 12 0 15 1;
#X connect 13 0 15 2;
#X connect 14 0 15 3;
#X connect 15 0 7 0;
#X connect 16 0 15 0;
#X connect 17 0 12 0;
#X connect 18 0 13 0;
#X connect 19 0 14 0;
#X connect 20 0 8 0;
#X connect 21 0 9 0;
#X connect 22 0 10 0;
#X connect 23 0 3 0;
#X connect 24 0 17 0;
#X connect 24 0 12 0;
#X connect 25 0 18 0;
#X connect 25 0 13 0;
#X connect 26 0 19 0;
#X connect 26 0 14 0;
#X connect 27 0 20 0;
#X connect 27 0 8 0;
#X connect 28 0 21 0;
#X connect 28 0 9 0;
#X connect 29 0 22 0;
#X connect 29 0 10 0;
#X connect 30 0 23 0;
#X connect 31 0 0 0;
#X connect 35 0 36 0;
#X connect 36 0 17 0;
#X connect 36 0 18 0;
#X connect 36 0 19 0;
#X connect 36 0 20 0;
#X connect 36 0 21 0;
#X connect 36 0 22 0;
#X connect 37 0 42 0;
#X connect 38 0 42 0;
#X connect 39 0 42 0;
#X connect 40 0 42 0;
#X connect 42 0 34 0;
#X coords 0 -1 1 1 200 200 1 438 16;
