#N canvas 0 53 960 1027 10;
#X msg 324 71 bits 8;
#X msg 350 97 stopbit 0;
#X msg 410 157 parity 0;
#X text 477 156 parity 1=even \, -1=odd \, 0=off;
#X text 373 70 databits 5 \, 6 \, 7 \, 8;
#X obj 1649 36 r comctl;
#X obj 703 466 s comctl;
#X text 510 176 use handshake xon/off 1=on 0=off;
#X text 522 196 cts/rts hardwarehandshake 1=on 0=off;
#X msg 470 217 pollintervall 1;
#X msg 492 239 close;
#X msg 513 260 open 1;
#X text 531 238 Close Serial port;
#X text 560 259 Open serial port by number;
#X text 826 424 open the serial port by name;
#X msg 616 363 dtr \$1;
#X obj 585 364 tgl 15 0 empty empty empty 0 -6 0 8 -241291 -250685
-1 0 1;
#X obj 605 384 tgl 15 0 empty empty empty 0 -6 0 8 -241291 -258113
-1 0 1;
#X msg 636 383 rts \$1;
#X text 665 362 dtr output;
#X text 685 382 rts output;
#X msg 1640 17 help;
#X msg 595 342 verbose \$1;
#X obj 564 344 tgl 15 0 empty empty empty 0 -6 0 8 -241291 -250685
-1 0 1;
#X text 570 216 set poll interval for read in ms;
#X msg 1631 -1 info;
#X floatatom 852 70 10 0 0 1 baud - -;
#X floatatom 927 111 3 0 0 3 parity - -;
#X floatatom 952 111 3 0 0 2 stop - -;
#X floatatom 977 110 3 0 0 3 data - -;
#X floatatom 1053 72 3 0 0 0 port - -;
#X msg 554 301 devices;
#X text 612 300 print available devices (wait for it...);
#X obj 1002 76 tgl 15 0 empty empty rts/cts -10 20 1 11 -24198 -258699
-1 0 1;
#X obj 1028 92 tgl 15 0 empty empty xon/xoff -14 20 1 11 -24198 -258699
-1 0 1;
#X text 791 110 serial packet format:;
#X text 943 60 handshaking:;
#X text 742 140 flow control inputs:;
#X obj 877 142 tgl 15 0 empty empty dsr 0 20 1 11 -24198 -258699 -1
0 1;
#X obj 902 142 tgl 15 0 empty empty cts 0 20 1 11 -24198 -258699 -1
0 1;
#N canvas 305 89 789 479 bauds 0;
#X msg 319 274 baud 57600;
#X msg 357 312 baud 230400;
#X msg 338 293 baud 115200;
#X msg 300 255 baud 38400;
#X msg 281 236 baud 19200;
#X msg 262 217 baud 9600;
#X msg 243 198 baud 4800;
#X msg 224 179 baud 2400;
#X obj 431 403 s comctl;
#X msg 205 160 baud 1800;
#X msg 186 141 baud 1200;
#X msg 167 122 baud 600;
#X msg 148 103 baud 300;
#X msg 129 84 baud 200;
#X msg 91 46 baud 134;
#X msg 72 27 baud 110;
#X msg 53 8 baud 75;
#X msg 34 -11 baud 50;
#X msg 15 -30 baud 0;
#X msg 110 65 baud 150;
#X text 368 255 this is a special baud rate that can be configured
;
#X text 12 -48 standard baud rates for linux:;
#X text 64 -31 0 deasserts control lines and resets the serial port
;
#X text 435 312 won't work with standard setup. See setserial;
#X msg 431 231 baud \$1;
#X text 518 269 on-the-fly with setserial:;
#X text 519 298 gives 14400 baud instead of 38400;
#X text 517 284 "setserial /dev/ttyS0 spd_cust divisor 8";
#X msg 419 163 115200;
#X floatatom 392 104 7 1 115200 1 divisor - -;
#X obj 431 192 / 1;
#X obj 392 123 sel 0;
#X floatatom 431 212 7 0 0 0 - - -;
#X text 482 103 (1-115200);
#X obj 419 143 t b f;
#X text 390 86 On Windows some other baud rates might work:;
#X connect 0 0 8 0;
#X connect 1 0 8 0;
#X connect 2 0 8 0;
#X connect 3 0 8 0;
#X connect 4 0 8 0;
#X connect 5 0 8 0;
#X connect 6 0 8 0;
#X connect 7 0 8 0;
#X connect 9 0 8 0;
#X connect 10 0 8 0;
#X connect 11 0 8 0;
#X connect 12 0 8 0;
#X connect 13 0 8 0;
#X connect 14 0 8 0;
#X connect 15 0 8 0;
#X connect 16 0 8 0;
#X connect 17 0 8 0;
#X connect 18 0 8 0;
#X connect 19 0 8 0;
#X connect 24 0 8 0;
#X connect 28 0 30 0;
#X connect 29 0 31 0;
#X connect 30 0 32 0;
#X connect 31 1 34 0;
#X connect 32 0 24 0;
#X connect 34 0 28 0;
#X connect 34 1 30 1;
#X restore 324 47 pd bauds;
#X msg 430 177 xonxoff \$1;
#X obj 397 177 tgl 15 0 empty empty empty 0 -6 0 8 -241291 -250685
-1 0 1;
#X msg 450 197 rtscts \$1;
#X obj 418 197 tgl 15 0 empty empty empty 0 -6 0 8 -241291 -250685
-1 0 1;
#X obj 1078 73 tgl 15 0 empty empty open -6 20 1 11 -24198 -258699
-1 0 1;
#X msg 575 322 ports;
#X obj 1103 107 print port_list;
#X text 621 321 list available ports on right outlet;
#X msg 656 403 hupcl \$1;
#X obj 624 404 tgl 15 0 empty empty empty 17 7 0 10 -257985 -258113
-1 0 1;
#X text 714 396 hang up connection on last close;
#X text 727 408 (not on Windows);
#X obj 1217 63 print other;
#X obj 1128 70 tgl 15 0 empty empty hupcl -6 20 1 11 -24198 -258699
-1 0 1;
#X msg 462 120 1;
#X msg 492 120 1.5;
#X msg 523 120 2;
#X text 454 137 number of stopbits (Windows only);
#X msg 390 137 stopbit \$1;
#X text 413 96 extra stopbit 1=on \, 0=off (linux \, MacOS);
#X floatatom 1153 83 10 0 0 1 rxerrors - -;
#X obj 852 33 route baud dsr cts parity stop data rtscts xonxoff port
open ports hupcl rxerrors;
#X text 764 442 how many times to retry a lost connection;
#X text 771 216 (default is 1 tick 10ms);
#X obj 85 695 & 255;
#X obj 123 695 & 255;
#X obj 123 668 >> 8;
#X obj 1514 859 s label;
#X msg 1623 841 113;
#X msg 1619 818 117;
#X msg 45 867 231;
#X text -13 866 stopByte;
#X obj 1674 191 list-extend;
#X msg 1504 492 2;
#X msg 1510 514 3;
#X msg 1516 539 4;
#X msg 1522 560 5;
#X msg 1530 583 6;
#X msg 1538 602 7;
#X msg 1546 622 8;
#X msg 1554 642 9;
#X msg 1560 663 10;
#X msg 1568 683 11;
#X text -15 8 // ENTTEC DMX USB Pro Widget API Specification 1.44;
#X text 1521 469 #0x01 // reprogram firmware request;
#X text 1537 514 #0x03 // get widget parameters request/reply;
#X text 1544 537 #0x04 // set widget parameter request;
#X text 1551 561 #0x05 // received DMX packet;
#X text 1557 583 #0x06 // send only DMX request;
#X text 1564 605 #0x07 // send RDM packet request;
#X text 1572 621 #0x08 // receive DMX on change;
#X text 1580 641 #0x09 // received DMX change of state packet;
#X text 1586 662 #0x0A // get widget serial number request/reply;
#X text 1593 682 #0x0B // send RDM discovery request;
#X msg 1574 705 97;
#X text 1600 703 #'a' // DMX512 master 'ascii' reply;
#X msg 1498 469 1;
#X text 1527 490 #0x02 // program flash page request/reply;
#X msg 1614 798 116;
#X msg 1590 744 105;
#X msg 1581 725 104;
#X msg 1606 779 114;
#X text 1604 724 #'h' // DMX512 master help;
#X text 1679 693 // NXP proprietary messages;
#X text 1612 743 #'i' // DMX512 master info;
#X msg 1598 762 109;
#X text 1622 761 #'m' // DMX512 master monitoring;
#X text 1653 816 #'u' // DMX512 master uptime info;
#X text 1643 798 #'t' // DMX512 master timestamp info;
#X obj 1660 53 r comtx;
#X obj 92 925 s comtx;
#X obj 112 806 bng 15 250 50 0 empty empty empty 17 7 0 10 -262144
-1 -1;
#X obj 69 807 bng 15 250 50 0 empty empty empty 17 7 0 10 -262144 -1
-1;
#X text 1653 840 #'q' // quit?;
#X obj 1647 412 s rstRead;
#X obj 1659 388 s comtx;
#X obj 175 669 vsl 15 128 0 1023 0 0 empty empty empty 0 -9 0 10 -262144
-1 -1 0 1;
#X msg 676 423 devicename /dev/ttyACM0;
#X obj 1702 143 tgl 15 0 empty empty empty 17 7 0 10 -262144 -1 -1
0 1;
#X obj 1674 214 spigot;
#X obj 1711 115 == 231;
#X obj 1702 163 t b;
#X obj 1650 114 r rstRead;
#X obj 175 806 int;
#X msg 695 443 retries 0;
#X obj 75 747 t b b;
#X obj 89 868 tgl 15 0 empty empty empty 17 7 0 10 -262144 -1 -1 0
1;
#X obj 92 898 spigot;
#X obj 54 723 pack 126 6 i i 0;
#X obj 54 698 bng 15 250 50 0 empty empty empty 17 7 0 10 -262144 -1
-1;
#X obj 1650 338 bng 15 250 50 0 empty empty empty 17 7 0 10 -262144
-1 -1;
#X obj 1659 364 pack 126 i 0 0 231;
#X msg 1698 335 117;
#X text 1732 333 #'u' // DMX512 master uptime info;
#X msg 1692 313 105;
#X msg 1683 294 104;
#X text 1706 293 #'h' // DMX512 master help;
#X text 1714 312 #'i' // DMX512 master info;
#X obj 107 772 for++ 1 25;
#X obj 33 637 tgl 15 0 empty empty empty 17 7 0 10 -262144 -1 -1 0
1;
#X obj 112 827 tgl 15 0 empty empty empty 17 7 0 10 -262144 -1 -1 0
1;
#X obj 91 641 + 1;
#X obj 99 612 loadbang;
#X msg 136 640 25;
#X floatatom 112 874 5 0 0 0 - - -;
#X obj 112 849 * 255;
#X obj 274 658 vsl 15 128 0 255 0 0 empty empty empty 0 -9 0 10 -258113
-1 -1 0 1;
#X obj 274 797 int;
#X obj 299 658 vsl 15 128 0 255 0 0 empty empty empty 0 -9 0 10 -4034
-1 -1 0 1;
#X obj 299 797 int;
#X obj 324 658 vsl 15 128 0 255 0 0 empty empty empty 0 -9 0 10 -4160
-1 -1 0 1;
#X obj 324 797 int;
#X obj 349 658 vsl 15 128 0 255 0 0 empty empty empty 0 -9 0 10 -262144
-1 -1 0 1;
#X obj 349 797 int;
#X obj 375 658 vsl 15 128 0 255 0 0 empty empty empty 0 -9 0 10 -258113
-1 -1 0 1;
#X obj 374 797 int;
#X obj 400 658 vsl 15 128 0 255 0 0 empty empty empty 0 -9 0 10 -4160
-1 -1 0 1;
#X obj 399 797 int;
#X obj 424 658 vsl 15 128 0 255 0 0 empty empty empty 0 -9 0 10 -4034
-1 -1 0 1;
#X obj 424 797 int;
#X obj 449 658 vsl 15 128 0 255 0 0 empty empty empty 0 -9 0 10 -262144
-1 -1 0 1;
#X obj 449 797 int;
#X obj 474 658 vsl 15 128 0 255 0 0 empty empty empty 0 -9 0 10 -262144
-1 -1 0 1;
#X obj 474 797 int;
#X obj 499 658 vsl 15 128 0 255 0 0 empty empty empty 0 -9 0 10 -262144
-1 -1 0 1;
#X obj 499 797 int;
#X obj 524 658 vsl 15 128 0 255 0 0 empty empty empty 0 -9 0 10 -258113
-1 -1 0 1;
#X obj 524 797 int;
#X obj 549 658 vsl 15 128 0 255 0 0 empty empty empty 0 -9 0 10 -4160
-1 -1 0 1;
#X obj 549 797 int;
#X obj 574 658 vsl 15 128 0 255 0 0 empty empty empty 0 -9 0 10 -4034
-1 -1 0 1;
#X obj 574 797 int;
#X obj 599 658 vsl 15 128 0 255 0 0 empty empty empty 0 -9 0 10 -262144
-1 -1 0 1;
#X obj 599 797 int;
#X obj 624 658 vsl 15 128 0 255 0 0 empty empty empty 0 -9 0 10 -262144
-1 -1 0 1;
#X obj 624 797 int;
#X obj 649 658 vsl 15 128 0 255 0 0 empty empty empty 0 -9 0 10 -262144
-1 -1 0 1;
#X obj 649 797 int;
#X obj 674 658 vsl 15 128 0 255 0 0 empty empty empty 0 -9 0 10 -258113
-1 -1 0 1;
#X obj 674 797 int;
#X obj 699 658 vsl 15 128 0 255 0 0 empty empty empty 0 -9 0 10 -4160
-1 -1 0 1;
#X obj 699 797 int;
#X obj 724 658 vsl 15 128 0 255 0 0 empty empty empty 0 -9 0 10 -4034
-1 -1 0 1;
#X obj 724 797 int;
#X obj 749 658 vsl 15 128 0 255 0 0 empty empty empty 0 -9 0 10 -262144
-1 -1 0 1;
#X obj 749 797 int;
#X obj 774 658 vsl 15 128 0 255 0 0 empty empty empty 0 -9 0 10 -262144
-1 -1 0 1;
#X obj 774 797 int;
#X obj 799 658 vsl 15 128 0 255 0 0 empty empty empty 0 -9 0 10 -262144
-1 -1 0 1;
#X obj 799 797 int;
#X obj 824 658 vsl 15 128 0 255 0 0 empty empty empty 0 -9 0 10 -262144
-1 -1 0 1;
#X obj 824 797 int;
#X obj 849 658 vsl 15 128 0 255 0 0 empty empty empty 0 -9 0 10 -262144
-1 -1 0 1;
#X obj 849 797 int;
#X obj 874 658 vsl 15 128 0 255 0 0 empty empty empty 0 -9 0 10 -262144
-1 -1 0 1;
#X obj 874 797 int;
#X obj 262 871 bng 15 250 50 0 empty empty empty 17 7 0 10 -262144
-1 -1;
#X obj 258 825 tgl 15 0 empty empty empty 17 7 0 10 -262144 -1 -1 0
1;
#X obj 325 915 s comtx;
#X obj 325 879 pack 126 6 26 0 0 i i i i i i i i i i i i i i i i i
i i i i i i i i 231;
#X obj 295 559 tgl 15 0 empty empty empty 17 7 0 10 -262144 -1 -1 0
1;
#X floatatom 295 606 5 0 0 0 - - -;
#X obj 295 581 * 255;
#X obj 334 559 tgl 15 0 empty empty empty 17 7 0 10 -262144 -1 -1 0
1;
#X floatatom 334 606 5 0 0 0 - - -;
#X obj 334 581 * 255;
#X obj 373 558 tgl 15 0 empty empty empty 17 7 0 10 -262144 -1 -1 0
1;
#X floatatom 373 605 5 0 0 0 - - -;
#X obj 373 580 * 255;
#X obj 247 904 s flicker;
#X obj 76 118 r flicker;
#X obj 1292 507 rectangle 4 3;
#X obj 1292 473 pix_texture;
#X obj 1293 294 pix_video;
#N canvas 1202 571 682 322 gemwin 0;
#X obj 102 122 tgl 15 0 \$0-gemstart \$0-gemstart empty 17 7 0 10 -262144
-1 -1 0 1;
#X obj 102 161 r \$0-gemstart;
#X obj 102 182 select 1 0;
#X msg 102 214 create \, 1;
#X msg 177 215 destroy;
#X obj 102 239 t a;
#X obj 318 54 inlet;
#X obj 318 255 gemwin;
#X obj 318 100 t a a;
#X obj 318 287 outlet;
#X obj 350 128 route create destroy;
#X obj 350 150 t b;
#X msg 350 172 1;
#X obj 390 150 t b;
#X msg 390 172 0;
#X obj 350 195 t f;
#X msg 350 219 set \$1;
#X text 118 122 rendering;
#X connect 1 0 2 0;
#X connect 2 0 3 0;
#X connect 2 1 4 0;
#X connect 3 0 5 0;
#X connect 4 0 5 0;
#X connect 5 0 8 0;
#X connect 6 0 8 0;
#X connect 7 0 9 0;
#X connect 8 0 7 0;
#X connect 8 1 10 0;
#X connect 10 0 11 0;
#X connect 10 1 13 0;
#X connect 11 0 12 0;
#X connect 12 0 15 0;
#X connect 13 0 14 0;
#X connect 14 0 15 0;
#X connect 15 0 16 0;
#X connect 16 0 0 0;
#X coords 0 -1 1 1 85 40 1 100 100;
#X restore 1550 364 pd gemwin;
#X msg 1412 246 applyProps;
#X msg 1321 257 device 10;
#X msg 1514 301 dimen 1024 768;
#X msg 1478 277 reset;
#X text 349 637 Master;
#X text 439 639 Mode;
#X text 460 629 Speed;
#X text 1060 173 sudo modprobe v4l2loopback video_nr=10;
#X text 1061 187 sudo gst-launch -v http://192.168.3.252:31337/video
! jpegdec ! v4l2sink device = /dev/video10;
#X obj 33 660 metro 15;
#X obj 247 281 float;
#X floatatom 305 308 0 0 0 0 - - -;
#X obj 301 282 + 1;
#X obj 247 215 tgl 15 0 empty empty empty 17 7 0 10 -262144 -1 -1 0
1;
#X obj 247 234 metro 3000;
#X msg 247 255 -1;
#X obj 357 496 sel 0 1 2;
#X msg 1317 147 device 0;
#X floatatom 413 522 5 0 0 0 - - -;
#X floatatom 348 521 5 0 0 0 - - -;
#X floatatom 382 521 5 0 0 0 - - -;
#X obj 252 477 vsl 15 128 0 255 0 0 empty empty empty 0 -9 0 10 -262144
-1 -1 0 1;
#X obj 252 613 int;
#X text 1631 778 #'r' // DMX512 master measured refresh rate;
#X floatatom 359 323 5 0 0 0 - - -;
#X obj 362 173 tgl 15 0 empty empty empty 17 7 0 10 -262144 -1 -1 0
1;
#X obj 364 205 sel 0 1;
#X msg 358 247 255 5000;
#X obj 342 297 line 0 50;
#X msg 424 248 0 5000;
#X obj 168 864 line 15 120;
#X obj 210 745 tgl 15 0 empty empty empty 17 7 0 10 -262144 -1 -1 0
1;
#X obj 212 777 sel 0 1;
#X msg 198 830 15 10000;
#X floatatom 178 911 5 0 0 0 - - -;
#X msg 228 682 stop;
#X msg 202 799 30 10000;
#X floatatom 1439 302 5 1 30 0 - - -;
#X msg 1446 340 frame \$1;
#X msg 1410 165 setProps Saturation 100;
#X msg 1408 220 setProps Contrast 1;
#X obj 1169 295 pix_video;
#X msg 1197 258 device 0;
#X obj 1170 222 gemhead 50;
#X obj 1291 225 gemhead 51;
#X obj 1168 391 pix_alpha;
#X obj 1148 434 pix_composite;
#X obj 1071 254 vsl 15 128 0 1 0 0 empty empty empty 0 -9 0 10 -262144
-1 -1 0 1;
#X floatatom 1085 442 5 0 0 0 - - -;
#X msg 1245 367 0 0 0;
#X obj 1111 238 vsl 15 128 0 1 0 0 empty empty empty 0 -9 0 10 -262144
-1 -1 0 1;
#X msg 1206 337 1 1 1;
#X obj 178 546 adc~ 1;
#X floatatom 734 927 5 0 0 0 - - -;
#X obj 734 903 spigot;
#X obj 797 880 tgl 15 0 empty empty empty 17 7 0 10 -262144 -1 -1 0
1;
#X text 827 880 <- Click to get amplitude of channel 1;
#X text 777 927 RMS amplitude (dB);
#X obj 133 457 vsl 15 128 0 1023 0 0 empty empty empty 0 -9 0 10 -262144
-1 -1 0 1;
#X obj 258 848 metro 20;
#X text 499 634 #3;
#X obj 898 425 vsl 15 128 0 255 0 0 empty empty empty 0 -9 0 10 -262144
-1 -1 0 1;
#X obj 891 561 int;
#X obj 488 556 tgl 15 0 empty empty empty 17 7 0 10 -262144 -1 -1 0
1;
#X floatatom 488 603 5 0 0 0 - - -;
#X obj 488 578 * 255;
#X obj 527 556 tgl 15 0 empty empty empty 17 7 0 10 -262144 -1 -1 0
1;
#X floatatom 527 603 5 0 0 0 - - -;
#X obj 527 578 * 255;
#X obj 566 555 tgl 15 0 empty empty empty 17 7 0 10 -262144 -1 -1 0
1;
#X floatatom 566 602 5 0 0 0 - - -;
#X obj 566 577 * 255;
#X floatatom 606 519 5 0 0 0 - - -;
#X floatatom 541 518 5 0 0 0 - - -;
#X floatatom 575 518 5 0 0 0 - - -;
#X obj 919 423 vsl 15 128 0 255 0 0 empty empty empty 0 -9 0 10 -262144
-1 -1 0 1;
#X obj 916 560 int;
#X obj 938 420 vsl 15 128 0 255 0 0 empty empty empty 0 -9 0 10 -262144
-1 -1 0 1;
#X obj 947 558 int;
#X obj 1259 764 mtof;
#X obj 670 64 loadbang;
#X obj 175 624 +;
#X obj 152 457 vsl 15 128 0 20 0 1 empty empty empty 0 -9 0 10 -262144
-1 -1 12700 1;
#X obj 173 597 *;
#X obj 209 603 * -1;
#X text 590 639 Mode;
#X text 611 627 Speed;
#X text 650 634 #4;
#X text 738 640 Mode;
#X text 759 630 Speed;
#X text 798 635 #5;
#X obj 112 456 vsl 15 128 0 127 0 0 empty empty empty 0 -9 0 10 -262144
-1 -1 0 1;
#X obj 176 644 +;
#X text 103 436 fine/course;
#X obj 361 468 % 3;
#X obj 194 241 spigot;
#X obj 226 212 tgl 15 0 empty empty empty 17 7 0 10 -262144 -1 -1 0
1;
#X obj 359 439 spigot;
#X obj 380 418 tgl 15 0 empty empty empty 17 7 0 10 -262144 -1 -1 0
1;
#X obj 464 486 tgl 15 0 empty empty empty 17 7 0 10 -262144 -1 -1 0
43501;
#X obj 463 462 t b;
#X obj 463 439 spigot;
#X obj 484 418 tgl 15 0 empty empty empty 17 7 0 10 -262144 -1 -1 0
1;
#X floatatom 289 518 5 0 0 0 - - -;
#X obj 289 493 * 255;
#X floatatom 492 517 5 0 0 0 - - -;
#X obj 492 492 * 255;
#X obj 971 506 vsl 15 128 0 255 0 0 empty empty empty 0 -9 0 10 -262144
-1 -1 0 1;
#X obj 971 642 int;
#X obj 999 504 vsl 15 128 0 255 0 0 empty empty empty 0 -9 0 10 -262144
-1 -1 0 1;
#X obj 998 638 int;
#X obj 1025 502 vsl 15 128 0 255 0 0 empty empty empty 0 -9 0 10 -262144
-1 -1 0 1;
#X obj 1027 639 int;
#X obj 631 507 vsl 15 64 0 255 0 0 empty empty empty 0 -9 0 10 -262144
-1 -1 0 1;
#X obj 632 582 int;
#X obj 654 508 vsl 15 64 0 255 0 0 empty empty empty 0 -9 0 10 -262144
-1 -1 0 1;
#X obj 654 581 int;
#X obj 676 507 vsl 15 64 0 255 0 0 empty empty empty 0 -9 0 10 -262144
-1 -1 0 1;
#X obj 677 582 int;
#X obj 719 508 vsl 15 64 0 255 0 0 empty empty empty 0 -9 0 10 -262144
-1 -1 0 1;
#X obj 719 582 int;
#X obj 742 509 vsl 15 64 0 255 0 0 empty empty empty 0 -9 0 10 -262144
-1 -1 0 1;
#X obj 741 581 int;
#X obj 764 508 vsl 15 64 0 255 0 0 empty empty empty 0 -9 0 10 -262144
-1 -1 0 1;
#X obj 764 582 int;
#X text 984 480 R B G;
#X text 909 404 comment;
#X text 727 485 comment;
#X text 639 484 comment;
#X text 909 397 R B G;
#X text 733 487 R B G;
#X text 641 485 R B G;
#X obj 581 468 t b;
#X obj 565 432 sel 0 1;
#X obj 621 464 t b;
#X obj 467 318 spigot;
#X obj 488 297 tgl 15 0 empty empty empty 17 7 0 10 -262144 -1 -1 0
1;
#X obj 491 353 % 2;
#X obj 175 571 env~ 4096;
#X msg 534 281 open 32;
#X obj 1652 88 comport 0 230400;
#X connect 0 0 6 0;
#X connect 1 0 6 0;
#X connect 2 0 6 0;
#X connect 5 0 356 0;
#X connect 9 0 6 0;
#X connect 10 0 6 0;
#X connect 11 0 6 0;
#X connect 15 0 6 0;
#X connect 16 0 15 0;
#X connect 17 0 18 0;
#X connect 18 0 6 0;
#X connect 21 0 356 0;
#X connect 22 0 6 0;
#X connect 23 0 22 0;
#X connect 25 0 356 0;
#X connect 31 0 6 0;
#X connect 41 0 6 0;
#X connect 42 0 41 0;
#X connect 43 0 6 0;
#X connect 44 0 43 0;
#X connect 46 0 6 0;
#X connect 49 0 6 0;
#X connect 50 0 49 0;
#X connect 55 0 59 0;
#X connect 56 0 59 0;
#X connect 57 0 59 0;
#X connect 59 0 6 0;
#X connect 62 0 26 0;
#X connect 62 1 38 0;
#X connect 62 2 39 0;
#X connect 62 3 27 0;
#X connect 62 4 28 0;
#X connect 62 5 29 0;
#X connect 62 6 33 0;
#X connect 62 7 34 0;
#X connect 62 8 30 0;
#X connect 62 9 45 0;
#X connect 62 10 47 0;
#X connect 62 11 54 0;
#X connect 62 12 61 0;
#X connect 62 13 53 0;
#X connect 65 0 129 2;
#X connect 66 0 129 3;
#X connect 67 0 66 0;
#X connect 69 0 68 0;
#X connect 70 0 68 0;
#X connect 71 0 111 0;
#X connect 73 0 120 0;
#X connect 74 0 68 0;
#X connect 75 0 68 0;
#X connect 76 0 68 0;
#X connect 77 0 68 0;
#X connect 78 0 68 0;
#X connect 79 0 68 0;
#X connect 80 0 68 0;
#X connect 81 0 68 0;
#X connect 82 0 68 0;
#X connect 83 0 68 0;
#X connect 95 0 68 0;
#X connect 97 0 68 0;
#X connect 99 0 68 0;
#X connect 100 0 68 0;
#X connect 101 0 68 0;
#X connect 102 0 68 0;
#X connect 106 0 68 0;
#X connect 110 0 356 0;
#X connect 112 0 71 0;
#X connect 112 0 127 0;
#X connect 112 0 141 0;
#X connect 113 0 145 0;
#X connect 117 0 124 0;
#X connect 118 0 6 0;
#X connect 119 0 120 1;
#X connect 119 0 122 0;
#X connect 121 0 119 0;
#X connect 122 0 73 0;
#X connect 123 0 73 1;
#X connect 123 0 119 0;
#X connect 124 0 146 1;
#X connect 124 0 246 0;
#X connect 125 0 6 0;
#X connect 126 0 139 0;
#X connect 126 1 127 0;
#X connect 127 0 128 1;
#X connect 128 0 111 0;
#X connect 129 0 111 0;
#X connect 129 0 126 0;
#X connect 130 0 129 0;
#X connect 131 0 115 0;
#X connect 131 0 132 0;
#X connect 132 0 116 0;
#X connect 133 0 132 1;
#X connect 133 0 131 0;
#X connect 135 0 132 1;
#X connect 135 0 131 0;
#X connect 136 0 132 1;
#X connect 136 0 131 0;
#X connect 139 0 113 0;
#X connect 139 1 112 0;
#X connect 140 0 225 0;
#X connect 141 0 146 0;
#X connect 142 0 67 0;
#X connect 142 0 65 0;
#X connect 143 0 144 0;
#X connect 144 0 142 0;
#X connect 144 0 139 1;
#X connect 145 0 128 0;
#X connect 146 0 145 0;
#X connect 147 0 148 0;
#X connect 148 0 200 5;
#X connect 149 0 150 0;
#X connect 150 0 200 6;
#X connect 151 0 152 0;
#X connect 152 0 200 7;
#X connect 153 0 154 0;
#X connect 154 0 200 8;
#X connect 155 0 156 0;
#X connect 156 0 200 9;
#X connect 157 0 158 0;
#X connect 158 0 200 10;
#X connect 159 0 160 0;
#X connect 160 0 200 11;
#X connect 161 0 162 0;
#X connect 162 0 200 12;
#X connect 163 0 164 0;
#X connect 164 0 200 13;
#X connect 165 0 166 0;
#X connect 166 0 200 14;
#X connect 167 0 168 0;
#X connect 168 0 200 15;
#X connect 169 0 170 0;
#X connect 170 0 200 16;
#X connect 171 0 172 0;
#X connect 172 0 200 17;
#X connect 173 0 174 0;
#X connect 174 0 200 18;
#X connect 175 0 176 0;
#X connect 176 0 200 19;
#X connect 177 0 178 0;
#X connect 178 0 200 20;
#X connect 179 0 180 0;
#X connect 180 0 200 21;
#X connect 181 0 182 0;
#X connect 182 0 200 22;
#X connect 183 0 184 0;
#X connect 184 0 200 23;
#X connect 185 0 186 0;
#X connect 186 0 200 24;
#X connect 187 0 188 0;
#X connect 188 0 200 25;
#X connect 189 0 190 0;
#X connect 190 0 200 26;
#X connect 191 0 192 0;
#X connect 192 0 200 27;
#X connect 193 0 194 0;
#X connect 194 0 200 28;
#X connect 195 0 196 0;
#X connect 196 0 200 29;
#X connect 197 0 200 0;
#X connect 197 0 210 0;
#X connect 198 0 275 0;
#X connect 200 0 199 0;
#X connect 201 0 203 0;
#X connect 202 0 147 0;
#X connect 202 0 155 0;
#X connect 203 0 202 0;
#X connect 204 0 206 0;
#X connect 205 0 149 0;
#X connect 205 0 157 0;
#X connect 206 0 205 0;
#X connect 207 0 209 0;
#X connect 208 0 151 0;
#X connect 208 0 159 0;
#X connect 209 0 208 0;
#X connect 211 0 311 0;
#X connect 213 0 212 0;
#X connect 214 0 213 0;
#X connect 216 0 214 0;
#X connect 218 0 215 0;
#X connect 219 0 215 0;
#X connect 225 0 130 0;
#X connect 226 0 228 0;
#X connect 227 0 313 0;
#X connect 227 0 317 0;
#X connect 227 0 351 0;
#X connect 228 0 226 1;
#X connect 228 0 227 0;
#X connect 229 0 230 0;
#X connect 230 0 231 0;
#X connect 231 0 226 0;
#X connect 232 0 235 0;
#X connect 232 0 201 0;
#X connect 232 0 279 0;
#X connect 232 0 289 0;
#X connect 232 1 236 0;
#X connect 232 1 204 0;
#X connect 232 1 282 0;
#X connect 232 1 290 0;
#X connect 232 2 234 0;
#X connect 232 2 207 0;
#X connect 232 2 285 0;
#X connect 232 2 288 0;
#X connect 233 0 214 0;
#X connect 234 0 201 0;
#X connect 234 0 204 0;
#X connect 235 0 204 0;
#X connect 235 0 207 0;
#X connect 236 0 201 0;
#X connect 236 0 207 0;
#X connect 237 0 238 0;
#X connect 238 0 153 0;
#X connect 238 0 165 0;
#X connect 241 0 242 0;
#X connect 242 0 245 0;
#X connect 242 1 243 0;
#X connect 243 0 244 0;
#X connect 244 0 237 0;
#X connect 244 0 240 0;
#X connect 245 0 244 0;
#X connect 246 0 250 0;
#X connect 246 0 275 1;
#X connect 247 0 248 0;
#X connect 248 0 252 0;
#X connect 248 1 249 0;
#X connect 249 0 246 0;
#X connect 251 0 246 0;
#X connect 252 0 246 0;
#X connect 253 0 254 0;
#X connect 254 0 215 0;
#X connect 255 0 214 0;
#X connect 256 0 214 0;
#X connect 257 0 261 0;
#X connect 258 0 257 0;
#X connect 259 0 257 0;
#X connect 260 0 214 0;
#X connect 261 0 262 0;
#X connect 263 0 261 1;
#X connect 263 0 264 0;
#X connect 265 0 261 4;
#X connect 266 0 261 2;
#X connect 267 0 261 3;
#X connect 268 0 354 0;
#X connect 270 0 269 0;
#X connect 271 0 270 1;
#X connect 274 0 297 1;
#X connect 275 0 197 0;
#X connect 277 0 278 0;
#X connect 278 0 281 1;
#X connect 278 0 203 1;
#X connect 279 0 281 0;
#X connect 280 0 167 0;
#X connect 281 0 280 0;
#X connect 282 0 284 0;
#X connect 283 0 169 0;
#X connect 284 0 283 0;
#X connect 285 0 287 0;
#X connect 286 0 171 0;
#X connect 287 0 286 0;
#X connect 288 0 279 0;
#X connect 288 0 282 0;
#X connect 289 0 282 0;
#X connect 289 0 285 0;
#X connect 290 0 279 0;
#X connect 290 0 285 0;
#X connect 291 0 292 0;
#X connect 292 0 206 1;
#X connect 292 0 284 1;
#X connect 293 0 294 0;
#X connect 294 0 209 1;
#X connect 294 0 287 1;
#X connect 296 0 355 0;
#X connect 297 0 308 0;
#X connect 298 0 299 1;
#X connect 299 0 300 0;
#X connect 300 0 297 0;
#X connect 307 0 308 1;
#X connect 308 0 117 0;
#X connect 310 0 232 0;
#X connect 311 0 226 0;
#X connect 312 0 311 1;
#X connect 313 0 310 0;
#X connect 314 0 313 1;
#X connect 315 0 322 0;
#X connect 315 0 320 0;
#X connect 316 0 315 0;
#X connect 317 0 316 0;
#X connect 318 0 317 1;
#X connect 319 0 153 0;
#X connect 320 0 319 0;
#X connect 321 0 165 0;
#X connect 322 0 321 0;
#X connect 323 0 324 0;
#X connect 324 0 147 0;
#X connect 324 0 155 0;
#X connect 324 0 167 0;
#X connect 325 0 326 0;
#X connect 326 0 157 0;
#X connect 326 0 151 0;
#X connect 326 0 169 0;
#X connect 327 0 328 0;
#X connect 328 0 149 0;
#X connect 328 0 159 0;
#X connect 328 0 171 0;
#X connect 329 0 330 0;
#X connect 330 0 147 0;
#X connect 330 0 155 0;
#X connect 330 0 167 0;
#X connect 331 0 332 0;
#X connect 332 0 151 0;
#X connect 332 0 157 0;
#X connect 332 0 169 0;
#X connect 333 0 334 0;
#X connect 334 0 171 0;
#X connect 334 0 159 0;
#X connect 334 0 149 0;
#X connect 335 0 336 0;
#X connect 336 0 167 0;
#X connect 336 0 155 0;
#X connect 336 0 147 0;
#X connect 337 0 338 0;
#X connect 338 0 169 0;
#X connect 338 0 157 0;
#X connect 338 0 151 0;
#X connect 339 0 340 0;
#X connect 340 0 171 0;
#X connect 340 0 159 0;
#X connect 340 0 149 0;
#X connect 348 0 329 0;
#X connect 348 0 331 0;
#X connect 348 0 333 0;
#X connect 349 0 348 0;
#X connect 349 1 350 0;
#X connect 350 0 335 0;
#X connect 350 0 337 0;
#X connect 350 0 339 0;
#X connect 351 0 353 0;
#X connect 352 0 351 1;
#X connect 353 0 349 0;
#X connect 354 0 299 0;
#X connect 355 0 6 0;
#X connect 356 0 73 0;
#X connect 356 0 121 0;
#X connect 356 1 62 0;
