#N canvas 1296 355 561 556 10;
#X obj 33 259 cnv 15 170 250 empty empty empty 20 12 0 14 -228992 -66577
0;
#X text 37 242 Example:;
#X obj 34 300 cnv 15 160 60 empty empty empty 20 12 0 14 -24198 -66577
0;
#X floatatom 63 304 3 0 1 0 - - -;
#X floatatom 92 304 3 0 1 0 - - -;
#X floatatom 120 304 3 0 1 0 - - -;
#X floatatom 149 304 3 0 1 0 - - -;
#X obj 35 338 colorRGB 0 1 0;
#X obj 109 21 hsl 128 15 1 1000 0 0 empty empty empty -2 -8 0 10 -262144
-1 -1 0 1;
#X obj 56 38 tgl 15 0 empty empty empty 17 7 0 10 -262144 -1 -1 1 1
;
#X obj 42 119 float;
#X floatatom 93 146 0 0 0 0 - - -;
#X obj 96 120 + 1;
#X obj 64 72 metro 100;
#X obj 116 268 tgl 15 0 empty empty empty 17 7 0 10 -262144 -1 -1 0
1;
#X obj 144 267 tgl 15 0 empty empty empty 17 7 0 10 -262144 -1 -1 1
1;
#X obj 90 194 sel 0 1 2;
#X floatatom 160 229 5 0 0 0 - - -;
#X floatatom 96 229 5 0 0 0 - - -;
#X floatatom 129 230 5 0 0 0 - - -;
#X obj 90 269 tgl 15 0 empty empty empty 17 7 0 10 -262144 -1 -1 0
1;
#X floatatom 132 74 5 0 0 0 - - -;
#X floatatom 152 339 5 0 0 0 - - -;
#X text 152 323 size;
#X obj 216 208 vsl 15 128 0 127 0 0 empty empty empty 0 -9 0 10 -262144
-1 -1 700 1;
#X obj 206 141 loadbang;
#X msg 343 110 reset;
#X floatatom 275 128 5 1 60 0 - - -;
#X msg 277 157 frame \$1;
#N canvas 1196 571 682 322 gemwin 0;
#X obj 102 122 tgl 15 0 \$0-gemstart \$0-gemstart empty 17 7 0 10 -262144
-1 -1 1 1;
#X obj 102 161 r \$0-gemstart;
#X obj 102 182 select 1 0;
#X msg 102 214 create \, 1;
#X msg 177 215 destroy;
#X obj 102 239 t a;
#X obj 318 54 inlet;
#X obj 318 255 gemwin;
#X obj 311 96 t a a;
#X obj 318 287 outlet;
#X obj 350 128 route create destroy;
#X obj 350 150 t b;
#X msg 350 172 1;
#X obj 390 150 t b;
#X msg 390 172 0;
#X obj 350 195 t f;
#X msg 350 219 set \$1;
#X text 118 122 rendering;
#X obj 112 22 key;
#X obj 111 47 select 113;
#X obj 113 68 t b;
#X connect 1 0 2 0;
#X connect 2 0 3 0;
#X connect 2 1 4 0;
#X connect 3 0 5 0;
#X connect 4 0 5 0;
#X connect 5 0 8 0;
#X connect 6 0 8 0;
#X connect 7 0 9 0;
#X connect 8 0 7 0;
#X connect 8 1 10 0;
#X connect 10 0 11 0;
#X connect 10 1 13 0;
#X connect 11 0 12 0;
#X connect 12 0 15 0;
#X connect 13 0 14 0;
#X connect 14 0 15 0;
#X connect 15 0 16 0;
#X connect 16 0 0 0;
#X connect 18 0 19 0;
#X connect 19 0 20 0;
#X connect 20 0 0 0;
#X coords 0 -1 1 1 85 40 1 100 100;
#X restore 346 181 pd gemwin 60;
#X obj 17 266 gemhead 1;
#X obj 41 418 square;
#X obj 202 49 hsl 128 15 0 16 0 0 empty empty empty -2 -8 0 10 -262144
-1 -1 12400 1;
#X obj 133 49 +;
#X obj 255 75 t b;
#X obj 91 169 % 3;
#X msg 19 70 0;
#X msg 167 186 0;
#X obj 158 132 % 2;
#X obj 152 157 sel 0 1;
#X obj 163 108 spigot;
#X obj 181 82 tgl 15 0 empty empty empty 17 7 0 10 -262144 -1 -1 0
1;
#X msg 411 93 fullscreen \$1;
#X obj 410 59 tgl 15 0 empty empty empty 17 7 0 10 -262144 -1 -1 0
1;
#X msg 211 174 6;
#X msg 274 99 60;
#X msg 379 134 dimen 1024 768;
#X connect 3 0 7 1;
#X connect 4 0 7 2;
#X connect 5 0 7 3;
#X connect 6 0 7 4;
#X connect 7 0 31 0;
#X connect 8 0 33 0;
#X connect 9 0 13 0;
#X connect 10 0 12 0;
#X connect 11 0 35 0;
#X connect 11 0 40 0;
#X connect 12 0 10 1;
#X connect 12 0 11 0;
#X connect 13 0 10 0;
#X connect 14 0 4 0;
#X connect 15 0 5 0;
#X connect 16 0 18 0;
#X connect 16 0 20 0;
#X connect 16 1 19 0;
#X connect 16 1 14 0;
#X connect 16 2 15 0;
#X connect 16 2 17 0;
#X connect 17 0 14 0;
#X connect 17 0 20 0;
#X connect 18 0 14 0;
#X connect 18 0 15 0;
#X connect 19 0 15 0;
#X connect 19 0 20 0;
#X connect 20 0 3 0;
#X connect 22 0 31 1;
#X connect 24 0 22 0;
#X connect 25 0 44 0;
#X connect 26 0 29 0;
#X connect 27 0 28 0;
#X connect 28 0 29 0;
#X connect 30 0 7 0;
#X connect 32 0 33 1;
#X connect 32 0 34 0;
#X connect 33 0 21 0;
#X connect 33 0 13 1;
#X connect 34 0 33 0;
#X connect 35 0 16 0;
#X connect 36 0 10 0;
#X connect 37 0 17 0;
#X connect 37 0 19 0;
#X connect 37 0 18 0;
#X connect 38 0 39 0;
#X connect 39 1 37 0;
#X connect 40 0 38 0;
#X connect 41 0 40 1;
#X connect 42 0 29 0;
#X connect 43 0 42 0;
#X connect 44 0 22 0;
#X connect 45 0 27 0;
#X connect 46 0 29 0;
