#N canvas 846 0 839 900 10;
#X obj 33 507 cnv 15 170 250 empty empty empty 20 12 0 14 -228992 -66577
0;
#X obj 36 514 cnv 15 160 60 empty empty empty 20 12 0 14 -24198 -66577
0;
#X floatatom 65 518 3 0 1 0 - - -, f 3;
#X floatatom 94 518 3 0 1 0 - - -, f 3;
#X floatatom 122 518 3 0 1 0 - - -, f 3;
#X floatatom 151 520 3 0 1 0 - - -, f 3;
#X obj 11 552 colorRGB 0 1 0;
#X obj 1100 493 hsl 128 15 1 1000 0 0 empty empty empty -2 -8 0 10
-262144 -1 -1 0 1;
#X obj 985 454 tgl 30 0 empty empty empty 17 7 0 10 -262144 -1 -1 0
1;
#X obj 996 523 float;
#X floatatom 995 573 0 0 0 0 - - -;
#X obj 998 547 + 1;
#X floatatom 1099 578 10 0 0 0 - - -, f 10;
#X floatatom 152 593 5 0 0 0 - - -, f 5;
#X text 152 577 size;
#X obj 277 429 vsl 15 128 0.01 16 0 0 empty empty empty 0 -9 0 10 -262144
-1 -1 0 1;
#X obj 223 604 loadbang;
#X msg 281 674 reset;
#X floatatom 213 692 5 1 60 0 - - -, f 5;
#X msg 215 721 frame \$1;
#X obj -5 376 gemhead 1;
#X obj 1128 531 hsl 128 15 0 16 0 0 empty empty empty -2 -8 0 10 -262144
-1 -1 0 1;
#X obj 1087 556 +;
#X obj 1094 522 t b;
#X msg 952 497 0;
#X msg 349 657 fullscreen \$1;
#X obj 348 623 tgl 15 0 empty empty empty 17 7 0 10 -262144 -1 -1 0
1;
#X msg 212 663 60;
#X msg 317 698 dimen 1024 768;
#X msg 210 565 24;
#X msg 379 600 2;
#X obj 749 548 vsl 15 64 0 1 0 0 empty empty empty 0 -9 0 10 -258113
-1 -1 0 1;
#X obj 770 548 vsl 15 64 0 1 0 0 empty empty empty 0 -9 0 10 -4160
-1 -1 0 1;
#X obj 792 547 vsl 15 64 0 1 0 0 empty empty empty 0 -9 0 10 -4034
-1 -1 0 1;
#X obj 835 548 vsl 15 64 0 1 0 0 empty empty empty 0 -9 0 10 -258113
-1 -1 0 1;
#X obj 858 549 vsl 15 64 0 1 0 0 empty empty empty 0 -9 0 10 -4160
-1 -1 0 1;
#X obj 880 548 vsl 15 64 0 1 0 0 empty empty empty 0 -9 0 10 -4034
-1 -1 0 1;
#X text 849 516 R B G;
#X text 760 514 R B G;
#X obj 763 487 t b;
#X obj 759 451 sel 0 1;
#X obj 862 483 t b;
#X obj 762 399 spigot;
#X obj 837 362 tgl 30 0 empty empty empty 17 7 0 10 -262144 -1 -1 0
127;
#X obj 763 423 % 2;
#X text 843 525 value 2;
#X text 755 524 value 1;
#X text 750 339 flicker between two values;
#X obj 13 410 r vidR;
#X obj 69 408 r vidB;
#X obj 121 407 r vidG;
#X obj 860 643 s vidG;
#X obj 808 643 s vidB;
#X obj 752 643 s vidR;
#X obj 860 643 s vidG;
#X obj 808 643 s vidB;
#X obj 752 643 s vidR;
#X obj 760 359 r vidClk;
#X obj 996 596 s vidClk;
#X text 1095 478 coarse;
#X text 1172 515 fine;
#X text 955 436 GO! vidClk;
#X obj 238 300 vsl 30 256 0 1 0 0 empty empty empty 0 -9 0 10 -262144
-1 -1 0 1;
#X text 232 276 scale;
#X text 278 409 max;
#X obj 246 567 *;
#X obj 58 124 tgl 30 0 empty empty empty 17 7 0 10 -262144 -1 -1 0
1;
#X obj 54 185 sel 0 1;
#X text 14 161 master fade;
#X obj 174 337 vsl 15 128 0 1.25 0 0 empty empty empty 0 -9 0 10 -262144
-1 -1 0 1;
#X text 79 335 master level;
#X obj 481 559 vsl 15 64 0 1 0 0 empty empty empty 0 -9 0 10 -258113
-1 -1 0 1;
#X obj 502 559 vsl 15 64 0 1 0 0 empty empty empty 0 -9 0 10 -4160
-1 -1 0 1;
#X obj 524 558 vsl 15 64 0 1 0 0 empty empty empty 0 -9 0 10 -4034
-1 -1 0 1;
#X obj 567 559 vsl 15 64 0 1 0 0 empty empty empty 0 -9 0 10 -258113
-1 -1 0 1;
#X obj 590 560 vsl 15 64 0 1 0 0 empty empty empty 0 -9 0 10 -4160
-1 -1 0 1;
#X obj 612 559 vsl 15 64 0 1 0 0 empty empty empty 0 -9 0 10 -4034
-1 -1 0 1;
#X text 581 527 R B G;
#X text 492 525 R B G;
#X obj 495 498 t b;
#X obj 594 494 t b;
#X obj 494 410 spigot;
#X obj 567 369 tgl 30 0 empty empty empty 17 7 0 10 -262144 -1 -1 0
127;
#X text 575 536 value 2;
#X text 487 535 value 1;
#X obj 592 654 s vidG;
#X obj 540 654 s vidB;
#X obj 484 654 s vidR;
#X obj 592 654 s vidG;
#X obj 540 654 s vidB;
#X obj 484 654 s vidR;
#X obj 491 370 r vidClk;
#X obj 491 462 sel 0 1 2;
#X obj 495 434 % 3;
#X obj 648 558 vsl 15 64 0 1 0 0 empty empty empty 0 -9 0 10 -258113
-1 -1 0 1;
#X obj 671 559 vsl 15 64 0 1 0 0 empty empty empty 0 -9 0 10 -4160
-1 -1 0 1;
#X obj 693 558 vsl 15 64 0 1 0 0 empty empty empty 0 -9 0 10 -4034
-1 -1 0 1;
#X text 662 526 R B G;
#X obj 675 493 t b;
#X text 656 535 value 2;
#X obj 1062 460 hsl 128 15 0 10000 0 0 empty empty empty -2 -8 0 10
-262144 -1 -1 0 1;
#X text 1063 441 secs;
#X msg 1120 345 0;
#X obj 1012 231 tgl 30 0 empty empty empty 17 7 0 10 -262144 -1 -1
0 1;
#X text 960 209 strobe blank;
#X text 473 337 flicker between three values;
#X obj 1156 369 s vidG;
#X obj 1104 369 s vidB;
#X obj 1048 369 s vidR;
#X obj 1156 369 s vidG;
#X obj 1104 369 s vidB;
#X obj 1048 369 s vidR;
#X obj 128 307 r masterLvl;
#X obj 131 258 line 0 17;
#X obj 132 282 s masterLvl;
#X msg 325 717 dimen 1900 1080;
#N canvas 1196 571 682 322 gemwin 0;
#X obj 102 122 tgl 15 0 \$0-gemstart \$0-gemstart empty 17 7 0 10 -262144
-1 -1 0 1;
#X obj 102 161 r \$0-gemstart;
#X obj 102 182 select 1 0;
#X msg 102 214 create \, 1;
#X msg 177 215 destroy;
#X obj 102 239 t a;
#X obj 318 54 inlet;
#X obj 318 255 gemwin;
#X obj 311 96 t a a;
#X obj 318 287 outlet;
#X obj 350 128 route create destroy;
#X obj 350 150 t b;
#X msg 350 172 1;
#X obj 390 150 t b;
#X msg 390 172 0;
#X obj 350 195 t f;
#X msg 350 219 set \$1;
#X text 118 122 rendering;
#X obj 112 22 key;
#X obj 111 47 select 113;
#X obj 113 68 t b;
#X connect 1 0 2 0;
#X connect 2 0 3 0;
#X connect 2 1 4 0;
#X connect 3 0 5 0;
#X connect 4 0 5 0;
#X connect 5 0 8 0;
#X connect 6 0 8 0;
#X connect 7 0 9 0;
#X connect 8 0 7 0;
#X connect 8 1 10 0;
#X connect 10 0 11 0;
#X connect 10 1 13 0;
#X connect 11 0 12 0;
#X connect 12 0 15 0;
#X connect 13 0 14 0;
#X connect 14 0 15 0;
#X connect 15 0 16 0;
#X connect 16 0 0 0;
#X connect 18 0 19 0;
#X connect 19 0 20 0;
#X connect 20 0 0 0;
#X coords 0 -1 1 1 85 40 1 100 100;
#X restore 284 745 pd gemwin 60;
#X obj 37 484 *;
#X obj 101 484 *;
#X obj 69 483 *;
#X obj 1099 597 s vidMilli;
#X obj 996 523 float;
#X obj 998 547 + 1;
#X obj 993 501 metro 100;
#X msg 132 232 1 \$1;
#X msg 189 231 0 \$1;
#X obj 192 68 vsl 15 128 0.01 30000 0 0 empty empty empty 0 -9 0 10
-262144 -1 -1 0 1;
#X obj 149 67 vsl 15 128 0 30000 0 0 empty empty empty 0 -9 0 10 -262144
-1 -1 0 1;
#X text 148 47 in;
#X text 187 50 out;
#X obj 131 206 i;
#X obj 189 207 i;
#X floatatom 97 34 10 0 0 0 - - -, f 10;
#X floatatom 185 33 10 0 0 0 - - -, f 10;
#X obj 1128 156 vsl 15 128 0 100 0 0 empty empty empty 0 -9 0 10 -262144
-1 -1 0 1;
#X floatatom 1130 315 10 0 0 0 - - -, f 10;
#X obj 1014 324 del;
#X obj 941 262 r vidClk;
#X obj 982 296 spigot;
#X obj 941 286 t b;
#X obj 988 322 bng 15 250 50 0 empty empty empty 17 7 0 10 -262144
-1 -1;
#X obj 1167 293 t b;
#X text 1102 136 255 ms;
#X obj 1174 153 vsl 15 128 0 10000 0 0 empty empty empty 0 -9 0 10
-262144 -1 -1 0 1;
#X text 1162 135 10k ms;
#X obj 1128 294 +;
#X msg 95 128 stop;
#X obj 346 311 vsl 15 64 0 1 0 0 empty empty empty 0 -9 0 10 -258113
-1 -1 0 1;
#X obj 367 311 vsl 15 64 0 1 0 0 empty empty empty 0 -9 0 10 -4160
-1 -1 0 1;
#X obj 389 310 vsl 15 64 0 1 0 0 empty empty empty 0 -9 0 10 -4034
-1 -1 0 1;
#X text 378 284 R B G;
#X obj 406 395 s vidG;
#X obj 354 395 s vidB;
#X obj 298 395 s vidR;
#X obj 406 395 s vidG;
#X obj 354 395 s vidB;
#X obj 298 395 s vidR;
#X text 368 271 immediate;
#X obj 460 498 tgl 15 0 empty empty empty 17 7 0 10 -262144 -1 -1 0
1;
#X obj 566 497 tgl 15 0 empty empty empty 17 7 0 10 -262144 -1 -1 0
1;
#X obj 648 496 tgl 15 0 empty empty empty 17 7 0 10 -262144 -1 -1 0
1;
#X msg 1282 532 8.333;
#X msg 1343 534 16.7;
#X obj 338 231 spigot;
#X obj 411 190 tgl 30 0 empty empty empty 17 7 0 10 -262144 -1 -1 0
127;
#X obj 335 191 r vidClk;
#X obj 337 255 t b;
#X obj 342 81 vsl 15 64 0 1 0 0 empty empty empty 0 -9 0 10 -258113
-1 -1 0 1;
#X obj 363 81 vsl 15 64 0 1 0 0 empty empty empty 0 -9 0 10 -4160 -1
-1 0 1;
#X obj 385 80 vsl 15 64 0 1 0 0 empty empty empty 0 -9 0 10 -4034 -1
-1 0 1;
#X obj 397 47 r vidG;
#X obj 345 47 r vidB;
#X obj 289 47 r vidR;
#X obj 1571 157 vsl 15 128 0 1023 0 0 empty empty empty 0 -9 0 10 -262144
-1 -1 0 1;
#X obj 1571 291 int;
#X floatatom 1571 313 5 0 0 0 - - -, f 5;
#X obj 1571 332 s dmxFlicker;
#X obj 22 54 t b;
#X obj 22 32 r vidClk;
#X obj 161 479 t b b b;
#X msg 327 513 3.8;
#X obj 624 216 vsl 15 64 0 1 0 0 empty empty empty 0 -9 0 10 -258113
-1 -1 0 1;
#X obj 645 216 vsl 15 64 0 1 0 0 empty empty empty 0 -9 0 10 -4160
-1 -1 0 1;
#X obj 667 215 vsl 15 64 0 1 0 0 empty empty empty 0 -9 0 10 -4034
-1 -1 0 1;
#X obj 710 216 vsl 15 64 0 1 0 0 empty empty empty 0 -9 0 10 -258113
-1 -1 0 1;
#X obj 733 217 vsl 15 64 0 1 0 0 empty empty empty 0 -9 0 10 -4160
-1 -1 0 1;
#X obj 755 216 vsl 15 64 0 1 0 0 empty empty empty 0 -9 0 10 -4034
-1 -1 0 1;
#X text 724 184 R B G;
#X text 635 182 R B G;
#X obj 638 155 t b;
#X obj 634 119 sel 0 1;
#X obj 737 151 t b;
#X obj 637 67 spigot;
#X obj 712 30 tgl 30 0 empty empty empty 17 7 0 10 -262144 -1 -1 0
127;
#X obj 638 91 % 2;
#X text 718 193 value 2;
#X text 630 192 value 1;
#X text 625 7 flicker between two values;
#X obj 735 311 s vidG;
#X obj 683 311 s vidB;
#X obj 627 311 s vidR;
#X obj 735 311 s vidG;
#X obj 683 311 s vidB;
#X obj 627 311 s vidR;
#X obj 635 27 r vidClk;
#X msg 211 761 draw line;
#X msg 211 781 draw fill;
#X msg 211 800 draw point;
#X floatatom 120 795 5 0 0 1 size - -, f 5;
#X floatatom 165 832 3 0 0 2 segments - -, f 3;
#X floatatom -12 739 5 0 0 0 - - -, f 5;
#X floatatom -14 767 5 0 0 0 - - -, f 5;
#X obj 28 831 r \$0-s3d;
#X obj 211 822 s \$0-s3d;
#X msg 35 740 setCartesian 2 3 \$1 1 0;
#X obj 35 669 rotateXYZ;
#X floatatom 51 633 5 0 0 0 - - -, f 5;
#X msg 48 763 setSpherical 2 3 \$1 45 45;
#X obj 378 771 s \$0-s3d;
#X msg 377 750 print;
#X obj 124 883 sphere3d;
#X floatatom 92 634 5 0 0 0 - - -, f 5;
#X floatatom 129 635 5 0 0 0 - - -, f 5;
#X obj 176 636 hsl 128 15 0 360 0 0 empty empty empty -2 -8 0 10 -262144
-1 -1 0 1;
#X obj 217 846 hsl 128 15 0 512 0 0 empty empty empty -2 -8 0 10 -262144
-1 -1 0 1;
#X obj 39 695 polygon_smooth;
#X obj 561 694 shininess;
#X obj 600 804 diffuseRGB;
#X obj 458 771 world_light;
#X msg 430 719 lighting \$1;
#X obj 430 695 tgl 15 0 empty empty empty 17 7 0 10 -262144 -1 -1 0
1;
#X obj 610 772 translateXYZ;
#X floatatom 630 725 5 0 0 0 - - -, f 5;
#X floatatom 677 726 5 0 0 0 - - -, f 5;
#X floatatom 716 729 5 0 0 0 - - -, f 5;
#X obj 546 739 tgl 15 0 empty empty empty 17 7 0 10 -262144 -1 -1 0
1;
#X obj 791 720 cnv 15 220 210 empty empty empty 20 12 0 14 -24198 -66577
0;
#X obj 951 820 gemhead;
#X msg 808 839 1 1 1;
#X floatatom 1024 795 5 0 0 0 - - -, f 5;
#X msg 808 858 1 1 0;
#X obj 803 885 spot_light;
#X obj 955 888 translateXYZ 0 0 2;
#X floatatom 817 734 5 0 0 1 linear_attenuation - -, f 5;
#X floatatom 869 771 5 0 0 2 cone_cutoff_angle - -, f 5;
#X floatatom 907 801 5 0 0 2 decay_at_edges - -, f 5;
#X obj 907 820 t b f;
#X obj 869 840 t b f;
#X text 809 822 color;
#X obj 951 842 rotateXYZ -33 0 0;
#X obj 867 860 pack 0 90 3;
#X obj 811 788 tgl 20 0 empty \$0-onoff empty 17 7 0 10 -262144 -1
-1 0 1;
#X obj 716 834 tgl 15 0 empty empty empty 0 -6 0 8 -262144 -1 -1 0
1;
#X msg 734 834 debug \$1;
#X floatatom 1018 774 5 0 0 0 - - -, f 5;
#X floatatom 1037 814 5 0 0 0 - - -, f 5;
#X floatatom 1094 809 5 0 0 0 - - -, f 5;
#X floatatom 1081 788 5 0 0 0 - - -, f 5;
#X floatatom 1100 828 5 0 0 0 - - -, f 5;
#X obj 559 880 text2d;
#X obj 561 905 text3d;
#X obj 627 878 textextruded;
#X obj 633 903 newWave;
#X obj 492 852 polygon;
#X obj 455 900 curve;
#X obj 436 879 curve3d;
#X obj 594 826 specularRGB;
#X obj 625 692 hsl 128 15 0 127 0 0 empty empty empty -2 -8 0 10 -262144
-1 -1 0 1;
#X obj 523 801 ambientRGB;
#X obj 539 157 t b;
#X obj 498 69 vsl 15 64 0 1 0 0 empty empty empty 0 -9 0 10 -258113
-1 -1 0 1;
#X obj 519 69 vsl 15 64 0 1 0 0 empty empty empty 0 -9 0 10 -4160 -1
-1 0 1;
#X obj 541 68 vsl 15 64 0 1 0 0 empty empty empty 0 -9 0 10 -4034 -1
-1 0 1;
#X obj 500 189 pack f f f;
#X obj 220 899 hsl 128 15 0 25 0 0 empty empty empty -2 -8 0 10 -262144
-1 -1 0 1;
#X obj 445 149 gemhead;
#X obj 464 298 rotateXYZ;
#X floatatom 480 262 5 0 0 0 - - -, f 5;
#X floatatom 521 263 5 0 0 0 - - -, f 5;
#X floatatom 558 264 5 0 0 0 - - -, f 5;
#X obj 542 772 light;
#X obj 56 589 specularRGB;
#X msg 1378 593 setCartesian 2 3 \$1 1 0;
#X msg 1391 616 setSpherical 2 3 \$1 45 45;
#X msg 1471 563 print;
#X obj 1331 652 3dSphere;
#X connect 2 0 6 1;
#X connect 2 0 281 1;
#X connect 3 0 6 2;
#X connect 3 0 281 2;
#X connect 4 0 6 3;
#X connect 4 0 281 3;
#X connect 5 0 6 4;
#X connect 5 0 281 4;
#X connect 7 0 22 0;
#X connect 8 0 123 0;
#X connect 9 0 11 0;
#X connect 10 0 58 0;
#X connect 11 0 9 1;
#X connect 11 0 10 0;
#X connect 12 0 120 0;
#X connect 13 0 208 0;
#X connect 15 0 65 1;
#X connect 16 0 29 0;
#X connect 16 0 27 0;
#X connect 17 0 116 0;
#X connect 18 0 19 0;
#X connect 19 0 116 0;
#X connect 20 0 6 0;
#X connect 20 0 281 0;
#X connect 21 0 22 1;
#X connect 21 0 23 0;
#X connect 22 0 12 0;
#X connect 22 0 123 1;
#X connect 23 0 22 0;
#X connect 24 0 9 0;
#X connect 25 0 116 0;
#X connect 26 0 25 0;
#X connect 27 0 18 0;
#X connect 29 0 13 0;
#X connect 30 0 25 0;
#X connect 31 0 53 0;
#X connect 32 0 52 0;
#X connect 33 0 51 0;
#X connect 34 0 53 0;
#X connect 35 0 52 0;
#X connect 36 0 51 0;
#X connect 39 0 33 0;
#X connect 39 0 31 0;
#X connect 39 0 32 0;
#X connect 40 0 39 0;
#X connect 40 1 41 0;
#X connect 41 0 34 0;
#X connect 41 0 35 0;
#X connect 41 0 36 0;
#X connect 42 0 44 0;
#X connect 43 0 42 1;
#X connect 44 0 40 0;
#X connect 48 0 117 0;
#X connect 49 0 119 0;
#X connect 50 0 118 0;
#X connect 57 0 42 0;
#X connect 62 0 65 0;
#X connect 65 0 13 0;
#X connect 66 0 67 0;
#X connect 67 0 131 0;
#X connect 67 1 130 0;
#X connect 69 0 118 1;
#X connect 69 0 119 1;
#X connect 69 0 117 1;
#X connect 69 0 179 0;
#X connect 71 0 87 0;
#X connect 72 0 86 0;
#X connect 73 0 85 0;
#X connect 74 0 87 0;
#X connect 75 0 86 0;
#X connect 76 0 85 0;
#X connect 79 0 73 0;
#X connect 79 0 71 0;
#X connect 79 0 72 0;
#X connect 80 0 74 0;
#X connect 80 0 75 0;
#X connect 80 0 76 0;
#X connect 81 0 93 0;
#X connect 82 0 81 1;
#X connect 91 0 81 0;
#X connect 92 0 79 0;
#X connect 92 0 158 0;
#X connect 92 1 80 0;
#X connect 92 1 159 0;
#X connect 92 2 98 0;
#X connect 92 2 160 0;
#X connect 93 0 92 0;
#X connect 94 0 87 0;
#X connect 95 0 86 0;
#X connect 96 0 85 0;
#X connect 98 0 94 0;
#X connect 98 0 95 0;
#X connect 98 0 96 0;
#X connect 100 0 22 1;
#X connect 100 0 23 0;
#X connect 102 0 108 0;
#X connect 102 0 107 0;
#X connect 102 0 106 0;
#X connect 103 0 138 1;
#X connect 112 0 69 0;
#X connect 113 0 114 0;
#X connect 115 0 116 0;
#X connect 117 0 2 0;
#X connect 118 0 3 0;
#X connect 119 0 4 0;
#X connect 121 0 122 0;
#X connect 122 0 121 1;
#X connect 123 0 9 0;
#X connect 124 0 113 0;
#X connect 125 0 113 0;
#X connect 126 0 131 1;
#X connect 126 0 133 0;
#X connect 127 0 130 1;
#X connect 127 0 132 0;
#X connect 130 0 124 0;
#X connect 131 0 125 0;
#X connect 134 0 145 0;
#X connect 135 0 136 1;
#X connect 136 0 102 0;
#X connect 137 0 139 0;
#X connect 138 0 136 0;
#X connect 139 0 140 0;
#X connect 139 0 138 0;
#X connect 141 0 145 0;
#X connect 143 0 145 1;
#X connect 143 0 141 0;
#X connect 145 0 135 0;
#X connect 146 0 113 0;
#X connect 147 0 153 0;
#X connect 148 0 152 0;
#X connect 149 0 151 0;
#X connect 161 0 12 0;
#X connect 162 0 12 0;
#X connect 163 0 166 0;
#X connect 164 0 163 1;
#X connect 165 0 163 0;
#X connect 166 0 147 0;
#X connect 166 0 148 0;
#X connect 166 0 149 0;
#X connect 170 0 169 0;
#X connect 171 0 168 0;
#X connect 172 0 167 0;
#X connect 173 0 174 0;
#X connect 174 0 175 0;
#X connect 175 0 176 0;
#X connect 178 0 177 0;
#X connect 179 0 117 0;
#X connect 179 1 119 0;
#X connect 179 2 118 0;
#X connect 180 0 65 1;
#X connect 181 0 200 0;
#X connect 182 0 199 0;
#X connect 183 0 198 0;
#X connect 184 0 200 0;
#X connect 185 0 199 0;
#X connect 186 0 198 0;
#X connect 189 0 183 0;
#X connect 189 0 181 0;
#X connect 189 0 182 0;
#X connect 190 0 189 0;
#X connect 190 1 191 0;
#X connect 191 0 184 0;
#X connect 191 0 185 0;
#X connect 191 0 186 0;
#X connect 192 0 194 0;
#X connect 193 0 192 1;
#X connect 194 0 190 0;
#X connect 204 0 192 0;
#X connect 205 0 213 0;
#X connect 206 0 213 0;
#X connect 207 0 213 0;
#X connect 208 0 220 1;
#X connect 209 0 220 2;
#X connect 210 0 214 0;
#X connect 211 0 217 0;
#X connect 212 0 220 0;
#X connect 214 0 220 0;
#X connect 215 0 225 0;
#X connect 216 0 215 1;
#X connect 217 0 220 0;
#X connect 219 0 218 0;
#X connect 221 0 215 2;
#X connect 222 0 215 3;
#X connect 223 0 216 0;
#X connect 224 0 209 0;
#X connect 225 0 220 0;
#X connect 226 0 215 0;
#X connect 229 0 116 0;
#X connect 230 0 229 0;
#X connect 231 0 280 0;
#X connect 232 0 231 1;
#X connect 233 0 231 2;
#X connect 234 0 231 3;
#X connect 235 0 280 0;
#X connect 237 0 249 0;
#X connect 238 0 241 1;
#X connect 239 0 249 2;
#X connect 240 0 241 1;
#X connect 242 0 241 0;
#X connect 243 0 250 0;
#X connect 244 0 247 0;
#X connect 245 0 246 0;
#X connect 246 0 250 0;
#X connect 246 1 250 2;
#X connect 247 0 250 0;
#X connect 247 1 250 1;
#X connect 249 0 242 0;
#X connect 250 0 241 2;
#X connect 251 0 241 0;
#X connect 252 0 253 0;
#X connect 253 0 241 0;
#X connect 254 0 249 1;
#X connect 255 0 249 3;
#X connect 256 0 242 2;
#X connect 257 0 242 1;
#X connect 258 0 242 3;
#X connect 267 0 226 1;
#X connect 269 0 273 0;
#X connect 270 0 269 0;
#X connect 270 0 273 0;
#X connect 271 0 269 0;
#X connect 271 0 273 1;
#X connect 272 0 269 0;
#X connect 272 0 273 2;
#X connect 273 0 280 1;
#X connect 274 0 209 0;
#X connect 275 0 276 0;
#X connect 276 0 231 0;
#X connect 277 0 276 1;
#X connect 278 0 276 2;
#X connect 279 0 276 3;
#X connect 281 0 226 0;
