#N canvas 824 27 891 483 10;
#X obj -33 217 *~ 0;
#X floatatom 10 180 0 0 0 0 - - -;
#X obj -2 147 dbtorms;
#X floatatom -3 119 0 0 120 0 - - -;
#X obj 45 214 *~ 0;
#X floatatom 88 177 0 0 0 0 - - -;
#X obj 76 144 dbtorms;
#X floatatom 76 112 0 0 120 0 - - -;
#X obj 289 203 *~ 0;
#X floatatom 346 177 0 0 0 0 - - -;
#X obj 334 144 dbtorms;
#X floatatom 336 111 0 0 120 0 - - -;
#X obj 381 211 *~ 0;
#X floatatom 424 174 0 0 0 0 - - -;
#X obj 412 141 dbtorms;
#X floatatom 412 109 0 0 120 0 - - -;
#X obj 465 216 *~ 0;
#X floatatom 508 179 0 0 0 0 - - -;
#X obj 496 146 dbtorms;
#X floatatom 495 118 0 0 120 0 - - -;
#X obj 543 213 *~ 0;
#X floatatom 586 176 0 0 0 0 - - -;
#X obj 574 143 dbtorms;
#X floatatom 574 111 0 0 120 0 - - -;
#X obj 136 211 *~ 0;
#X floatatom 179 174 0 0 0 0 - - -;
#X obj 167 141 dbtorms;
#X floatatom 166 113 0 0 120 0 - - -;
#X obj 214 208 *~ 0;
#X floatatom 257 171 0 0 0 0 - - -;
#X obj 245 138 dbtorms;
#X floatatom 245 106 0 0 120 0 - - -;
#X obj 132 326 vu 15 120 empty empty -1 -8 0 10 -66577 -1 1 0;
#X obj 180 328 vu 15 120 empty empty -1 -8 0 10 -66577 -1 1 0;
#X obj 125 268 env~;
#X obj 131 296 - 72;
#X obj 21 326 vu 15 120 empty empty -1 -8 0 10 -66577 -1 1 0;
#X obj 72 327 vu 15 120 empty empty -1 -8 0 10 -66577 -1 1 0;
#X obj 14 268 env~;
#X obj 20 296 - 72;
#X obj 66 268 env~;
#X obj 72 296 - 72;
#X obj 175 270 env~;
#X obj 181 298 - 72;
#X obj 348 329 vu 15 120 empty empty -1 -8 0 10 -66577 -1 1 0;
#X obj 396 331 vu 15 120 empty empty -1 -8 0 10 -66577 -1 1 0;
#X obj 341 271 env~;
#X obj 347 299 - 72;
#X obj 237 329 vu 15 120 empty empty -1 -8 0 10 -66577 -1 1 0;
#X obj 288 330 vu 15 120 empty empty -1 -8 0 10 -66577 -1 1 0;
#X obj 230 271 env~;
#X obj 236 299 - 72;
#X obj 282 271 env~;
#X obj 288 299 - 72;
#X obj 391 273 env~;
#X obj 397 301 - 72;
#X obj 458 334 vu 15 120 empty empty -1 -8 0 10 -66577 -1 1 0;
#X obj 506 336 vu 15 120 empty empty -1 -8 0 10 -66577 -1 1 0;
#X obj 451 276 env~;
#X obj 457 304 - 72;
#X obj 501 278 env~;
#X obj 507 306 - 72;
#X obj 629 214 *~ 0;
#X floatatom 672 177 0 0 0 0 - - -;
#X obj 660 144 dbtorms;
#X floatatom 659 116 0 0 120 0 - - -;
#X obj 707 211 *~ 0;
#X floatatom 750 174 0 0 0 0 - - -;
#X obj 738 141 dbtorms;
#X floatatom 738 109 0 0 120 0 - - -;
#X obj 290 10 adc~ 1 2 3 4 5 6 7 8 9 10;
#X obj 276 248 dac~ 1 2 3 4 5 6 7 8 9 10;
#X obj -5 88 inlet;
#X obj 77 83 inlet;
#X obj 164 79 inlet;
#X obj 246 74 inlet;
#X obj 334 80 inlet;
#X obj 416 75 inlet;
#X obj 488 82 inlet;
#X obj 570 77 inlet;
#X obj 654 77 inlet;
#X obj 736 72 inlet;
#X connect 0 0 38 0;
#X connect 0 0 71 0;
#X connect 2 0 0 1;
#X connect 2 0 1 0;
#X connect 3 0 2 0;
#X connect 4 0 40 0;
#X connect 4 0 71 1;
#X connect 6 0 4 1;
#X connect 6 0 5 0;
#X connect 7 0 6 0;
#X connect 8 0 50 0;
#X connect 8 0 71 4;
#X connect 10 0 8 1;
#X connect 10 0 9 0;
#X connect 11 0 10 0;
#X connect 12 0 52 0;
#X connect 12 0 71 5;
#X connect 14 0 12 1;
#X connect 14 0 13 0;
#X connect 15 0 14 0;
#X connect 16 0 46 0;
#X connect 16 0 71 6;
#X connect 18 0 16 1;
#X connect 18 0 17 0;
#X connect 19 0 18 0;
#X connect 20 0 54 0;
#X connect 20 0 71 7;
#X connect 22 0 20 1;
#X connect 22 0 21 0;
#X connect 23 0 22 0;
#X connect 24 0 34 0;
#X connect 24 0 71 2;
#X connect 26 0 24 1;
#X connect 26 0 25 0;
#X connect 27 0 26 0;
#X connect 28 0 42 0;
#X connect 28 0 71 3;
#X connect 30 0 28 1;
#X connect 30 0 29 0;
#X connect 31 0 30 0;
#X connect 34 0 35 0;
#X connect 35 0 32 0;
#X connect 38 0 39 0;
#X connect 39 0 36 0;
#X connect 40 0 41 0;
#X connect 41 0 37 0;
#X connect 42 0 43 0;
#X connect 43 0 33 0;
#X connect 46 0 47 0;
#X connect 47 0 44 0;
#X connect 50 0 51 0;
#X connect 51 0 48 0;
#X connect 52 0 53 0;
#X connect 53 0 49 0;
#X connect 54 0 55 0;
#X connect 55 0 45 0;
#X connect 58 0 59 0;
#X connect 59 0 56 0;
#X connect 60 0 61 0;
#X connect 61 0 57 0;
#X connect 62 0 58 0;
#X connect 62 0 71 8;
#X connect 64 0 62 1;
#X connect 64 0 63 0;
#X connect 65 0 64 0;
#X connect 66 0 60 0;
#X connect 66 0 71 9;
#X connect 68 0 66 1;
#X connect 68 0 67 0;
#X connect 69 0 68 0;
#X connect 70 0 0 0;
#X connect 70 1 4 0;
#X connect 70 2 24 0;
#X connect 70 3 28 0;
#X connect 70 4 8 0;
#X connect 70 5 12 0;
#X connect 70 6 16 0;
#X connect 70 7 20 0;
#X connect 70 8 62 0;
#X connect 70 9 66 0;
#X connect 72 0 3 0;
#X connect 73 0 7 0;
#X connect 74 0 27 0;
#X connect 75 0 31 0;
#X connect 76 0 11 0;
#X connect 77 0 15 0;
#X connect 78 0 19 0;
#X connect 79 0 23 0;
#X connect 80 0 65 0;
#X connect 81 0 69 0;
