#N canvas 844 50 856 409 10;
#X obj -33 217 *~ 0;
#X floatatom 10 180 0 0 0 0 - - -;
#X obj -2 147 dbtorms;
#X floatatom -3 119 0 0 80 0 - - -;
#X obj 45 214 *~ 0;
#X floatatom 88 177 0 0 0 0 - - -;
#X obj 76 144 dbtorms;
#X floatatom 76 112 0 0 80 0 - - -;
#X msg 441 17 \; pd dsp 1;
#X msg 524 17 \; pd dsp 0;
#X text 466 55 ON;
#X text 544 53 OFF;
#X obj 303 214 *~ 0;
#X floatatom 346 177 0 0 0 0 - - -;
#X obj 334 144 dbtorms;
#X floatatom 336 111 0 0 80 0 - - -;
#X obj 381 211 *~ 0;
#X floatatom 424 174 0 0 0 0 - - -;
#X obj 412 141 dbtorms;
#X floatatom 412 109 0 0 80 0 - - -;
#X obj 465 216 *~ 0;
#X floatatom 508 179 0 0 0 0 - - -;
#X obj 496 146 dbtorms;
#X floatatom 495 118 0 0 80 0 - - -;
#X obj 543 213 *~ 0;
#X floatatom 586 176 0 0 0 0 - - -;
#X obj 574 143 dbtorms;
#X floatatom 574 111 0 0 80 0 - - -;
#X obj -33 80 osc~ 55;
#X obj 303 77 osc~ 109;
#X obj 381 74 osc~ 110;
#X obj 465 79 osc~ 167;
#X obj 543 76 osc~ 221;
#X floatatom 61 45 0 0 8000 0 - - -;
#X obj 56 82 osc~ 56;
#X obj 136 211 *~ 0;
#X floatatom 179 174 0 0 0 0 - - -;
#X obj 167 141 dbtorms;
#X floatatom 166 113 0 0 80 0 - - -;
#X obj 214 208 *~ 0;
#X floatatom 257 171 0 0 0 0 - - -;
#X obj 245 138 dbtorms;
#X floatatom 245 106 0 0 80 0 - - -;
#X obj 136 74 osc~ 55;
#X floatatom 228 36 0 0 8000 0 - - -;
#X obj 225 76 osc~ 56;
#X obj 708 128 vu 15 120 empty empty -1 -8 0 10 -66577 -1 1 0;
#X obj 750 124 vu 15 120 empty empty -1 -8 0 10 -66577 -1 1 0;
#X obj 86 318 dac~ 1 2 3 4 5 6 7 8 9 10;
#X obj 568 283 env~;
#X floatatom 643 121 0 0 80 0 - - -;
#X floatatom 636 215 0 0 80 0 - - -;
#X obj 655 372 *~ 0;
#X floatatom 698 335 0 0 0 0 - - -;
#X obj 686 302 dbtorms;
#X floatatom 686 270 0 0 120 0 - - -;
#X obj 650 171 rmstodb;
#X obj 574 311 - 72;
#X obj 691 25 adc~ 1 2 3 4;
#X connect 0 0 48 0;
#X connect 2 0 0 1;
#X connect 2 0 1 0;
#X connect 3 0 2 0;
#X connect 4 0 48 1;
#X connect 6 0 4 1;
#X connect 6 0 5 0;
#X connect 7 0 6 0;
#X connect 12 0 48 4;
#X connect 14 0 12 1;
#X connect 14 0 13 0;
#X connect 15 0 14 0;
#X connect 16 0 48 5;
#X connect 18 0 16 1;
#X connect 18 0 17 0;
#X connect 19 0 18 0;
#X connect 20 0 48 6;
#X connect 20 0 48 8;
#X connect 22 0 20 1;
#X connect 22 0 21 0;
#X connect 23 0 22 0;
#X connect 24 0 48 7;
#X connect 24 0 48 9;
#X connect 26 0 24 1;
#X connect 26 0 25 0;
#X connect 27 0 26 0;
#X connect 28 0 0 0;
#X connect 29 0 12 0;
#X connect 30 0 16 0;
#X connect 31 0 20 0;
#X connect 32 0 24 0;
#X connect 33 0 34 0;
#X connect 34 0 4 0;
#X connect 35 0 48 2;
#X connect 37 0 35 1;
#X connect 37 0 36 0;
#X connect 38 0 37 0;
#X connect 39 0 48 3;
#X connect 41 0 39 1;
#X connect 41 0 40 0;
#X connect 42 0 41 0;
#X connect 43 0 35 0;
#X connect 44 0 45 0;
#X connect 45 0 39 0;
#X connect 49 0 50 0;
#X connect 49 0 57 0;
#X connect 50 0 56 0;
#X connect 52 0 49 0;
#X connect 54 0 52 1;
#X connect 54 0 53 0;
#X connect 55 0 54 0;
#X connect 56 0 51 0;
#X connect 57 0 46 0;
#X connect 58 1 52 0;
