#N canvas 0 0 960 1009 10;
#X obj 672 536 bng 15 250 50 0 empty empty step 18 7 0 12 -4160 -257985
-1;
#X obj 326 78 openpanel;
#X obj 326 25 bng 45 250 50 0 empty empty choose 3 23 0 12 -62784 -260818
-258699;
#X obj 434 164 tgl 45 0 empty empty play -45 23 0 12 -24198 -1 -258699
0 1;
#X msg 705 487 rewind;
#X text 555 486 go to start of file;
#X floatatom 814 578 15 0 0 0 current_tick - -, f 15;
#X obj 549 310 hradio 15 1 0 16 empty empty track_number 0 -6 0 12
-62784 -241291 -1 1;
#X msg 549 331 dump \$1;
#X msg 668 450 68050;
#X msg 493 275 track \$1;
#X obj 493 235 hradio 15 1 0 16 empty empty track_number 0 -6 0 12
-62784 -241291 -1 1;
#X text 498 553 creation arguments: midi_file_name;
#X text 497 532 output only this track;
#X text 612 330 parse this track to main window;
#X msg 729 511 0;
#X text 556 450 goto tick 68050;
#X floatatom 578 719 5 0 0 0 note - -, f 5;
#X floatatom 645 719 5 0 0 1 velocity - -, f 5;
#X floatatom 789 633 15 0 0 0 last_tick - -, f 15;
#X msg 625 407 verbose \$1;
#X text 448 408 verbosity defaults to 1;
#X text 377 20 1: choose a MIDI file to play;
#X text 487 158 2: start playing it;
#X obj 749 433 spigot;
#X obj 788 399 tgl 25 0 empty empty loop -45 12 0 12 -4160 -257985
-258113 0 1;
#X msg 326 108 read \$1;
#X floatatom 625 383 5 0 0 0 - - -, f 5;
#X obj 625 364 hradio 15 1 0 4 empty empty verbosity 0 -6 0 12 -62784
-241291 -1 2;
#X obj 493 252 - 1;
#X text 1158 686 note off events;
#X obj 749 551 midifile wowo.mid;
#X obj 379 514 ctlout 123;
#X msg 379 484 123;
#X obj 749 658 route 144 145 146 147 148 149 150 151 152 153 154 155
156 157 158 159;
#X obj 578 694 unpack 0 0;
#X obj 925 710 route 128 129 130 131 132 133 134 135 136 137 138 139
140 141 142 143;
#X msg 353 135 read I_Wanna_Be_Sedated.mid;
#X obj 379 456 bng 15 250 50 0 empty empty all_notes_off 17 7 0 10
-258113 -257985 -1;
#X obj 927 591 t b b;
#X floatatom 448 272 5 0 0 0 - - -, f 5;
#X obj 973 606 bng 15 250 50 0 empty empty end 17 7 0 10 -258113 -257985
-1;
#X text 881 550 bangs at end of file:;
#X obj 351 694 print note_on;
#X obj 350 746 print note_off;
#X floatatom 930 440 9 0 0 0 loop_start_tick - -, f 9;
#X text 528 252 -1 = play all tracks;
#X obj 789 611 f;
#X text 456 580 MIDI messages are output as lists;
#X text 585 657 select note on events:;
#X obj 749 834 noteout 1;
#X obj 820 834 noteout 2;
#X obj 892 834 noteout 3;
#X obj 963 834 noteout 4;
#X text 396 764 select note on events:;
#X obj 562 765 route 176 177 178 179 180 181 182 183 184 185 186 187
188 189 190 191 192;
#X floatatom 562 832 5 0 0 0 controller - -, f 5;
#X floatatom 629 832 5 0 0 1 value - -, f 5;
#X obj 562 807 unpack 0 0;
#X obj 350 801 print controller;
#X obj 448 879 ctlout 1;
#X obj 442 853 f;
#X obj 442 827 t b f;
#X obj 973 571 route bang format tracks ticks_per_quarternote;
#X obj 749 459 f 0;
#X text 1075 848 Martin Peach \, 2011;
#X floatatom 1052 603 3 0 0 1 format - -, f 3;
#X floatatom 1132 603 5 0 0 1 tracks - -, f 5;
#X floatatom 1212 603 5 0 0 1 ticks_per_quarternote - -, f 5;
#X floatatom 737 73 5 0 0 1 tracks - -, f 5;
#X symbolatom 901 123 40 0 0 0 - - -, f 40;
#X obj 901 97 prepend set;
#X obj 892 157 unpack 0 0;
#X floatatom 959 210 15 0 0 0 last_tick - -, f 15;
#X floatatom 892 183 5 0 0 1 track - -, f 5;
#X floatatom 814 123 5 0 0 1 track - -, f 5;
#X obj 814 97 unpack 0 s;
#X obj 970 249 unpack 0 0 0 0;
#X floatatom 970 317 3 0 0 1 / - -, f 3;
#X floatatom 1001 317 3 0 0 1 - - -, f 3;
#X floatatom 1033 286 5 0 0 1 clocks_per_click - -, f 5;
#X floatatom 1065 317 5 0 0 1 32nds_per_quarternote - -, f 5;
#X floatatom 1190 420 15 0 0 0 microsec_per_quarternote - -, f 15
;
#X obj 1048 445 /;
#X floatatom 1189 465 15 0 0 0 microsec_per_tick - -, f 15;
#X obj 1048 486 / 1000;
#X floatatom 1048 517 15 0 0 0 millisec_per_tick - -, f 15;
#X obj 1214 123 print other_meta;
#X obj 737 36 route seq_num name end time_sig microsec_per_quarternote
;
#X obj 1126 94 route key_sig;
#X obj 1126 151 unpack 0 0 s;
#X symbolatom 1207 256 10 0 0 0 key - -, f 10;
#X obj 1207 230 prepend set;
#X floatatom 1126 180 5 0 0 1 +sharps/-flats - -, f 5;
#X obj 1166 209 tgl 15 0 empty empty minor 17 7 0 10 -262144 -1 -1
0 1;
#X msg 720 366 380000;
#X floatatom 1001 396 15 0 0 0 microsec_per_quarternote_hack - -,
f 15;
#X msg 947 370 2000;
#X obj 397 294 tgl 15 0 empty empty empty 17 7 0 10 -262144 -1 -1 1
1;
#X obj 434 216 metro 2;
#X connect 0 0 31 0;
#X connect 1 0 26 0;
#X connect 2 0 1 0;
#X connect 3 0 99 0;
#X connect 4 0 31 0;
#X connect 7 0 8 0;
#X connect 8 0 31 0;
#X connect 9 0 31 0;
#X connect 10 0 31 0;
#X connect 11 0 29 0;
#X connect 15 0 31 0;
#X connect 20 0 31 0;
#X connect 24 0 64 0;
#X connect 25 0 24 1;
#X connect 26 0 31 0;
#X connect 27 0 20 0;
#X connect 28 0 27 0;
#X connect 29 0 10 0;
#X connect 29 0 40 0;
#X connect 31 0 34 0;
#X connect 31 0 55 0;
#X connect 31 1 6 0;
#X connect 31 1 47 1;
#X connect 31 2 63 0;
#X connect 33 0 32 0;
#X connect 34 0 35 0;
#X connect 34 0 43 0;
#X connect 34 0 50 0;
#X connect 34 1 51 0;
#X connect 34 2 52 0;
#X connect 34 3 53 0;
#X connect 34 16 36 0;
#X connect 35 0 17 0;
#X connect 35 1 18 0;
#X connect 36 0 44 0;
#X connect 36 0 50 0;
#X connect 36 1 51 0;
#X connect 36 2 52 0;
#X connect 36 3 53 0;
#X connect 37 0 31 0;
#X connect 38 0 33 0;
#X connect 39 0 24 0;
#X connect 39 1 47 0;
#X connect 45 0 64 1;
#X connect 47 0 19 0;
#X connect 55 0 58 0;
#X connect 55 0 59 0;
#X connect 58 0 56 0;
#X connect 58 0 62 0;
#X connect 58 1 57 0;
#X connect 58 1 61 1;
#X connect 61 0 60 0;
#X connect 62 0 61 0;
#X connect 62 1 60 1;
#X connect 63 0 41 0;
#X connect 63 0 39 0;
#X connect 63 1 66 0;
#X connect 63 2 67 0;
#X connect 63 3 68 0;
#X connect 63 3 83 1;
#X connect 63 4 88 0;
#X connect 64 0 31 0;
#X connect 71 0 70 0;
#X connect 72 0 74 0;
#X connect 72 1 73 0;
#X connect 76 0 75 0;
#X connect 76 1 71 0;
#X connect 77 0 78 0;
#X connect 77 1 79 0;
#X connect 77 2 80 0;
#X connect 77 3 81 0;
#X connect 83 0 84 0;
#X connect 83 0 85 0;
#X connect 85 0 86 0;
#X connect 88 0 69 0;
#X connect 88 1 76 0;
#X connect 88 2 72 0;
#X connect 88 3 77 0;
#X connect 88 4 82 0;
#X connect 88 4 83 0;
#X connect 88 5 89 0;
#X connect 89 0 90 0;
#X connect 89 1 87 0;
#X connect 90 0 93 0;
#X connect 90 1 94 0;
#X connect 90 2 92 0;
#X connect 92 0 91 0;
#X connect 95 0 31 0;
#X connect 96 0 83 0;
#X connect 97 0 96 0;
#X connect 99 0 31 0;
#X connect 99 0 98 0;
