#N canvas -8 -8 1920 1032 10;
#X obj 770 956 noteout;
#X obj 791 735 loadbang;
#X obj 769 847 metro;
#X obj 764 909 makenote;
#X floatatom 857 846 0 0 0 0 - - -;
#X obj 769 873 f;
#X floatatom 818 829 0 0 0 0 - - -;
#X floatatom 906 829 0 0 0 0 - - -;
#X floatatom 945 830 0 0 0 0 - - -;
#X msg 839 778 64;
#X text 817 808 rate;
#X text 860 808 pitch;
#X text 901 806 vel;
#X text 941 809 length;
#X obj 762 798 tgl 15 0 empty empty empty 17 7 0 10 #fcfcfc #000000
#000000 0 1;
#X obj 111 205 tgl 15 0 empty empty empty 17 7 0 10 #fcfcfc #000000
#000000 0 1;
#X obj 596 247 tgl 15 0 empty empty empty 17 7 0 10 #fcfcfc #000000
#000000 1 1;
#X obj 236 122 hsl 128 15 0 127 0 0 empty empty empty -2 -8 0 10 #fcfcfc
#000000 #000000 12700 1;
#X obj 670 120 hsl 128 15 700 1200 0 0 empty empty empty -2 -8 0 10
#fcfcfc #000000 #000000 4752 1;
#X obj 744 158 i;
#X obj 794 157 hsl 128 15 0 3 0 0 empty empty empty -2 -8 0 10 #fcfcfc
#000000 #000000 12700 1;
#X obj 286 175 hsl 128 15 0 127 0 0 empty empty empty -2 -8 0 10 #fcfcfc
#000000 #000000 0 1;
#X msg 867 778 1149;
#X msg 778 778 1255;
#X msg 810 778 14;
#X obj 1069 132 hsl 128 15 0 127 0 0 empty empty empty -2 -8 0 10 #fcfcfc
#000000 #000000 12700 1;
#X obj 1483 146 hsl 128 15 0 127 0 0 empty empty empty -2 -8 0 10 #fcfcfc
#000000 #000000 12700 1;
#X obj 1887 163 hsl 128 15 0 127 0 0 empty empty empty -2 -8 0 10 #fcfcfc
#000000 #000000 12700 1;
#X floatatom 2296 452 5 0 0 0 - - -, f 5;
#X obj 2270 185 hsl 128 15 0 127 0 0 empty empty empty -2 -8 0 10 #fcfcfc
#000000 #000000 12700 1;
#X obj 2647 165 hsl 128 15 0 127 0 0 empty empty empty -2 -8 0 10 #fcfcfc
#000000 #000000 12700 1;
#X obj 2999 179 hsl 128 15 0 127 0 0 empty empty empty -2 -8 0 10 #fcfcfc
#000000 #000000 12700 1;
#X msg 913 778 100;
#X obj 722 805 bng 15 250 50 0 empty empty empty 17 7 0 10 #fcfcfc
#000000 #000000;
#X obj -129 753 expr 60000 / (24 * $f1);
#X obj -246 746 t f f;
#X msg -246 804 250;
#X msg -211 805 252;
#X msg -174 805 248;
#X obj -246 775 sel 1;
#X floatatom -172 745 5 0 0 0 - - -, f 5;
#X obj -245 693 tgl 15 0 empty empty empty 17 7 0 10 #fcfcfc #000000
#000000 0 1;
#X floatatom -158 855 5 0 0 0 - - -, f 5;
#X obj -107 643 noteout;
#X text -444 252 TX_OFF = 0 \, //npc TX_ON = 1 \, //npc UPDOWN_OFF
= 2 \, STATION_UP = 3 \, STATION_DOWN = 4 \, DOWN1 = 5 \, //todo make
relative... align with pitch wheel DOWN2 = 6 \, DOWN3 = 7 \, //piece
wise linear that way... DOWN4 = 8 \, DOWN5 = 9 \, UP1 = 110 \, UP2
= 111 \, UP3 = 112 \, UP4 = 113 \, UP5 = 114 \, STATION_UP2 = 115 \,
//npc STATION_DOWN2 = 116 \, //npc//npc STATION_UP3 = 117 \, STATION_DOWN3
= 118 \, //npc STATION_UP4 = 119 \, //npc STATION_DOWN4 = 120 \, //npc
STATION_UP5 = 121 \, //npc STATION_DOWN5 = 122 \, //npc STATION_UP6
= 123 \, //npc STATION_DOWN6 = 124 //npc;
#X obj -51 394 vradio 15 1 0 8 empty empty Channel 0 -8 0 10 #fcfcfc
#000000 #000000 0;
#X floatatom -49 652 5 1 16 0 - - -, f 5;
#X obj -77 463 vsl 15 128 0 127 0 0 empty empty empty 0 -9 0 10 #fcfcfc
#000000 #000000 0 1;
#X floatatom -88 612 5 700 1200 0 - - -, f 5;
#X obj -107 434 vsl 15 128 0 127 0 0 empty empty empty 0 -9 0 10 #fcfcfc
#000000 #000000 0 1;
#X floatatom -129 612 5 700 1200 0 - - -, f 5;
#X obj -174 776 metro 25;
#X msg -312 518 0;
#X msg -311 540 1;
#X msg -317 429 2;
#X msg -243 425 3;
#X msg -277 427 4;
#X msg -198 428 5;
#X msg -199 452 6;
#X msg -199 475 7;
#X msg -199 499 8;
#X msg -200 522 9;
#X msg -159 427 110;
#X msg -160 450 111;
#X msg -159 475 112;
#X msg -160 500 113;
#X msg -159 522 114;
#X msg -244 451 115;
#X msg -276 451 116;
#X msg -243 475 117;
#X msg -276 474 118;
#X msg -244 499 119;
#X msg -276 499 120;
#X msg -244 521 121;
#X msg -277 521 122;
#X msg -246 544 123;
#X msg -276 544 124;
#X text -275 391 Stat;
#X text -244 406 up;
#X text -276 408 down;
#X text -192 390 Gliss;
#X text -202 403 down;
#X text -157 403 up;
#X text -325 401 glissOff;
#X obj -312 565 tgl 15 0 empty empty empty 17 7 0 10 #fcfcfc #000000
#000000 0 1;
#X text -320 492 TXOn;
#X obj -48 878 r comctl;
#X obj -37 895 r comtx;
#X obj -45 930 comport 0 115200;
#X obj -116 251 s comctl;
#X msg -124 182 devices;
#X msg -111 221 close;
#X obj -245 867 s comtx;
#X obj -246 833 f;
#X obj -182 708 hsl 128 15 0 127 0 0 empty empty empty -2 -8 0 10 #fcfcfc
#000000 #000000 0 1;
#X obj -132 824 bng 15 250 50 0 empty empty empty 17 7 0 10 #fcfcfc
#000000 #000000;
#X obj -213 678 tgl 15 0 empty empty empty 17 7 0 10 #fcfcfc #000000
#000000 0 1;
#X text -34 404 1;
#X text -33 439 3;
#X text -32 469 5;
#X text -33 497 7;
#X text -33 529 9;
#X text -35 558 11;
#X text -31 589 13;
#X text -32 617 15;
#X msg -282 801 255;
#X text -309 799 RST!;
#X msg -129 162 devicename /dev/ttyUSB1;
#X msg -314 234 243;
#X msg -314 212 242;
#X text -283 212 Song Pos [needs 16bits];
#X text -285 231 Song Select [needs 7bits];
#X msg -142 140 devicename /dev/ttyUSB0;
#X text -296 885 sysEx to reboot and flashMagic!;
#X obj -294 938 s comtx;
#X obj -305 866 bng 15 250 50 0 empty empty empty 17 7 0 10 #fcfcfc
#000000 #000000;
#X obj 17 910 print;
#X obj -247 921 delay 1000;
#X msg -174 937 close;
#X obj -173 957 s comctl;
#X msg -294 903 240 1 14 13 67 111 126 7 2 247;
#X obj -314 623 tgl 15 0 empty empty empty 17 7 0 10 #fcfcfc #000000
#000000 0 1;
#X obj -310 645 * 127;
#X obj -309 670 ctlout 10;
#X text -294 622 Stereo;
#X text -134 405 Pitch Slider;
#X obj 283 267 radioOrganCtrl;
#X obj 252 224 +;
#X floatatom 246 195 5 0 0 0 - - -, f 5;
#X obj 722 272 radioOrganCtrl;
#X obj 817 217 +;
#X floatatom 811 188 5 0 0 0 - - -, f 5;
#X msg 862 238 3;
#X obj 862 216 loadbang;
#X obj 1119 196 i;
#X obj 1169 195 hsl 128 15 0 127 0 0 empty empty empty -2 -8 0 10 #fcfcfc
#000000 #000000 0 1;
#X obj 1111 313 radioOrganCtrl;
#X obj 1206 258 +;
#X floatatom 1200 229 5 0 0 0 - - -, f 5;
#X obj 1251 257 loadbang;
#X msg 1251 279 5;
#X obj 1584 204 i;
#X obj 1634 203 hsl 128 15 0 127 0 0 empty empty empty -2 -8 0 10 #fcfcfc
#000000 #000000 0 1;
#X obj 1518 318 radioOrganCtrl;
#X obj 1613 263 +;
#X floatatom 1607 234 5 0 0 0 - - -, f 5;
#X obj 1658 262 loadbang;
#X msg 1658 284 7;
#X obj 1972 223 i;
#X obj 2022 222 hsl 128 15 0 127 0 0 empty empty empty -2 -8 0 10 #fcfcfc
#000000 #000000 0 1;
#X obj 1906 337 radioOrganCtrl;
#X obj 2001 282 +;
#X floatatom 1995 253 5 0 0 0 - - -, f 5;
#X obj 2046 281 loadbang;
#X msg 2046 303 9;
#X obj 2361 246 i;
#X obj 2411 245 hsl 128 15 0 127 0 0 empty empty empty -2 -8 0 10 #fcfcfc
#000000 #000000 0 1;
#X obj 2295 360 radioOrganCtrl;
#X obj 2389 307 +;
#X floatatom 2384 276 5 0 0 0 - - -, f 5;
#X obj 2435 304 loadbang;
#X msg 2435 326 11;
#X obj 2747 232 i;
#X obj 2767 210 hsl 128 15 0 127 0 0 empty empty empty -2 -8 0 10 #fcfcfc
#000000 #000000 0 1;
#X obj 2681 346 radioOrganCtrl;
#X obj 2776 291 +;
#X floatatom 2770 262 5 0 0 0 - - -, f 5;
#X obj 2821 290 loadbang;
#X msg 2820 312 13;
#X obj 3117 224 i;
#X obj 3167 223 hsl 128 15 0 127 0 0 empty empty empty -2 -8 0 10 #fcfcfc
#000000 #000000 0 1;
#X obj 3051 338 radioOrganCtrl;
#X obj 3108 276 +;
#X floatatom 3102 247 5 0 0 0 - - -, f 5;
#X obj 3191 282 loadbang;
#X msg 3191 304 15;
#X floatatom 1111 402 5 0 0 0 - - -, f 5;
#X floatatom 722 361 5 0 0 0 - - -, f 5;
#X floatatom 284 359 5 0 0 0 - - -, f 5;
#X floatatom 1518 407 5 0 0 0 - - -, f 5;
#X floatatom 1906 426 5 0 0 0 - - -, f 5;
#X floatatom 2681 435 5 0 0 0 - - -, f 5;
#X floatatom 3051 427 5 0 0 0 - - -, f 5;
#X obj 331 469 hradio 15 1 0 8 empty empty empty 0 -8 0 10 #fcfcfc
#000000 #000000 0;
#X msg 429 225 1;
#X obj 1987 561 hsl 128 15 0 127 0 0 empty empty empty -2 -8 0 10 #fcfcfc
#000000 #000000 12700 1;
#X obj 1943 536 i;
#X obj 1993 535 hsl 128 15 0 127 0 0 empty empty empty -2 -8 0 10 #fcfcfc
#000000 #000000 1100 1;
#X obj 1934 588 +;
#X floatatom 1928 559 5 0 0 0 - - -, f 5;
#X msg 1686 536 888;
#X msg 1618 540 870;
#X msg 1734 536 894;
#X msg 1780 532 911;
#X msg 1653 538 880;
#X msg 1827 530 833;
#X msg 1827 551 878;
#X msg 1857 530 773;
#X msg 1858 550 818;
#X obj 1456 530 tgl 15 0 empty empty empty 17 7 0 10 #fcfcfc #000000
#000000 1 1;
#X obj 719 201 r \$0-globalPower;
#X obj 1089 242 r \$0-globalPower;
#X obj 1480 240 r \$0-globalPower;
#X obj 1885 244 r \$0-globalPower;
#X obj 2251 278 r \$0-globalPower;
#X obj 2642 250 r \$0-globalPower;
#X obj 3006 228 r \$0-globalPower;
#X obj 1456 595 s \$0-globalPower;
#X obj 719 223 r globalPower;
#X obj 170 276 r \$0-globalPower;
#X obj 228 81 r \$0-globalStat;
#X obj 731 64 r \$0-globalStat;
#X obj 1117 64 r \$0-globalStat;
#X obj 1506 111 r \$0-globalStat;
#X obj 1889 133 r \$0-globalStat;
#X obj 2270 157 r \$0-globalStat;
#X obj 2652 137 r \$0-globalStat;
#X obj 2998 144 r \$0-globalStat;
#X obj 1990 670 s \$0-globalStat;
#X obj 435 188 r \$0-globalDev;
#X obj 872 185 r \$0-globalDev;
#X obj 1246 224 r \$0-globalDev;
#X obj 1657 232 r \$0-globalDev;
#X obj 2044 250 r \$0-globalDev;
#X obj 2439 274 r \$0-globalDev;
#X obj 2817 256 r \$0-globalDev;
#X obj 3161 256 r \$0-globalDev;
#X obj 331 489 s \$0-globalDev;
#X obj 3235 309 r \$0-globalChan;
#X obj 2845 339 r \$0-globalChan;
#X obj 2435 348 r \$0-globalChan;
#X obj 2046 325 r \$0-globalChan;
#X obj 1658 306 r \$0-globalChan;
#X obj 1251 301 r \$0-globalChan;
#X obj 862 260 r \$0-globalChan;
#X obj 428 251 r \$0-globalChan;
#X obj 1152 501 hradio 15 1 0 8 empty empty empty 0 -8 0 10 #fcfcfc
#000000 #000000 0;
#X text 1273 516 8;
#X obj 1152 521 s \$0-globalChan;
#X obj 1104 501 bng 15 250 50 0 empty empty empty 17 7 0 10 #fcfcfc
#000000 #000000;
#X obj 1105 543 s rstChan;
#X obj 461 207 r rstChan;
#X obj 895 238 r rstChan;
#X obj 1283 277 r rstChan;
#X obj 1687 283 r rstChan;
#X obj 2080 303 r rstChan;
#X obj 2467 327 r rstChan;
#X obj 2851 313 r rstChan;
#X obj 3258 283 r rstChan;
#X msg 1637 564 900;
#X msg 991 823 21;
#X msg 1064 820 14;
#X obj 85 475 ctlout 123 1;
#X obj 78 423 bng 15 250 50 0 empty empty empty 17 7 0 10 #fcfcfc #000000
#000000;
#X obj 8 416 tgl 15 0 empty empty empty 17 7 0 10 #fcfcfc #000000 #000000
0 1;
#X obj 8 441 metro 50;
#X floatatom 8 463 5 0 0 0 - - -, f 5;
#X obj 112 232 metro 666;
#X obj 36 126 r \$0-txMetroEn1;
#X obj 153 88 vsl 15 128 0 127 0 0 empty empty empty 0 -9 0 10 #fcfcfc
#000000 #000000 0 1;
#X floatatom 178 231 5 0 0 0 - - -, f 5;
#X obj 219 -46 r \$0-stat1;
#X obj 138 38 r \$0-globalTxMetro;
#X obj 16 106 r &0-globalTxMetroEn;
#X obj 266 491 r 1-oscIn;
#X obj 297 667 routeOSC /1/1 /2/1 /3/1 /4/1 /5/1 /6/1 /7/1 /8/1;
#X obj 293 731 s \$0-txMetroEn1;
#X obj 305 710 s \$0-txMetroEn2;
#X obj 336 689 s \$0-txMetroEn3;
#X obj 391 735 s \$0-txMetroEn4;
#X obj 405 714 s \$0-txMetroEn5;
#X obj 436 690 s \$0-txMetroEn6;
#X obj 494 734 s \$0-txMetroEn7;
#X obj 510 714 s \$0-txMetroEn8;
#X obj 520 292 r &0-globalTxMetroEn;
#X obj 540 312 r \$0-txMetroEn2;
#X obj 556 102 vsl 15 128 0 127 0 0 empty empty empty 0 -9 0 10 #fcfcfc
#000000 #000000 12700 1;
#X obj 541 52 r \$0-globalTxMetro;
#X obj 278 560 routeOSC /1 /2 /3 /4 /5 /6 /7 /8;
#X obj 278 582 s \$0-txMetroRel1;
#X obj 278 604 s \$0-txMetroRel2;
#X obj 278 626 s \$0-txMetroRel3;
#X obj 278 648 s \$0-txMetroRel4;
#X obj 386 582 s \$0-txMetroRel5;
#X obj 386 604 s \$0-txMetroRel6;
#X obj 386 626 s \$0-txMetroRel7;
#X obj 386 648 s \$0-txMetroRel8;
#X obj 22 -45 r \$0-txMetroRel1;
#X obj 63 -1 *;
#X obj 76 -25 r \$0-txMetroScale;
#X obj 304 541 s \$0-txMetroScale;
#X floatatom 99 0 5 0 0 0 - - -, f 5;
#X floatatom 22 1 5 0 0 0 - - -, f 5;
#X obj 416 543 s \$0-globalPowerIn;
#X obj 1455 507 r \$0-globalPowerIn;
#X obj 491 603 routeOSC /1 /2 /3 /4 /5 /6 /7 /8;
#X obj 491 625 s \$0-stat1;
#X obj 491 647 s \$0-stat2;
#X obj 561 626 s \$0-stat3;
#X obj 561 648 s \$0-stat4;
#X obj 696 649 s \$0-stat8;
#X obj 696 627 s \$0-stat7;
#X obj 629 649 s \$0-stat6;
#X obj 629 627 s \$0-stat5;
#X obj 528 578 s \$0-statScale;
#X obj 276 -21 *;
#X floatatom 312 -20 5 0 0 0 - - -, f 5;
#X floatatom 235 -19 5 0 0 0 - - -, f 5;
#X obj 289 -45 r \$0-statScale;
#X obj 276 1 + 700;
#X obj 581 560 s \$0-statBase;
#X obj 276 23 +;
#X obj 325 0 r \$0-statBase;
#X obj 292 512 routeOSC /txMetroEn /txMetro /txMetroScale /allTxOn
/stat /statScale /statBase /statStore /statRecall, f 108;
#N canvas 0 0 450 300 (subpatch) 0;
#X array \$0-stations 8 float 3 black black;
#A 0 0 0 0 0 0 0 0 0;
#X coords 0 1 8 -1 200 140 1;
#X restore -412 -26 graph;
#X obj 239 163 i;
#X obj 798 629 funbuff;
#C restore;
#X obj 260 379 list prepend;
#X obj 782 544 t b;
#X obj 260 401 s buffun;
#X obj 807 587 r buffun;
#X obj 907 601 funbuff;
#C restore;
#X obj 663 392 list prepend;
#X obj 663 414 s buffun;
#X obj 670 -28 *;
#X floatatom 706 -27 5 0 0 0 - - -, f 5;
#X floatatom 629 -26 5 0 0 0 - - -, f 5;
#X obj 683 -52 r \$0-statScale;
#X obj 670 -6 + 700;
#X obj 670 16 +;
#X obj 719 -7 r \$0-statBase;
#X obj 613 -53 r \$0-stat2;
#X obj 919 543 t b b;
#X msg 1060 594 dump;
#X obj 340 89 r \$0-directStat1;
#X obj 921 693 s;
#X obj 940 671 symbol;
#X msg 948 646 symbol \$0-directStat\$1;
#X obj 731 87 r \$0-directStat3;
#X obj 905 625 t a b;
#X obj 1029 275 tgl 15 0 empty empty empty 17 7 0 10 #fcfcfc #000000
#000000 0 1;
#X obj 953 320 r &0-globalTxMetroEn;
#X obj 989 130 vsl 15 128 0 127 0 0 empty empty empty 0 -9 0 10 #fcfcfc
#000000 #000000 0 1;
#X obj 974 80 r \$0-globalTxMetro;
#X obj 973 340 r \$0-txMetroEn3;
#X obj 1460 289 tgl 15 0 empty empty empty 17 7 0 10 #fcfcfc #000000
#000000 0 1;
#X obj 1384 334 r &0-globalTxMetroEn;
#X obj 1420 144 vsl 15 128 0 127 0 0 empty empty empty 0 -9 0 10 #fcfcfc
#000000 #000000 0 1;
#X obj 1405 94 r \$0-globalTxMetro;
#X obj 1404 354 r \$0-txMetroEn4;
#X obj 644 249 metro 666;
#X obj 1071 277 metro 666;
#X obj 1486 279 metro 666;
#X floatatom 1420 282 5 0 0 0 - - -, f 5;
#X floatatom 989 268 5 0 0 0 - - -, f 5;
#X floatatom 556 240 5 0 0 0 - - -, f 5;
#X obj 1848 319 tgl 15 0 empty empty empty 17 7 0 10 #fcfcfc #000000
#000000 0 1;
#X obj 1772 364 r &0-globalTxMetroEn;
#X obj 1808 174 vsl 15 128 0 127 0 0 empty empty empty 0 -9 0 10 #fcfcfc
#000000 #000000 0 1;
#X obj 1793 124 r \$0-globalTxMetro;
#X obj 1874 309 metro 666;
#X floatatom 1808 312 5 0 0 0 - - -, f 5;
#X obj 2234 335 tgl 15 0 empty empty empty 17 7 0 10 #fcfcfc #000000
#000000 0 1;
#X obj 2158 380 r &0-globalTxMetroEn;
#X obj 2194 190 vsl 15 128 0 127 0 0 empty empty empty 0 -9 0 10 #fcfcfc
#000000 #000000 0 1;
#X obj 2179 140 r \$0-globalTxMetro;
#X obj 2259 321 metro 666;
#X floatatom 2194 328 5 0 0 0 - - -, f 5;
#X obj 2619 321 tgl 15 0 empty empty empty 17 7 0 10 #fcfcfc #000000
#000000 0 1;
#X obj 2543 366 r &0-globalTxMetroEn;
#X obj 2579 176 vsl 15 128 0 127 0 0 empty empty empty 0 -9 0 10 #fcfcfc
#000000 #000000 0 1;
#X obj 2564 126 r \$0-globalTxMetro;
#X obj 2645 311 metro 666;
#X floatatom 2579 314 5 0 0 0 - - -, f 5;
#X obj 1783 104 r \$0-txMetro5;
#X obj 1792 384 r \$0-txMetroEn5;
#X obj 2169 120 r \$0-txMetro6;
#X obj 2178 400 r \$0-txMetroEn6;
#X obj 2554 106 r \$0-txMetro7;
#X obj 2563 386 r \$0-txMetroEn7;
#X obj 2995 321 tgl 15 0 empty empty empty 17 7 0 10 #fcfcfc #000000
#000000 0 1;
#X obj 2919 366 r &0-globalTxMetroEn;
#X obj 2955 176 vsl 15 128 0 127 0 0 empty empty empty 0 -9 0 10 #fcfcfc
#000000 #000000 0 1;
#X obj 2940 126 r \$0-globalTxMetro;
#X obj 2930 106 r \$0-txMetro4;
#X obj 2939 386 r \$0-txMetroEn4;
#X obj 3021 311 metro 666;
#X floatatom 2955 314 5 0 0 0 - - -, f 5;
#X obj 580 152 r &0-globalTxMetroEn;
#X obj 600 172 r \$0-txMetroEn2;
#X obj 1001 174 r &0-globalTxMetroEn;
#X obj 1021 194 r \$0-txMetroEn3;
#X obj 1459 70 r &0-globalTxMetroEn;
#X obj 1461 42 r \$0-txMetroEn4;
#X obj 1841 60 r &0-globalTxMetroEn;
#X obj 1861 80 r \$0-txMetroEn5;
#X obj 2193 68 r &0-globalTxMetroEn;
#X obj 2213 88 r \$0-txMetroEn6;
#X obj 2599 56 r &0-globalTxMetroEn;
#X obj 2619 76 r \$0-txMetroEn7;
#X obj 2955 56 r &0-globalTxMetroEn;
#X obj 2975 76 r \$0-txMetroEn8;
#X obj 484 -2 *;
#X obj 497 -26 r \$0-txMetroScale;
#X floatatom 520 -1 5 0 0 0 - - -, f 5;
#X floatatom 443 0 5 0 0 0 - - -, f 5;
#X obj 443 -46 r \$0-txMetroRel2;
#X obj 1086 -34 *;
#X floatatom 1122 -33 5 0 0 0 - - -, f 5;
#X floatatom 1045 -32 5 0 0 0 - - -, f 5;
#X obj 1099 -58 r \$0-statScale;
#X obj 1086 -12 + 700;
#X obj 1086 10 +;
#X obj 1135 -13 r \$0-statBase;
#X obj 900 -8 *;
#X obj 913 -32 r \$0-txMetroScale;
#X floatatom 936 -7 5 0 0 0 - - -, f 5;
#X floatatom 859 -6 5 0 0 0 - - -, f 5;
#X obj 859 -52 r \$0-txMetroRel3;
#X obj 1029 -59 r \$0-stat3;
#X obj 1568 -33 *;
#X floatatom 1604 -32 5 0 0 0 - - -, f 5;
#X floatatom 1527 -31 5 0 0 0 - - -, f 5;
#X obj 1581 -57 r \$0-statScale;
#X obj 1568 -11 + 700;
#X obj 1568 11 +;
#X obj 1617 -12 r \$0-statBase;
#X obj 1382 -7 *;
#X obj 1395 -31 r \$0-txMetroScale;
#X floatatom 1418 -6 5 0 0 0 - - -, f 5;
#X floatatom 1341 -5 5 0 0 0 - - -, f 5;
#X obj 1341 -51 r \$0-txMetroRel4;
#X obj 1511 -58 r \$0-stat4;
#X obj 1946 -34 *;
#X floatatom 1982 -33 5 0 0 0 - - -, f 5;
#X floatatom 1905 -32 5 0 0 0 - - -, f 5;
#X obj 1959 -58 r \$0-statScale;
#X obj 1946 -12 + 700;
#X obj 1946 10 +;
#X obj 1995 -13 r \$0-statBase;
#X obj 1760 -8 *;
#X obj 1773 -32 r \$0-txMetroScale;
#X floatatom 1796 -7 5 0 0 0 - - -, f 5;
#X floatatom 1719 -6 5 0 0 0 - - -, f 5;
#X obj 1719 -52 r \$0-txMetroRel5;
#X obj 1889 -59 r \$0-stat5;
#X obj 2364 -31 *;
#X floatatom 2400 -30 5 0 0 0 - - -, f 5;
#X floatatom 2323 -29 5 0 0 0 - - -, f 5;
#X obj 2377 -55 r \$0-statScale;
#X obj 2364 -9 + 700;
#X obj 2364 13 +;
#X obj 2413 -10 r \$0-statBase;
#X obj 2178 -5 *;
#X obj 2191 -29 r \$0-txMetroScale;
#X floatatom 2214 -4 5 0 0 0 - - -, f 5;
#X floatatom 2137 -3 5 0 0 0 - - -, f 5;
#X obj 2137 -49 r \$0-txMetroRel6;
#X obj 2307 -56 r \$0-stat6;
#X obj 2800 -39 *;
#X floatatom 2836 -38 5 0 0 0 - - -, f 5;
#X floatatom 2759 -37 5 0 0 0 - - -, f 5;
#X obj 2813 -63 r \$0-statScale;
#X obj 2800 -17 + 700;
#X obj 2800 5 +;
#X obj 2849 -18 r \$0-statBase;
#X obj 2614 -13 *;
#X obj 2627 -37 r \$0-txMetroScale;
#X floatatom 2650 -12 5 0 0 0 - - -, f 5;
#X floatatom 2573 -11 5 0 0 0 - - -, f 5;
#X obj 3207 -49 *;
#X floatatom 3243 -48 5 0 0 0 - - -, f 5;
#X floatatom 3166 -47 5 0 0 0 - - -, f 5;
#X obj 3220 -73 r \$0-statScale;
#X obj 3207 -27 + 700;
#X obj 3207 -5 +;
#X obj 3256 -28 r \$0-statBase;
#X obj 3025 -21 *;
#X obj 3034 -47 r \$0-txMetroScale;
#X floatatom 3057 -22 5 0 0 0 - - -, f 5;
#X floatatom 2980 -21 5 0 0 0 - - -, f 5;
#X obj 2573 -57 r \$0-txMetroRel7;
#X obj 2743 -64 r \$0-stat7;
#X obj 2980 -67 r \$0-txMetroRel8;
#X obj 3150 -74 r \$0-stat8;
#X msg -116 202 open 4;
#X floatatom 845 921 5 0 0 0 - - -, f 5;
#X obj 75 556 midiin;
#X obj 167 550 tgl 15 0 empty empty empty 17 7 0 10 #fcfcfc #000000
#000000 0 1;
#X obj 72 592 spigot;
#X obj 81 625 midiout;
#X obj 969 501 bng 15 250 50 0 empty empty empty 17 7 0 10 #fcfcfc
#000000 #000000;
#X obj 814 451 bng 15 250 50 0 empty empty empty 17 7 0 10 #fcfcfc
#000000 #000000;
#X msg 922 568 read rx1-stations.txt;
#X msg 782 566 write rx1-stations.txt;
#X obj 1058 567 del 50;
#X obj 1042 426 list prepend;
#X obj 1042 448 s buffun;
#X obj 1448 437 list prepend;
#X obj 1448 459 s buffun;
#X obj 1839 454 list prepend;
#X obj 1839 476 s buffun;
#X obj 2234 479 list prepend;
#X obj 2234 501 s buffun;
#X obj 2622 476 list prepend;
#X obj 2622 498 s buffun;
#X obj 2989 462 list prepend;
#X obj 2989 484 s buffun;
#X obj 1124 88 r \$0-directStat5;
#X obj 1611 109 r \$0-directStat7;
#X obj 1998 134 r \$0-directStat9;
#X obj 2381 153 r \$0-directStat11;
#X obj 2763 134 r \$0-directStat13;
#X obj 3107 144 r \$0-directStat15;
#X obj 2000 620 loadbang;
#X msg 2000 645 range 879 1080;
#X connect 1 0 23 0;
#X connect 1 0 24 0;
#X connect 1 0 9 0;
#X connect 1 0 22 0;
#X connect 2 0 5 0;
#X connect 3 0 0 0;
#X connect 3 1 0 1;
#X connect 4 0 5 1;
#X connect 5 0 3 0;
#X connect 6 0 2 1;
#X connect 7 0 3 1;
#X connect 8 0 3 2;
#X connect 9 0 7 0;
#X connect 14 0 2 0;
#X connect 15 0 257 0;
#X connect 16 0 350 0;
#X connect 17 0 315 0;
#X connect 18 0 19 0;
#X connect 18 0 129 1;
#X connect 19 0 131 0;
#X connect 19 0 322 0;
#X connect 20 0 130 0;
#X connect 21 0 127 0;
#X connect 22 0 8 0;
#X connect 23 0 6 0;
#X connect 24 0 4 0;
#X connect 25 0 134 0;
#X connect 25 0 136 1;
#X connect 26 0 141 0;
#X connect 26 0 143 1;
#X connect 27 0 148 0;
#X connect 27 0 150 1;
#X connect 28 0 502 1;
#X connect 29 0 155 0;
#X connect 29 0 157 1;
#X connect 30 0 162 0;
#X connect 30 0 164 1;
#X connect 31 0 169 0;
#X connect 31 0 171 1;
#X connect 32 0 8 0;
#X connect 33 0 5 0;
#X connect 34 0 51 1;
#X connect 35 0 51 0;
#X connect 35 1 39 0;
#X connect 36 0 93 0;
#X connect 37 0 93 0;
#X connect 38 0 93 0;
#X connect 39 0 36 0;
#X connect 39 1 37 0;
#X connect 40 0 34 0;
#X connect 41 0 35 0;
#X connect 45 0 46 0;
#X connect 46 0 43 2;
#X connect 46 0 123 2;
#X connect 47 0 48 0;
#X connect 48 0 43 1;
#X connect 49 0 50 0;
#X connect 50 0 43 0;
#X connect 51 0 38 0;
#X connect 51 0 95 0;
#X connect 52 0 50 0;
#X connect 53 0 50 0;
#X connect 54 0 50 0;
#X connect 55 0 50 0;
#X connect 56 0 50 0;
#X connect 57 0 50 0;
#X connect 58 0 50 0;
#X connect 59 0 50 0;
#X connect 60 0 50 0;
#X connect 61 0 50 0;
#X connect 62 0 50 0;
#X connect 63 0 50 0;
#X connect 64 0 50 0;
#X connect 65 0 50 0;
#X connect 66 0 50 0;
#X connect 67 0 50 0;
#X connect 68 0 50 0;
#X connect 69 0 50 0;
#X connect 70 0 50 0;
#X connect 71 0 50 0;
#X connect 72 0 50 0;
#X connect 73 0 50 0;
#X connect 74 0 50 0;
#X connect 75 0 50 0;
#X connect 76 0 50 0;
#X connect 84 0 50 0;
#X connect 86 0 88 0;
#X connect 87 0 88 0;
#X connect 90 0 89 0;
#X connect 91 0 89 0;
#X connect 93 0 42 0;
#X connect 93 0 92 0;
#X connect 94 0 40 0;
#X connect 96 0 51 0;
#X connect 105 0 93 0;
#X connect 107 0 89 0;
#X connect 112 0 89 0;
#X connect 115 0 120 0;
#X connect 117 0 118 0;
#X connect 118 0 119 0;
#X connect 120 0 114 0;
#X connect 120 0 117 0;
#X connect 121 0 122 0;
#X connect 122 0 123 0;
#X connect 126 0 178 0;
#X connect 127 0 126 1;
#X connect 128 0 127 1;
#X connect 128 0 317 0;
#X connect 129 0 177 0;
#X connect 130 0 129 1;
#X connect 131 0 130 1;
#X connect 132 0 129 3;
#X connect 133 0 132 0;
#X connect 134 0 138 0;
#X connect 134 0 496 0;
#X connect 135 0 137 0;
#X connect 136 0 176 0;
#X connect 137 0 136 1;
#X connect 138 0 137 1;
#X connect 139 0 140 0;
#X connect 140 0 136 3;
#X connect 141 0 145 0;
#X connect 141 0 498 0;
#X connect 142 0 144 0;
#X connect 143 0 179 0;
#X connect 144 0 143 1;
#X connect 145 0 144 1;
#X connect 146 0 147 0;
#X connect 147 0 143 3;
#X connect 148 0 152 0;
#X connect 148 0 500 0;
#X connect 149 0 151 0;
#X connect 150 0 180 0;
#X connect 151 0 150 1;
#X connect 152 0 151 1;
#X connect 153 0 154 0;
#X connect 154 0 150 3;
#X connect 155 0 159 0;
#X connect 155 0 502 0;
#X connect 156 0 158 0;
#X connect 157 0 28 0;
#X connect 158 0 157 1;
#X connect 159 0 158 1;
#X connect 160 0 161 0;
#X connect 161 0 157 3;
#X connect 162 0 166 0;
#X connect 162 0 504 0;
#X connect 163 0 165 0;
#X connect 164 0 181 0;
#X connect 165 0 164 1;
#X connect 166 0 165 1;
#X connect 167 0 168 0;
#X connect 168 0 164 3;
#X connect 169 0 173 0;
#X connect 169 0 506 0;
#X connect 170 0 172 0;
#X connect 171 0 182 0;
#X connect 172 0 171 1;
#X connect 173 0 172 1;
#X connect 174 0 175 0;
#X connect 175 0 171 3;
#X connect 176 0 496 1;
#X connect 177 0 322 1;
#X connect 178 0 317 1;
#X connect 179 0 498 1;
#X connect 180 0 500 1;
#X connect 181 0 504 1;
#X connect 182 0 506 1;
#X connect 183 0 227 0;
#X connect 184 0 126 3;
#X connect 185 0 186 0;
#X connect 185 0 218 0;
#X connect 186 0 189 0;
#X connect 187 0 188 0;
#X connect 188 0 218 0;
#X connect 189 0 188 1;
#X connect 190 0 185 0;
#X connect 191 0 185 0;
#X connect 192 0 185 0;
#X connect 193 0 185 0;
#X connect 194 0 185 0;
#X connect 195 0 185 0;
#X connect 196 0 185 0;
#X connect 197 0 185 0;
#X connect 198 0 185 0;
#X connect 199 0 207 0;
#X connect 200 0 129 0;
#X connect 201 0 136 0;
#X connect 202 0 143 0;
#X connect 203 0 150 0;
#X connect 204 0 157 0;
#X connect 205 0 164 0;
#X connect 206 0 171 0;
#X connect 209 0 126 0;
#X connect 210 0 17 0;
#X connect 211 0 18 0;
#X connect 212 0 25 0;
#X connect 213 0 26 0;
#X connect 214 0 27 0;
#X connect 215 0 29 0;
#X connect 216 0 30 0;
#X connect 217 0 31 0;
#X connect 219 0 126 2;
#X connect 220 0 129 2;
#X connect 221 0 136 2;
#X connect 222 0 143 2;
#X connect 223 0 150 2;
#X connect 224 0 157 2;
#X connect 225 0 164 2;
#X connect 226 0 171 2;
#X connect 228 0 171 3;
#X connect 229 0 164 3;
#X connect 230 0 157 3;
#X connect 231 0 150 3;
#X connect 232 0 143 3;
#X connect 233 0 136 3;
#X connect 234 0 129 3;
#X connect 235 0 126 3;
#X connect 236 0 238 0;
#X connect 239 0 240 0;
#X connect 241 0 184 0;
#X connect 242 0 132 0;
#X connect 243 0 140 0;
#X connect 244 0 147 0;
#X connect 245 0 154 0;
#X connect 246 0 161 0;
#X connect 247 0 168 0;
#X connect 248 0 175 0;
#X connect 249 0 185 0;
#X connect 250 0 4 0;
#X connect 251 0 4 0;
#X connect 253 0 252 0;
#X connect 254 0 255 0;
#X connect 255 0 256 0;
#X connect 256 0 252 0;
#X connect 257 0 126 0;
#X connect 258 0 15 0;
#X connect 259 0 257 1;
#X connect 259 0 260 0;
#X connect 261 0 307 0;
#X connect 261 0 305 0;
#X connect 262 0 259 0;
#X connect 263 0 15 0;
#X connect 264 0 313 0;
#X connect 265 0 266 0;
#X connect 265 1 267 0;
#X connect 265 2 268 0;
#X connect 265 3 269 0;
#X connect 265 4 270 0;
#X connect 265 5 271 0;
#X connect 265 6 272 0;
#X connect 265 7 273 0;
#X connect 274 0 16 0;
#X connect 275 0 16 0;
#X connect 276 0 350 1;
#X connect 276 0 355 0;
#X connect 277 0 276 0;
#X connect 278 0 279 0;
#X connect 278 1 280 0;
#X connect 278 2 281 0;
#X connect 278 3 282 0;
#X connect 278 4 283 0;
#X connect 278 5 284 0;
#X connect 278 6 285 0;
#X connect 278 7 286 0;
#X connect 287 0 288 0;
#X connect 287 0 292 0;
#X connect 288 0 259 0;
#X connect 289 0 288 1;
#X connect 289 0 291 0;
#X connect 294 0 199 0;
#X connect 295 0 296 0;
#X connect 295 1 297 0;
#X connect 295 2 298 0;
#X connect 295 3 299 0;
#X connect 295 4 303 0;
#X connect 295 5 302 0;
#X connect 295 6 301 0;
#X connect 295 7 300 0;
#X connect 305 0 309 0;
#X connect 308 0 305 1;
#X connect 308 0 306 0;
#X connect 309 0 311 0;
#X connect 311 0 17 0;
#X connect 312 0 311 1;
#X connect 313 0 265 0;
#X connect 313 1 278 0;
#X connect 313 2 290 0;
#X connect 313 3 293 0;
#X connect 313 4 295 0;
#X connect 313 5 304 0;
#X connect 313 6 310 0;
#X connect 313 7 318 0;
#X connect 313 8 332 0;
#X connect 315 0 128 0;
#X connect 315 0 126 1;
#X connect 317 0 319 0;
#X connect 318 0 494 0;
#X connect 320 0 316 0;
#X connect 321 0 339 0;
#X connect 321 1 335 0;
#X connect 322 0 323 0;
#X connect 324 0 328 0;
#X connect 327 0 324 1;
#X connect 327 0 325 0;
#X connect 328 0 329 0;
#X connect 329 0 18 0;
#X connect 330 0 329 1;
#X connect 331 0 326 0;
#X connect 331 0 324 0;
#X connect 332 0 493 0;
#X connect 332 1 495 0;
#X connect 333 0 321 0;
#X connect 334 0 17 0;
#X connect 336 0 335 1;
#X connect 337 0 336 1;
#X connect 338 0 18 0;
#X connect 339 0 337 0;
#X connect 339 1 336 0;
#X connect 340 0 351 0;
#X connect 341 0 340 0;
#X connect 342 0 351 1;
#X connect 342 0 354 0;
#X connect 343 0 342 0;
#X connect 344 0 340 0;
#X connect 345 0 352 0;
#X connect 346 0 345 0;
#X connect 347 0 352 1;
#X connect 347 0 353 0;
#X connect 348 0 347 0;
#X connect 349 0 345 0;
#X connect 350 0 129 0;
#X connect 351 0 136 0;
#X connect 352 0 143 0;
#X connect 356 0 360 0;
#X connect 357 0 356 0;
#X connect 358 0 360 1;
#X connect 358 0 361 0;
#X connect 359 0 358 0;
#X connect 360 0 150 0;
#X connect 362 0 366 0;
#X connect 363 0 362 0;
#X connect 364 0 366 1;
#X connect 364 0 367 0;
#X connect 365 0 364 0;
#X connect 366 0 157 0;
#X connect 368 0 372 0;
#X connect 369 0 368 0;
#X connect 370 0 372 1;
#X connect 370 0 373 0;
#X connect 371 0 370 0;
#X connect 372 0 164 0;
#X connect 374 0 358 0;
#X connect 375 0 356 0;
#X connect 376 0 364 0;
#X connect 377 0 362 0;
#X connect 378 0 370 0;
#X connect 379 0 368 0;
#X connect 380 0 386 0;
#X connect 381 0 380 0;
#X connect 382 0 386 1;
#X connect 382 0 387 0;
#X connect 383 0 382 0;
#X connect 384 0 382 0;
#X connect 385 0 380 0;
#X connect 386 0 171 0;
#X connect 388 0 16 0;
#X connect 389 0 16 0;
#X connect 390 0 340 0;
#X connect 391 0 340 0;
#X connect 392 0 345 0;
#X connect 393 0 345 0;
#X connect 394 0 356 0;
#X connect 395 0 356 0;
#X connect 396 0 362 0;
#X connect 397 0 362 0;
#X connect 398 0 368 0;
#X connect 399 0 368 0;
#X connect 400 0 380 0;
#X connect 401 0 380 0;
#X connect 402 0 276 0;
#X connect 403 0 402 1;
#X connect 403 0 404 0;
#X connect 406 0 402 0;
#X connect 406 0 405 0;
#X connect 407 0 411 0;
#X connect 410 0 407 1;
#X connect 410 0 408 0;
#X connect 411 0 412 0;
#X connect 412 0 25 0;
#X connect 413 0 412 1;
#X connect 414 0 342 0;
#X connect 415 0 414 1;
#X connect 415 0 416 0;
#X connect 418 0 414 0;
#X connect 418 0 417 0;
#X connect 419 0 409 0;
#X connect 419 0 407 0;
#X connect 420 0 424 0;
#X connect 423 0 420 1;
#X connect 423 0 421 0;
#X connect 424 0 425 0;
#X connect 425 0 26 0;
#X connect 426 0 425 1;
#X connect 427 0 347 0;
#X connect 428 0 427 1;
#X connect 428 0 429 0;
#X connect 431 0 427 0;
#X connect 431 0 430 0;
#X connect 432 0 422 0;
#X connect 432 0 420 0;
#X connect 433 0 437 0;
#X connect 436 0 433 1;
#X connect 436 0 434 0;
#X connect 437 0 438 0;
#X connect 438 0 27 0;
#X connect 439 0 438 1;
#X connect 440 0 358 0;
#X connect 441 0 440 1;
#X connect 441 0 442 0;
#X connect 444 0 440 0;
#X connect 444 0 443 0;
#X connect 445 0 435 0;
#X connect 445 0 433 0;
#X connect 446 0 450 0;
#X connect 449 0 446 1;
#X connect 449 0 447 0;
#X connect 450 0 451 0;
#X connect 451 0 29 0;
#X connect 452 0 451 1;
#X connect 453 0 364 0;
#X connect 454 0 453 1;
#X connect 454 0 455 0;
#X connect 457 0 453 0;
#X connect 457 0 456 0;
#X connect 458 0 448 0;
#X connect 458 0 446 0;
#X connect 459 0 463 0;
#X connect 462 0 459 1;
#X connect 462 0 460 0;
#X connect 463 0 464 0;
#X connect 464 0 30 0;
#X connect 465 0 464 1;
#X connect 466 0 370 0;
#X connect 467 0 466 1;
#X connect 467 0 468 0;
#X connect 470 0 474 0;
#X connect 473 0 470 1;
#X connect 473 0 471 0;
#X connect 474 0 475 0;
#X connect 475 0 31 0;
#X connect 476 0 475 1;
#X connect 477 0 382 0;
#X connect 478 0 477 1;
#X connect 478 0 479 0;
#X connect 481 0 466 0;
#X connect 481 0 469 0;
#X connect 482 0 461 0;
#X connect 482 0 459 0;
#X connect 483 0 477 0;
#X connect 483 0 480 0;
#X connect 484 0 472 0;
#X connect 484 0 470 0;
#X connect 485 0 89 0;
#X connect 486 0 0 2;
#X connect 487 0 489 0;
#X connect 487 1 490 1;
#X connect 488 0 489 1;
#X connect 489 0 490 0;
#X connect 491 0 332 0;
#X connect 492 0 318 0;
#X connect 493 0 321 0;
#X connect 494 0 316 0;
#X connect 495 0 333 0;
#X connect 496 0 497 0;
#X connect 498 0 499 0;
#X connect 500 0 501 0;
#X connect 502 0 503 0;
#X connect 504 0 505 0;
#X connect 506 0 507 0;
#X connect 508 0 25 0;
#X connect 509 0 26 0;
#X connect 510 0 27 0;
#X connect 511 0 29 0;
#X connect 512 0 30 0;
#X connect 513 0 31 0;
#X connect 514 0 515 0;
#X connect 515 0 218 0;
