#N canvas 241 76 1679 893 10;
#X obj 432 1158 noteout;
#X obj 453 937 loadbang;
#X obj 431 1049 metro;
#X obj 426 1111 makenote;
#X floatatom 519 1048 0 0 0 0 - - -;
#X obj 431 1075 f;
#X floatatom 480 1031 0 0 0 0 - - -;
#X floatatom 568 1031 0 0 0 0 - - -;
#X floatatom 607 1032 0 0 0 0 - - -;
#X msg 501 980 64;
#X text 479 1010 rate;
#X text 522 1010 pitch;
#X text 563 1008 vel;
#X text 603 1011 length;
#X obj 424 1000 tgl 15 0 empty empty empty 17 7 0 10 #fcfcfc #000000
#000000 0 1;
#X obj 111 205 tgl 15 0 empty empty empty 17 7 0 10 #fcfcfc #000000
#000000 1 1;
#X obj 596 247 tgl 15 0 empty empty empty 17 7 0 10 #fcfcfc #000000
#000000 1 1;
#X obj 236 122 hsl 128 15 879 1080 0 0 empty empty empty -2 -8 0 10
#fcfcfc #000000 #000000 569 1;
#X obj 671 116 hsl 128 15 879 1080 0 0 empty empty empty -2 -8 0 10
#fcfcfc #000000 #000000 569 1;
#X obj 744 158 i;
#X obj 794 157 hsl 128 15 0 127 0 0 empty empty empty -2 -8 0 10 #fcfcfc
#000000 #000000 0 1;
#X obj 286 175 hsl 128 15 0 3 0 0 empty empty empty -2 -8 0 10 #fcfcfc
#000000 #000000 10900 1;
#X msg 529 980 1149;
#X msg 440 980 1255;
#X msg 472 980 14;
#X obj 1069 132 hsl 128 15 879 1080 0 0 empty empty empty -2 -8 0 10
#fcfcfc #000000 #000000 569 1;
#X obj 1483 146 hsl 128 15 879 1080 0 0 empty empty empty -2 -8 0 10
#fcfcfc #000000 #000000 569 1;
#X obj 1887 163 hsl 128 15 879 1080 0 0 empty empty empty -2 -8 0 10
#fcfcfc #000000 #000000 2269 1;
#X floatatom 2296 452 5 0 0 0 - - -, f 5;
#X obj 2270 185 hsl 128 15 879 1080 0 0 empty empty empty -2 -8 0 10
#fcfcfc #000000 #000000 2269 1;
#X obj 2647 165 hsl 128 15 879 1080 0 0 empty empty empty -2 -8 0 10
#fcfcfc #000000 #000000 350 1;
#X obj 2999 179 hsl 128 15 879 1080 0 0 empty empty empty -2 -8 0 10
#fcfcfc #000000 #000000 2069 1;
#X msg 575 980 100;
#X obj 384 1007 bng 15 250 50 0 empty empty empty 17 7 0 10 #fcfcfc
#000000 #000000;
#X obj -129 753 expr 60000 / (24 * $f1);
#X obj -246 746 t f f;
#X msg -246 804 250;
#X msg -211 805 252;
#X msg -174 805 248;
#X obj -246 775 sel 1;
#X floatatom -172 745 5 0 0 0 - - -, f 5;
#X obj -245 693 tgl 15 0 empty empty empty 17 7 0 10 #fcfcfc #000000
#000000 0 1;
#X floatatom -158 855 5 0 0 0 - - -, f 5;
#X obj -107 643 noteout;
#X text -444 252 TX_OFF = 0 \, //npc TX_ON = 1 \, //npc UPDOWN_OFF
= 2 \, STATION_UP = 3 \, STATION_DOWN = 4 \, DOWN1 = 5 \, //todo make
relative... align with pitch wheel DOWN2 = 6 \, DOWN3 = 7 \, //piece
wise linear that way... DOWN4 = 8 \, DOWN5 = 9 \, UP1 = 110 \, UP2
= 111 \, UP3 = 112 \, UP4 = 113 \, UP5 = 114 \, STATION_UP2 = 115 \,
//npc STATION_DOWN2 = 116 \, //npc//npc STATION_UP3 = 117 \, STATION_DOWN3
= 118 \, //npc STATION_UP4 = 119 \, //npc STATION_DOWN4 = 120 \, //npc
STATION_UP5 = 121 \, //npc STATION_DOWN5 = 122 \, //npc STATION_UP6
= 123 \, //npc STATION_DOWN6 = 124 //npc;
#X obj -51 394 vradio 15 1 0 8 empty empty Channel 0 -8 0 10 #fcfcfc
#000000 #000000 0;
#X floatatom -49 652 5 1 16 0 - - -, f 5;
#X obj -77 463 vsl 15 128 0 127 0 0 empty empty empty 0 -9 0 10 #fcfcfc
#000000 #000000 0 1;
#X floatatom -88 612 5 700 1200 0 - - -, f 5;
#X obj -107 434 vsl 15 128 0 127 0 0 empty empty empty 0 -9 0 10 #fcfcfc
#000000 #000000 0 1;
#X floatatom -129 612 5 700 1200 0 - - -, f 5;
#X obj -174 776 metro 25;
#X msg -312 518 0;
#X msg -311 540 1;
#X msg -317 429 2;
#X msg -243 425 3;
#X msg -277 427 4;
#X msg -198 428 5;
#X msg -199 452 6;
#X msg -199 475 7;
#X msg -199 499 8;
#X msg -200 522 9;
#X msg -159 427 110;
#X msg -160 450 111;
#X msg -159 475 112;
#X msg -160 500 113;
#X msg -159 522 114;
#X msg -244 451 115;
#X msg -276 451 116;
#X msg -243 475 117;
#X msg -276 474 118;
#X msg -244 499 119;
#X msg -276 499 120;
#X msg -244 521 121;
#X msg -277 521 122;
#X msg -246 544 123;
#X msg -276 544 124;
#X text -275 391 Stat;
#X text -244 406 up;
#X text -276 408 down;
#X text -192 390 Gliss;
#X text -202 403 down;
#X text -157 403 up;
#X text -325 401 glissOff;
#X obj -312 565 tgl 15 0 empty empty empty 17 7 0 10 #fcfcfc #000000
#000000 0 1;
#X text -320 492 TXOn;
#X obj -48 878 r comctl;
#X obj -37 895 r comtx;
#X obj -45 930 comport 0 115200;
#X obj -116 251 s comctl;
#X msg -124 182 devices;
#X msg -111 221 close;
#X obj -245 867 s comtx;
#X obj -246 833 f;
#X obj -182 708 hsl 128 15 0 127 0 0 empty empty empty -2 -8 0 10 #fcfcfc
#000000 #000000 0 1;
#X obj -132 824 bng 15 250 50 0 empty empty empty 17 7 0 10 #fcfcfc
#000000 #000000;
#X obj -213 678 tgl 15 0 empty empty empty 17 7 0 10 #fcfcfc #000000
#000000 0 1;
#X text -34 404 1;
#X text -33 439 3;
#X text -32 469 5;
#X text -33 497 7;
#X text -33 529 9;
#X text -35 558 11;
#X text -31 589 13;
#X text -32 617 15;
#X msg -282 801 255;
#X text -309 799 RST!;
#X msg -129 162 devicename /dev/ttyUSB1;
#X msg -314 234 243;
#X msg -314 212 242;
#X text -283 212 Song Pos [needs 16bits];
#X text -285 231 Song Select [needs 7bits];
#X msg -142 140 devicename /dev/ttyUSB0;
#X text -296 885 sysEx to reboot and flashMagic!;
#X obj -294 938 s comtx;
#X obj -305 866 bng 15 250 50 0 empty empty empty 17 7 0 10 #fcfcfc
#000000 #000000;
#X obj 17 910 print;
#X obj -247 921 delay 1000;
#X msg -174 937 close;
#X obj -173 957 s comctl;
#X msg -294 903 240 1 14 13 67 111 126 7 2 247;
#X obj -314 623 tgl 15 0 empty empty empty 17 7 0 10 #fcfcfc #000000
#000000 0 1;
#X obj -310 645 * 127;
#X obj -309 670 ctlout 10;
#X text -294 622 Stereo;
#X text -134 405 Pitch Slider;
#X obj 283 267 radioOrganCtrl;
#X obj 252 224 +;
#X floatatom 246 195 5 0 0 0 - - -, f 5;
#X obj 722 272 radioOrganCtrl;
#X obj 817 217 +;
#X floatatom 811 188 5 0 0 0 - - -, f 5;
#X msg 862 238 3;
#X obj 862 216 loadbang;
#X obj 1119 196 i;
#X obj 1169 195 hsl 128 15 0 127 0 0 empty empty empty -2 -8 0 10 #fcfcfc
#000000 #000000 10300 1;
#X obj 1111 313 radioOrganCtrl;
#X obj 1206 258 +;
#X floatatom 1200 229 5 0 0 0 - - -, f 5;
#X obj 1251 257 loadbang;
#X msg 1251 279 5;
#X obj 1584 204 i;
#X obj 1634 203 hsl 128 15 0 127 0 0 empty empty empty -2 -8 0 10 #fcfcfc
#000000 #000000 0 1;
#X obj 1518 318 radioOrganCtrl;
#X obj 1613 263 +;
#X floatatom 1607 234 5 0 0 0 - - -, f 5;
#X obj 1658 262 loadbang;
#X msg 1658 284 7;
#X obj 1972 223 i;
#X obj 2022 222 hsl 128 15 0 127 0 0 empty empty empty -2 -8 0 10 #fcfcfc
#000000 #000000 0 1;
#X obj 1906 337 radioOrganCtrl;
#X obj 2001 282 +;
#X floatatom 1995 253 5 0 0 0 - - -, f 5;
#X obj 2046 281 loadbang;
#X msg 2046 303 9;
#X obj 2361 246 i;
#X obj 2411 245 hsl 128 15 0 127 0 0 empty empty empty -2 -8 0 10 #fcfcfc
#000000 #000000 0 1;
#X obj 2295 360 radioOrganCtrl;
#X obj 2389 307 +;
#X floatatom 2384 276 5 0 0 0 - - -, f 5;
#X obj 2435 304 loadbang;
#X msg 2435 326 11;
#X obj 2747 232 i;
#X obj 2767 210 hsl 128 15 0 127 0 0 empty empty empty -2 -8 0 10 #fcfcfc
#000000 #000000 0 1;
#X obj 2681 346 radioOrganCtrl;
#X obj 2776 291 +;
#X floatatom 2770 262 5 0 0 0 - - -, f 5;
#X obj 2821 290 loadbang;
#X msg 2820 312 13;
#X obj 3117 224 i;
#X obj 3167 223 hsl 128 15 0 127 0 0 empty empty empty -2 -8 0 10 #fcfcfc
#000000 #000000 0 1;
#X obj 3051 338 radioOrganCtrl;
#X obj 3108 276 +;
#X floatatom 3102 247 5 0 0 0 - - -, f 5;
#X obj 3191 282 loadbang;
#X msg 3191 304 15;
#X floatatom 1111 402 5 0 0 0 - - -, f 5;
#X floatatom 722 361 5 0 0 0 - - -, f 5;
#X floatatom 284 359 5 0 0 0 - - -, f 5;
#X floatatom 1518 407 5 0 0 0 - - -, f 5;
#X floatatom 1906 426 5 0 0 0 - - -, f 5;
#X floatatom 2681 435 5 0 0 0 - - -, f 5;
#X floatatom 3051 427 5 0 0 0 - - -, f 5;
#X obj 331 469 hradio 15 1 0 8 empty empty empty 0 -8 0 10 #fcfcfc
#000000 #000000 0;
#X msg 429 225 1;
#X obj 1987 561 hsl 128 15 879 1080 0 0 empty empty empty -2 -8 0 10
#fcfcfc #000000 #000000 569 1;
#X obj 1943 536 i;
#X obj 1993 535 hsl 128 15 0 3 0 0 empty empty empty -2 -8 0 10 #fcfcfc
#000000 #000000 1950 1;
#X obj 1934 588 +;
#X floatatom 1928 559 5 0 0 0 - - -, f 5;
#X msg 1686 536 888;
#X msg 1618 540 870;
#X msg 1734 536 894;
#X msg 1780 532 911;
#X msg 1653 538 880;
#X msg 1827 530 833;
#X msg 1827 551 878;
#X msg 1857 530 773;
#X msg 1858 550 818;
#X obj 1456 530 tgl 15 0 empty empty empty 17 7 0 10 #fcfcfc #000000
#000000 1 1;
#X obj 719 201 r \$0-globalPower;
#X obj 1089 242 r \$0-globalPower;
#X obj 1519 241 r \$0-globalPower;
#X obj 1885 244 r \$0-globalPower;
#X obj 2265 259 r \$0-globalPower;
#X obj 2642 250 r \$0-globalPower;
#X obj 3006 228 r \$0-globalPower;
#X obj 1456 595 s \$0-globalPower;
#X obj 719 223 r globalPower;
#X obj 170 276 r \$0-globalPower;
#X obj 228 81 r \$0-globalStat;
#X obj 731 64 r \$0-globalStat;
#X obj 1086 105 r \$0-globalStat;
#X obj 1506 111 r \$0-globalStat;
#X obj 1889 133 r \$0-globalStat;
#X obj 2297 161 r \$0-globalStat;
#X obj 2669 143 r \$0-globalStat;
#X obj 2998 144 r \$0-globalStat;
#X obj 1989 607 s \$0-globalStat;
#X obj 435 188 r \$0-globalDev;
#X obj 872 185 r \$0-globalDev;
#X obj 1246 224 r \$0-globalDev;
#X obj 1657 232 r \$0-globalDev;
#X obj 2044 250 r \$0-globalDev;
#X obj 2439 274 r \$0-globalDev;
#X obj 2817 256 r \$0-globalDev;
#X obj 3161 256 r \$0-globalDev;
#X obj 331 489 s \$0-globalDev;
#X obj 3235 309 r \$0-globalChan;
#X obj 2845 339 r \$0-globalChan;
#X obj 2435 348 r \$0-globalChan;
#X obj 2046 325 r \$0-globalChan;
#X obj 1658 306 r \$0-globalChan;
#X obj 1251 301 r \$0-globalChan;
#X obj 862 260 r \$0-globalChan;
#X obj 428 251 r \$0-globalChan;
#X obj 826 427 hradio 15 1 0 8 empty empty empty 0 -8 0 10 #fcfcfc
#000000 #000000 0;
#X text 947 442 8;
#X obj 826 447 s \$0-globalChan;
#X obj 778 427 bng 15 250 50 0 empty empty empty 17 7 0 10 #fcfcfc
#000000 #000000;
#X obj 779 469 s rstChan;
#X obj 461 207 r rstChan;
#X obj 895 238 r rstChan;
#X obj 1283 277 r rstChan;
#X obj 1687 283 r rstChan;
#X obj 2080 303 r rstChan;
#X obj 2467 327 r rstChan;
#X obj 2851 313 r rstChan;
#X obj 3258 283 r rstChan;
#X msg 1637 564 900;
#X msg 653 1025 21;
#X msg 726 1022 14;
#X obj 85 475 ctlout 123 1;
#X obj 78 423 bng 15 250 50 0 empty empty empty 17 7 0 10 #fcfcfc #000000
#000000;
#X obj 8 416 tgl 15 0 empty empty empty 17 7 0 10 #fcfcfc #000000 #000000
0 1;
#X obj 8 441 metro 50;
#X floatatom 8 463 5 0 0 0 - - -, f 5;
#X obj 112 232 metro 666;
#X obj 44 178 r \$0-txMetroEn1;
#X obj 153 88 vsl 15 128 20 2000 0 0 empty empty empty 0 -9 0 10 #fcfcfc
#000000 #000000 326 1;
#X floatatom 178 231 5 0 0 0 - - -, f 5;
#X obj 134 -153 r \$0-stat1;
#X obj 48 3 r \$0-globalTxMetro;
#X obj 93 761 routeOSC /1/1 /2/1 /3/1 /4/1 /5/1 /6/1 /7/1 /8/1;
#X obj 18 815 r \$0-oscIn;
#X obj 54 836 spigot;
#X obj 54 858 s 1-oscIn;
#X obj 102 815 r \$0-oscIn;
#X obj 135 836 spigot;
#X obj 184 815 r \$0-oscIn;
#X obj 220 836 spigot;
#X obj 268 815 r \$0-oscIn;
#X obj 301 836 spigot;
#X obj 346 815 r \$0-oscIn;
#X obj 382 836 spigot;
#X obj 430 815 r \$0-oscIn;
#X obj 463 836 spigot;
#X obj 512 815 r \$0-oscIn;
#X obj 548 836 spigot;
#X obj 596 815 r \$0-oscIn;
#X obj 629 836 spigot;
#X obj 135 858 s 2-oscIn;
#X obj 220 858 s 3-oscIn;
#X obj 301 858 s 4-oscIn;
#X obj 382 858 s 5-oscIn;
#X obj 463 858 s 6-oscIn;
#X obj 548 858 s 7-oscIn;
#X obj 629 858 s 8-oscIn;
#X obj 101 718 routeOSC /devSel, f 17;
#X obj 266 491 r 1-oscIn;
#X obj 185 742 s \$0-oscIn;
#X obj 297 667 routeOSC /1/1 /2/1 /3/1 /4/1 /5/1 /6/1 /7/1 /8/1;
#X obj 293 731 s \$0-txMetroEn1;
#X obj 305 710 s \$0-txMetroEn2;
#X obj 336 689 s \$0-txMetroEn3;
#X obj 391 735 s \$0-txMetroEn4;
#X obj 405 714 s \$0-txMetroEn5;
#X obj 436 690 s \$0-txMetroEn6;
#X obj 494 734 s \$0-txMetroEn7;
#X obj 510 714 s \$0-txMetroEn8;
#X obj 520 292 r &0-globalTxMetroEn;
#X obj 540 312 r \$0-txMetroEn2;
#X obj 556 102 vsl 15 128 20 2000 0 0 empty empty empty 0 -9 0 10 #fcfcfc
#000000 #000000 326 1;
#X obj 278 560 routeOSC /1 /2 /3 /4 /5 /6 /7 /8;
#X obj 278 582 s \$0-txMetroRel1;
#X obj 278 604 s \$0-txMetroRel2;
#X obj 278 626 s \$0-txMetroRel3;
#X obj 278 648 s \$0-txMetroRel4;
#X obj 386 582 s \$0-txMetroRel5;
#X obj 386 604 s \$0-txMetroRel6;
#X obj 386 626 s \$0-txMetroRel7;
#X obj 386 648 s \$0-txMetroRel8;
#X obj -80 -154 r \$0-txMetroRel1;
#X obj 26 -21 *;
#X obj 43 -73 r \$0-txMetroScale;
#X obj 486 453 s \$0-txMetroScale;
#X floatatom 46 -48 5 0 0 0 - - -, f 5;
#X floatatom -81 -124 5 0 1 0 - - -, f 5;
#X obj 416 543 s \$0-globalPowerIn;
#X obj 1455 507 r \$0-globalPowerIn;
#X obj 491 603 routeOSC /1 /2 /3 /4 /5 /6 /7 /8;
#X obj 491 625 s \$0-stat1;
#X obj 491 647 s \$0-stat2;
#X obj 561 626 s \$0-stat3;
#X obj 561 648 s \$0-stat4;
#X obj 696 649 s \$0-stat8;
#X obj 696 627 s \$0-stat7;
#X obj 629 649 s \$0-stat6;
#X obj 629 627 s \$0-stat5;
#X obj 528 578 s \$0-statScale;
#X obj 191 -128 *;
#X floatatom 227 -127 5 0 0 0 - - -, f 5;
#X floatatom 150 -126 5 0 0 0 - - -, f 5;
#X obj 204 -152 r \$0-statScale;
#X obj 191 -106 + 700;
#X obj 666 540 s \$0-statBase;
#X obj 191 -84 +;
#X obj 240 -107 r \$0-statBase;
#N canvas 0 0 450 300 (subpatch) 0;
#X array \$0-stations 8 float 3 black black;
#A 0 0 0 0 0 0 0 0 0;
#X coords 0 1 8 -1 200 140 1;
#X restore -447 -26 graph;
#X obj 239 163 i;
#X obj 783 611 funbuff;
#C restore;
#X msg 768 561 write stations.txt;
#X obj 260 379 list prepend;
#X obj 768 539 t b;
#X obj 260 401 s buffun;
#X obj 793 582 r buffun;
#X msg 919 607 read stations.txt;
#X obj 869 640 funbuff;
#C restore;
#X obj 663 392 list prepend;
#X obj 660 414 s buffun;
#X obj 868 583 t b b;
#X msg 874 607 dump;
#X obj 340 89 r \$0-directStat1;
#X obj 890 717 symbol;
#X msg 931 689 symbol \$0-directStat\$1;
#X obj 731 87 r \$0-directStat3;
#X obj 1029 275 tgl 15 0 empty empty empty 17 7 0 10 #fcfcfc #000000
#000000 1 1;
#X obj 953 320 r &0-globalTxMetroEn;
#X obj 989 130 vsl 15 128 20 2000 0 0 empty empty empty 0 -9 0 10 #fcfcfc
#000000 #000000 326 1;
#X obj 974 80 r \$0-globalTxMetro;
#X obj 973 340 r \$0-txMetroEn3;
#X obj 1460 289 tgl 15 0 empty empty empty 17 7 0 10 #fcfcfc #000000
#000000 1 1;
#X obj 1384 334 r &0-globalTxMetroEn;
#X obj 1420 144 vsl 15 128 20 2000 0 0 empty empty empty 0 -9 0 10
#fcfcfc #000000 #000000 326 1;
#X obj 1405 94 r \$0-globalTxMetro;
#X obj 1404 354 r \$0-txMetroEn4;
#X obj 644 249 metro 666;
#X obj 1071 277 metro 666;
#X obj 1486 279 metro 666;
#X floatatom 1420 282 5 0 0 0 - - -, f 5;
#X floatatom 989 268 5 0 0 0 - - -, f 5;
#X floatatom 556 240 5 0 0 0 - - -, f 5;
#X obj 1848 319 tgl 15 0 empty empty empty 17 7 0 10 #fcfcfc #000000
#000000 1 1;
#X obj 1772 364 r &0-globalTxMetroEn;
#X obj 1808 174 vsl 15 128 20 2000 0 0 empty empty empty 0 -9 0 10
#fcfcfc #000000 #000000 326 1;
#X obj 1793 124 r \$0-globalTxMetro;
#X obj 1874 309 metro 666;
#X floatatom 1808 312 5 0 0 0 - - -, f 5;
#X obj 2234 335 tgl 15 0 empty empty empty 17 7 0 10 #fcfcfc #000000
#000000 1 1;
#X obj 2158 380 r &0-globalTxMetroEn;
#X obj 2194 190 vsl 15 128 20 2000 0 0 empty empty empty 0 -9 0 10
#fcfcfc #000000 #000000 326 1;
#X obj 2179 140 r \$0-globalTxMetro;
#X obj 2259 321 metro 666;
#X floatatom 2194 328 5 0 0 0 - - -, f 5;
#X obj 2619 321 tgl 15 0 empty empty empty 17 7 0 10 #fcfcfc #000000
#000000 1 1;
#X obj 2543 366 r &0-globalTxMetroEn;
#X obj 2579 176 vsl 15 128 20 2000 0 0 empty empty empty 0 -9 0 10
#fcfcfc #000000 #000000 326 1;
#X obj 2564 126 r \$0-globalTxMetro;
#X obj 2645 311 metro 666;
#X floatatom 2579 314 5 0 0 0 - - -, f 5;
#X obj 1783 104 r \$0-txMetro5;
#X obj 1792 384 r \$0-txMetroEn5;
#X obj 2169 120 r \$0-txMetro6;
#X obj 2178 400 r \$0-txMetroEn6;
#X obj 2554 106 r \$0-txMetro7;
#X obj 2563 386 r \$0-txMetroEn7;
#X obj 2995 321 tgl 15 0 empty empty empty 17 7 0 10 #fcfcfc #000000
#000000 1 1;
#X obj 2919 366 r &0-globalTxMetroEn;
#X obj 2955 176 vsl 15 128 20 2000 0 0 empty empty empty 0 -9 0 10
#fcfcfc #000000 #000000 326 1;
#X obj 2940 126 r \$0-globalTxMetro;
#X obj 2939 386 r \$0-txMetroEn4;
#X obj 3021 311 metro 666;
#X floatatom 2955 314 5 0 0 0 - - -, f 5;
#X obj 600 172 r \$0-txMetroEn2;
#X obj 1021 194 r \$0-txMetroEn3;
#X obj 1461 42 r \$0-txMetroEn4;
#X obj 1861 80 r \$0-txMetroEn5;
#X obj 2213 88 r \$0-txMetroEn6;
#X obj 2619 76 r \$0-txMetroEn7;
#X obj 2975 76 r \$0-txMetroEn8;
#X msg -116 202 open 4;
#X floatatom 507 1123 5 0 0 0 - - -, f 5;
#X obj -284 131 midiin;
#X obj -284 153 spigot;
#X obj -226 130 tgl 15 0 empty empty empty 17 7 0 10 #fcfcfc #000000
#000000 0 1;
#X obj -284 175 midiout;
#X obj 101 687 r tx1;
#X obj 137 560 r \$0-udpout;
#X obj 43 568 loadbang;
#X msg 43 593 prefix /tx1;
#X obj 138 622 packOSC;
#X obj 138 647 s udpout;
#X obj 880 757 print;
#X obj 866 664 t b a;
#X obj -176 90 s \$0-udpout;
#X obj -40 -77 i;
#X obj 795 905 metro;
#X obj 802 1010 s \$0-udpout;
#X obj 31 -156 r \$0-beatDiv;
#X obj -38 -126 *;
#X obj -40 -51 /;
#X obj 1112 861 i;
#X floatatom 1112 886 5 0 0 0 - - -, f 5;
#X msg 1112 910 send /beatDiv \$1;
#X obj 1112 935 s \$0-udpout;
#X obj 1024 912 s \$0-beatDiv;
#X obj 825 872 /;
#X obj 838 794 r \$0-beatDiv;
#X floatatom -40 -26 5 0 0 0 - - -, f 5;
#X floatatom -97 9 5 0 0 0 - - -, f 5;
#X obj 996 872 s \$0-quantMetro;
#X obj -182 -154 r \$0-quantMetro;
#X obj -104 -23 switch 1;
#X obj -112 -50 + 1;
#X obj -136 -127 == 1;
#X obj -182 -129 == 0;
#X obj -182 -104 t b;
#X obj -136 -102 t b;
#X obj -38 -101 + 0.5;
#X msg 802 984 send /scaleBEEP \$1;
#X obj 847 903 / 2;
#X obj 795 930 t 1;
#X obj 831 957 t 0;
#X obj 831 932 del;
#X obj 844 815 t b;
#X obj 712 875 r \$0-quantMetro;
#X obj 195 -31 s \$0-udpout;
#X msg 193 -53 send /freq1 \$1;
#X obj 628 583 s \$0-udpout;
#X obj 625 539 + 700;
#X msg 626 561 send /freqBase \$1;
#X obj 567 1 r \$0-globalTxMetro;
#X obj 545 -23 *;
#X obj 562 -75 r \$0-txMetroScale;
#X floatatom 565 -50 5 0 0 0 - - -, f 5;
#X floatatom 438 -126 5 0 1 0 - - -, f 5;
#X obj 710 -130 *;
#X floatatom 746 -129 5 0 0 0 - - -, f 5;
#X floatatom 669 -128 5 0 0 0 - - -, f 5;
#X obj 723 -154 r \$0-statScale;
#X obj 710 -108 + 700;
#X obj 710 -86 +;
#X obj 759 -109 r \$0-statBase;
#X obj 341 61 s \$0-udpout;
#X obj 479 -79 i;
#X obj 550 -158 r \$0-beatDiv;
#X obj 481 -128 *;
#X obj 479 -53 /;
#X floatatom 479 -28 5 0 0 0 - - -, f 5;
#X floatatom 433 -2 5 0 0 0 - - -, f 5;
#X obj 337 -156 r \$0-quantMetro;
#X obj 415 -25 switch 1;
#X obj 407 -52 + 1;
#X obj 383 -129 == 1;
#X obj 337 -131 == 0;
#X obj 337 -106 t b;
#X obj 383 -104 t b;
#X obj 481 -103 + 0.5;
#X obj 714 -33 s \$0-udpout;
#X obj 439 -156 r \$0-txMetroRel2;
#X obj 653 -155 r \$0-stat2;
#X msg 712 -55 send /freq2 \$1;
#X obj 1073 -30 *;
#X obj 1090 -82 r \$0-txMetroScale;
#X floatatom 1093 -57 5 0 0 0 - - -, f 5;
#X floatatom 966 -133 5 0 1 0 - - -, f 5;
#X obj 1192 1 *;
#X floatatom 1228 2 5 0 0 0 - - -, f 5;
#X floatatom 1151 3 5 0 0 0 - - -, f 5;
#X obj 1205 -23 r \$0-statScale;
#X obj 1192 23 + 700;
#X obj 1192 45 +;
#X obj 1241 22 r \$0-statBase;
#X obj 891 70 s \$0-udpout;
#X obj 1007 -86 i;
#X obj 1078 -165 r \$0-beatDiv;
#X obj 1009 -135 *;
#X obj 1007 -60 /;
#X floatatom 1007 -35 5 0 0 0 - - -, f 5;
#X floatatom 944 -1 5 0 0 0 - - -, f 5;
#X obj 865 -163 r \$0-quantMetro;
#X obj 943 -32 switch 1;
#X obj 935 -59 + 1;
#X obj 911 -136 == 1;
#X obj 865 -138 == 0;
#X obj 865 -113 t b;
#X obj 911 -111 t b;
#X obj 1009 -110 + 0.5;
#X obj 1198 100 s \$0-udpout;
#X msg 1194 75 send /freq3 \$1;
#X obj 1135 -24 r \$0-stat3;
#X obj 967 -163 r \$0-txMetroRel3;
#X obj 3237 -37 *;
#X obj 3254 -89 r \$0-txMetroScale;
#X floatatom 3257 -64 5 0 0 0 - - -, f 5;
#X floatatom 3130 -140 5 0 1 0 - - -, f 5;
#X obj 3402 -144 *;
#X floatatom 3438 -143 5 0 0 0 - - -, f 5;
#X floatatom 3361 -142 5 0 0 0 - - -, f 5;
#X obj 3415 -168 r \$0-statScale;
#X obj 3402 -122 + 700;
#X obj 3402 -100 +;
#X obj 3451 -123 r \$0-statBase;
#X obj 3023 36 s \$0-udpout;
#X obj 3171 -93 i;
#X obj 3242 -172 r \$0-beatDiv;
#X obj 3173 -142 *;
#X obj 3171 -67 /;
#X floatatom 3171 -42 5 0 0 0 - - -, f 5;
#X floatatom 3110 -15 5 0 0 0 - - -, f 5;
#X obj 3029 -170 r \$0-quantMetro;
#X obj 3107 -39 switch 1;
#X obj 3099 -66 + 1;
#X obj 3075 -143 == 1;
#X obj 3029 -145 == 0;
#X obj 3029 -120 t b;
#X obj 3075 -118 t b;
#X obj 3173 -117 + 0.5;
#X obj 3406 -47 s \$0-udpout;
#X obj 2930 106 r \$0-txMetro8;
#X obj 3131 -170 r \$0-txMetroRel8;
#X obj 3345 -169 r \$0-stat8;
#X msg 3404 -70 send /freq8 \$1;
#X obj 2711 -35 *;
#X obj 2728 -87 r \$0-txMetroScale;
#X floatatom 2731 -62 5 0 0 0 - - -, f 5;
#X floatatom 2604 -138 5 0 1 0 - - -, f 5;
#X obj 2876 -142 *;
#X floatatom 2912 -141 5 0 0 0 - - -, f 5;
#X floatatom 2835 -140 5 0 0 0 - - -, f 5;
#X obj 2889 -166 r \$0-statScale;
#X obj 2876 -120 + 700;
#X obj 2876 -98 +;
#X obj 2925 -121 r \$0-statBase;
#X obj 2523 49 s \$0-udpout;
#X obj 2645 -91 i;
#X obj 2716 -170 r \$0-beatDiv;
#X obj 2647 -140 *;
#X obj 2645 -65 /;
#X floatatom 2645 -40 5 0 0 0 - - -, f 5;
#X floatatom 2581 -11 5 0 0 0 - - -, f 5;
#X obj 2503 -168 r \$0-quantMetro;
#X obj 2581 -37 switch 1;
#X obj 2573 -64 + 1;
#X obj 2549 -141 == 1;
#X obj 2503 -143 == 0;
#X obj 2503 -118 t b;
#X obj 2549 -116 t b;
#X obj 2647 -115 + 0.5;
#X obj 2880 -45 s \$0-udpout;
#X msg 2878 -67 send /freq7 \$1;
#X obj 2605 -168 r \$0-txMetroRel7;
#X obj 2819 -167 r \$0-stat7;
#X obj 2300 -42 *;
#X obj 2317 -94 r \$0-txMetroScale;
#X floatatom 2320 -69 5 0 0 0 - - -, f 5;
#X floatatom 2193 -145 5 0 1 0 - - -, f 5;
#X obj 2371 27 *;
#X floatatom 2407 28 5 0 0 0 - - -, f 5;
#X floatatom 2330 29 5 0 0 0 - - -, f 5;
#X obj 2384 3 r \$0-statScale;
#X obj 2371 49 + 700;
#X obj 2371 71 +;
#X obj 2420 48 r \$0-statBase;
#X obj 2146 35 s \$0-udpout;
#X obj 2234 -98 i;
#X obj 2305 -177 r \$0-beatDiv;
#X obj 2236 -147 *;
#X obj 2234 -72 /;
#X floatatom 2234 -47 5 0 0 0 - - -, f 5;
#X floatatom 2166 -21 5 0 0 0 - - -, f 5;
#X obj 2092 -175 r \$0-quantMetro;
#X obj 2170 -44 switch 1;
#X obj 2162 -71 + 1;
#X obj 2138 -148 == 1;
#X obj 2092 -150 == 0;
#X obj 2092 -125 t b;
#X obj 2138 -123 t b;
#X obj 2236 -122 + 0.5;
#X obj 2375 124 s \$0-udpout;
#X obj 2194 -175 r \$0-txMetroRel6;
#X obj 2314 2 r \$0-stat6;
#X msg 2373 102 send /freq6 \$1;
#X obj 1934 -36 *;
#X obj 1951 -88 r \$0-txMetroScale;
#X floatatom 1954 -63 5 0 0 0 - - -, f 5;
#X floatatom 1827 -139 5 0 1 0 - - -, f 5;
#X obj 2005 33 *;
#X floatatom 2041 34 5 0 0 0 - - -, f 5;
#X floatatom 1964 35 5 0 0 0 - - -, f 5;
#X obj 2018 9 r \$0-statScale;
#X obj 2005 55 + 700;
#X obj 2005 77 +;
#X obj 2054 54 r \$0-statBase;
#X obj 1756 69 s \$0-udpout;
#X obj 1868 -92 i;
#X obj 1965 -170 r \$0-beatDiv;
#X obj 1870 -141 *;
#X obj 1868 -66 /;
#X floatatom 1868 -41 5 0 0 0 - - -, f 5;
#X floatatom 1809 -15 5 0 0 0 - - -, f 5;
#X obj 1726 -169 r \$0-quantMetro;
#X obj 1804 -38 switch 1;
#X obj 1796 -65 + 1;
#X obj 1772 -142 == 1;
#X obj 1726 -144 == 0;
#X obj 1726 -119 t b;
#X obj 1772 -117 t b;
#X obj 1870 -116 + 0.5;
#X obj 2009 130 s \$0-udpout;
#X obj 1948 9 r \$0-stat5;
#X msg 2007 108 send /freq5 \$1;
#X obj 1540 -74 *;
#X obj 1557 -126 r \$0-txMetroScale;
#X floatatom 1560 -101 5 0 0 0 - - -, f 5;
#X floatatom 1433 -177 5 0 1 0 - - -, f 5;
#X obj 1611 -5 *;
#X floatatom 1647 -4 5 0 0 0 - - -, f 5;
#X floatatom 1570 -3 5 0 0 0 - - -, f 5;
#X obj 1624 -29 r \$0-statScale;
#X obj 1611 17 + 700;
#X obj 1611 39 +;
#X obj 1660 16 r \$0-statBase;
#X obj 1382 39 s \$0-udpout;
#X obj 1474 -130 i;
#X obj 1545 -209 r \$0-beatDiv;
#X obj 1476 -179 *;
#X obj 1474 -104 /;
#X floatatom 1474 -79 5 0 0 0 - - -, f 5;
#X floatatom 1418 -44 5 0 0 0 - - -, f 5;
#X obj 1332 -207 r \$0-quantMetro;
#X obj 1410 -76 switch 1;
#X obj 1402 -103 + 1;
#X obj 1378 -180 == 1;
#X obj 1332 -182 == 0;
#X obj 1332 -157 t b;
#X obj 1378 -155 t b;
#X obj 1476 -154 + 0.5;
#X obj 1615 92 s \$0-udpout;
#X text 299 -327 spacer for scrolling;
#X msg 1613 70 send /freq4 \$1;
#X obj 1554 -30 r \$0-stat4;
#X obj 1434 -207 r \$0-txMetroRel4;
#X obj 1828 -169 r \$0-txMetroRel5;
#X obj 1545 -184 t b;
#X obj 1078 -140 t b;
#X obj 31 -131 t b;
#X obj 550 -133 t b;
#X obj 1965 -145 t b;
#X obj 2305 -152 t b;
#X obj 2716 -145 t b;
#X obj 3242 -147 t b;
#X obj -178 33 prepend;
#X obj 344 419 loadbang;
#X obj -205 -25 r \$0-globalDev;
#X obj -197 1 + 1;
#X obj 316 -1 prepend;
#X obj 307 -48 r \$0-globalDev;
#X obj 352 -25 + 1;
#X obj 836 10 prepend;
#X obj 827 -37 r \$0-globalDev;
#X obj 872 -14 + 1;
#X obj 1315 -33 prepend;
#X obj 1306 -80 r \$0-globalDev;
#X obj 1351 -57 + 1;
#X obj 1731 -19 prepend;
#X obj 1703 -66 r \$0-globalDev;
#X obj 1748 -43 + 1;
#X obj 2073 -24 prepend;
#X obj 2064 -71 r \$0-globalDev;
#X obj 2109 -48 + 1;
#X obj 2474 -25 prepend;
#X obj 2465 -72 r \$0-globalDev;
#X obj 2510 -49 + 1;
#X obj 2999 -27 prepend;
#X obj 2990 -74 r \$0-globalDev;
#X obj 3035 -51 + 1;
#X obj 1062 802 loadbang;
#X msg 1096 825 32;
#X msg 1062 827 0;
#X msg 344 444 0;
#X obj 291 512 routeOSC /txMetroEn /txMetro /txMetroScale /allTxOn
/stat /statScale /statBase /statStore /statRecall /quantMetro /beatDiv
/tapTempo, f 137;
#X obj 1041 537 t b;
#X obj 1113 584 timer;
#X floatatom 1116 666 5 0 0 0 - - -, f 5;
#X obj 1102 551 metro 5000;
#X obj 1151 612 average 6;
#X floatatom 1196 679 5 0 0 0 - - -, f 5;
#X obj 1240 675 tgl 15 0 empty empty empty 17 7 0 10 #fcfcfc #000000
#000000 1 1;
#X obj 1213 706 spigot;
#X obj 1235 611 r \$0-quantMetro;
#X floatatom 1213 731 5 0 0 0 - - -, f 5;
#X obj 1213 755 *;
#X obj 1267 734 r \$0-beatDiv;
#X obj 1252 781 s \$0-txMetroScale;
#X obj 1263 859 s \$0-udpout;
#X msg 1263 834 send /txMetroScale \$1;
#X msg 1183 522 flush;
#X obj 1260 638 != 1;
#X msg -175 62 send /txMetro/1/\$1 \$2;
#X msg 324 30 send /txMetro/\$1/2 \$2;
#X msg 885 37 send /txMetro/\$1/3 \$2;
#X msg 1364 -6 send /txMetro/\$1/4 \$2;
#X msg 1761 8 send /txMetro/\$1/5 \$2;
#X msg 2129 2 send /txMetro/\$1/6 \$2;
#X msg 2522 25 send /txMetro/\$1/7 \$2;
#X msg 3021 12 send /txMetro/\$1/8 \$2;
#X obj 1595 499 vsl 15 128 0 2000 0 0 empty empty empty 0 -9 0 10 #fcfcfc
#000000 #000000 450 1;
#X obj 1541 669 s \$0-globalTxMetro;
#X floatatom 1595 640 5 0 0 0 - - -, f 5;
#X obj 1645 610 tgl 15 0 empty empty empty 17 7 0 10 #fcfcfc #000000
#000000 1 1;
#X obj 1645 655 s \$0-globalTxMetroEn;
#X obj 24 158 r \$0-globalTxMetroEn;
#X obj 580 152 r \$0-globalTxMetroEn;
#X obj 1001 174 r \$0-globalTxMetroEn;
#X obj 1459 70 r \$0-globalTxMetroEn;
#X obj 1841 60 r \$0-globalTxMetroEn;
#X obj 2193 68 r \$0-globalTxMetroEn;
#X obj 2599 56 r \$0-globalTxMetroEn;
#X obj 2955 56 r \$0-globalTxMetroEn;
#X obj 2150 525 loadbang;
#X msg 2150 550 range 879 1080;
#X msg 2000 500 range 0 3;
#X msg 1590 460 range 20 2000;
#X obj 1588 438 loadbang;
#X connect 1 0 23 0;
#X connect 1 0 24 0;
#X connect 1 0 9 0;
#X connect 1 0 22 0;
#X connect 2 0 5 0;
#X connect 3 0 0 0;
#X connect 3 1 0 1;
#X connect 4 0 5 1;
#X connect 5 0 3 0;
#X connect 6 0 2 1;
#X connect 7 0 3 1;
#X connect 8 0 3 2;
#X connect 9 0 7 0;
#X connect 14 0 2 0;
#X connect 15 0 257 0;
#X connect 16 0 366 0;
#X connect 17 0 339 0;
#X connect 18 0 19 0;
#X connect 18 0 129 1;
#X connect 19 0 131 0;
#X connect 19 0 348 0;
#X connect 20 0 130 0;
#X connect 21 0 127 0;
#X connect 22 0 8 0;
#X connect 23 0 6 0;
#X connect 24 0 4 0;
#X connect 25 0 134 0;
#X connect 25 0 136 1;
#X connect 26 0 141 0;
#X connect 26 0 143 1;
#X connect 27 0 148 0;
#X connect 27 0 150 1;
#X connect 29 0 155 0;
#X connect 29 0 157 1;
#X connect 30 0 162 0;
#X connect 30 0 164 1;
#X connect 31 0 169 0;
#X connect 31 0 171 1;
#X connect 32 0 8 0;
#X connect 33 0 5 0;
#X connect 34 0 51 1;
#X connect 35 0 51 0;
#X connect 35 1 39 0;
#X connect 36 0 93 0;
#X connect 37 0 93 0;
#X connect 38 0 93 0;
#X connect 39 0 36 0;
#X connect 39 1 37 0;
#X connect 40 0 34 0;
#X connect 41 0 35 0;
#X connect 45 0 46 0;
#X connect 46 0 43 2;
#X connect 46 0 123 2;
#X connect 47 0 48 0;
#X connect 48 0 43 1;
#X connect 49 0 50 0;
#X connect 50 0 43 0;
#X connect 51 0 38 0;
#X connect 51 0 95 0;
#X connect 52 0 50 0;
#X connect 53 0 50 0;
#X connect 54 0 50 0;
#X connect 55 0 50 0;
#X connect 56 0 50 0;
#X connect 57 0 50 0;
#X connect 58 0 50 0;
#X connect 59 0 50 0;
#X connect 60 0 50 0;
#X connect 61 0 50 0;
#X connect 62 0 50 0;
#X connect 63 0 50 0;
#X connect 64 0 50 0;
#X connect 65 0 50 0;
#X connect 66 0 50 0;
#X connect 67 0 50 0;
#X connect 68 0 50 0;
#X connect 69 0 50 0;
#X connect 70 0 50 0;
#X connect 71 0 50 0;
#X connect 72 0 50 0;
#X connect 73 0 50 0;
#X connect 74 0 50 0;
#X connect 75 0 50 0;
#X connect 76 0 50 0;
#X connect 84 0 50 0;
#X connect 86 0 88 0;
#X connect 87 0 88 0;
#X connect 90 0 89 0;
#X connect 91 0 89 0;
#X connect 93 0 42 0;
#X connect 93 0 92 0;
#X connect 94 0 40 0;
#X connect 96 0 51 0;
#X connect 105 0 93 0;
#X connect 107 0 89 0;
#X connect 112 0 89 0;
#X connect 115 0 120 0;
#X connect 117 0 118 0;
#X connect 118 0 119 0;
#X connect 120 0 114 0;
#X connect 120 0 117 0;
#X connect 121 0 122 0;
#X connect 122 0 123 0;
#X connect 126 0 178 0;
#X connect 127 0 126 1;
#X connect 128 0 127 1;
#X connect 128 0 342 0;
#X connect 129 0 177 0;
#X connect 130 0 129 1;
#X connect 131 0 130 1;
#X connect 132 0 129 3;
#X connect 133 0 132 0;
#X connect 134 0 138 0;
#X connect 135 0 137 0;
#X connect 136 0 176 0;
#X connect 137 0 136 1;
#X connect 138 0 137 1;
#X connect 139 0 140 0;
#X connect 140 0 136 3;
#X connect 141 0 145 0;
#X connect 142 0 144 0;
#X connect 143 0 179 0;
#X connect 144 0 143 1;
#X connect 145 0 144 1;
#X connect 146 0 147 0;
#X connect 147 0 143 3;
#X connect 148 0 152 0;
#X connect 149 0 151 0;
#X connect 150 0 180 0;
#X connect 151 0 150 1;
#X connect 152 0 151 1;
#X connect 153 0 154 0;
#X connect 154 0 150 3;
#X connect 155 0 159 0;
#X connect 156 0 158 0;
#X connect 157 0 28 0;
#X connect 158 0 157 1;
#X connect 159 0 158 1;
#X connect 160 0 161 0;
#X connect 161 0 157 3;
#X connect 162 0 166 0;
#X connect 163 0 165 0;
#X connect 164 0 181 0;
#X connect 165 0 164 1;
#X connect 166 0 165 1;
#X connect 167 0 168 0;
#X connect 168 0 164 3;
#X connect 169 0 173 0;
#X connect 170 0 172 0;
#X connect 171 0 182 0;
#X connect 172 0 171 1;
#X connect 173 0 172 1;
#X connect 174 0 175 0;
#X connect 175 0 171 3;
#X connect 177 0 348 1;
#X connect 178 0 342 1;
#X connect 183 0 227 0;
#X connect 184 0 126 3;
#X connect 185 0 186 0;
#X connect 185 0 218 0;
#X connect 186 0 189 0;
#X connect 187 0 188 0;
#X connect 188 0 218 0;
#X connect 189 0 188 1;
#X connect 190 0 185 0;
#X connect 191 0 185 0;
#X connect 192 0 185 0;
#X connect 193 0 185 0;
#X connect 194 0 185 0;
#X connect 195 0 185 0;
#X connect 196 0 185 0;
#X connect 197 0 185 0;
#X connect 198 0 185 0;
#X connect 199 0 207 0;
#X connect 200 0 129 0;
#X connect 201 0 136 0;
#X connect 202 0 143 0;
#X connect 203 0 150 0;
#X connect 204 0 157 0;
#X connect 205 0 164 0;
#X connect 206 0 171 0;
#X connect 209 0 126 0;
#X connect 210 0 17 0;
#X connect 211 0 18 0;
#X connect 212 0 25 0;
#X connect 213 0 26 0;
#X connect 214 0 27 0;
#X connect 215 0 29 0;
#X connect 216 0 30 0;
#X connect 217 0 31 0;
#X connect 219 0 126 2;
#X connect 220 0 129 2;
#X connect 221 0 136 2;
#X connect 222 0 143 2;
#X connect 223 0 150 2;
#X connect 224 0 157 2;
#X connect 225 0 164 2;
#X connect 226 0 171 2;
#X connect 228 0 171 3;
#X connect 229 0 164 3;
#X connect 230 0 157 3;
#X connect 231 0 150 3;
#X connect 232 0 143 3;
#X connect 233 0 136 3;
#X connect 234 0 129 3;
#X connect 235 0 126 3;
#X connect 236 0 238 0;
#X connect 239 0 240 0;
#X connect 241 0 184 0;
#X connect 242 0 132 0;
#X connect 243 0 140 0;
#X connect 244 0 147 0;
#X connect 245 0 154 0;
#X connect 246 0 161 0;
#X connect 247 0 168 0;
#X connect 248 0 175 0;
#X connect 249 0 185 0;
#X connect 250 0 4 0;
#X connect 251 0 4 0;
#X connect 253 0 252 0;
#X connect 254 0 255 0;
#X connect 255 0 256 0;
#X connect 256 0 252 0;
#X connect 257 0 126 0;
#X connect 258 0 15 0;
#X connect 259 0 257 1;
#X connect 259 0 260 0;
#X connect 261 0 332 0;
#X connect 261 0 330 0;
#X connect 262 0 259 0;
#X connect 263 0 265 1;
#X connect 263 1 268 1;
#X connect 263 2 270 1;
#X connect 263 3 272 1;
#X connect 263 4 274 1;
#X connect 263 5 276 1;
#X connect 263 6 278 1;
#X connect 263 7 280 1;
#X connect 264 0 265 0;
#X connect 265 0 266 0;
#X connect 267 0 268 0;
#X connect 268 0 281 0;
#X connect 269 0 270 0;
#X connect 270 0 282 0;
#X connect 271 0 272 0;
#X connect 272 0 283 0;
#X connect 273 0 274 0;
#X connect 274 0 284 0;
#X connect 275 0 276 0;
#X connect 276 0 285 0;
#X connect 277 0 278 0;
#X connect 278 0 286 0;
#X connect 279 0 280 0;
#X connect 280 0 287 0;
#X connect 288 0 263 0;
#X connect 288 1 290 0;
#X connect 289 0 711 0;
#X connect 291 0 292 0;
#X connect 291 1 293 0;
#X connect 291 2 294 0;
#X connect 291 3 295 0;
#X connect 291 4 296 0;
#X connect 291 5 297 0;
#X connect 291 6 298 0;
#X connect 291 7 299 0;
#X connect 300 0 16 0;
#X connect 301 0 16 0;
#X connect 302 0 366 1;
#X connect 302 0 371 0;
#X connect 303 0 304 0;
#X connect 303 1 305 0;
#X connect 303 2 306 0;
#X connect 303 3 307 0;
#X connect 303 4 308 0;
#X connect 303 5 309 0;
#X connect 303 6 310 0;
#X connect 303 7 311 0;
#X connect 312 0 317 0;
#X connect 313 0 259 0;
#X connect 314 0 316 0;
#X connect 316 0 313 1;
#X connect 317 0 429 0;
#X connect 317 0 442 1;
#X connect 319 0 199 0;
#X connect 320 0 321 0;
#X connect 320 1 322 0;
#X connect 320 2 323 0;
#X connect 320 3 324 0;
#X connect 320 4 328 0;
#X connect 320 5 327 0;
#X connect 320 6 326 0;
#X connect 320 7 325 0;
#X connect 330 0 334 0;
#X connect 333 0 330 1;
#X connect 333 0 331 0;
#X connect 334 0 336 0;
#X connect 336 0 17 0;
#X connect 336 0 457 0;
#X connect 337 0 336 1;
#X connect 339 0 128 0;
#X connect 339 0 126 1;
#X connect 341 0 340 0;
#X connect 342 0 344 0;
#X connect 343 0 341 0;
#X connect 345 0 340 0;
#X connect 346 0 347 0;
#X connect 347 0 423 0;
#X connect 347 0 422 0;
#X connect 348 0 349 0;
#X connect 350 0 351 0;
#X connect 350 1 346 0;
#X connect 351 0 347 0;
#X connect 352 0 17 0;
#X connect 353 0 422 0;
#X connect 354 0 353 1;
#X connect 355 0 18 0;
#X connect 356 0 367 0;
#X connect 357 0 356 0;
#X connect 358 0 367 1;
#X connect 358 0 370 0;
#X connect 359 0 358 0;
#X connect 360 0 356 0;
#X connect 361 0 368 0;
#X connect 362 0 361 0;
#X connect 363 0 368 1;
#X connect 363 0 369 0;
#X connect 364 0 363 0;
#X connect 365 0 361 0;
#X connect 366 0 129 0;
#X connect 367 0 136 0;
#X connect 368 0 143 0;
#X connect 372 0 376 0;
#X connect 373 0 372 0;
#X connect 374 0 376 1;
#X connect 374 0 377 0;
#X connect 375 0 374 0;
#X connect 376 0 150 0;
#X connect 378 0 382 0;
#X connect 379 0 378 0;
#X connect 380 0 382 1;
#X connect 380 0 383 0;
#X connect 381 0 380 0;
#X connect 382 0 157 0;
#X connect 384 0 388 0;
#X connect 385 0 384 0;
#X connect 386 0 388 1;
#X connect 386 0 389 0;
#X connect 387 0 386 0;
#X connect 388 0 164 0;
#X connect 390 0 374 0;
#X connect 391 0 372 0;
#X connect 392 0 380 0;
#X connect 393 0 378 0;
#X connect 394 0 386 0;
#X connect 395 0 384 0;
#X connect 396 0 401 0;
#X connect 397 0 396 0;
#X connect 398 0 401 1;
#X connect 398 0 402 0;
#X connect 399 0 398 0;
#X connect 400 0 396 0;
#X connect 401 0 171 0;
#X connect 403 0 16 0;
#X connect 404 0 356 0;
#X connect 405 0 361 0;
#X connect 406 0 372 0;
#X connect 407 0 378 0;
#X connect 408 0 384 0;
#X connect 409 0 396 0;
#X connect 410 0 89 0;
#X connect 411 0 0 2;
#X connect 412 0 413 0;
#X connect 412 1 415 1;
#X connect 413 0 415 0;
#X connect 414 0 413 1;
#X connect 416 0 288 0;
#X connect 417 0 420 0;
#X connect 418 0 419 0;
#X connect 419 0 420 0;
#X connect 420 0 421 0;
#X connect 423 0 353 0;
#X connect 423 1 354 0;
#X connect 425 0 430 0;
#X connect 426 0 451 0;
#X connect 426 0 453 0;
#X connect 428 0 429 1;
#X connect 428 0 430 1;
#X connect 428 0 676 0;
#X connect 429 0 448 0;
#X connect 430 0 438 0;
#X connect 431 0 432 0;
#X connect 432 0 433 0;
#X connect 432 0 435 0;
#X connect 433 0 434 0;
#X connect 436 0 426 1;
#X connect 436 0 450 0;
#X connect 437 0 436 1;
#X connect 437 0 454 0;
#X connect 438 0 442 2;
#X connect 439 0 313 0;
#X connect 439 0 682 0;
#X connect 441 0 443 0;
#X connect 441 0 444 0;
#X connect 441 0 445 0;
#X connect 442 0 439 0;
#X connect 443 0 442 0;
#X connect 444 0 447 0;
#X connect 445 0 446 0;
#X connect 447 0 438 0;
#X connect 448 0 425 0;
#X connect 449 0 427 0;
#X connect 450 0 453 1;
#X connect 451 0 449 0;
#X connect 452 0 449 0;
#X connect 453 0 452 0;
#X connect 454 0 436 0;
#X connect 455 0 426 0;
#X connect 457 0 456 0;
#X connect 459 0 460 0;
#X connect 460 0 458 0;
#X connect 461 0 302 0;
#X connect 462 0 302 0;
#X connect 463 0 464 0;
#X connect 464 0 462 1;
#X connect 465 0 476 0;
#X connect 465 0 481 1;
#X connect 466 0 470 0;
#X connect 469 0 466 1;
#X connect 469 0 467 0;
#X connect 470 0 471 0;
#X connect 471 0 491 0;
#X connect 471 0 18 0;
#X connect 472 0 471 1;
#X connect 474 0 477 0;
#X connect 475 0 476 1;
#X connect 475 0 477 1;
#X connect 475 0 677 0;
#X connect 476 0 487 0;
#X connect 477 0 478 0;
#X connect 478 0 481 2;
#X connect 479 0 462 0;
#X connect 479 0 686 0;
#X connect 480 0 482 0;
#X connect 480 0 483 0;
#X connect 480 0 484 0;
#X connect 481 0 479 0;
#X connect 482 0 481 0;
#X connect 483 0 486 0;
#X connect 484 0 485 0;
#X connect 486 0 478 0;
#X connect 487 0 474 0;
#X connect 489 0 465 0;
#X connect 490 0 468 0;
#X connect 490 0 466 0;
#X connect 491 0 488 0;
#X connect 492 0 358 0;
#X connect 493 0 494 0;
#X connect 494 0 492 1;
#X connect 495 0 506 0;
#X connect 495 0 511 1;
#X connect 496 0 500 0;
#X connect 499 0 496 1;
#X connect 499 0 497 0;
#X connect 500 0 501 0;
#X connect 501 0 519 0;
#X connect 501 0 25 0;
#X connect 502 0 501 1;
#X connect 504 0 507 0;
#X connect 505 0 506 1;
#X connect 505 0 507 1;
#X connect 505 0 675 0;
#X connect 506 0 517 0;
#X connect 507 0 508 0;
#X connect 508 0 511 2;
#X connect 509 0 492 0;
#X connect 509 0 689 0;
#X connect 510 0 512 0;
#X connect 510 0 513 0;
#X connect 510 0 514 0;
#X connect 511 0 509 0;
#X connect 512 0 511 0;
#X connect 513 0 516 0;
#X connect 514 0 515 0;
#X connect 516 0 508 0;
#X connect 517 0 504 0;
#X connect 519 0 518 0;
#X connect 520 0 498 0;
#X connect 520 0 496 0;
#X connect 521 0 495 0;
#X connect 522 0 398 0;
#X connect 523 0 524 0;
#X connect 524 0 522 1;
#X connect 525 0 536 0;
#X connect 525 0 541 1;
#X connect 526 0 530 0;
#X connect 529 0 526 1;
#X connect 529 0 527 0;
#X connect 530 0 531 0;
#X connect 531 0 552 0;
#X connect 531 0 31 0;
#X connect 532 0 531 1;
#X connect 534 0 537 0;
#X connect 535 0 536 1;
#X connect 535 0 537 1;
#X connect 535 0 681 0;
#X connect 536 0 547 0;
#X connect 537 0 538 0;
#X connect 538 0 541 2;
#X connect 539 0 522 0;
#X connect 539 0 704 0;
#X connect 540 0 542 0;
#X connect 540 0 543 0;
#X connect 540 0 544 0;
#X connect 541 0 539 0;
#X connect 542 0 541 0;
#X connect 543 0 546 0;
#X connect 544 0 545 0;
#X connect 546 0 538 0;
#X connect 547 0 534 0;
#X connect 549 0 398 0;
#X connect 550 0 525 0;
#X connect 551 0 528 0;
#X connect 551 0 526 0;
#X connect 552 0 548 0;
#X connect 553 0 386 0;
#X connect 554 0 555 0;
#X connect 555 0 553 1;
#X connect 556 0 567 0;
#X connect 556 0 572 1;
#X connect 557 0 561 0;
#X connect 560 0 557 1;
#X connect 560 0 558 0;
#X connect 561 0 562 0;
#X connect 562 0 580 0;
#X connect 562 0 30 0;
#X connect 563 0 562 1;
#X connect 565 0 568 0;
#X connect 566 0 567 1;
#X connect 566 0 568 1;
#X connect 566 0 680 0;
#X connect 567 0 578 0;
#X connect 568 0 569 0;
#X connect 569 0 572 2;
#X connect 570 0 553 0;
#X connect 570 0 701 0;
#X connect 571 0 573 0;
#X connect 571 0 574 0;
#X connect 571 0 575 0;
#X connect 572 0 570 0;
#X connect 573 0 572 0;
#X connect 574 0 577 0;
#X connect 575 0 576 0;
#X connect 577 0 569 0;
#X connect 578 0 565 0;
#X connect 580 0 579 0;
#X connect 581 0 556 0;
#X connect 582 0 559 0;
#X connect 582 0 557 0;
#X connect 583 0 380 0;
#X connect 584 0 585 0;
#X connect 585 0 583 1;
#X connect 586 0 597 0;
#X connect 586 0 602 1;
#X connect 587 0 591 0;
#X connect 590 0 587 1;
#X connect 590 0 588 0;
#X connect 591 0 592 0;
#X connect 592 0 612 0;
#X connect 592 0 29 0;
#X connect 593 0 592 1;
#X connect 595 0 598 0;
#X connect 596 0 597 1;
#X connect 596 0 598 1;
#X connect 596 0 679 0;
#X connect 597 0 608 0;
#X connect 598 0 599 0;
#X connect 599 0 602 2;
#X connect 600 0 583 0;
#X connect 600 0 698 0;
#X connect 601 0 603 0;
#X connect 601 0 604 0;
#X connect 601 0 605 0;
#X connect 602 0 600 0;
#X connect 603 0 602 0;
#X connect 604 0 607 0;
#X connect 605 0 606 0;
#X connect 607 0 599 0;
#X connect 608 0 595 0;
#X connect 610 0 586 0;
#X connect 611 0 589 0;
#X connect 611 0 587 0;
#X connect 612 0 609 0;
#X connect 613 0 374 0;
#X connect 614 0 615 0;
#X connect 615 0 613 1;
#X connect 616 0 627 0;
#X connect 616 0 632 1;
#X connect 617 0 621 0;
#X connect 620 0 617 1;
#X connect 620 0 618 0;
#X connect 621 0 622 0;
#X connect 622 0 641 0;
#X connect 622 0 27 0;
#X connect 623 0 622 1;
#X connect 625 0 628 0;
#X connect 626 0 627 1;
#X connect 626 0 628 1;
#X connect 626 0 678 0;
#X connect 627 0 638 0;
#X connect 628 0 629 0;
#X connect 629 0 632 2;
#X connect 630 0 613 0;
#X connect 630 0 695 0;
#X connect 631 0 633 0;
#X connect 631 0 634 0;
#X connect 631 0 635 0;
#X connect 632 0 630 0;
#X connect 633 0 632 0;
#X connect 634 0 637 0;
#X connect 635 0 636 0;
#X connect 637 0 629 0;
#X connect 638 0 625 0;
#X connect 640 0 619 0;
#X connect 640 0 617 0;
#X connect 641 0 639 0;
#X connect 642 0 363 0;
#X connect 643 0 644 0;
#X connect 644 0 642 1;
#X connect 645 0 656 0;
#X connect 645 0 661 1;
#X connect 646 0 650 0;
#X connect 649 0 646 1;
#X connect 649 0 647 0;
#X connect 650 0 651 0;
#X connect 651 0 670 0;
#X connect 651 0 26 0;
#X connect 652 0 651 1;
#X connect 654 0 657 0;
#X connect 655 0 656 1;
#X connect 655 0 657 1;
#X connect 655 0 674 0;
#X connect 656 0 667 0;
#X connect 657 0 658 0;
#X connect 658 0 661 2;
#X connect 659 0 642 0;
#X connect 659 0 692 0;
#X connect 660 0 662 0;
#X connect 660 0 663 0;
#X connect 660 0 664 0;
#X connect 661 0 659 0;
#X connect 662 0 661 0;
#X connect 663 0 666 0;
#X connect 664 0 665 0;
#X connect 666 0 658 0;
#X connect 667 0 654 0;
#X connect 670 0 668 0;
#X connect 671 0 648 0;
#X connect 671 0 646 0;
#X connect 672 0 645 0;
#X connect 673 0 616 0;
#X connect 674 0 656 0;
#X connect 674 0 666 0;
#X connect 675 0 506 0;
#X connect 675 0 516 0;
#X connect 676 0 429 0;
#X connect 676 0 447 0;
#X connect 677 0 476 0;
#X connect 677 0 486 0;
#X connect 678 0 627 0;
#X connect 678 0 637 0;
#X connect 679 0 597 0;
#X connect 679 0 607 0;
#X connect 680 0 567 0;
#X connect 680 0 577 0;
#X connect 681 0 536 0;
#X connect 681 0 546 0;
#X connect 682 0 729 0;
#X connect 683 0 710 0;
#X connect 684 0 685 0;
#X connect 685 0 682 1;
#X connect 686 0 730 0;
#X connect 687 0 688 0;
#X connect 688 0 686 1;
#X connect 689 0 731 0;
#X connect 690 0 691 0;
#X connect 691 0 689 1;
#X connect 692 0 732 0;
#X connect 693 0 694 0;
#X connect 694 0 692 1;
#X connect 695 0 733 0;
#X connect 696 0 697 0;
#X connect 697 0 695 1;
#X connect 698 0 734 0;
#X connect 699 0 700 0;
#X connect 700 0 698 1;
#X connect 701 0 735 0;
#X connect 702 0 703 0;
#X connect 703 0 701 1;
#X connect 704 0 736 0;
#X connect 705 0 706 0;
#X connect 706 0 704 1;
#X connect 707 0 708 0;
#X connect 707 0 709 0;
#X connect 708 0 431 0;
#X connect 709 0 440 0;
#X connect 710 0 183 0;
#X connect 711 0 291 0;
#X connect 711 1 303 0;
#X connect 711 2 315 0;
#X connect 711 2 436 0;
#X connect 711 3 318 0;
#X connect 711 4 320 0;
#X connect 711 5 329 0;
#X connect 711 6 335 0;
#X connect 711 6 459 0;
#X connect 711 7 343 0;
#X connect 711 8 350 0;
#X connect 711 9 440 0;
#X connect 711 10 431 0;
#X connect 711 11 712 0;
#X connect 712 0 713 1;
#X connect 712 0 715 0;
#X connect 713 0 714 0;
#X connect 713 0 716 0;
#X connect 715 0 713 0;
#X connect 716 0 717 0;
#X connect 717 0 719 0;
#X connect 718 0 719 1;
#X connect 719 0 721 0;
#X connect 720 0 728 0;
#X connect 721 0 722 0;
#X connect 722 0 724 0;
#X connect 722 0 726 0;
#X connect 723 0 722 1;
#X connect 726 0 725 0;
#X connect 727 0 713 0;
#X connect 728 0 718 0;
#X connect 729 0 424 0;
#X connect 730 0 473 0;
#X connect 731 0 503 0;
#X connect 732 0 653 0;
#X connect 733 0 624 0;
#X connect 734 0 594 0;
#X connect 735 0 564 0;
#X connect 736 0 533 0;
#X connect 737 0 738 0;
#X connect 737 0 739 0;
#X connect 740 0 741 0;
#X connect 742 0 15 0;
#X connect 743 0 16 0;
#X connect 744 0 356 0;
#X connect 745 0 361 0;
#X connect 746 0 372 0;
#X connect 747 0 378 0;
#X connect 748 0 384 0;
#X connect 749 0 396 0;
#X connect 750 0 751 0;
#X connect 750 0 752 0;
#X connect 751 0 218 0;
#X connect 751 0 185 0;
#X connect 752 0 187 0;
#X connect 753 0 738 0;
#X connect 753 0 737 0;
#X connect 754 0 753 0;
#X coords 0 0 1 1 12 30 0;
