#N canvas 957 89 958 990 10;
#X obj 66 590 noteout;
#X obj 307 410 loadbang;
#X obj 65 481 metro;
#X obj 65 533 makenote;
#X floatatom 158 463 0 0 0 0 - - -;
#X obj 65 507 f;
#X floatatom 114 463 0 0 0 0 - - -;
#X floatatom 202 463 0 0 0 0 - - -;
#X floatatom 245 463 0 0 0 0 - - -;
#X msg 368 445 64;
#X text 113 442 rate;
#X text 156 442 pitch;
#X text 201 442 vel;
#X text 237 443 length;
#X obj 58 432 tgl 15 0 empty empty empty 17 7 0 10 -262144 -1 -1 0
1;
#X obj 261 388 bng 15 250 50 0 empty empty empty 17 7 0 10 -262144
-1 -1;
#X floatatom 128 565 5 1 16 0 - - -;
#X obj 281 479 bng 15 250 50 0 empty empty empty 17 7 0 10 -262144
-1 -1;
#X obj 106 317 tgl 15 0 empty empty empty 17 7 0 10 -262144 -1 -1 0
1;
#X obj 118 393 ctlout 80 1;
#X obj 111 350 * 127;
#X msg 204 538 1;
#X obj 78 822 noteout;
#X obj 319 642 loadbang;
#X obj 77 713 metro;
#X obj 77 765 makenote;
#X floatatom 170 695 0 0 0 0 - - -;
#X obj 77 739 f;
#X floatatom 126 695 0 0 0 0 - - -;
#X floatatom 214 695 0 0 0 0 - - -;
#X floatatom 257 695 0 0 0 0 - - -;
#X msg 380 677 64;
#X text 125 674 rate;
#X text 168 674 pitch;
#X text 213 674 vel;
#X text 249 675 length;
#X obj 70 664 tgl 15 0 empty empty empty 17 7 0 10 -262144 -1 -1 0
1;
#X obj 273 620 bng 15 250 50 0 empty empty empty 17 7 0 10 -262144
-1 -1;
#X floatatom 140 797 5 1 16 0 - - -;
#X obj 293 711 bng 15 250 50 0 empty empty empty 17 7 0 10 -262144
-1 -1;
#X msg 216 770 2;
#X obj 48 301 line 93;
#X obj 106 242 tgl 15 0 empty empty empty 17 7 0 10 -262144 -1 -1 0
1;
#X floatatom 267 315 5 0 127 0 - - -;
#X obj 265 346 ctlout 48 1;
#X floatatom 358 316 5 0 127 0 - - -;
#X obj 359 345 ctlout 16 1;
#X floatatom 376 261 5 700 1200 0 - - -;
#X obj 406 313 / 4;
#X obj 362 286 i;
#X obj 405 284 - 700;
#X obj 440 312 % 4;
#X msg 374 59 888;
#X msg 328 63 870;
#X msg 422 59 894;
#X msg 468 55 911;
#X obj 369 26 loadbang;
#X obj 267 291 * 32;
#X obj 332 117 hsl 256 30 700 1200 0 0 empty empty empty -2 -8 0 10
-262144 -1 -1 9588 1;
#X obj 331 171 i;
#X obj 369 172 hsl 128 15 0 3 0 0 empty empty empty -2 -8 0 10 -262144
-1 -1 4800 1;
#X msg 267 132 stop;
#N canvas 0 0 450 300 (subpatch) 0;
#X array \$0-song 8 float 1;
#A 0 27.1428 36.4286 48.4286 59.8571 53.5714 44 32.8571 41.8569;
#X coords 0 100 7 0 200 140 1 0 0;
#X restore 19 -44 graph;
#X obj 204 164 line 0;
#X floatatom 260 91 5 0 0 0 - - -;
#X obj 201 200 tabread \$0-song;
#X obj 266 42 bng 15 250 50 0 empty empty empty 17 7 0 10 -262144 -1
-1;
#X msg 319 677 274;
#X msg 351 677 33;
#X msg 408 677 207;
#X msg 396 445 1149;
#X msg 307 445 1255;
#X msg 339 445 14;
#X obj 105 276 metro 666;
#X obj 263 -29 tgl 15 0 empty empty empty 17 7 0 10 -262144 -1 -1 0
1;
#X msg 154 132 8 1000;
#X obj 263 12 metro 1000;
#X msg 66 246 108;
#X msg -3 245 10 30000;
#X connect 1 0 71 0;
#X connect 1 0 72 0;
#X connect 1 0 9 0;
#X connect 1 0 70 0;
#X connect 1 0 21 0;
#X connect 2 0 5 0;
#X connect 3 0 0 0;
#X connect 3 1 0 1;
#X connect 4 0 5 1;
#X connect 5 0 3 0;
#X connect 6 0 2 1;
#X connect 7 0 3 1;
#X connect 8 0 3 2;
#X connect 9 0 7 0;
#X connect 14 0 2 0;
#X connect 15 0 1 0;
#X connect 16 0 0 2;
#X connect 18 0 20 0;
#X connect 20 0 19 0;
#X connect 21 0 16 0;
#X connect 23 0 67 0;
#X connect 23 0 68 0;
#X connect 23 0 31 0;
#X connect 23 0 69 0;
#X connect 23 0 40 0;
#X connect 24 0 27 0;
#X connect 25 0 22 0;
#X connect 25 1 22 1;
#X connect 26 0 27 1;
#X connect 27 0 25 0;
#X connect 28 0 24 1;
#X connect 29 0 25 1;
#X connect 30 0 25 2;
#X connect 31 0 29 0;
#X connect 36 0 24 0;
#X connect 37 0 23 0;
#X connect 38 0 22 2;
#X connect 40 0 38 0;
#X connect 41 0 4 0;
#X connect 42 0 73 0;
#X connect 43 0 44 0;
#X connect 45 0 46 0;
#X connect 47 0 50 0;
#X connect 48 0 49 0;
#X connect 49 0 45 0;
#X connect 50 0 48 0;
#X connect 50 0 51 0;
#X connect 51 0 60 0;
#X connect 52 0 58 0;
#X connect 53 0 58 0;
#X connect 54 0 58 0;
#X connect 55 0 58 0;
#X connect 56 0 52 0;
#X connect 57 0 43 0;
#X connect 58 0 59 0;
#X connect 59 0 47 0;
#X connect 60 0 57 0;
#X connect 61 0 63 0;
#X connect 63 0 65 0;
#X connect 64 0 63 0;
#X connect 64 0 65 0;
#X connect 65 0 4 0;
#X connect 66 0 64 0;
#X connect 66 0 75 0;
#X connect 67 0 28 0;
#X connect 68 0 26 0;
#X connect 69 0 30 0;
#X connect 70 0 8 0;
#X connect 71 0 6 0;
#X connect 72 0 4 0;
#X connect 73 0 18 0;
#X connect 74 0 76 0;
#X connect 75 0 63 0;
#X connect 76 0 66 0;
#X connect 77 0 41 0;
#X connect 78 0 41 0;
