#N canvas 0 0 1679 893 10;
#X obj -96 811 ftom~;
#X obj -38 814 ftom;
#X obj -32 840 stripnote;
#X obj 249 661 noteout;
#X obj 270 440 loadbang;
#X obj 248 552 metro;
#X obj 243 614 makenote;
#X floatatom 336 551 0 0 0 0 - - -;
#X obj 248 578 f;
#X floatatom 297 534 0 0 0 0 - - -;
#X floatatom 385 534 0 0 0 0 - - -;
#X floatatom 424 535 0 0 0 0 - - -;
#X msg 318 483 64;
#X text 296 513 rate;
#X text 339 513 pitch;
#X text 380 511 vel;
#X text 420 514 length;
#X obj 241 503 tgl 15 0 empty empty empty 17 7 0 10 -262144 -1 -1 0
1;
#X obj 660 674 noteout;
#X obj 725 454 loadbang;
#X obj 659 565 metro;
#X obj 659 617 makenote;
#X floatatom 752 546 0 0 0 0 - - -;
#X obj 659 591 f;
#X floatatom 708 549 0 0 0 0 - - -;
#X floatatom 796 547 0 0 0 0 - - -;
#X floatatom 839 547 0 0 0 0 - - -;
#X msg 721 490 500;
#X msg 753 490 60;
#X msg 782 490 64;
#X text 707 526 rate;
#X text 750 526 pitch;
#X text 795 526 vel;
#X text 831 527 length;
#X obj 652 516 tgl 15 0 empty empty empty 17 7 0 10 -262144 -1 -1 0
1;
#X obj 348 205 tgl 15 0 empty empty empty 17 7 0 10 -262144 -1 -1 0
1;
#X obj 692 201 tgl 15 0 empty empty empty 17 7 0 10 -262144 -1 -1 0
1;
#X msg 422 0 888;
#X msg 354 4 870;
#X msg 470 0 894;
#X msg 516 -4 911;
#X obj 417 -33 loadbang;
#X obj 382 115 hsl 256 30 700 1200 0 0 empty empty empty -2 -8 0 10
-262144 -1 -1 9180 1;
#X obj 671 116 hsl 256 30 700 1200 0 0 empty empty empty -2 -8 0 10
-262144 -1 -1 9180 1;
#X obj 744 158 i;
#X obj 794 157 hsl 128 15 0 3 0 0 empty empty empty -2 -8 0 10 -262144
-1 -1 0 1;
#X obj 432 168 hsl 128 15 0 3.75 0 0 empty empty empty -2 -8 0 10 -262144
-1 -1 0 1;
#X msg -332 101 stop;
#N canvas 0 0 450 300 (subpatch) 0;
#X array \$0-song 8 float 3 black #cb00ff;
#A 0 27.143 49.2856 73.5713 27.8572 54.9999 73.5714 36.4287 80.7135
;
#X coords 0 100 8 0 200 140 1;
#X restore -574 -61 graph;
#X obj -395 133 line 0;
#X floatatom -339 60 5 0 0 0 - - -, f 5;
#X obj -398 169 tabread \$0-song;
#X obj -333 11 bng 15 250 50 0 empty empty empty 17 7 0 10 -262144
-1 -1;
#X msg 346 483 1149;
#X msg 257 483 1255;
#X msg 289 483 14;
#X obj -336 -60 tgl 15 0 empty empty empty 17 7 0 10 -262144 -1 -1
0 1;
#X obj -511 130 line 0;
#X obj -514 166 tabread \$0-song;
#X msg -564 92 5 2000;
#X obj 984 674 noteout;
#X obj 1058 456 loadbang;
#X obj 983 565 metro;
#X obj 983 617 makenote;
#X floatatom 1076 546 0 0 0 0 - - -;
#X obj 983 591 f;
#X floatatom 1032 549 0 0 0 0 - - -;
#X floatatom 1120 547 0 0 0 0 - - -;
#X floatatom 1163 547 0 0 0 0 - - -;
#X msg 1119 491 64;
#X text 1031 526 rate;
#X text 1074 526 pitch;
#X text 1119 526 vel;
#X text 1155 527 length;
#X obj 976 516 tgl 15 0 empty empty empty 17 7 0 10 -262144 -1 -1 0
1;
#X obj 944 116 hsl 256 30 700 1200 0 0 empty empty empty -2 -8 0 10
-262144 -1 -1 9180 1;
#X msg 1147 491 1477;
#X msg 1058 491 2343;
#X obj 1323 819 noteout;
#X obj 1394 599 loadbang;
#X obj 1322 710 metro;
#X obj 1322 762 makenote;
#X floatatom 1415 691 0 0 0 0 - - -;
#X obj 1322 736 f;
#X floatatom 1371 694 0 0 0 0 - - -;
#X floatatom 1459 692 0 0 0 0 - - -;
#X floatatom 1502 692 0 0 0 0 - - -;
#X msg 1455 634 64;
#X text 1370 671 rate;
#X text 1413 671 pitch;
#X text 1458 671 vel;
#X text 1494 672 length;
#X obj 1315 661 tgl 15 0 empty empty empty 17 7 0 10 -262144 -1 -1
0 1;
#X obj 1214 116 hsl 256 30 700 1200 0 0 empty empty empty -2 -8 0 10
-262144 -1 -1 9180 1;
#X msg 1394 634 2343;
#X msg 1090 491 51;
#X obj 1784 816 noteout;
#X obj 1855 596 loadbang;
#X obj 1783 707 metro;
#X obj 1783 759 makenote;
#X floatatom 1876 688 0 0 0 0 - - -;
#X obj 1783 733 f;
#X floatatom 1832 691 0 0 0 0 - - -;
#X floatatom 1920 689 0 0 0 0 - - -;
#X floatatom 1963 689 0 0 0 0 - - -;
#X msg 1916 631 64;
#X text 1831 668 rate;
#X text 1874 668 pitch;
#X text 1919 668 vel;
#X text 1955 669 length;
#X obj 1776 658 tgl 15 0 empty empty empty 17 7 0 10 -262144 -1 -1
0 1;
#X obj 1490 115 hsl 256 30 700 1200 0 0 empty empty empty -2 -8 0 10
-262144 -1 -1 9180 1;
#X msg 1944 631 1477;
#X msg 1855 631 2343;
#X msg 1426 634 30;
#X msg 1483 634 336;
#X msg 1887 631 27;
#X obj 2224 820 noteout;
#X obj 2303 597 loadbang;
#X obj 2223 711 metro;
#X obj 2223 763 makenote;
#X floatatom 2316 692 0 0 0 0 - - -;
#X obj 2223 737 f;
#X floatatom 2272 695 0 0 0 0 - - -;
#X floatatom 2360 693 0 0 0 0 - - -;
#X floatatom 2403 693 0 0 0 0 - - -;
#X msg 2364 632 64;
#X text 2271 672 rate;
#X text 2314 672 pitch;
#X text 2359 672 vel;
#X text 2395 673 length;
#X obj 2216 662 tgl 15 0 empty empty empty 17 7 0 10 -262144 -1 -1
0 1;
#X floatatom 1797 382 5 0 0 0 - - -, f 5;
#X obj 1771 115 hsl 256 30 700 1200 0 0 empty empty empty -2 -8 0 10
-262144 -1 -1 9180 1;
#X msg 2303 632 731;
#X msg 2335 632 84;
#X msg 2392 632 39;
#X obj 2725 812 noteout;
#X obj 2799 597 loadbang;
#X obj 2724 703 metro;
#X obj 2724 755 makenote;
#X floatatom 2817 684 0 0 0 0 - - -;
#X obj 2724 729 f;
#X floatatom 2773 687 0 0 0 0 - - -;
#X floatatom 2861 685 0 0 0 0 - - -;
#X floatatom 2904 685 0 0 0 0 - - -;
#X msg 2860 632 64;
#X text 2772 664 rate;
#X text 2815 664 pitch;
#X text 2860 664 vel;
#X text 2896 665 length;
#X obj 2717 654 tgl 15 0 empty empty empty 17 7 0 10 -262144 -1 -1
0 1;
#X obj 2041 115 hsl 256 30 700 1200 0 0 empty empty empty -2 -8 0 10
-262144 -1 -1 9180 1;
#X msg 2888 632 1477;
#X msg 2799 632 2343;
#X msg 2959 612 13;
#X obj 3183 802 noteout;
#X obj 3257 587 loadbang;
#X obj 3182 693 metro;
#X obj 3182 745 makenote;
#X floatatom 3275 674 0 0 0 0 - - -;
#X obj 3182 719 f;
#X floatatom 3231 677 0 0 0 0 - - -;
#X floatatom 3319 675 0 0 0 0 - - -;
#X floatatom 3362 675 0 0 0 0 - - -;
#X msg 3318 622 64;
#X text 3230 654 rate;
#X text 3273 654 pitch;
#X text 3318 654 vel;
#X text 3354 655 length;
#X obj 3175 644 tgl 15 0 empty empty empty 17 7 0 10 -262144 -1 -1
0 1;
#X obj 2309 115 hsl 256 30 700 1200 0 0 empty empty empty -2 -8 0 10
-262144 -1 -1 9180 1;
#X msg 3417 602 15;
#X msg 2831 632 47;
#X msg 3257 622 1005;
#X msg 3289 622 43;
#X msg 3346 622 131;
#X msg 389 2 880;
#X msg 392 483 100;
#X obj -336 -19 metro 3200;
#X msg -445 101 8 3200;
#X obj -9 309 line;
#X msg 33 281 0;
#X msg -10 251 22200 8000;
#X obj 201 510 bng 15 250 50 0 empty empty empty 17 7 0 10 -262144
-1 -1;
#X obj -131 130 f;
#X msg -115 98 248;
#X text -88 96 clk;
#X obj -172 39 tgl 15 0 empty empty empty 17 7 0 10 -262144 -1 -1 0
1;
#X floatatom -60 141 5 0 0 0 - - -, f 5;
#X obj -129 753 expr 60000 / (24 * $f1);
#X obj -246 746 t f f;
#X msg -246 804 250;
#X msg -211 805 252;
#X msg -174 805 248;
#X obj -246 775 sel 1;
#X floatatom -172 745 5 0 0 0 - - -, f 5;
#X obj -245 693 tgl 15 0 empty empty empty 17 7 0 10 -262144 -1 -1
0 1;
#X floatatom -158 855 5 0 0 0 - - -, f 5;
#X msg -43 100 0;
#X obj -107 643 noteout;
#X obj -139 165 midiout;
#X msg -232 126 128 0 100;
#X obj -120 58 metro 20;
#X msg 563 -6 833;
#X msg 563 15 878;
#X msg 810 490 250;
#X text -444 252 TX_OFF = 0 \, //npc TX_ON = 1 \, //npc UPDOWN_OFF
= 2 \, STATION_UP = 3 \, STATION_DOWN = 4 \, DOWN1 = 5 \, //todo make
relative... align with pitch wheel DOWN2 = 6 \, DOWN3 = 7 \, //piece
wise linear that way... DOWN4 = 8 \, DOWN5 = 9 \, UP1 = 110 \, UP2
= 111 \, UP3 = 112 \, UP4 = 113 \, UP5 = 114 \, STATION_UP2 = 115 \,
//npc STATION_DOWN2 = 116 \, //npc//npc STATION_UP3 = 117 \, STATION_DOWN3
= 118 \, //npc STATION_UP4 = 119 \, //npc STATION_DOWN4 = 120 \, //npc
STATION_UP5 = 121 \, //npc STATION_DOWN5 = 122 \, //npc STATION_UP6
= 123 \, //npc STATION_DOWN6 = 124 //npc;
#X obj -51 394 vradio 15 1 0 17 empty empty Channel 0 -8 0 10 -262144
-1 -1 4;
#X floatatom -49 652 5 1 16 0 - - -, f 5;
#X obj -77 463 vsl 15 128 0 127 0 0 empty empty empty 0 -9 0 10 -262144
-1 -1 0 1;
#X floatatom -88 612 5 700 1200 0 - - -, f 5;
#X obj -107 434 vsl 15 128 10 101 0 0 empty empty empty 0 -9 0 10 -262144
-1 -1 0 1;
#X floatatom -129 612 5 700 1200 0 - - -, f 5;
#X obj 347 239 metro 88;
#X obj 691 235 metro 500;
#X msg 593 -6 773;
#X msg 594 14 818;
#X obj -174 776 metro 25;
#X msg -312 518 0;
#X msg -311 540 1;
#X msg -317 429 2;
#X msg -243 425 3;
#X msg -277 427 4;
#X msg -198 428 5;
#X msg -199 452 6;
#X msg -199 475 7;
#X msg -199 499 8;
#X msg -200 522 9;
#X msg -159 427 110;
#X msg -160 450 111;
#X msg -159 475 112;
#X msg -160 500 113;
#X msg -159 522 114;
#X msg -244 451 115;
#X msg -276 451 116;
#X msg -243 475 117;
#X msg -276 474 118;
#X msg -244 499 119;
#X msg -276 499 120;
#X msg -244 521 121;
#X msg -277 521 122;
#X msg -246 544 123;
#X msg -276 544 124;
#X text -275 391 Stat;
#X text -244 406 up;
#X text -276 408 down;
#X text -192 390 Gliss;
#X text -202 403 down;
#X text -157 403 up;
#X text -325 401 glissOff;
#X obj -312 565 tgl 15 0 empty empty empty 17 7 0 10 -262144 -1 -1
0 1;
#X text -320 492 TXOn;
#X obj -1 873 r comctl;
#X obj 10 890 r comtx;
#X obj 2 925 comport 0 115200;
#X obj 24 459 s comctl;
#X msg 16 390 devices;
#X msg 24 410 open 32;
#X msg 29 429 close;
#X obj -245 867 s comtx;
#X obj -246 833 f;
#X obj -182 708 hsl 128 15 1 300 0 0 empty empty empty -2 -8 0 10 -262144
-1 -1 0 1;
#X obj -132 824 bng 15 250 50 0 empty empty empty 17 7 0 10 -262144
-1 -1;
#X obj -213 678 tgl 15 0 empty empty empty 17 7 0 10 -262144 -1 -1
0 1;
#X text -34 404 1;
#X text -33 439 3;
#X text -32 469 5;
#X text -33 497 7;
#X text -33 529 9;
#X text -35 558 11;
#X text -31 589 13;
#X text -32 617 15;
#X msg -282 801 255;
#X text -309 799 RST!;
#X msg 11 370 devicename /dev/ttyUSB1;
#X msg -314 234 243;
#X msg -314 212 242;
#X text -283 212 Song Pos [needs 16bits];
#X text -285 231 Song Select [needs 7bits];
#X msg -2 348 devicename /dev/ttyUSB0;
#X text -296 885 sysEx to reboot and flashMagic!;
#X obj -294 938 s comtx;
#X obj -305 866 bng 15 250 50 0 empty empty empty 17 7 0 10 -262144
-1 -1;
#X obj 64 905 print;
#X obj -247 921 delay 1000;
#X msg -174 937 close;
#X obj -173 957 s comctl;
#X msg -294 903 240 1 14 13 67 111 126 7 2 247;
#X obj -314 623 tgl 15 0 empty empty empty 17 7 0 10 -262144 -1 -1
0 1;
#X obj -310 645 * 127;
#X obj -309 670 ctlout 10;
#X text -294 622 Stereo;
#X text -134 405 Pitch Slider;
#X obj 429 260 radioOrganCtrl;
#X obj 398 217 +;
#X floatatom 392 188 5 0 0 0 - - -, f 5;
#X obj 722 272 radioOrganCtrl;
#X obj 817 217 +;
#X floatatom 811 188 5 0 0 0 - - -, f 5;
#X msg 862 238 3;
#X obj 862 216 loadbang;
#X obj 956 226 tgl 15 0 empty empty empty 17 7 0 10 -262144 -1 -1 0
1;
#X obj 994 180 i;
#X obj 1044 179 hsl 128 15 0 3 0 0 empty empty empty -2 -8 0 10 -262144
-1 -1 0 1;
#X obj 955 260 metro 500;
#X obj 986 297 radioOrganCtrl;
#X obj 1081 242 +;
#X floatatom 1075 213 5 0 0 0 - - -, f 5;
#X obj 1126 241 loadbang;
#X msg 1126 263 5;
#X obj 1219 217 tgl 15 0 empty empty empty 17 7 0 10 -262144 -1 -1
0 1;
#X obj 1315 174 i;
#X obj 1365 173 hsl 128 15 0 3 0 0 empty empty empty -2 -8 0 10 -262144
-1 -1 0 1;
#X obj 1218 251 metro 500;
#X obj 1249 288 radioOrganCtrl;
#X obj 1344 233 +;
#X floatatom 1338 204 5 0 0 0 - - -, f 5;
#X obj 1389 232 loadbang;
#X msg 1389 254 7;
#X obj 1479 218 tgl 15 0 empty empty empty 17 7 0 10 -262144 -1 -1
0 1;
#X obj 1575 175 i;
#X obj 1625 174 hsl 128 15 0 3 0 0 empty empty empty -2 -8 0 10 -262144
-1 -1 0 1;
#X obj 1478 252 metro 500;
#X obj 1509 289 radioOrganCtrl;
#X obj 1604 234 +;
#X floatatom 1598 205 5 0 0 0 - - -, f 5;
#X obj 1649 233 loadbang;
#X msg 1649 255 9;
#X obj 1766 219 tgl 15 0 empty empty empty 17 7 0 10 -262144 -1 -1
0 1;
#X obj 1862 176 i;
#X obj 1912 175 hsl 128 15 0 3 0 0 empty empty empty -2 -8 0 10 -262144
-1 -1 0 1;
#X obj 1765 253 metro 500;
#X obj 1796 290 radioOrganCtrl;
#X obj 1890 237 +;
#X floatatom 1885 206 5 0 0 0 - - -, f 5;
#X obj 1936 234 loadbang;
#X msg 1936 256 11;
#X obj 2045 225 tgl 15 0 empty empty empty 17 7 0 10 -262144 -1 -1
0 1;
#X obj 2141 182 i;
#X obj 2161 160 hsl 128 15 0 3 0 0 empty empty empty -2 -8 0 10 -262144
-1 -1 0 1;
#X obj 2044 259 metro 500;
#X obj 2075 296 radioOrganCtrl;
#X obj 2170 241 +;
#X floatatom 2164 212 5 0 0 0 - - -, f 5;
#X obj 2215 240 loadbang;
#X msg 2214 262 13;
#X obj 2331 203 tgl 15 0 empty empty empty 17 7 0 10 -262144 -1 -1
0 1;
#X obj 2427 160 i;
#X obj 2477 159 hsl 128 15 0 3 0 0 empty empty empty -2 -8 0 10 -262144
-1 -1 0 1;
#X obj 2330 237 metro 500;
#X obj 2361 274 radioOrganCtrl;
#X obj 2418 212 +;
#X floatatom 2412 183 5 0 0 0 - - -, f 5;
#X obj 2501 218 loadbang;
#X msg 2501 240 15;
#X floatatom 986 386 5 0 0 0 - - -, f 5;
#X floatatom 722 361 5 0 0 0 - - -, f 5;
#X floatatom 430 352 5 0 0 0 - - -, f 5;
#X floatatom 1249 377 5 0 0 0 - - -, f 5;
#X floatatom 1509 378 5 0 0 0 - - -, f 5;
#X floatatom 2075 385 5 0 0 0 - - -, f 5;
#X floatatom 2361 363 5 0 0 0 - - -, f 5;
#X obj 857 17 hradio 15 1 0 8 empty empty empty 0 -8 0 10 -262144 -1
-1 0;
#X msg 575 218 1;
#X obj 2013 -8 hsl 256 30 700 1200 0 0 empty empty empty -2 -8 0 10
-262144 -1 -1 9180 1;
#X obj 1969 -33 i;
#X obj 2019 -34 hsl 128 15 0 3 0 0 empty empty empty -2 -8 0 10 -262144
-1 -1 0 1;
#X obj 1960 19 +;
#X floatatom 1954 -10 5 0 0 0 - - -, f 5;
#X msg 1712 -33 888;
#X msg 1644 -29 870;
#X msg 1760 -33 894;
#X msg 1806 -37 911;
#X msg 1679 -31 880;
#X msg 1853 -39 833;
#X msg 1853 -18 878;
#X msg 1883 -39 773;
#X msg 1884 -19 818;
#X obj 1350 -18 hsl 128 15 0 127 0 0 empty empty empty -2 -8 0 10 -262144
-1 -1 0 1;
#X floatatom 1341 47 5 0 0 0 - - -, f 5;
#X obj 1342 -37 hsl 256 15 20 1000 0 0 empty empty empty -2 -8 0 10
-262144 -1 -1 0 1;
#X obj 1406 2 t b;
#X obj 1342 25 +;
#X floatatom 1361 3 5 0 0 0 - - -, f 5;
#X obj 1201 -39 tgl 54 0 empty empty empty 17 7 0 10 -262144 -1 -1
1 1;
#X obj 1288 8 metro;
#X obj 1290 -40 tgl 36 0 empty empty empty 17 7 0 10 -262144 -1 -1
0 1;
#X obj 719 201 r \$0-globalPower;
#X obj 979 222 r \$0-globalPower;
#X obj 1250 211 r \$0-globalPower;
#X obj 1488 196 r \$0-globalPower;
#X obj 1766 189 r \$0-globalPower;
#X obj 2036 200 r \$0-globalPower;
#X obj 2316 164 r \$0-globalPower;
#X obj 1201 26 s \$0-globalPower;
#X obj 719 223 r globalPower;
#X obj 346 162 r \$0-globalPower;
#X obj 483 76 r \$0-globalStat;
#X obj 700 88 r \$0-globalStat;
#X obj 973 80 r \$0-globalStat;
#X obj 1237 81 r \$0-globalStat;
#X obj 1492 85 r \$0-globalStat;
#X obj 1771 87 r \$0-globalStat;
#X obj 2046 87 r \$0-globalStat;
#X obj 2308 80 r \$0-globalStat;
#X obj 2015 38 s \$0-globalStat;
#X obj 581 181 r \$0-globalDev;
#X obj 872 185 r \$0-globalDev;
#X obj 1121 208 r \$0-globalDev;
#X obj 1388 202 r \$0-globalDev;
#X obj 1647 202 r \$0-globalDev;
#X obj 1940 204 r \$0-globalDev;
#X obj 2211 206 r \$0-globalDev;
#X obj 2471 192 r \$0-globalDev;
#X obj 857 37 s \$0-globalDev;
#X obj 2545 245 r \$0-globalChan;
#X obj 2239 289 r \$0-globalChan;
#X obj 1936 278 r \$0-globalChan;
#X obj 1649 277 r \$0-globalChan;
#X obj 1389 276 r \$0-globalChan;
#X obj 1126 285 r \$0-globalChan;
#X obj 862 260 r \$0-globalChan;
#X obj 574 244 r \$0-globalChan;
#X obj 824 -33 hradio 15 0 0 16 empty empty empty 0 -8 0 10 -262144
-1 -1 0;
#X text 945 -18 8;
#X obj 824 -13 s \$0-globalChan;
#X obj 776 -33 bng 30 250 50 0 empty empty empty 17 7 0 10 -262144
-1 -1;
#X obj 777 9 s rstChan;
#X obj 607 200 r rstChan;
#X obj 895 238 r rstChan;
#X obj 1158 261 r rstChan;
#X obj 1418 253 r rstChan;
#X obj 1683 255 r rstChan;
#X obj 1968 257 r rstChan;
#X obj 2245 263 r rstChan;
#X obj 2568 219 r rstChan;
#X msg 1663 -5 900;
#X msg 515 419 21;
#X msg 588 416 14;
#X obj 318 376 ctlout 123 1;
#X obj 311 324 bng 15 250 50 0 empty empty empty 17 7 0 10 -262144
-1 -1;
#X obj 241 317 tgl 15 0 empty empty empty 17 7 0 10 -262144 -1 -1 1
1;
#X obj 241 342 metro 50;
#X floatatom 241 364 5 0 0 0 - - -, f 5;
#X connect 4 0 54 0;
#X connect 4 0 55 0;
#X connect 4 0 12 0;
#X connect 4 0 53 0;
#X connect 5 0 8 0;
#X connect 6 0 3 0;
#X connect 6 1 3 1;
#X connect 7 0 8 1;
#X connect 8 0 6 0;
#X connect 9 0 5 1;
#X connect 10 0 6 1;
#X connect 11 0 6 2;
#X connect 12 0 10 0;
#X connect 17 0 5 0;
#X connect 19 0 27 0;
#X connect 19 0 28 0;
#X connect 19 0 29 0;
#X connect 19 0 206 0;
#X connect 20 0 23 0;
#X connect 21 0 18 0;
#X connect 21 1 18 1;
#X connect 22 0 23 1;
#X connect 23 0 21 0;
#X connect 24 0 20 1;
#X connect 25 0 21 1;
#X connect 26 0 21 2;
#X connect 27 0 24 0;
#X connect 28 0 22 0;
#X connect 29 0 25 0;
#X connect 34 0 20 0;
#X connect 35 0 214 0;
#X connect 36 0 215 0;
#X connect 37 0 42 0;
#X connect 38 0 42 0;
#X connect 39 0 42 0;
#X connect 40 0 42 0;
#X connect 41 0 37 0;
#X connect 42 0 296 0;
#X connect 42 0 294 1;
#X connect 43 0 44 0;
#X connect 43 0 297 1;
#X connect 44 0 299 0;
#X connect 45 0 298 0;
#X connect 46 0 295 0;
#X connect 47 0 49 0;
#X connect 49 0 51 0;
#X connect 50 0 49 0;
#X connect 50 0 51 0;
#X connect 50 0 57 0;
#X connect 52 0 50 0;
#X connect 52 0 180 0;
#X connect 53 0 11 0;
#X connect 54 0 9 0;
#X connect 55 0 7 0;
#X connect 56 0 179 0;
#X connect 57 0 58 0;
#X connect 59 0 57 0;
#X connect 61 0 77 0;
#X connect 61 0 95 0;
#X connect 61 0 69 0;
#X connect 61 0 76 0;
#X connect 62 0 65 0;
#X connect 63 0 60 0;
#X connect 63 1 60 1;
#X connect 64 0 65 1;
#X connect 65 0 63 0;
#X connect 66 0 62 1;
#X connect 67 0 63 1;
#X connect 68 0 63 2;
#X connect 69 0 67 0;
#X connect 74 0 62 0;
#X connect 75 0 303 0;
#X connect 75 0 306 1;
#X connect 76 0 68 0;
#X connect 77 0 66 0;
#X connect 79 0 94 0;
#X connect 79 0 114 0;
#X connect 79 0 87 0;
#X connect 79 0 115 0;
#X connect 80 0 83 0;
#X connect 81 0 78 0;
#X connect 81 1 78 1;
#X connect 82 0 83 1;
#X connect 83 0 81 0;
#X connect 84 0 80 1;
#X connect 85 0 81 1;
#X connect 86 0 81 2;
#X connect 87 0 85 0;
#X connect 92 0 80 0;
#X connect 93 0 312 0;
#X connect 93 0 315 1;
#X connect 94 0 84 0;
#X connect 95 0 64 0;
#X connect 97 0 113 0;
#X connect 97 0 116 0;
#X connect 97 0 105 0;
#X connect 97 0 112 0;
#X connect 98 0 101 0;
#X connect 99 0 96 0;
#X connect 99 1 96 1;
#X connect 100 0 101 1;
#X connect 101 0 99 0;
#X connect 102 0 98 1;
#X connect 103 0 99 1;
#X connect 104 0 99 2;
#X connect 105 0 103 0;
#X connect 110 0 98 0;
#X connect 111 0 321 0;
#X connect 111 0 324 1;
#X connect 112 0 104 0;
#X connect 113 0 102 0;
#X connect 114 0 82 0;
#X connect 115 0 86 0;
#X connect 116 0 100 0;
#X connect 118 0 134 0;
#X connect 118 0 135 0;
#X connect 118 0 126 0;
#X connect 118 0 136 0;
#X connect 119 0 122 0;
#X connect 120 0 117 0;
#X connect 120 1 117 1;
#X connect 121 0 122 1;
#X connect 122 0 120 0;
#X connect 123 0 119 1;
#X connect 124 0 120 1;
#X connect 125 0 120 2;
#X connect 126 0 124 0;
#X connect 131 0 119 0;
#X connect 132 0 117 2;
#X connect 133 0 330 0;
#X connect 133 0 333 1;
#X connect 134 0 123 0;
#X connect 135 0 121 0;
#X connect 136 0 125 0;
#X connect 138 0 154 0;
#X connect 138 0 173 0;
#X connect 138 0 146 0;
#X connect 138 0 153 0;
#X connect 138 0 155 0;
#X connect 139 0 142 0;
#X connect 140 0 137 0;
#X connect 140 1 137 1;
#X connect 141 0 142 1;
#X connect 142 0 140 0;
#X connect 143 0 139 1;
#X connect 144 0 140 1;
#X connect 145 0 140 2;
#X connect 146 0 144 0;
#X connect 151 0 139 0;
#X connect 152 0 339 0;
#X connect 152 0 342 1;
#X connect 153 0 145 0;
#X connect 154 0 143 0;
#X connect 157 0 174 0;
#X connect 157 0 175 0;
#X connect 157 0 165 0;
#X connect 157 0 176 0;
#X connect 157 0 172 0;
#X connect 158 0 161 0;
#X connect 159 0 156 0;
#X connect 159 1 156 1;
#X connect 160 0 161 1;
#X connect 161 0 159 0;
#X connect 162 0 158 1;
#X connect 163 0 159 1;
#X connect 164 0 159 2;
#X connect 165 0 163 0;
#X connect 170 0 158 0;
#X connect 171 0 348 0;
#X connect 171 0 351 1;
#X connect 173 0 141 0;
#X connect 174 0 162 0;
#X connect 175 0 160 0;
#X connect 176 0 164 0;
#X connect 177 0 42 0;
#X connect 178 0 11 0;
#X connect 179 0 52 0;
#X connect 180 0 49 0;
#X connect 182 0 181 0;
#X connect 183 0 181 0;
#X connect 184 0 8 0;
#X connect 185 0 201 0;
#X connect 186 0 185 0;
#X connect 188 0 203 0;
#X connect 189 0 201 1;
#X connect 190 0 218 1;
#X connect 191 0 218 0;
#X connect 191 1 195 0;
#X connect 192 0 261 0;
#X connect 193 0 261 0;
#X connect 194 0 261 0;
#X connect 195 0 192 0;
#X connect 195 1 193 0;
#X connect 196 0 190 0;
#X connect 197 0 191 0;
#X connect 199 0 189 0;
#X connect 202 0 201 0;
#X connect 203 0 186 0;
#X connect 204 0 42 0;
#X connect 205 0 42 0;
#X connect 206 0 26 0;
#X connect 208 0 209 0;
#X connect 209 0 200 2;
#X connect 209 0 291 2;
#X connect 210 0 211 0;
#X connect 211 0 200 1;
#X connect 212 0 213 0;
#X connect 213 0 200 0;
#X connect 214 0 294 0;
#X connect 215 0 297 0;
#X connect 216 0 42 0;
#X connect 217 0 42 0;
#X connect 218 0 194 0;
#X connect 218 0 263 0;
#X connect 219 0 213 0;
#X connect 220 0 213 0;
#X connect 221 0 213 0;
#X connect 222 0 213 0;
#X connect 223 0 213 0;
#X connect 224 0 213 0;
#X connect 225 0 213 0;
#X connect 226 0 213 0;
#X connect 227 0 213 0;
#X connect 228 0 213 0;
#X connect 229 0 213 0;
#X connect 230 0 213 0;
#X connect 231 0 213 0;
#X connect 232 0 213 0;
#X connect 233 0 213 0;
#X connect 234 0 213 0;
#X connect 235 0 213 0;
#X connect 236 0 213 0;
#X connect 237 0 213 0;
#X connect 238 0 213 0;
#X connect 239 0 213 0;
#X connect 240 0 213 0;
#X connect 241 0 213 0;
#X connect 242 0 213 0;
#X connect 243 0 213 0;
#X connect 251 0 213 0;
#X connect 253 0 255 0;
#X connect 254 0 255 0;
#X connect 257 0 256 0;
#X connect 258 0 256 0;
#X connect 259 0 256 0;
#X connect 261 0 198 0;
#X connect 261 0 260 0;
#X connect 262 0 196 0;
#X connect 264 0 218 0;
#X connect 273 0 261 0;
#X connect 275 0 256 0;
#X connect 280 0 256 0;
#X connect 283 0 288 0;
#X connect 285 0 286 0;
#X connect 286 0 287 0;
#X connect 288 0 282 0;
#X connect 288 0 285 0;
#X connect 289 0 290 0;
#X connect 290 0 291 0;
#X connect 294 0 358 0;
#X connect 295 0 294 1;
#X connect 296 0 295 1;
#X connect 297 0 357 0;
#X connect 298 0 297 1;
#X connect 299 0 298 1;
#X connect 300 0 297 3;
#X connect 301 0 300 0;
#X connect 302 0 305 0;
#X connect 303 0 308 0;
#X connect 304 0 307 0;
#X connect 305 0 306 0;
#X connect 306 0 356 0;
#X connect 307 0 306 1;
#X connect 308 0 307 1;
#X connect 309 0 310 0;
#X connect 310 0 306 3;
#X connect 311 0 314 0;
#X connect 312 0 317 0;
#X connect 313 0 316 0;
#X connect 314 0 315 0;
#X connect 315 0 359 0;
#X connect 316 0 315 1;
#X connect 317 0 316 1;
#X connect 318 0 319 0;
#X connect 319 0 315 3;
#X connect 320 0 323 0;
#X connect 321 0 326 0;
#X connect 322 0 325 0;
#X connect 323 0 324 0;
#X connect 324 0 360 0;
#X connect 326 0 325 1;
#X connect 327 0 328 0;
#X connect 328 0 324 3;
#X connect 329 0 332 0;
#X connect 330 0 335 0;
#X connect 331 0 334 0;
#X connect 332 0 333 0;
#X connect 333 0 132 0;
#X connect 334 0 333 1;
#X connect 335 0 334 1;
#X connect 336 0 337 0;
#X connect 337 0 333 3;
#X connect 338 0 341 0;
#X connect 339 0 344 0;
#X connect 340 0 343 0;
#X connect 341 0 342 0;
#X connect 342 0 361 0;
#X connect 343 0 342 1;
#X connect 344 0 343 1;
#X connect 345 0 346 0;
#X connect 346 0 342 3;
#X connect 347 0 350 0;
#X connect 348 0 353 0;
#X connect 349 0 352 0;
#X connect 350 0 351 0;
#X connect 351 0 362 0;
#X connect 352 0 351 1;
#X connect 353 0 352 1;
#X connect 354 0 355 0;
#X connect 355 0 351 3;
#X connect 356 0 60 2;
#X connect 357 0 18 2;
#X connect 358 0 3 2;
#X connect 358 0 440 2;
#X connect 359 0 78 2;
#X connect 360 0 96 2;
#X connect 361 0 137 2;
#X connect 362 0 156 2;
#X connect 363 0 415 0;
#X connect 364 0 294 3;
#X connect 365 0 366 0;
#X connect 365 0 406 0;
#X connect 366 0 369 0;
#X connect 367 0 368 0;
#X connect 368 0 406 0;
#X connect 369 0 368 1;
#X connect 370 0 365 0;
#X connect 371 0 365 0;
#X connect 372 0 365 0;
#X connect 373 0 365 0;
#X connect 374 0 365 0;
#X connect 375 0 365 0;
#X connect 376 0 365 0;
#X connect 377 0 365 0;
#X connect 378 0 365 0;
#X connect 379 0 382 0;
#X connect 379 0 384 0;
#X connect 380 0 386 1;
#X connect 381 0 383 0;
#X connect 382 0 383 0;
#X connect 383 0 380 0;
#X connect 384 0 383 1;
#X connect 385 0 395 0;
#X connect 386 0 395 0;
#X connect 387 0 386 0;
#X connect 388 0 297 0;
#X connect 389 0 306 0;
#X connect 390 0 315 0;
#X connect 391 0 324 0;
#X connect 392 0 333 0;
#X connect 393 0 342 0;
#X connect 394 0 351 0;
#X connect 397 0 294 0;
#X connect 398 0 42 0;
#X connect 399 0 43 0;
#X connect 400 0 75 0;
#X connect 401 0 93 0;
#X connect 402 0 111 0;
#X connect 403 0 133 0;
#X connect 404 0 152 0;
#X connect 405 0 171 0;
#X connect 407 0 294 2;
#X connect 408 0 297 2;
#X connect 409 0 306 2;
#X connect 410 0 315 2;
#X connect 411 0 324 2;
#X connect 412 0 333 2;
#X connect 413 0 342 2;
#X connect 414 0 351 2;
#X connect 416 0 351 3;
#X connect 417 0 342 3;
#X connect 418 0 333 3;
#X connect 419 0 324 3;
#X connect 420 0 315 3;
#X connect 421 0 306 3;
#X connect 422 0 297 3;
#X connect 423 0 294 3;
#X connect 424 0 426 0;
#X connect 427 0 428 0;
#X connect 429 0 364 0;
#X connect 430 0 300 0;
#X connect 431 0 310 0;
#X connect 432 0 319 0;
#X connect 433 0 328 0;
#X connect 434 0 337 0;
#X connect 435 0 346 0;
#X connect 436 0 355 0;
#X connect 437 0 365 0;
#X connect 438 0 7 0;
#X connect 439 0 7 0;
#X connect 441 0 440 0;
#X connect 442 0 443 0;
#X connect 443 0 444 0;
#X connect 444 0 440 0;
