#N canvas 949 -8 960 1009 10;
#X obj 316 871 ftom~;
#X obj 374 874 ftom;
#X obj 380 900 stripnote;
#X obj 66 590 noteout;
#X obj 320 402 loadbang;
#X obj 65 481 metro;
#X obj 60 543 makenote;
#X floatatom 153 480 0 0 0 0 - - -;
#X obj 65 507 f;
#X floatatom 114 463 0 0 0 0 - - -;
#X floatatom 202 463 0 0 0 0 - - -;
#X floatatom 241 464 0 0 0 0 - - -;
#X msg 368 445 64;
#X text 113 442 rate;
#X text 156 442 pitch;
#X text 197 440 vel;
#X text 237 443 length;
#X obj 58 432 tgl 15 0 empty empty empty 17 7 0 10 -262144 -1 -1 0
1;
#X obj 261 388 bng 15 250 50 0 empty empty empty 17 7 0 10 -262144
-1 -1;
#X floatatom 128 565 5 1 16 0 - - -, f 5;
#X obj 495 601 noteout;
#X obj 736 421 loadbang;
#X obj 494 492 metro;
#X obj 494 544 makenote;
#X floatatom 587 473 0 0 0 0 - - -;
#X obj 494 518 f;
#X floatatom 543 476 0 0 0 0 - - -;
#X floatatom 631 474 0 0 0 0 - - -;
#X floatatom 674 474 0 0 0 0 - - -;
#X msg 736 456 500;
#X msg 768 456 60;
#X msg 797 456 64;
#X text 542 453 rate;
#X text 585 453 pitch;
#X text 630 453 vel;
#X text 666 454 length;
#X obj 487 443 tgl 15 0 empty empty empty 17 7 0 10 -262144 -1 -1 0
1;
#X obj 690 399 bng 15 250 50 0 empty empty empty 17 7 0 10 -262144
-1 -1;
#X floatatom 557 576 5 1 16 0 - - -, f 5;
#X obj 106 317 tgl 15 0 empty empty empty 17 7 0 10 -262144 -1 -1 1
1;
#X obj 118 393 ctlout 80 1;
#X obj 111 350 * 127;
#X obj 512 320 tgl 15 0 empty empty empty 17 7 0 10 -262144 -1 -1 1
1;
#X obj 517 353 * 127;
#X msg 709 541 3;
#X msg 204 538 1;
#X obj 524 396 ctlout 80 3;
#X obj 78 822 noteout;
#X obj 319 642 loadbang;
#X obj 77 713 metro;
#X obj 77 765 makenote;
#X floatatom 161 704 0 0 0 0 - - -;
#X obj 77 739 f;
#X floatatom 126 695 0 0 0 0 - - -;
#X floatatom 214 695 0 0 0 0 - - -;
#X floatatom 257 695 0 0 0 0 - - -;
#X msg 380 677 64;
#X text 125 674 rate;
#X text 168 674 pitch;
#X text 213 674 vel;
#X text 249 675 length;
#X obj 70 664 tgl 15 0 empty empty empty 17 7 0 10 -262144 -1 -1 0
1;
#X obj 273 620 bng 15 250 50 0 empty empty empty 17 7 0 10 -262144
-1 -1;
#X floatatom 140 797 5 1 16 0 - - -, f 5;
#X obj 507 833 noteout;
#X obj 748 653 loadbang;
#X obj 506 724 metro;
#X obj 506 776 makenote;
#X floatatom 599 706 0 0 0 0 - - -;
#X obj 506 750 f;
#X floatatom 555 708 0 0 0 0 - - -;
#X floatatom 643 706 0 0 0 0 - - -;
#X floatatom 686 706 0 0 0 0 - - -;
#X msg 748 688 500;
#X msg 780 688 60;
#X msg 809 688 64;
#X text 554 685 rate;
#X text 597 685 pitch;
#X text 642 685 vel;
#X text 678 686 length;
#X obj 499 675 tgl 15 0 empty empty empty 17 7 0 10 -262144 -1 -1 0
1;
#X obj 702 631 bng 15 250 50 0 empty empty empty 17 7 0 10 -262144
-1 -1;
#X floatatom 569 808 5 1 16 0 - - -, f 5;
#X msg 721 773 4;
#X msg 216 770 2;
#X obj 48 301 line 93;
#X obj 106 242 tgl 15 0 empty empty empty 17 7 0 10 -262144 -1 -1 0
1;
#X obj 507 238 tgl 15 0 empty empty empty 17 7 0 10 -262144 -1 -1 0
1;
#X floatatom 267 315 5 0 127 0 - - -, f 5;
#X obj 265 346 ctlout 48 1;
#X floatatom 358 316 5 0 127 0 - - -, f 5;
#X obj 359 345 ctlout 16 1;
#X floatatom 376 261 5 700 1200 0 - - -, f 5;
#X obj 406 313 / 4;
#X obj 362 286 i;
#X obj 405 284 - 700;
#X obj 440 312 % 4;
#X floatatom 620 327 5 0 127 0 - - -, f 5;
#X floatatom 711 328 5 0 127 0 - - -, f 5;
#X floatatom 741 272 5 700 1200 0 - - -, f 5;
#X obj 759 325 / 4;
#X obj 715 298 i;
#X obj 758 296 - 700;
#X obj 618 358 ctlout 48 3;
#X obj 712 357 ctlout 16 3;
#X msg 723 61 888;
#X msg 658 59 870;
#X msg 767 60 894;
#X msg 824 62 911;
#X msg 374 59 888;
#X msg 306 63 870;
#X msg 422 59 894;
#X msg 468 55 911;
#X obj 805 16 loadbang;
#X obj 369 26 loadbang;
#X obj 267 291 * 32;
#X obj 326 117 hsl 256 30 700 1200 0 0 empty empty empty -2 -8 0 10
-262144 -1 -1 8980 1;
#X obj 331 171 i;
#X obj 671 116 hsl 256 30 700 1200 0 0 empty empty empty -2 -8 0 10
-262144 -1 -1 19488 1;
#X obj 689 170 i;
#X obj 795 328 % 4;
#X obj 621 301 * 32;
#X obj 739 169 hsl 128 15 0 3 0 0 empty empty empty -2 -8 0 10 -262144
-1 -1 8467 1;
#X obj 376 170 hsl 128 15 0 3.75 0 0 empty empty empty -2 -8 0 10 -262144
-1 -1 11300 1;
#X msg 267 132 stop;
#N canvas 0 0 450 300 (subpatch) 0;
#X array \$0-song 8 float 1 black black;
#A 0 74.2855 82.8567 72.8569 87.1424 70.0001 80.7142 67.5708 80.7135
;
#X coords 0 100 7 0 200 140 1;
#X restore 25 -30 graph;
#X obj 204 164 line 0;
#X floatatom 260 91 5 0 0 0 - - -, f 5;
#X obj 201 200 tabread \$0-song;
#X obj 266 42 bng 15 250 50 0 empty empty empty 17 7 0 10 -262144 -1
-1;
#X msg 319 677 274;
#X msg 408 677 207;
#X msg 396 445 1149;
#X msg 307 445 1255;
#X msg 339 445 14;
#X obj 263 -29 tgl 15 0 empty empty empty 17 7 0 10 -262144 -1 -1 0
1;
#X msg 66 246 108;
#X msg -3 245 10 30000;
#X obj 462 405 + 14;
#X floatatom 463 362 5 0 0 0 - - -, f 5;
#X obj 88 161 line 0;
#X obj 85 197 tabread \$0-song;
#X msg 35 123 5 2000;
#X obj 883 607 noteout;
#X obj 1124 427 loadbang;
#X obj 882 498 metro;
#X obj 882 550 makenote;
#X floatatom 975 479 0 0 0 0 - - -;
#X obj 882 524 f;
#X floatatom 931 482 0 0 0 0 - - -;
#X floatatom 1019 480 0 0 0 0 - - -;
#X floatatom 1062 480 0 0 0 0 - - -;
#X msg 1185 462 64;
#X text 930 459 rate;
#X text 973 459 pitch;
#X text 1018 459 vel;
#X text 1054 460 length;
#X obj 875 449 tgl 15 0 empty empty empty 17 7 0 10 -262144 -1 -1 0
1;
#X obj 1078 405 bng 15 250 50 0 empty empty empty 17 7 0 10 -262144
-1 -1;
#X floatatom 945 582 5 1 16 0 - - -, f 5;
#X obj 900 326 tgl 15 0 empty empty empty 17 7 0 10 -262144 -1 -1 1
1;
#X obj 905 359 * 127;
#X obj 895 839 noteout;
#X obj 1136 659 loadbang;
#X obj 894 730 metro;
#X obj 894 782 makenote;
#X floatatom 987 712 0 0 0 0 - - -;
#X obj 894 756 f;
#X floatatom 943 714 0 0 0 0 - - -;
#X floatatom 1031 712 0 0 0 0 - - -;
#X floatatom 1074 712 0 0 0 0 - - -;
#X msg 1197 694 64;
#X text 942 691 rate;
#X text 985 691 pitch;
#X text 1030 691 vel;
#X text 1066 692 length;
#X obj 887 681 tgl 15 0 empty empty empty 17 7 0 10 -262144 -1 -1 0
1;
#X obj 1090 637 bng 15 250 50 0 empty empty empty 17 7 0 10 -262144
-1 -1;
#X floatatom 957 814 5 1 16 0 - - -, f 5;
#X obj 895 244 tgl 15 0 empty empty empty 17 7 0 10 -262144 -1 -1 0
1;
#X floatatom 1008 333 5 0 127 0 - - -, f 5;
#X floatatom 1099 334 5 0 127 0 - - -, f 5;
#X floatatom 1129 278 5 700 1200 0 - - -, f 5;
#X obj 1147 331 / 4;
#X obj 1103 304 i;
#X obj 1146 302 - 700;
#X msg 1111 67 888;
#X msg 1029 60 870;
#X msg 1155 66 894;
#X msg 1212 68 911;
#X obj 1193 22 loadbang;
#X obj 1059 122 hsl 256 30 700 1200 0 0 empty empty empty -2 -8 0 10
-262144 -1 -1 9588 1;
#X obj 1077 176 i;
#X obj 1183 334 % 4;
#X obj 1009 307 * 32;
#X obj 1127 175 hsl 128 15 0 3 0 0 empty empty empty -2 -8 0 10 -262144
-1 -1 0 1;
#X obj 912 402 ctlout 80;
#X obj 1006 364 ctlout 48;
#X obj 1100 363 ctlout 16;
#X msg 1284 442 5;
#X msg 1109 779 6;
#X msg 1136 694 1724;
#X msg 1168 694 28;
#X msg 1225 694 1402;
#X msg 1213 462 1477;
#X msg 1124 462 2343;
#X obj 1338 598 noteout;
#X obj 1579 418 loadbang;
#X obj 1337 489 metro;
#X obj 1337 541 makenote;
#X floatatom 1430 470 0 0 0 0 - - -;
#X obj 1337 515 f;
#X floatatom 1386 473 0 0 0 0 - - -;
#X floatatom 1474 471 0 0 0 0 - - -;
#X floatatom 1517 471 0 0 0 0 - - -;
#X msg 1640 453 64;
#X text 1385 450 rate;
#X text 1428 450 pitch;
#X text 1473 450 vel;
#X text 1509 451 length;
#X obj 1330 440 tgl 15 0 empty empty empty 17 7 0 10 -262144 -1 -1
0 1;
#X obj 1533 396 bng 15 250 50 0 empty empty empty 17 7 0 10 -262144
-1 -1;
#X floatatom 1400 573 5 1 16 0 - - -, f 5;
#X obj 1355 317 tgl 15 0 empty empty empty 17 7 0 10 -262144 -1 -1
1 1;
#X obj 1360 350 * 127;
#X obj 1350 830 noteout;
#X obj 1591 650 loadbang;
#X obj 1349 721 metro;
#X obj 1349 773 makenote;
#X floatatom 1442 703 0 0 0 0 - - -;
#X obj 1349 747 f;
#X floatatom 1398 705 0 0 0 0 - - -;
#X floatatom 1486 703 0 0 0 0 - - -;
#X floatatom 1529 703 0 0 0 0 - - -;
#X msg 1652 685 64;
#X text 1397 682 rate;
#X text 1440 682 pitch;
#X text 1485 682 vel;
#X text 1521 683 length;
#X obj 1342 672 tgl 15 0 empty empty empty 17 7 0 10 -262144 -1 -1
0 1;
#X obj 1545 628 bng 15 250 50 0 empty empty empty 17 7 0 10 -262144
-1 -1;
#X floatatom 1412 805 5 1 16 0 - - -, f 5;
#X obj 1350 235 tgl 15 0 empty empty empty 17 7 0 10 -262144 -1 -1
0 1;
#X floatatom 1463 324 5 0 127 0 - - -, f 5;
#X floatatom 1554 325 5 0 127 0 - - -, f 5;
#X floatatom 1584 269 5 700 1200 0 - - -, f 5;
#X obj 1602 322 / 4;
#X obj 1558 295 i;
#X obj 1601 293 - 700;
#X msg 1566 58 888;
#X msg 1460 58 870;
#X msg 1610 57 894;
#X msg 1667 59 911;
#X obj 1648 13 loadbang;
#X obj 1514 113 hsl 256 30 700 1200 0 0 empty empty empty -2 -8 0 10
-262144 -1 -1 9588 1;
#X obj 1532 167 i;
#X obj 1638 325 % 4;
#X obj 1464 298 * 32;
#X obj 1582 166 hsl 128 15 0 3 0 0 empty empty empty -2 -8 0 10 -262144
-1 -1 0 1;
#X obj 1367 393 ctlout 80;
#X obj 1461 355 ctlout 48;
#X obj 1555 354 ctlout 16;
#X msg 1591 685 1724;
#X msg 1579 453 2343;
#X msg 1739 433 7;
#X msg 1564 770 8;
#X msg 1156 462 51;
#X obj 1799 595 noteout;
#X obj 2040 415 loadbang;
#X obj 1798 486 metro;
#X obj 1798 538 makenote;
#X floatatom 1891 467 0 0 0 0 - - -;
#X obj 1798 512 f;
#X floatatom 1847 470 0 0 0 0 - - -;
#X floatatom 1935 468 0 0 0 0 - - -;
#X floatatom 1978 468 0 0 0 0 - - -;
#X msg 2101 450 64;
#X text 1846 447 rate;
#X text 1889 447 pitch;
#X text 1934 447 vel;
#X text 1970 448 length;
#X obj 1791 437 tgl 15 0 empty empty empty 17 7 0 10 -262144 -1 -1
0 1;
#X obj 1994 393 bng 15 250 50 0 empty empty empty 17 7 0 10 -262144
-1 -1;
#X floatatom 1861 570 5 1 16 0 - - -, f 5;
#X obj 1816 314 tgl 15 0 empty empty empty 17 7 0 10 -262144 -1 -1
1 1;
#X obj 1821 347 * 127;
#X obj 1811 827 noteout;
#X obj 2052 647 loadbang;
#X obj 1810 718 metro;
#X obj 1810 770 makenote;
#X floatatom 1903 700 0 0 0 0 - - -;
#X obj 1810 744 f;
#X floatatom 1859 702 0 0 0 0 - - -;
#X floatatom 1947 700 0 0 0 0 - - -;
#X floatatom 1990 700 0 0 0 0 - - -;
#X msg 2113 682 64;
#X text 1858 679 rate;
#X text 1901 679 pitch;
#X text 1946 679 vel;
#X text 1982 680 length;
#X obj 1803 669 tgl 15 0 empty empty empty 17 7 0 10 -262144 -1 -1
0 1;
#X obj 2006 625 bng 15 250 50 0 empty empty empty 17 7 0 10 -262144
-1 -1;
#X floatatom 1873 802 5 1 16 0 - - -, f 5;
#X obj 1811 232 tgl 15 0 empty empty empty 17 7 0 10 -262144 -1 -1
0 1;
#X floatatom 1924 321 5 0 127 0 - - -, f 5;
#X floatatom 2015 322 5 0 127 0 - - -, f 5;
#X floatatom 2045 266 5 700 1200 0 - - -, f 5;
#X obj 2063 319 / 4;
#X obj 2019 292 i;
#X obj 2062 290 - 700;
#X msg 2027 55 888;
#X msg 1947 52 870;
#X msg 2071 54 894;
#X msg 2128 56 911;
#X obj 2109 10 loadbang;
#X obj 1975 110 hsl 256 30 700 1200 0 0 empty empty empty -2 -8 0 10
-262144 -1 -1 9588 1;
#X obj 1993 164 i;
#X obj 2099 322 % 4;
#X obj 1925 295 * 32;
#X obj 2046 167 hsl 128 15 0 3 0 0 empty empty empty -2 -8 0 10 -262144
-1 -1 0 1;
#X obj 1828 390 ctlout 80;
#X obj 1922 352 ctlout 48;
#X obj 2016 351 ctlout 16;
#X msg 2052 682 1724;
#X msg 2084 682 28;
#X msg 2141 682 1402;
#X msg 2129 450 1477;
#X msg 2040 450 2343;
#X msg 2200 430 9;
#X msg 2025 767 10;
#X msg 1611 453 30;
#X msg 1668 453 336;
#X msg 1680 685 1025;
#X msg 1623 685 54;
#X msg 2072 450 27;
#X obj 2239 599 noteout;
#X obj 2480 419 loadbang;
#X obj 2238 490 metro;
#X obj 2238 542 makenote;
#X floatatom 2331 471 0 0 0 0 - - -;
#X obj 2238 516 f;
#X floatatom 2287 474 0 0 0 0 - - -;
#X floatatom 2375 472 0 0 0 0 - - -;
#X floatatom 2418 472 0 0 0 0 - - -;
#X msg 2541 454 64;
#X text 2286 451 rate;
#X text 2329 451 pitch;
#X text 2374 451 vel;
#X text 2410 452 length;
#X obj 2231 441 tgl 15 0 empty empty empty 17 7 0 10 -262144 -1 -1
0 1;
#X obj 2434 397 bng 15 250 50 0 empty empty empty 17 7 0 10 -262144
-1 -1;
#X floatatom 2301 574 5 1 16 0 - - -, f 5;
#X obj 2256 318 tgl 15 0 empty empty empty 17 7 0 10 -262144 -1 -1
1 1;
#X obj 2261 351 * 127;
#X obj 2251 831 noteout;
#X obj 2492 651 loadbang;
#X obj 2250 722 metro;
#X obj 2250 774 makenote;
#X floatatom 2343 704 0 0 0 0 - - -;
#X obj 2250 748 f;
#X floatatom 2299 706 0 0 0 0 - - -;
#X floatatom 2387 704 0 0 0 0 - - -;
#X floatatom 2430 704 0 0 0 0 - - -;
#X msg 2553 686 64;
#X text 2298 683 rate;
#X text 2341 683 pitch;
#X text 2386 683 vel;
#X text 2422 684 length;
#X obj 2243 673 tgl 15 0 empty empty empty 17 7 0 10 -262144 -1 -1
0 1;
#X obj 2446 629 bng 15 250 50 0 empty empty empty 17 7 0 10 -262144
-1 -1;
#X floatatom 2313 806 5 1 16 0 - - -, f 5;
#X obj 2251 236 tgl 15 0 empty empty empty 17 7 0 10 -262144 -1 -1
0 1;
#X floatatom 2364 325 5 0 127 0 - - -, f 5;
#X floatatom 2455 326 5 0 127 0 - - -, f 5;
#X floatatom 2485 270 5 700 1200 0 - - -, f 5;
#X obj 2503 323 / 4;
#X obj 2459 296 i;
#X obj 2502 294 - 700;
#X msg 2467 59 888;
#X msg 2401 57 870;
#X msg 2511 58 894;
#X msg 2568 60 911;
#X obj 2549 14 loadbang;
#X obj 2415 114 hsl 256 30 700 1200 0 0 empty empty empty -2 -8 0 10
-262144 -1 -1 9588 1;
#X obj 2433 168 i;
#X obj 2539 326 % 4;
#X obj 2365 299 * 32;
#X obj 2486 171 hsl 128 15 0 3 0 0 empty empty empty -2 -8 0 10 -262144
-1 -1 0 1;
#X obj 2268 394 ctlout 80;
#X obj 2362 356 ctlout 48;
#X obj 2456 355 ctlout 16;
#X msg 2480 454 731;
#X msg 2512 454 84;
#X msg 2569 454 39;
#X msg 2524 686 80;
#X msg 2492 686 1411;
#X obj 2287 117 line;
#X msg 2354 61 0;
#X msg 2258 58 1000 20000;
#X msg 2581 686 1111;
#X msg 2617 433 11;
#X msg 2465 771 12;
#X obj 2661 605 noteout;
#X obj 2902 425 loadbang;
#X obj 2660 496 metro;
#X obj 2660 548 makenote;
#X floatatom 2753 477 0 0 0 0 - - -;
#X obj 2660 522 f;
#X floatatom 2709 480 0 0 0 0 - - -;
#X floatatom 2797 478 0 0 0 0 - - -;
#X floatatom 2840 478 0 0 0 0 - - -;
#X msg 2963 460 64;
#X text 2708 457 rate;
#X text 2751 457 pitch;
#X text 2796 457 vel;
#X text 2832 458 length;
#X obj 2653 447 tgl 15 0 empty empty empty 17 7 0 10 -262144 -1 -1
0 1;
#X obj 2856 403 bng 15 250 50 0 empty empty empty 17 7 0 10 -262144
-1 -1;
#X floatatom 2723 580 5 1 16 0 - - -, f 5;
#X obj 2678 324 tgl 15 0 empty empty empty 17 7 0 10 -262144 -1 -1
1 1;
#X obj 2683 357 * 127;
#X obj 2673 837 noteout;
#X obj 2914 657 loadbang;
#X obj 2672 728 metro;
#X obj 2672 780 makenote;
#X floatatom 2765 710 0 0 0 0 - - -;
#X obj 2672 754 f;
#X floatatom 2721 712 0 0 0 0 - - -;
#X floatatom 2809 710 0 0 0 0 - - -;
#X floatatom 2852 710 0 0 0 0 - - -;
#X msg 2975 692 64;
#X text 2720 689 rate;
#X text 2763 689 pitch;
#X text 2808 689 vel;
#X text 2844 690 length;
#X obj 2665 679 tgl 15 0 empty empty empty 17 7 0 10 -262144 -1 -1
0 1;
#X obj 2868 635 bng 15 250 50 0 empty empty empty 17 7 0 10 -262144
-1 -1;
#X floatatom 2735 812 5 1 16 0 - - -, f 5;
#X obj 2673 242 tgl 15 0 empty empty empty 17 7 0 10 -262144 -1 -1
0 1;
#X floatatom 2786 331 5 0 127 0 - - -, f 5;
#X floatatom 2877 332 5 0 127 0 - - -, f 5;
#X floatatom 2907 276 5 700 1200 0 - - -, f 5;
#X obj 2925 329 / 4;
#X obj 2881 302 i;
#X obj 2924 300 - 700;
#X msg 2889 65 888;
#X msg 2829 63 870;
#X msg 2933 64 894;
#X msg 2990 66 911;
#X obj 2971 20 loadbang;
#X obj 2837 120 hsl 256 30 700 1200 0 0 empty empty empty -2 -8 0 10
-262144 -1 -1 9588 1;
#X obj 2855 174 i;
#X obj 2961 332 % 4;
#X obj 2787 305 * 32;
#X obj 2908 177 hsl 128 15 0 3 0 0 empty empty empty -2 -8 0 10 -262144
-1 -1 0 1;
#X obj 2690 400 ctlout 80;
#X obj 2784 362 ctlout 48;
#X obj 2878 361 ctlout 16;
#X msg 2914 692 1724;
#X msg 3003 692 1402;
#X msg 2991 460 1477;
#X msg 2902 460 2343;
#X msg 3062 440 13;
#X msg 2887 777 14;
#X obj 2722 122 line;
#X msg 2789 66 0;
#X msg 2693 63 666 36663;
#X obj 3119 595 noteout;
#X obj 3360 415 loadbang;
#X obj 3118 486 metro;
#X obj 3118 538 makenote;
#X floatatom 3211 467 0 0 0 0 - - -;
#X obj 3118 512 f;
#X floatatom 3167 470 0 0 0 0 - - -;
#X floatatom 3255 468 0 0 0 0 - - -;
#X floatatom 3298 468 0 0 0 0 - - -;
#X msg 3421 450 64;
#X text 3166 447 rate;
#X text 3209 447 pitch;
#X text 3254 447 vel;
#X text 3290 448 length;
#X obj 3111 437 tgl 15 0 empty empty empty 17 7 0 10 -262144 -1 -1
0 1;
#X obj 3314 393 bng 15 250 50 0 empty empty empty 17 7 0 10 -262144
-1 -1;
#X floatatom 3181 570 5 1 16 0 - - -, f 5;
#X obj 3136 314 tgl 15 0 empty empty empty 17 7 0 10 -262144 -1 -1
1 1;
#X obj 3141 347 * 127;
#X obj 3131 827 noteout;
#X obj 3372 647 loadbang;
#X obj 3130 718 metro;
#X obj 3130 770 makenote;
#X floatatom 3223 700 0 0 0 0 - - -;
#X obj 3130 744 f;
#X floatatom 3179 702 0 0 0 0 - - -;
#X floatatom 3267 700 0 0 0 0 - - -;
#X floatatom 3310 700 0 0 0 0 - - -;
#X msg 3433 682 64;
#X text 3178 679 rate;
#X text 3221 679 pitch;
#X text 3266 679 vel;
#X text 3302 680 length;
#X obj 3123 669 tgl 15 0 empty empty empty 17 7 0 10 -262144 -1 -1
0 1;
#X obj 3326 625 bng 15 250 50 0 empty empty empty 17 7 0 10 -262144
-1 -1;
#X floatatom 3193 802 5 1 16 0 - - -, f 5;
#X obj 3131 232 tgl 15 0 empty empty empty 17 7 0 10 -262144 -1 -1
0 1;
#X floatatom 3244 321 5 0 127 0 - - -, f 5;
#X floatatom 3335 322 5 0 127 0 - - -, f 5;
#X floatatom 3365 266 5 700 1200 0 - - -, f 5;
#X obj 3383 319 / 4;
#X obj 3339 292 i;
#X obj 3382 290 - 700;
#X msg 3347 55 888;
#X msg 3303 53 870;
#X msg 3391 54 894;
#X msg 3448 56 911;
#X obj 3429 10 loadbang;
#X obj 3295 110 hsl 256 30 700 1200 0 0 empty empty empty -2 -8 0 10
-262144 -1 -1 9588 1;
#X obj 3313 164 i;
#X obj 3419 322 % 4;
#X obj 3245 295 * 32;
#X obj 3366 167 hsl 128 15 0 3 0 0 empty empty empty -2 -8 0 10 -262144
-1 -1 0 1;
#X obj 3148 390 ctlout 80;
#X obj 3242 352 ctlout 48;
#X obj 3336 351 ctlout 16;
#X msg 3372 682 1724;
#X obj 3180 112 line;
#X msg 3520 430 15;
#X msg 3345 767 16;
#X msg 3247 56 0;
#X msg 2934 460 47;
#X msg 2946 692 28;
#X obj 2672 276 metro 33;
#X msg 3360 450 1005;
#X msg 3392 450 43;
#X msg 3449 450 131;
#X msg 3461 682 495;
#X msg 3404 682 45;
#X msg 3151 53 222 80000;
#X msg 341 61 880;
#X msg 708 23 880;
#X msg 1068 29 880;
#X msg 1515 54 880;
#X msg 2859 61 880;
#X msg 2430 60 880;
#X msg 1983 55 880;
#X msg 3281 23 880;
#X obj 1810 266 metro 55;
#X obj 2250 270 metro 66;
#X msg 209 412 100;
#X obj 263 12 metro 3200;
#X msg 154 132 8 3200;
#X msg 28 363 7500;
#X msg 86 414 234;
#X obj 366 522 * 4;
#X msg 600 625 43;
#X obj 386 571 / 2;
#X obj 578 65 line;
#X msg 645 9 0;
#X msg 549 6 22200 8000;
#X msg 837 688 175;
#X obj 257 562 bng 15 250 50 0 empty empty empty 17 7 0 10 -262144
-1 -1;
#X obj 18 439 bng 15 250 50 0 empty empty empty 17 7 0 10 -262144 -1
-1;
#X msg 220 345 4;
#X obj 41 689 bng 15 250 50 0 empty empty empty 17 7 0 10 -262144 -1
-1;
#X obj -131 130 f;
#X msg -115 98 248;
#X text -88 96 clk;
#X obj -172 39 tgl 15 0 empty empty empty 17 7 0 10 -262144 -1 -1 0
1;
#X floatatom -60 141 5 0 0 0 - - -, f 5;
#X msg 209 287 9;
#X obj -129 753 expr 60000 / (24 * $f1);
#X obj -246 746 t f f;
#X msg -246 804 250;
#X msg -211 805 252;
#X msg -174 805 248;
#X obj -246 775 sel 1;
#X floatatom -172 745 5 0 0 0 - - -, f 5;
#X obj -245 693 tgl 15 0 empty empty empty 17 7 0 10 -262144 -1 -1
0 1;
#X floatatom -158 855 5 0 0 0 - - -, f 5;
#X msg 70 376 103;
#X msg -43 100 0;
#X msg -34 679 100;
#X obj -107 643 noteout;
#X obj -139 165 midiout;
#X msg -232 126 128 0 100;
#X obj -120 58 metro 20;
#X obj 3130 266 metro 1166;
#X msg 515 53 833;
#X msg 888 24 833;
#X msg 888 49 878;
#X msg 515 74 878;
#X msg 351 677 14;
#X msg 1271 35 833;
#X msg 1271 60 878;
#X obj 3161 288 loadbang;
#X obj 2690 299 loadbang;
#X obj 2271 291 loadbang;
#X obj 1832 288 loadbang;
#X obj 1372 295 loadbang;
#X obj 920 304 loadbang;
#X obj 523 298 loadbang;
#X obj 128 300 loadbang;
#X msg 825 456 250;
#X text -330 259 TX_OFF = 0 \, //npc TX_ON = 1 \, //npc UPDOWN_OFF
= 2 \, STATION_UP = 3 \, STATION_DOWN = 4 \, DOWN1 = 5 \, //todo make
relative... align with pitch wheel DOWN2 = 6 \, DOWN3 = 7 \, //piece
wise linear that way... DOWN4 = 8 \, DOWN5 = 9 \, UP1 = 110 \, UP2
= 111 \, UP3 = 112 \, UP4 = 113 \, UP5 = 114 \, STATION_UP2 = 115 \,
//npc STATION_DOWN2 = 116 \, //npc//npc STATION_UP3 = 117 \, STATION_DOWN3
= 118 \, //npc STATION_UP4 = 119 \, //npc STATION_DOWN4 = 120 \, //npc
STATION_UP5 = 121 \, //npc STATION_DOWN5 = 122 \, //npc STATION_UP6
= 123 \, //npc STATION_DOWN6 = 124 //npc;
#X obj -51 394 vradio 15 1 0 17 empty empty Channel 0 -8 0 10 -262144
-1 -1 1;
#X floatatom -49 652 5 1 16 0 - - -, f 5;
#X obj -77 463 vsl 15 128 0 127 0 0 empty empty empty 0 -9 0 10 -262144
-1 -1 0 1;
#X floatatom -88 612 5 700 1200 0 - - -, f 5;
#X obj -107 434 vsl 15 128 10 101 0 0 empty empty empty 0 -9 0 10 -262144
-1 -1 5800 1;
#X floatatom -129 612 5 700 1200 0 - - -, f 5;
#X obj 105 276 metro 88;
#X obj 506 272 metro 500;
#X obj 894 278 metro 333;
#X obj 1349 269 metro 1333;
#X msg 545 53 773;
#X msg 546 73 818;
#X msg 925 27 773;
#X msg 926 47 818;
#X msg 1304 36 773;
#X msg 1305 56 818;
#X obj -174 776 metro 25;
#X msg -312 518 0;
#X msg -311 540 1;
#X msg -317 429 2;
#X msg -243 425 3;
#X msg -277 427 4;
#X msg -198 428 5;
#X msg -199 452 6;
#X msg -199 475 7;
#X msg -199 499 8;
#X msg -200 522 9;
#X msg -159 427 110;
#X msg -160 450 111;
#X msg -159 475 112;
#X msg -160 500 113;
#X msg -159 522 114;
#X msg -244 451 115;
#X msg -276 451 116;
#X msg -243 475 117;
#X msg -276 474 118;
#X msg -244 499 119;
#X msg -276 499 120;
#X msg -244 521 121;
#X msg -277 521 122;
#X msg -246 544 123;
#X msg -276 544 124;
#X text -275 391 Stat;
#X text -244 406 up;
#X text -276 408 down;
#X text -192 390 Gliss;
#X text -202 403 down;
#X text -157 403 up;
#X text -325 401 glissOff;
#X obj -312 565 tgl 15 0 empty empty empty 17 7 0 10 -262144 -1 -1
1 1;
#X text -320 492 TXOn;
#X obj -1 873 r comctl;
#X obj 10 890 r comtx;
#X obj 2 925 comport 0 115200;
#X obj 131 940 s comctl;
#X msg 120 869 devices;
#X msg 128 889 open 32;
#X msg 133 908 close;
#X obj -245 867 s comtx;
#X obj -246 833 f;
#X obj -182 708 hsl 128 15 1 300 0 0 empty empty empty -2 -8 0 10 -262144
-1 -1 0 1;
#X obj -132 824 bng 15 250 50 0 empty empty empty 17 7 0 10 -262144
-1 -1;
#X obj -213 678 tgl 15 0 empty empty empty 17 7 0 10 -262144 -1 -1
0 1;
#X text -34 404 1;
#X text -33 439 3;
#X text -32 469 5;
#X text -33 497 7;
#X text -33 529 9;
#X text -35 558 11;
#X text -31 589 13;
#X text -32 617 15;
#X msg -282 801 255;
#X text -309 799 RST!;
#X msg 115 849 devicename /dev/ttyUSB1;
#X msg -314 234 243;
#X msg -314 212 242;
#X text -283 212 Song Pos [needs 16bits];
#X text -285 231 Song Select [needs 7bits];
#X msg 137 823 devicename /dev/ttyUSB0;
#X text -296 885 sysEx to reboot and flashMagic!;
#X obj -294 938 s comtx;
#X obj -305 866 bng 15 250 50 0 empty empty empty 17 7 0 10 -262144
-1 -1;
#X obj 64 905 print;
#X obj -247 921 delay 1000;
#X msg -174 937 close;
#X obj -173 957 s comctl;
#X msg -294 903 240 1 14 13 67 111 126 7 2 247;
#X obj -314 623 tgl 15 0 empty empty empty 17 7 0 10 -262144 -1 -1
0 1;
#X obj -310 645 * 127;
#X obj -309 670 ctlout 10;
#X text -294 622 Stereo;
#X text -134 405 Pitch Slider;
#X connect 4 0 133 0;
#X connect 4 0 134 0;
#X connect 4 0 12 0;
#X connect 4 0 132 0;
#X connect 4 0 45 0;
#X connect 5 0 8 0;
#X connect 6 0 3 0;
#X connect 6 1 3 1;
#X connect 7 0 8 1;
#X connect 8 0 6 0;
#X connect 9 0 5 1;
#X connect 10 0 6 1;
#X connect 11 0 6 2;
#X connect 12 0 10 0;
#X connect 17 0 5 0;
#X connect 19 0 3 2;
#X connect 21 0 29 0;
#X connect 21 0 30 0;
#X connect 21 0 31 0;
#X connect 21 0 601 0;
#X connect 21 0 44 0;
#X connect 22 0 25 0;
#X connect 23 0 20 0;
#X connect 23 1 20 1;
#X connect 24 0 25 1;
#X connect 25 0 23 0;
#X connect 26 0 22 1;
#X connect 27 0 23 1;
#X connect 28 0 23 2;
#X connect 29 0 26 0;
#X connect 30 0 24 0;
#X connect 31 0 27 0;
#X connect 36 0 22 0;
#X connect 38 0 20 2;
#X connect 39 0 41 0;
#X connect 41 0 40 0;
#X connect 42 0 43 0;
#X connect 43 0 46 0;
#X connect 44 0 38 0;
#X connect 45 0 19 0;
#X connect 48 0 130 0;
#X connect 48 0 590 0;
#X connect 48 0 56 0;
#X connect 48 0 131 0;
#X connect 48 0 84 0;
#X connect 49 0 52 0;
#X connect 50 0 47 0;
#X connect 50 1 47 1;
#X connect 51 0 52 1;
#X connect 52 0 50 0;
#X connect 53 0 49 1;
#X connect 54 0 50 1;
#X connect 55 0 50 2;
#X connect 56 0 54 0;
#X connect 61 0 49 0;
#X connect 63 0 47 2;
#X connect 65 0 73 0;
#X connect 65 0 74 0;
#X connect 65 0 75 0;
#X connect 65 0 83 0;
#X connect 65 0 558 0;
#X connect 66 0 69 0;
#X connect 67 0 64 0;
#X connect 67 1 64 1;
#X connect 68 0 69 1;
#X connect 69 0 67 0;
#X connect 70 0 66 1;
#X connect 71 0 67 1;
#X connect 72 0 67 2;
#X connect 73 0 70 0;
#X connect 74 0 68 0;
#X connect 75 0 71 0;
#X connect 80 0 66 0;
#X connect 82 0 64 2;
#X connect 83 0 82 0;
#X connect 84 0 63 0;
#X connect 85 0 7 0;
#X connect 86 0 609 0;
#X connect 87 0 610 0;
#X connect 88 0 89 0;
#X connect 90 0 91 0;
#X connect 92 0 95 0;
#X connect 93 0 94 0;
#X connect 94 0 90 0;
#X connect 95 0 93 0;
#X connect 95 0 96 0;
#X connect 96 0 123 0;
#X connect 97 0 103 0;
#X connect 98 0 104 0;
#X connect 99 0 102 0;
#X connect 100 0 101 0;
#X connect 101 0 98 0;
#X connect 102 0 100 0;
#X connect 102 0 120 0;
#X connect 105 0 118 0;
#X connect 106 0 118 0;
#X connect 107 0 118 0;
#X connect 108 0 118 0;
#X connect 109 0 116 0;
#X connect 110 0 116 0;
#X connect 111 0 116 0;
#X connect 112 0 116 0;
#X connect 113 0 105 0;
#X connect 114 0 109 0;
#X connect 115 0 88 0;
#X connect 116 0 117 0;
#X connect 117 0 92 0;
#X connect 118 0 119 0;
#X connect 119 0 99 0;
#X connect 120 0 122 0;
#X connect 121 0 97 0;
#X connect 122 0 121 0;
#X connect 123 0 115 0;
#X connect 124 0 126 0;
#X connect 126 0 128 0;
#X connect 126 0 138 0;
#X connect 127 0 126 0;
#X connect 127 0 128 0;
#X connect 127 0 140 0;
#X connect 128 0 554 0;
#X connect 128 0 7 0;
#X connect 129 0 127 0;
#X connect 129 0 549 0;
#X connect 130 0 53 0;
#X connect 131 0 55 0;
#X connect 132 0 11 0;
#X connect 133 0 9 0;
#X connect 134 0 7 0;
#X connect 135 0 548 0;
#X connect 135 0 36 0;
#X connect 135 0 80 0;
#X connect 136 0 85 0;
#X connect 137 0 85 0;
#X connect 139 0 138 1;
#X connect 140 0 141 0;
#X connect 142 0 140 0;
#X connect 144 0 205 0;
#X connect 144 0 266 0;
#X connect 144 0 152 0;
#X connect 144 0 204 0;
#X connect 144 0 199 0;
#X connect 145 0 148 0;
#X connect 146 0 143 0;
#X connect 146 1 143 1;
#X connect 147 0 148 1;
#X connect 148 0 146 0;
#X connect 149 0 145 1;
#X connect 150 0 146 1;
#X connect 151 0 146 2;
#X connect 152 0 150 0;
#X connect 157 0 145 0;
#X connect 159 0 143 2;
#X connect 160 0 161 0;
#X connect 161 0 196 0;
#X connect 163 0 201 0;
#X connect 163 0 202 0;
#X connect 163 0 171 0;
#X connect 163 0 203 0;
#X connect 163 0 200 0;
#X connect 164 0 167 0;
#X connect 165 0 162 0;
#X connect 165 1 162 1;
#X connect 166 0 167 1;
#X connect 167 0 165 0;
#X connect 168 0 164 1;
#X connect 169 0 165 1;
#X connect 170 0 165 2;
#X connect 171 0 169 0;
#X connect 176 0 164 0;
#X connect 178 0 162 2;
#X connect 179 0 611 0;
#X connect 180 0 197 0;
#X connect 181 0 198 0;
#X connect 182 0 185 0;
#X connect 183 0 184 0;
#X connect 184 0 181 0;
#X connect 185 0 183 0;
#X connect 185 0 193 0;
#X connect 186 0 191 0;
#X connect 187 0 191 0;
#X connect 188 0 191 0;
#X connect 189 0 191 0;
#X connect 190 0 186 0;
#X connect 191 0 192 0;
#X connect 192 0 182 0;
#X connect 193 0 195 0;
#X connect 194 0 180 0;
#X connect 195 0 194 0;
#X connect 199 0 159 0;
#X connect 199 0 196 2;
#X connect 199 0 197 2;
#X connect 199 0 198 2;
#X connect 200 0 178 0;
#X connect 201 0 168 0;
#X connect 202 0 166 0;
#X connect 203 0 170 0;
#X connect 204 0 151 0;
#X connect 205 0 149 0;
#X connect 207 0 263 0;
#X connect 207 0 330 0;
#X connect 207 0 215 0;
#X connect 207 0 331 0;
#X connect 207 0 264 0;
#X connect 208 0 211 0;
#X connect 209 0 206 0;
#X connect 209 1 206 1;
#X connect 210 0 211 1;
#X connect 211 0 209 0;
#X connect 212 0 208 1;
#X connect 213 0 209 1;
#X connect 214 0 209 2;
#X connect 215 0 213 0;
#X connect 220 0 208 0;
#X connect 222 0 206 2;
#X connect 223 0 224 0;
#X connect 224 0 259 0;
#X connect 226 0 262 0;
#X connect 226 0 333 0;
#X connect 226 0 234 0;
#X connect 226 0 332 0;
#X connect 226 0 265 0;
#X connect 227 0 230 0;
#X connect 228 0 225 0;
#X connect 228 1 225 1;
#X connect 229 0 230 1;
#X connect 230 0 228 0;
#X connect 231 0 227 1;
#X connect 232 0 228 1;
#X connect 233 0 228 2;
#X connect 234 0 232 0;
#X connect 239 0 227 0;
#X connect 241 0 225 2;
#X connect 242 0 612 0;
#X connect 243 0 260 0;
#X connect 244 0 261 0;
#X connect 245 0 248 0;
#X connect 246 0 247 0;
#X connect 247 0 244 0;
#X connect 248 0 246 0;
#X connect 248 0 256 0;
#X connect 249 0 254 0;
#X connect 250 0 254 0;
#X connect 251 0 254 0;
#X connect 252 0 254 0;
#X connect 253 0 249 0;
#X connect 254 0 255 0;
#X connect 255 0 245 0;
#X connect 256 0 258 0;
#X connect 257 0 243 0;
#X connect 258 0 257 0;
#X connect 262 0 231 0;
#X connect 263 0 212 0;
#X connect 264 0 222 0;
#X connect 264 0 259 2;
#X connect 264 0 260 2;
#X connect 264 0 261 2;
#X connect 265 0 241 0;
#X connect 266 0 147 0;
#X connect 268 0 327 0;
#X connect 268 0 334 0;
#X connect 268 0 276 0;
#X connect 268 0 326 0;
#X connect 268 0 328 0;
#X connect 269 0 272 0;
#X connect 270 0 267 0;
#X connect 270 1 267 1;
#X connect 271 0 272 1;
#X connect 272 0 270 0;
#X connect 273 0 269 1;
#X connect 274 0 270 1;
#X connect 275 0 270 2;
#X connect 276 0 274 0;
#X connect 281 0 269 0;
#X connect 283 0 267 2;
#X connect 284 0 285 0;
#X connect 285 0 320 0;
#X connect 287 0 323 0;
#X connect 287 0 324 0;
#X connect 287 0 295 0;
#X connect 287 0 325 0;
#X connect 287 0 329 0;
#X connect 288 0 291 0;
#X connect 289 0 286 0;
#X connect 289 1 286 1;
#X connect 290 0 291 1;
#X connect 291 0 289 0;
#X connect 292 0 288 1;
#X connect 293 0 289 1;
#X connect 294 0 289 2;
#X connect 295 0 293 0;
#X connect 300 0 288 0;
#X connect 302 0 286 2;
#X connect 303 0 545 0;
#X connect 304 0 321 0;
#X connect 305 0 322 0;
#X connect 306 0 309 0;
#X connect 307 0 308 0;
#X connect 308 0 305 0;
#X connect 309 0 307 0;
#X connect 309 0 317 0;
#X connect 310 0 315 0;
#X connect 311 0 315 0;
#X connect 312 0 315 0;
#X connect 313 0 315 0;
#X connect 314 0 310 0;
#X connect 315 0 316 0;
#X connect 316 0 306 0;
#X connect 317 0 319 0;
#X connect 318 0 304 0;
#X connect 319 0 318 0;
#X connect 323 0 292 0;
#X connect 324 0 290 0;
#X connect 325 0 294 0;
#X connect 326 0 275 0;
#X connect 327 0 273 0;
#X connect 328 0 283 0;
#X connect 328 0 320 2;
#X connect 328 0 321 2;
#X connect 328 0 322 2;
#X connect 329 0 302 0;
#X connect 330 0 210 0;
#X connect 331 0 214 0;
#X connect 332 0 233 0;
#X connect 333 0 229 0;
#X connect 334 0 271 0;
#X connect 336 0 391 0;
#X connect 336 0 392 0;
#X connect 336 0 344 0;
#X connect 336 0 393 0;
#X connect 336 0 400 0;
#X connect 337 0 340 0;
#X connect 338 0 335 0;
#X connect 338 1 335 1;
#X connect 339 0 340 1;
#X connect 340 0 338 0;
#X connect 341 0 337 1;
#X connect 342 0 338 1;
#X connect 343 0 338 2;
#X connect 344 0 342 0;
#X connect 349 0 337 0;
#X connect 351 0 335 2;
#X connect 352 0 353 0;
#X connect 353 0 388 0;
#X connect 355 0 395 0;
#X connect 355 0 394 0;
#X connect 355 0 363 0;
#X connect 355 0 399 0;
#X connect 355 0 401 0;
#X connect 356 0 359 0;
#X connect 357 0 354 0;
#X connect 357 1 354 1;
#X connect 358 0 359 1;
#X connect 359 0 357 0;
#X connect 360 0 356 1;
#X connect 361 0 357 1;
#X connect 362 0 357 2;
#X connect 363 0 361 0;
#X connect 368 0 356 0;
#X connect 370 0 354 2;
#X connect 371 0 546 0;
#X connect 372 0 389 0;
#X connect 373 0 390 0;
#X connect 374 0 377 0;
#X connect 375 0 376 0;
#X connect 376 0 373 0;
#X connect 377 0 375 0;
#X connect 377 0 385 0;
#X connect 378 0 383 0;
#X connect 379 0 383 0;
#X connect 380 0 383 0;
#X connect 381 0 383 0;
#X connect 382 0 378 0;
#X connect 383 0 384 0;
#X connect 384 0 374 0;
#X connect 385 0 387 0;
#X connect 386 0 372 0;
#X connect 387 0 386 0;
#X connect 391 0 341 0;
#X connect 392 0 339 0;
#X connect 393 0 343 0;
#X connect 394 0 358 0;
#X connect 395 0 360 0;
#X connect 396 0 385 0;
#X connect 397 0 396 0;
#X connect 398 0 396 0;
#X connect 399 0 362 0;
#X connect 400 0 351 0;
#X connect 400 0 388 2;
#X connect 400 0 389 2;
#X connect 400 0 390 2;
#X connect 401 0 370 0;
#X connect 403 0 461 0;
#X connect 403 0 528 0;
#X connect 403 0 411 0;
#X connect 403 0 460 0;
#X connect 403 0 462 0;
#X connect 404 0 407 0;
#X connect 405 0 402 0;
#X connect 405 1 402 1;
#X connect 406 0 407 1;
#X connect 407 0 405 0;
#X connect 408 0 404 1;
#X connect 409 0 405 1;
#X connect 410 0 405 2;
#X connect 411 0 409 0;
#X connect 416 0 404 0;
#X connect 418 0 402 2;
#X connect 419 0 420 0;
#X connect 420 0 455 0;
#X connect 422 0 458 0;
#X connect 422 0 529 0;
#X connect 422 0 430 0;
#X connect 422 0 459 0;
#X connect 422 0 463 0;
#X connect 423 0 426 0;
#X connect 424 0 421 0;
#X connect 424 1 421 1;
#X connect 425 0 426 1;
#X connect 426 0 424 0;
#X connect 427 0 423 1;
#X connect 428 0 424 1;
#X connect 429 0 424 2;
#X connect 430 0 428 0;
#X connect 435 0 423 0;
#X connect 437 0 421 2;
#X connect 438 0 530 0;
#X connect 439 0 456 0;
#X connect 440 0 457 0;
#X connect 441 0 444 0;
#X connect 442 0 443 0;
#X connect 443 0 440 0;
#X connect 444 0 442 0;
#X connect 444 0 452 0;
#X connect 445 0 450 0;
#X connect 446 0 450 0;
#X connect 447 0 450 0;
#X connect 448 0 450 0;
#X connect 449 0 445 0;
#X connect 450 0 451 0;
#X connect 451 0 441 0;
#X connect 452 0 454 0;
#X connect 453 0 439 0;
#X connect 454 0 453 0;
#X connect 458 0 427 0;
#X connect 459 0 429 0;
#X connect 460 0 410 0;
#X connect 461 0 408 0;
#X connect 462 0 418 0;
#X connect 462 0 455 2;
#X connect 462 0 456 2;
#X connect 462 0 457 2;
#X connect 463 0 437 0;
#X connect 464 0 452 0;
#X connect 465 0 464 0;
#X connect 466 0 464 0;
#X connect 468 0 531 0;
#X connect 468 0 532 0;
#X connect 468 0 476 0;
#X connect 468 0 533 0;
#X connect 468 0 525 0;
#X connect 469 0 472 0;
#X connect 470 0 467 0;
#X connect 470 1 467 1;
#X connect 471 0 472 1;
#X connect 472 0 470 0;
#X connect 473 0 469 1;
#X connect 474 0 470 1;
#X connect 475 0 470 2;
#X connect 476 0 474 0;
#X connect 481 0 469 0;
#X connect 483 0 467 2;
#X connect 484 0 485 0;
#X connect 485 0 520 0;
#X connect 487 0 523 0;
#X connect 487 0 535 0;
#X connect 487 0 495 0;
#X connect 487 0 534 0;
#X connect 487 0 526 0;
#X connect 488 0 491 0;
#X connect 489 0 486 0;
#X connect 489 1 486 1;
#X connect 490 0 491 1;
#X connect 491 0 489 0;
#X connect 492 0 488 1;
#X connect 493 0 489 1;
#X connect 494 0 489 2;
#X connect 495 0 493 0;
#X connect 500 0 488 0;
#X connect 502 0 486 2;
#X connect 503 0 585 0;
#X connect 504 0 521 0;
#X connect 505 0 522 0;
#X connect 506 0 509 0;
#X connect 507 0 508 0;
#X connect 508 0 505 0;
#X connect 509 0 507 0;
#X connect 509 0 517 0;
#X connect 510 0 515 0;
#X connect 511 0 515 0;
#X connect 512 0 515 0;
#X connect 513 0 515 0;
#X connect 514 0 510 0;
#X connect 515 0 516 0;
#X connect 516 0 506 0;
#X connect 517 0 519 0;
#X connect 518 0 504 0;
#X connect 519 0 518 0;
#X connect 523 0 492 0;
#X connect 524 0 517 0;
#X connect 525 0 483 0;
#X connect 525 0 520 2;
#X connect 525 0 521 2;
#X connect 525 0 522 2;
#X connect 526 0 502 0;
#X connect 527 0 524 0;
#X connect 528 0 406 0;
#X connect 529 0 425 0;
#X connect 530 0 419 0;
#X connect 531 0 473 0;
#X connect 532 0 471 0;
#X connect 533 0 475 0;
#X connect 534 0 494 0;
#X connect 535 0 490 0;
#X connect 536 0 524 0;
#X connect 537 0 116 0;
#X connect 538 0 118 0;
#X connect 539 0 191 0;
#X connect 540 0 254 0;
#X connect 541 0 450 0;
#X connect 542 0 383 0;
#X connect 543 0 315 0;
#X connect 544 0 515 0;
#X connect 545 0 284 0;
#X connect 546 0 352 0;
#X connect 547 0 11 0;
#X connect 547 0 55 0;
#X connect 548 0 129 0;
#X connect 549 0 126 0;
#X connect 550 0 55 0;
#X connect 551 0 552 0;
#X connect 551 0 70 0;
#X connect 551 0 53 0;
#X connect 552 0 26 0;
#X connect 552 0 9 0;
#X connect 553 0 68 0;
#X connect 554 0 24 0;
#X connect 554 0 7 0;
#X connect 554 0 68 0;
#X connect 554 0 51 0;
#X connect 555 0 120 0;
#X connect 556 0 555 0;
#X connect 557 0 555 0;
#X connect 558 0 72 0;
#X connect 559 0 61 0;
#X connect 559 0 80 0;
#X connect 560 0 8 0;
#X connect 561 0 7 0;
#X connect 562 0 52 0;
#X connect 563 0 582 0;
#X connect 564 0 563 0;
#X connect 566 0 584 0;
#X connect 567 0 582 1;
#X connect 568 0 8 1;
#X connect 569 0 619 1;
#X connect 570 0 619 0;
#X connect 570 1 574 0;
#X connect 571 0 662 0;
#X connect 572 0 662 0;
#X connect 573 0 662 0;
#X connect 574 0 571 0;
#X connect 574 1 572 0;
#X connect 575 0 569 0;
#X connect 576 0 570 0;
#X connect 578 0 8 1;
#X connect 579 0 567 0;
#X connect 580 0 52 1;
#X connect 583 0 582 0;
#X connect 584 0 564 0;
#X connect 585 0 484 0;
#X connect 586 0 116 0;
#X connect 587 0 118 0;
#X connect 588 0 118 0;
#X connect 589 0 116 0;
#X connect 590 0 51 0;
#X connect 591 0 191 0;
#X connect 592 0 191 0;
#X connect 593 0 484 0;
#X connect 594 0 419 0;
#X connect 595 0 352 0;
#X connect 596 0 284 0;
#X connect 597 0 223 0;
#X connect 598 0 160 0;
#X connect 599 0 42 0;
#X connect 600 0 39 0;
#X connect 601 0 28 0;
#X connect 603 0 604 0;
#X connect 604 0 581 2;
#X connect 604 0 692 2;
#X connect 605 0 606 0;
#X connect 606 0 581 1;
#X connect 607 0 608 0;
#X connect 608 0 581 0;
#X connect 609 0 39 0;
#X connect 610 0 42 0;
#X connect 611 0 160 0;
#X connect 612 0 223 0;
#X connect 613 0 116 0;
#X connect 614 0 116 0;
#X connect 615 0 118 0;
#X connect 616 0 118 0;
#X connect 617 0 191 0;
#X connect 618 0 191 0;
#X connect 619 0 573 0;
#X connect 619 0 664 0;
#X connect 620 0 608 0;
#X connect 621 0 608 0;
#X connect 622 0 608 0;
#X connect 623 0 608 0;
#X connect 624 0 608 0;
#X connect 625 0 608 0;
#X connect 626 0 608 0;
#X connect 627 0 608 0;
#X connect 628 0 608 0;
#X connect 629 0 608 0;
#X connect 630 0 608 0;
#X connect 631 0 608 0;
#X connect 632 0 608 0;
#X connect 633 0 608 0;
#X connect 634 0 608 0;
#X connect 635 0 608 0;
#X connect 636 0 608 0;
#X connect 637 0 608 0;
#X connect 638 0 608 0;
#X connect 639 0 608 0;
#X connect 640 0 608 0;
#X connect 641 0 608 0;
#X connect 642 0 608 0;
#X connect 643 0 608 0;
#X connect 644 0 608 0;
#X connect 652 0 608 0;
#X connect 654 0 656 0;
#X connect 655 0 656 0;
#X connect 658 0 657 0;
#X connect 659 0 657 0;
#X connect 660 0 657 0;
#X connect 662 0 577 0;
#X connect 662 0 661 0;
#X connect 663 0 575 0;
#X connect 665 0 619 0;
#X connect 674 0 662 0;
#X connect 676 0 657 0;
#X connect 681 0 657 0;
#X connect 684 0 689 0;
#X connect 686 0 687 0;
#X connect 687 0 688 0;
#X connect 689 0 683 0;
#X connect 689 0 686 0;
#X connect 690 0 691 0;
#X connect 691 0 692 0;
