#N canvas 934 238 450 301 10;
#X obj 110 109 udpreceive;
#X obj 111 64 loadbang;
#X obj 110 132 unpackOSC;
#X obj 110 154 pipelist;
#X msg 111 86 port 33666;
#X obj 115 174 routeOSC /tx1 /tx2 /tx3 /tx4 /accxyz;
#X obj 292 214 unpack f f f;
#X floatatom 236 242 5 0 0 0 - - -, f 5;
#X floatatom 330 244 5 0 0 0 - - -, f 5;
#X floatatom 284 242 5 0 0 0 - - -, f 5;
#X obj 238 264 s accx;
#X obj 286 264 s accy;
#X obj 332 264 s accz;
#X obj 115 199 s tx1;
#X obj 154 200 s tx2;
#X obj 194 199 s tx3;
#X obj 233 200 s tx4;
#X connect 0 0 2 0;
#X connect 1 0 4 0;
#X connect 2 0 3 0;
#X connect 2 1 3 1;
#X connect 3 0 5 0;
#X connect 4 0 0 0;
#X connect 5 0 13 0;
#X connect 5 1 14 0;
#X connect 5 2 15 0;
#X connect 5 3 16 0;
#X connect 5 4 6 0;
#X connect 6 0 7 0;
#X connect 6 1 9 0;
#X connect 6 2 8 0;
#X connect 7 0 10 0;
#X connect 8 0 12 0;
#X connect 9 0 11 0;
