#N canvas 0 44 854 893 10;
#X obj 91 77 udpreceive;
#X obj 92 32 loadbang;
#X obj 91 100 unpackOSC;
#X obj 91 122 pipelist;
#X msg 92 54 port 33666;
#X obj 43 225 routeOSC /1/1 /2/1 /3/1 /4/1 /5/1 /6/1 /7/1 /8/1;
#X obj 38 268 spigot;
#X obj 38 290 s 1-oscIn;
#X obj 119 268 spigot;
#X obj 204 268 spigot;
#X obj 285 268 spigot;
#X obj 366 268 spigot;
#X obj 447 268 spigot;
#X obj 532 268 spigot;
#X obj 613 268 spigot;
#X obj 119 290 s 2-oscIn;
#X obj 204 290 s 3-oscIn;
#X obj 285 290 s 4-oscIn;
#X obj 366 290 s 5-oscIn;
#X obj 447 290 s 6-oscIn;
#X obj 532 290 s 7-oscIn;
#X obj 613 290 s 8-oscIn;
#X obj 59 188 routeOSC /devSel, f 17;
#X obj 280 49 unpack f f f;
#X floatatom 258 75 5 0 0 0 - - -, f 5;
#X floatatom 352 77 5 0 0 0 - - -, f 5;
#X floatatom 306 75 5 0 0 0 - - -, f 5;
#X obj 260 97 s accx;
#X obj 308 97 s accy;
#X obj 354 97 s accz;
#X obj 92 148 routeOSC /tx1 /tx2 /tx3 /tx4 /accxyz;
#X obj 37 376 routeOSC /1/1 /2/1 /3/1 /4/1 /5/1 /6/1 /7/1 /8/1;
#X obj 40 443 spigot;
#X obj 40 465 s 1-oscIn;
#X obj 121 443 spigot;
#X obj 206 443 spigot;
#X obj 287 443 spigot;
#X obj 368 443 spigot;
#X obj 449 443 spigot;
#X obj 534 443 spigot;
#X obj 615 443 spigot;
#X obj 121 465 s 2-oscIn;
#X obj 206 465 s 3-oscIn;
#X obj 287 465 s 4-oscIn;
#X obj 368 465 s 5-oscIn;
#X obj 449 465 s 6-oscIn;
#X obj 534 465 s 7-oscIn;
#X obj 615 465 s 8-oscIn;
#X obj 43 345 routeOSC /devSel, f 17;
#X obj 184 186 s tx2;
#X obj 282 186 s tx4;
#X obj 234 186 s tx3;
#X obj 42 320 r tx2;
#X obj 40 558 routeOSC /1/1 /2/1 /3/1 /4/1 /5/1 /6/1 /7/1 /8/1;
#X obj 43 625 spigot;
#X obj 43 647 s 1-oscIn;
#X obj 124 625 spigot;
#X obj 209 625 spigot;
#X obj 290 625 spigot;
#X obj 371 625 spigot;
#X obj 452 625 spigot;
#X obj 537 625 spigot;
#X obj 618 625 spigot;
#X obj 124 647 s 2-oscIn;
#X obj 209 647 s 3-oscIn;
#X obj 290 647 s 4-oscIn;
#X obj 371 647 s 5-oscIn;
#X obj 452 647 s 6-oscIn;
#X obj 537 647 s 7-oscIn;
#X obj 618 647 s 8-oscIn;
#X obj 46 527 routeOSC /devSel, f 17;
#X obj 40 734 routeOSC /1/1 /2/1 /3/1 /4/1 /5/1 /6/1 /7/1 /8/1;
#X obj 43 801 spigot;
#X obj 43 823 s 1-oscIn;
#X obj 124 801 spigot;
#X obj 209 801 spigot;
#X obj 290 801 spigot;
#X obj 371 801 spigot;
#X obj 452 801 spigot;
#X obj 537 801 spigot;
#X obj 618 801 spigot;
#X obj 124 823 s 2-oscIn;
#X obj 209 823 s 3-oscIn;
#X obj 290 823 s 4-oscIn;
#X obj 371 823 s 5-oscIn;
#X obj 452 823 s 6-oscIn;
#X obj 537 823 s 7-oscIn;
#X obj 618 823 s 8-oscIn;
#X obj 46 703 routeOSC /devSel, f 17;
#X obj 45 502 r tx3;
#X obj 45 678 r tx4;
#X connect 0 0 2 0;
#X connect 1 0 4 0;
#X connect 2 0 3 0;
#X connect 2 1 3 1;
#X connect 3 0 30 0;
#X connect 4 0 0 0;
#X connect 5 0 6 1;
#X connect 5 1 8 1;
#X connect 5 2 9 1;
#X connect 5 3 10 1;
#X connect 5 4 11 1;
#X connect 5 5 12 1;
#X connect 5 6 13 1;
#X connect 5 7 14 1;
#X connect 6 0 7 0;
#X connect 8 0 15 0;
#X connect 9 0 16 0;
#X connect 10 0 17 0;
#X connect 11 0 18 0;
#X connect 12 0 19 0;
#X connect 13 0 20 0;
#X connect 14 0 21 0;
#X connect 22 0 5 0;
#X connect 22 1 6 0;
#X connect 22 1 14 0;
#X connect 22 1 13 0;
#X connect 22 1 12 0;
#X connect 22 1 11 0;
#X connect 22 1 10 0;
#X connect 22 1 9 0;
#X connect 22 1 8 0;
#X connect 23 0 24 0;
#X connect 23 1 26 0;
#X connect 23 2 25 0;
#X connect 24 0 27 0;
#X connect 25 0 29 0;
#X connect 26 0 28 0;
#X connect 30 0 22 0;
#X connect 30 1 49 0;
#X connect 30 2 51 0;
#X connect 30 3 50 0;
#X connect 30 4 23 0;
#X connect 31 0 32 1;
#X connect 31 1 34 1;
#X connect 31 2 35 1;
#X connect 31 3 36 1;
#X connect 31 4 37 1;
#X connect 31 5 38 1;
#X connect 31 6 39 1;
#X connect 31 7 40 1;
#X connect 32 0 33 0;
#X connect 34 0 41 0;
#X connect 35 0 42 0;
#X connect 36 0 43 0;
#X connect 37 0 44 0;
#X connect 38 0 45 0;
#X connect 39 0 46 0;
#X connect 40 0 47 0;
#X connect 48 0 31 0;
#X connect 48 1 32 0;
#X connect 48 1 34 0;
#X connect 48 1 35 0;
#X connect 48 1 40 0;
#X connect 48 1 39 0;
#X connect 48 1 38 0;
#X connect 48 1 37 0;
#X connect 48 1 36 0;
#X connect 52 0 48 0;
#X connect 53 0 54 1;
#X connect 53 1 56 1;
#X connect 53 2 57 1;
#X connect 53 3 58 1;
#X connect 53 4 59 1;
#X connect 53 5 60 1;
#X connect 53 6 61 1;
#X connect 53 7 62 1;
#X connect 54 0 55 0;
#X connect 56 0 63 0;
#X connect 57 0 64 0;
#X connect 58 0 65 0;
#X connect 59 0 66 0;
#X connect 60 0 67 0;
#X connect 61 0 68 0;
#X connect 62 0 69 0;
#X connect 70 0 53 0;
#X connect 70 1 54 0;
#X connect 70 1 56 0;
#X connect 70 1 57 0;
#X connect 70 1 62 0;
#X connect 70 1 61 0;
#X connect 70 1 60 0;
#X connect 70 1 59 0;
#X connect 70 1 58 0;
#X connect 71 0 72 1;
#X connect 71 1 74 1;
#X connect 71 2 75 1;
#X connect 71 3 76 1;
#X connect 71 4 77 1;
#X connect 71 5 78 1;
#X connect 71 6 79 1;
#X connect 71 7 80 1;
#X connect 72 0 73 0;
#X connect 74 0 81 0;
#X connect 75 0 82 0;
#X connect 76 0 83 0;
#X connect 77 0 84 0;
#X connect 78 0 85 0;
#X connect 79 0 86 0;
#X connect 80 0 87 0;
#X connect 88 0 71 0;
#X connect 88 1 72 0;
#X connect 88 1 74 0;
#X connect 88 1 75 0;
#X connect 88 1 80 0;
#X connect 88 1 79 0;
#X connect 88 1 78 0;
#X connect 88 1 77 0;
#X connect 88 1 76 0;
#X connect 89 0 70 0;
#X connect 90 0 88 0;
