#N canvas 0 46 960 1011 10;
#X obj 627 311 unpack;
#X floatatom 627 361 0 0 0 0 - - -;
#X msg 505 231 print;
#X floatatom 641 338 0 0 0 0 - - -;
#X obj 627 271 route 1 2 3 4;
#X obj 710 311 unpack;
#X floatatom 710 361 0 0 0 0 - - -;
#X floatatom 724 338 0 0 0 0 - - -;
#X obj 794 311 unpack;
#X floatatom 794 361 0 0 0 0 - - -;
#X floatatom 808 338 0 0 0 0 - - -;
#X obj 468 351 unpack;
#X floatatom 463 392 0 0 0 0 - - -;
#X floatatom 513 390 0 0 0 0 - - -;
#X floatatom 550 351 0 0 0 0 - - -;
#X obj 257 236 print attack;
#X obj 166 236 print pitch;
#X msg 499 90 npartial 7;
#X text 634 385 individual sinusoidal components;
#X text 564 383 amplitude;
#X text 568 404 (dB);
#X text 263 256 bang on;
#X text 263 278 attack;
#X text 161 256 cooked pitch;
#X text 178 273 output;
#X msg 508 113 auto 1;
#X msg 508 135 auto 0;
#X msg 507 200 bang;
#X msg 508 157 npoints 2048;
#X msg 507 178 npoints 1024;
#X obj 434 97 adc~;
#X obj 311 526 int;
#X msg 497 62 reattack 100 10;
#X obj 579 428 int;
#X obj 291 799 noteout 1;
#X floatatom 314 770 5 0 0 0 - - -, f 5;
#X obj 227 799 noteout 1;
#X floatatom 250 767 5 0 0 0 - - -, f 5;
#X obj 580 453 moses 70;
#X obj 311 555 change;
#X obj 275 637 last-x 2;
#X obj 271 664 list split 1;
#X obj 175 838 hradio 15 1 0 16 empty empty empty 0 -8 0 10 -262144
-1 -1 0;
#X obj 165 691 print on;
#X obj 407 776 print off;
#X floatatom 277 585 5 0 0 0 - - -, f 5;
#X obj 538 838 hradio 15 1 0 16 empty empty empty 0 -8 0 10 -262144
-1 -1 0;
#X obj 313 744 spigot;
#X obj 393 744 tgl 15 0 empty empty empty 17 7 0 10 -262144 -1 -1 1
1;
#X floatatom 79 815 5 0 0 0 - - -, f 5;
#X msg 120 734 15 15000;
#X obj 90 784 line;
#X msg 37 732 1 15000;
#X floatatom 227 584 5 0 0 0 - - -, f 5;
#X obj 275 608 -;
#X floatatom 535 953 5 0 0 0 - - -, f 5;
#X msg 576 872 15 15000;
#X obj 546 922 line;
#X msg 493 870 1 15000;
#X obj 74 889 bng 15 250 50 0 empty empty empty 17 7 0 10 -262144 -1
-1;
#X obj 118 845 bng 15 250 50 0 empty empty empty 17 7 0 10 -262144
-1 -1;
#X msg 211 522 12, f 4;
#X msg 253 520 24;
#X obj 236 146 tgl 15 0 empty empty empty 17 7 0 10 -262144 -1 -1 0
1;
#X obj 473 258 fiddle~ 2048 1 20 3;
#X obj 470 480 == 0;
#X obj 439 510 spigot;
#X obj 187 733 loadbang;
#X obj 254 723 moses 109;
#X obj 254 699 moses 10;
#X obj 321 718 moses 109;
#X obj 321 694 moses 10;
#X floatatom 280 140 5 0 0 0 - - -, f 5;
#X obj 237 179 metro;
#X obj 207 492 loadbang;
#X obj 216 8 loadbang;
#X obj 387 -3 loadbang;
#X msg 187 756 127;
#X text 116 173 metro works betterwith raw pitch out;
#X text 606 41 tune me;
#X floatatom 193 873 5 0 0 0 - - -, f 5;
#X obj 425 728 loadbang;
#X msg 491 38 vibrato 50 0.666;
#X msg 358 209 auto \$1;
#X obj 313 196 tgl 15 0 empty empty empty 17 7 0 10 -262144 -1 -1 1
1;
#X obj 308 167 inv;
#X obj 777 12 key;
#X obj 787 97 s startStop;
#X obj 357 413 r startStop;
#X obj 357 435 t b;
#X floatatom 803 29 5 0 0 0 - - -, f 5;
#X obj 309 472 spigot;
#X obj 356 457 tgl 15 0 empty empty empty 17 7 0 10 -262144 -1 -1 1
1;
#X obj 776 118 s quantize;
#X obj 177 87 r quantize;
#X text 848 25 q space;
#X obj 775 53 route 113 32;
#X obj 271 88 expr 60000 / (24 * $f1);
#X floatatom 270 65 5 0 0 0 - - -, f 5;
#X obj 271 43 hsl 128 15 1 300 0 0 empty empty empty -2 -8 0 10 -262144
-1 -1 5055 1;
#X obj 311 500 + 0.5;
#X msg 211 33 120;
#X msg 481 12 amp-range 92 105;
#X connect 0 0 1 0;
#X connect 0 1 3 0;
#X connect 2 0 64 0;
#X connect 4 0 0 0;
#X connect 4 1 5 0;
#X connect 4 2 8 0;
#X connect 5 0 6 0;
#X connect 5 1 7 0;
#X connect 8 0 9 0;
#X connect 8 1 10 0;
#X connect 11 0 12 0;
#X connect 11 1 13 0;
#X connect 12 0 65 0;
#X connect 12 0 66 0;
#X connect 14 0 33 0;
#X connect 17 0 64 0;
#X connect 25 0 64 0;
#X connect 26 0 64 0;
#X connect 27 0 64 0;
#X connect 28 0 64 0;
#X connect 29 0 64 0;
#X connect 30 0 64 0;
#X connect 31 0 39 0;
#X connect 32 0 64 0;
#X connect 33 0 38 0;
#X connect 35 0 34 1;
#X connect 37 0 36 1;
#X connect 39 0 45 0;
#X connect 40 0 41 0;
#X connect 41 0 69 0;
#X connect 41 1 71 0;
#X connect 42 0 36 2;
#X connect 42 0 34 2;
#X connect 42 0 80 0;
#X connect 45 0 54 0;
#X connect 47 0 34 0;
#X connect 47 0 44 0;
#X connect 48 0 47 1;
#X connect 50 0 51 0;
#X connect 51 0 42 0;
#X connect 51 0 49 0;
#X connect 52 0 51 0;
#X connect 53 0 54 1;
#X connect 54 0 40 0;
#X connect 56 0 57 0;
#X connect 57 0 55 0;
#X connect 57 0 46 0;
#X connect 58 0 57 0;
#X connect 59 0 58 0;
#X connect 59 0 50 0;
#X connect 60 0 52 0;
#X connect 60 0 56 0;
#X connect 61 0 53 0;
#X connect 62 0 53 0;
#X connect 63 0 73 0;
#X connect 63 0 85 0;
#X connect 64 0 16 0;
#X connect 64 0 91 0;
#X connect 64 1 15 0;
#X connect 64 2 11 0;
#X connect 64 3 14 0;
#X connect 64 4 4 0;
#X connect 65 0 66 1;
#X connect 66 0 31 0;
#X connect 67 0 77 0;
#X connect 68 0 36 0;
#X connect 68 0 43 0;
#X connect 69 1 68 0;
#X connect 70 0 47 0;
#X connect 71 1 70 0;
#X connect 72 0 73 1;
#X connect 73 0 64 0;
#X connect 74 0 61 0;
#X connect 75 0 101 0;
#X connect 76 0 102 0;
#X connect 76 0 82 0;
#X connect 76 0 32 0;
#X connect 76 0 17 0;
#X connect 77 0 37 0;
#X connect 81 0 48 0;
#X connect 82 0 64 0;
#X connect 83 0 64 0;
#X connect 84 0 83 0;
#X connect 85 0 84 0;
#X connect 86 0 90 0;
#X connect 86 0 96 0;
#X connect 88 0 89 0;
#X connect 89 0 92 0;
#X connect 91 0 100 0;
#X connect 92 0 91 1;
#X connect 94 0 63 0;
#X connect 96 0 93 0;
#X connect 96 1 87 0;
#X connect 97 0 72 0;
#X connect 98 0 97 0;
#X connect 99 0 98 0;
#X connect 100 0 31 0;
#X connect 101 0 99 0;
#X connect 102 0 64 0;
