#N canvas 540 71 960 1009 10;
#X obj 627 311 unpack;
#X floatatom 627 361 0 0 0 0 - - -;
#X msg 505 231 print;
#X floatatom 641 338 0 0 0 0 - - -;
#X obj 627 271 route 1 2 3 4;
#X obj 710 311 unpack;
#X floatatom 710 361 0 0 0 0 - - -;
#X floatatom 724 338 0 0 0 0 - - -;
#X obj 794 311 unpack;
#X floatatom 794 361 0 0 0 0 - - -;
#X floatatom 808 338 0 0 0 0 - - -;
#X obj 468 351 unpack;
#X floatatom 463 392 0 0 0 0 - - -;
#X floatatom 513 390 0 0 0 0 - - -;
#X floatatom 550 351 0 0 0 0 - - -;
#X obj 257 236 print attack;
#X obj 166 236 print pitch;
#X msg 499 90 npartial 7;
#X text 634 385 individual sinusoidal components;
#X text 564 383 amplitude;
#X text 568 404 (dB);
#X text 313 464 raw pitch;
#X text 300 488 and amplitude;
#X text 288 505 (up to 3 outputs);
#X text 263 256 bang on;
#X text 263 278 attack;
#X text 161 256 cooked pitch;
#X text 178 273 output;
#X msg 508 113 auto 1;
#X msg 508 135 auto 0;
#X msg 507 200 bang;
#X msg 508 157 npoints 2048;
#X msg 507 178 npoints 1024;
#X obj 390 158 adc~;
#X obj 304 528 int;
#X msg 497 62 reattack 100 10;
#X obj 579 428 int;
#X obj 291 799 noteout 1;
#X floatatom 314 770 5 0 0 0 - - -, f 5;
#X obj 227 799 noteout 1;
#X floatatom 250 767 5 0 0 0 - - -, f 5;
#X obj 580 453 moses 70;
#X obj 311 555 change;
#X obj 275 637 last-x 2;
#X obj 271 664 list split 1;
#X obj 175 838 hradio 15 1 0 16 empty empty empty 0 -8 0 10 -262144
-1 -1 15;
#X obj 165 691 print on;
#X obj 407 776 print off;
#X floatatom 277 585 5 0 0 0 - - -, f 5;
#X obj 538 838 hradio 15 1 0 16 empty empty empty 0 -8 0 10 -262144
-1 -1 0;
#X obj 313 744 spigot;
#X obj 393 744 tgl 15 0 empty empty empty 17 7 0 10 -262144 -1 -1 1
1;
#X floatatom 79 815 5 0 0 0 - - -, f 5;
#X msg 120 734 15 15000;
#X obj 90 784 line;
#X msg 37 732 1 15000;
#X floatatom 227 584 5 0 0 0 - - -, f 5;
#X obj 275 608 -;
#X floatatom 535 953 5 0 0 0 - - -, f 5;
#X msg 576 872 15 15000;
#X obj 546 922 line;
#X msg 493 870 1 15000;
#X obj 74 889 bng 15 250 50 0 empty empty empty 17 7 0 10 -262144 -1
-1;
#X obj 118 845 bng 15 250 50 0 empty empty empty 17 7 0 10 -262144
-1 -1;
#X msg 382 453 2;
#X msg 211 522 12, f 4;
#X msg 253 520 24;
#X obj 320 125 tgl 15 0 empty empty empty 17 7 0 10 -262144 -1 -1 0
1;
#X obj 473 258 fiddle~ 2048 1 20 3;
#X obj 470 480 == 0;
#X obj 439 510 spigot;
#X obj 187 733 loadbang;
#X obj 254 723 moses 109;
#X obj 254 699 moses 10;
#X obj 321 718 moses 109;
#X obj 321 694 moses 10;
#X floatatom 364 119 5 0 0 0 - - -, f 5;
#X obj 321 158 metro;
#X obj 207 492 loadbang;
#X obj 353 63 loadbang;
#X obj 387 -3 loadbang;
#X msg 187 756 127;
#X msg 385 390 0.5;
#X msg 355 89 166;
#X text 200 152 metro works betterwith raw pitch out;
#X text 606 41 tune me;
#X floatatom 193 873 5 0 0 0 - - -, f 5;
#X obj 425 728 loadbang;
#X msg 397 360 0;
#X msg 366 418 2;
#X obj 306 441 + 0;
#X msg 481 12 amp-range 60 90;
#X msg 491 38 vibrato 50 0.666;
#X connect 0 0 1 0;
#X connect 0 1 3 0;
#X connect 2 0 68 0;
#X connect 4 0 0 0;
#X connect 4 1 5 0;
#X connect 4 2 8 0;
#X connect 5 0 6 0;
#X connect 5 1 7 0;
#X connect 8 0 9 0;
#X connect 8 1 10 0;
#X connect 11 0 12 0;
#X connect 11 1 13 0;
#X connect 12 0 69 0;
#X connect 12 0 70 0;
#X connect 14 0 36 0;
#X connect 17 0 68 0;
#X connect 28 0 68 0;
#X connect 29 0 68 0;
#X connect 30 0 68 0;
#X connect 31 0 68 0;
#X connect 32 0 68 0;
#X connect 33 0 68 0;
#X connect 34 0 42 0;
#X connect 35 0 68 0;
#X connect 36 0 41 0;
#X connect 38 0 37 1;
#X connect 40 0 39 1;
#X connect 42 0 48 0;
#X connect 43 0 44 0;
#X connect 44 0 73 0;
#X connect 44 1 75 0;
#X connect 45 0 39 2;
#X connect 45 0 37 2;
#X connect 45 0 86 0;
#X connect 48 0 57 0;
#X connect 50 0 37 0;
#X connect 50 0 47 0;
#X connect 51 0 50 1;
#X connect 53 0 54 0;
#X connect 54 0 45 0;
#X connect 54 0 52 0;
#X connect 55 0 54 0;
#X connect 56 0 57 1;
#X connect 57 0 43 0;
#X connect 59 0 60 0;
#X connect 60 0 58 0;
#X connect 60 0 49 0;
#X connect 61 0 60 0;
#X connect 62 0 61 0;
#X connect 62 0 53 0;
#X connect 63 0 55 0;
#X connect 63 0 59 0;
#X connect 65 0 56 0;
#X connect 66 0 56 0;
#X connect 67 0 77 0;
#X connect 68 0 16 0;
#X connect 68 0 90 0;
#X connect 68 1 15 0;
#X connect 68 2 11 0;
#X connect 68 3 14 0;
#X connect 68 4 4 0;
#X connect 69 0 70 1;
#X connect 70 0 34 0;
#X connect 71 0 81 0;
#X connect 72 0 39 0;
#X connect 72 0 46 0;
#X connect 73 1 72 0;
#X connect 74 0 50 0;
#X connect 75 1 74 0;
#X connect 76 0 77 1;
#X connect 77 0 68 0;
#X connect 78 0 65 0;
#X connect 79 0 83 0;
#X connect 80 0 91 0;
#X connect 80 0 92 0;
#X connect 80 0 35 0;
#X connect 80 0 17 0;
#X connect 81 0 40 0;
#X connect 82 0 90 1;
#X connect 83 0 76 0;
#X connect 87 0 51 0;
#X connect 88 0 90 0;
#X connect 89 0 90 1;
#X connect 90 0 34 0;
#X connect 91 0 68 0;
#X connect 92 0 68 0;
