#N canvas -7 0 839 900 10;
#X obj 627 311 unpack;
#X floatatom 627 361 0 0 0 0 - - -;
#X msg 505 231 print;
#X floatatom 641 338 0 0 0 0 - - -;
#X obj 710 311 unpack;
#X floatatom 710 361 0 0 0 0 - - -;
#X floatatom 724 338 0 0 0 0 - - -;
#X obj 794 311 unpack;
#X floatatom 794 361 0 0 0 0 - - -;
#X floatatom 808 338 0 0 0 0 - - -;
#X obj 460 318 unpack;
#X floatatom 453 342 0 0 0 0 - - -;
#X floatatom 505 357 0 0 0 0 - - -;
#X floatatom 550 351 0 0 0 0 - - -;
#X obj 257 236 print attack;
#X obj 166 236 print pitch;
#X msg 499 90 npartial 7;
#X text 634 385 individual sinusoidal components;
#X text 564 383 amplitude;
#X text 568 404 (dB);
#X text 263 256 bang on;
#X text 263 278 attack;
#X text 161 256 cooked pitch;
#X text 178 273 output;
#X msg 508 113 auto 1;
#X msg 508 135 auto 0;
#X msg 507 200 bang;
#X msg 508 157 npoints 2048;
#X msg 507 178 npoints 1024;
#X obj 434 97 adc~;
#X obj 351 376 int;
#X obj 579 428 int;
#X obj 302 846 noteout 1;
#X floatatom 325 817 5 0 0 0 - - -, f 5;
#X obj 238 846 noteout 1;
#X floatatom 261 814 5 0 0 0 - - -, f 5;
#X obj 580 453 moses 70;
#X obj 275 637 last-x 2;
#X obj 271 664 list split 1;
#X obj 468 819 hradio 15 1 0 16 empty empty empty 0 -8 0 10 -262144
-1 -1 1;
#X obj 165 691 print on;
#X obj 407 776 print off;
#X floatatom 277 585 5 0 0 0 - - -, f 5;
#X obj 378 748 spigot;
#X obj 458 747 tgl 15 0 empty empty empty 17 7 0 10 -262144 -1 -1 1
1;
#X floatatom 227 584 5 0 0 0 - - -, f 5;
#X obj 275 608 -;
#X msg 211 522 12, f 4;
#X msg 253 520 24;
#X obj 236 146 tgl 15 0 empty empty empty 17 7 0 10 -262144 -1 -1 0
1;
#X obj 473 258 fiddle~ 2048 1 20 3;
#X obj 533 509 spigot;
#X obj 187 733 loadbang;
#X obj 254 723 moses 109;
#X obj 254 699 moses 10;
#X obj 321 718 moses 109;
#X obj 321 694 moses 10;
#X floatatom 280 140 5 0 0 0 - - -, f 5;
#X obj 237 179 metro;
#X obj 207 492 loadbang;
#X obj 216 8 loadbang;
#X obj 387 -3 loadbang;
#X msg 187 756 127;
#X text 116 173 metro works betterwith raw pitch out;
#X text 606 41 tune me;
#X floatatom 485 843 5 0 0 0 - - -, f 5;
#X obj 425 728 loadbang;
#X msg 358 209 auto \$1;
#X obj 313 196 tgl 15 0 empty empty empty 17 7 0 10 -262144 -1 -1 0
1;
#X obj 308 167 inv;
#X obj 777 12 key;
#X obj 787 97 s startStop;
#X obj 357 413 r startStop;
#X obj 357 435 t b;
#X floatatom 803 29 5 0 0 0 - - -, f 5;
#X obj 298 492 spigot;
#X obj 356 457 tgl 15 0 empty empty empty 17 7 0 10 -262144 -1 -1 1
1;
#X obj 776 118 s quantize;
#X obj 177 87 r quantize;
#X obj 271 88 expr 60000 / (24 * $f1);
#X floatatom 270 65 5 0 0 0 - - -, f 5;
#X obj 271 43 hsl 128 15 1 180 0 0 empty empty empty -2 -8 0 10 -262144
-1 -1 8443 1;
#X obj 351 347 + 0.5;
#X msg 211 33 120;
#X msg 491 38 vibrato 333 0.666;
#X obj 191 996 noteout 1;
#X floatatom 214 967 5 0 0 0 - - -, f 5;
#X obj 127 996 noteout 1;
#X floatatom 150 964 5 0 0 0 - - -, f 5;
#X obj 215 1083 noteout 1;
#X floatatom 238 1054 5 0 0 0 - - -, f 5;
#X obj 151 1083 noteout 1;
#X floatatom 174 1051 5 0 0 0 - - -, f 5;
#X obj 185 920 + 16;
#X obj 209 1026 + 32;
#X obj 373 993 noteout 1;
#X floatatom 396 964 5 0 0 0 - - -, f 5;
#X obj 309 993 noteout 1;
#X floatatom 332 961 5 0 0 0 - - -, f 5;
#X obj 397 1080 noteout 1;
#X floatatom 420 1051 5 0 0 0 - - -, f 5;
#X obj 333 1080 noteout 1;
#X floatatom 356 1048 5 0 0 0 - - -, f 5;
#X obj 367 917 + 48;
#X obj 391 1023 + 64;
#X msg 169 519 0, f 4;
#X msg 123 519 7, f 4;
#X obj -134 931 radioOrganCtrl;
#X obj 758 933 radioOrganCtrl;
#X obj -132 1025 radioOrganCtrl;
#X obj 764 1036 radioOrganCtrl;
#X obj 539 717 radioOrganCtrl;
#X msg 135 578 -7, f 4;
#X obj 237 204 bng 15 250 50 0 empty empty empty 17 7 0 10 -262144
-1 -1;
#X msg 499 62 reattack 200 10;
#X floatatom 533 534 5 0 0 0 - - -, f 5;
#X obj 537 469 > 0;
#X obj 420 482 spigot;
#X floatatom 420 507 5 0 0 0 - - -, f 5;
#X obj 452 453 == 0;
#X obj 627 271 route 1 2 3 4;
#X text 848 25 q space s;
#X obj 865 95 s rawStream;
#X obj 283 415 switch;
#X obj 265 363 tgl 15 0 empty empty empty 17 7 0 10 -262144 -1 -1 0
1;
#X obj 264 338 r rawStream;
#X msg 481 12 amp-range 80 105;
#X obj 265 386 + 1;
#X obj 533 558 change;
#X obj 473 418 int;
#X obj 451 380 + 0.5;
#X msg 234 341 0;
#X obj 234 316 loadbang;
#X obj 775 53 route 113 32 115 49 50 51 52 53 54 55;
#X obj 937 133 s one;
#X obj 925 213 s two;
#X obj 922 303 s three;
#X obj 920 345 s four;
#X obj 931 436 s five;
#X obj 929 493 s six;
#X obj 118 830 r two;
#X obj 118 855 tgl 15 0 empty empty empty 17 7 0 10 -262144 -1 -1 0
1;
#X obj 99 880 spigot;
#X obj 175 831 r two;
#X obj 175 856 tgl 15 0 empty empty empty 17 7 0 10 -262144 -1 -1 0
1;
#X obj 156 881 spigot;
#X obj 420 672 tgl 15 0 empty empty empty 17 7 0 10 -262144 -1 -1 1
1;
#X obj 401 697 spigot;
#X obj 483 674 tgl 15 0 empty empty empty 17 7 0 10 -262144 -1 -1 1
1;
#X obj 464 699 spigot;
#X obj 420 647 r one;
#X obj 483 649 r one;
#X obj 581 1022 tgl 15 0 empty empty empty 17 7 0 10 -262144 -1 -1
0 1;
#X obj 562 1047 spigot;
#X obj 644 1024 tgl 15 0 empty empty empty 17 7 0 10 -262144 -1 -1
0 1;
#X obj 625 1049 spigot;
#X obj 34 1050 tgl 15 0 empty empty empty 17 7 0 10 -262144 -1 -1 0
1;
#X obj 15 1075 spigot;
#X obj 97 1052 tgl 15 0 empty empty empty 17 7 0 10 -262144 -1 -1 0
1;
#X obj 78 1077 spigot;
#X obj 577 929 tgl 15 0 empty empty empty 17 7 0 10 -262144 -1 -1 0
1;
#X obj 558 954 spigot;
#X obj 640 931 tgl 15 0 empty empty empty 17 7 0 10 -262144 -1 -1 0
1;
#X obj 621 956 spigot;
#X obj 34 1025 r three;
#X obj 97 1027 r three;
#X obj 577 904 r four;
#X obj 640 906 r four;
#X obj 581 997 r five;
#X obj 644 999 r five;
#X msg 302 521 31;
#X connect 0 0 1 0;
#X connect 0 1 3 0;
#X connect 2 0 50 0;
#X connect 4 0 5 0;
#X connect 4 1 6 0;
#X connect 7 0 8 0;
#X connect 7 1 9 0;
#X connect 10 0 11 0;
#X connect 10 1 12 0;
#X connect 11 0 130 0;
#X connect 12 0 116 0;
#X connect 13 0 31 0;
#X connect 16 0 50 0;
#X connect 24 0 50 0;
#X connect 25 0 50 0;
#X connect 26 0 50 0;
#X connect 27 0 50 0;
#X connect 28 0 50 0;
#X connect 29 0 50 0;
#X connect 30 0 123 1;
#X connect 31 0 36 0;
#X connect 33 0 32 1;
#X connect 35 0 34 1;
#X connect 37 0 38 0;
#X connect 38 0 54 0;
#X connect 38 1 56 0;
#X connect 39 0 34 2;
#X connect 39 0 32 2;
#X connect 39 0 65 0;
#X connect 39 0 93 0;
#X connect 39 0 103 0;
#X connect 39 0 104 0;
#X connect 42 0 46 0;
#X connect 43 0 41 0;
#X connect 43 0 149 0;
#X connect 43 0 163 0;
#X connect 43 0 155 0;
#X connect 43 0 159 0;
#X connect 43 0 145 0;
#X connect 44 0 43 1;
#X connect 45 0 46 1;
#X connect 46 0 37 0;
#X connect 47 0 45 0;
#X connect 48 0 45 0;
#X connect 49 0 58 0;
#X connect 49 0 69 0;
#X connect 50 0 15 0;
#X connect 50 0 82 0;
#X connect 50 1 14 0;
#X connect 50 2 10 0;
#X connect 50 3 13 0;
#X connect 50 4 120 0;
#X connect 51 0 115 0;
#X connect 52 0 62 0;
#X connect 53 0 40 0;
#X connect 53 0 142 0;
#X connect 53 0 147 0;
#X connect 53 0 157 0;
#X connect 53 0 161 0;
#X connect 53 0 153 0;
#X connect 54 1 53 0;
#X connect 55 0 43 0;
#X connect 56 1 55 0;
#X connect 57 0 58 1;
#X connect 58 0 50 0;
#X connect 58 0 113 0;
#X connect 59 0 47 0;
#X connect 60 0 83 0;
#X connect 61 0 126 0;
#X connect 61 0 84 0;
#X connect 61 0 16 0;
#X connect 61 0 114 0;
#X connect 62 0 35 0;
#X connect 62 0 88 0;
#X connect 62 0 92 0;
#X connect 62 0 98 0;
#X connect 62 0 102 0;
#X connect 66 0 44 0;
#X connect 67 0 50 0;
#X connect 68 0 67 0;
#X connect 69 0 68 0;
#X connect 70 0 74 0;
#X connect 70 0 133 0;
#X connect 72 0 73 0;
#X connect 73 0 76 0;
#X connect 75 0 42 0;
#X connect 76 0 75 1;
#X connect 78 0 49 0;
#X connect 79 0 57 0;
#X connect 80 0 79 0;
#X connect 81 0 80 0;
#X connect 82 0 30 0;
#X connect 83 0 81 0;
#X connect 84 0 50 0;
#X connect 86 0 85 1;
#X connect 88 0 87 1;
#X connect 90 0 89 1;
#X connect 92 0 91 1;
#X connect 93 0 87 2;
#X connect 93 0 85 2;
#X connect 94 0 91 2;
#X connect 94 0 89 2;
#X connect 96 0 95 1;
#X connect 98 0 97 1;
#X connect 100 0 99 1;
#X connect 102 0 101 1;
#X connect 103 0 97 2;
#X connect 103 0 95 2;
#X connect 104 0 101 2;
#X connect 104 0 99 2;
#X connect 105 0 45 0;
#X connect 106 0 45 0;
#X connect 112 0 45 0;
#X connect 114 0 50 0;
#X connect 115 0 128 0;
#X connect 116 0 51 1;
#X connect 117 0 118 0;
#X connect 118 0 123 1;
#X connect 119 0 117 1;
#X connect 120 0 0 0;
#X connect 120 1 4 0;
#X connect 120 2 7 0;
#X connect 123 0 75 0;
#X connect 124 0 127 0;
#X connect 125 0 124 0;
#X connect 126 0 50 0;
#X connect 127 0 123 0;
#X connect 128 0 123 2;
#X connect 129 0 117 0;
#X connect 129 0 119 0;
#X connect 129 0 51 0;
#X connect 130 0 129 0;
#X connect 131 0 124 0;
#X connect 132 0 131 0;
#X connect 133 0 77 0;
#X connect 133 1 71 0;
#X connect 133 2 122 0;
#X connect 133 3 134 0;
#X connect 133 4 135 0;
#X connect 133 5 136 0;
#X connect 133 6 137 0;
#X connect 133 7 138 0;
#X connect 133 8 139 0;
#X connect 140 0 141 0;
#X connect 141 0 142 1;
#X connect 142 0 87 0;
#X connect 143 0 144 0;
#X connect 144 0 145 1;
#X connect 145 0 85 0;
#X connect 146 0 147 1;
#X connect 147 0 34 0;
#X connect 148 0 149 1;
#X connect 149 0 32 0;
#X connect 150 0 146 0;
#X connect 151 0 148 0;
#X connect 152 0 153 1;
#X connect 153 0 101 0;
#X connect 154 0 155 1;
#X connect 155 0 99 0;
#X connect 156 0 157 1;
#X connect 157 0 91 0;
#X connect 158 0 159 1;
#X connect 159 0 89 0;
#X connect 160 0 161 1;
#X connect 161 0 97 0;
#X connect 162 0 163 1;
#X connect 163 0 95 0;
#X connect 164 0 156 0;
#X connect 165 0 158 0;
#X connect 166 0 160 0;
#X connect 167 0 162 0;
#X connect 168 0 152 0;
#X connect 169 0 154 0;
#X connect 170 0 45 0;
