#N canvas 831 6 854 893 10;
#X obj 55 63 notein;
#X floatatom 66 122 0 0 0 0 - - -;
#X floatatom 25 122 0 0 0 0 - - -;
#X floatatom 132 98 5 0 0 0 - - -, f 5;
#X msg 75 146 stop;
#X msg 113 146 clear;
#X obj 53 227 pack 0 0 0;
#X obj 61 311 noteout;
#X obj 57 257 list-rot 1;
#X obj 288 64 vradio 15 0 0 15 empty empty Base\ Chan 0 -8 0 10 -258049
-1 -258049 0;
#X floatatom 289 298 5 0 0 0 - - -, f 5;
#X obj 156 138 - 1;
#X obj 183 137 tgl 15 0 empty empty empty 17 7 0 10 -262144 -1 -1 0
1;
#X obj 156 160 spigot;
#X obj 211 185 tgl 15 0 empty empty empty 17 7 0 10 -262144 -1 -1 1
1;
#X obj 211 115 key;
#X obj 235 30 key;
#X obj 215 67 bng 15 250 50 0 empty empty empty 0 -6 0 8 -262144 -1
-1;
#X floatatom 235 67 5 0 0 0 - - -, f 5;
#X obj 54 285 mux 0 1;
#X obj 13 144 pack 0 0;
#X obj 44 182 poly 5 0;
#X obj 58 339 notein;
#X floatatom 63 402 0 0 0 0 - - -;
#X floatatom 26 396 0 0 0 0 - - -;
#X floatatom 99 376 5 0 0 0 - - -, f 5;
#X msg 78 422 stop;
#X msg 116 422 clear;
#X obj 56 503 pack 0 0 0;
#X obj 64 587 noteout;
#X obj 60 533 list-rot 1;
#X obj 299 340 vradio 15 0 0 15 empty empty Base\ Chan 0 -8 0 10 -258049
-1 -258049 5;
#X floatatom 292 574 5 0 0 0 - - -, f 5;
#X obj 159 414 - 1;
#X obj 186 417 tgl 15 0 empty empty empty 17 7 0 10 -262144 -1 -1 0
1;
#X obj 159 436 spigot;
#X obj 214 461 tgl 15 0 empty empty empty 17 7 0 10 -262144 -1 -1 1
1;
#X obj 214 391 key;
#X obj 57 561 mux 0 1;
#X obj 47 458 poly 5 0;
#X obj 58 613 notein;
#X floatatom 63 668 0 0 0 0 - - -;
#X floatatom 24 666 0 0 0 0 - - -;
#X floatatom 133 640 5 0 0 0 - - -, f 5;
#X msg 78 696 stop;
#X msg 116 696 clear;
#X obj 56 777 pack 0 0 0;
#X obj 64 861 noteout;
#X obj 60 807 list-rot 1;
#X obj 291 614 vradio 15 0 0 15 empty empty Base\ Chan 0 -8 0 10 -258049
-1 -258049 10;
#X floatatom 292 848 5 0 0 0 - - -, f 5;
#X obj 159 688 - 1;
#X obj 188 679 tgl 15 0 empty empty empty 17 7 0 10 -262144 -1 -1 0
1;
#X obj 159 710 spigot;
#X obj 214 735 tgl 15 0 empty empty empty 17 7 0 10 -262144 -1 -1 1
1;
#X obj 214 665 key;
#X obj 57 835 mux 0 1;
#X obj 47 732 poly 5 0;
#X text 238 114 'a' 'z';
#X obj 211 137 route 97 122;
#X text 243 390 's' 'x';
#X obj 214 413 route 115 120;
#X text 241 664 'd' 'c';
#X obj 214 687 route 100 99;
#X obj 234 602 loadbang;
#X msg 234 624 10;
#X obj 240 330 loadbang;
#X obj 268 12 loadbang;
#X msg 268 34 0;
#X msg 240 352 5;
#X obj 10 641 moses 1;
#X obj 6 372 moses 1;
#X obj 10 98 moses 1;
#X obj 6 422 pack 0 0;
#X obj 2 700 pack 0 0;
#X obj 266 448 tgl 15 0 empty empty empty 17 7 0 10 -262144 -1 -1 0
1;
#X obj 133 490 +;
#X obj 135 760 +;
#X obj 140 220 +;
#X obj 58 374 moses;
#X obj 238 190 tgl 15 0 empty empty empty 17 7 0 10 -262144 -1 -1 0
1;
#X obj 68 94 moses;
#X obj 238 736 tgl 15 0 empty empty empty 17 7 0 10 -262144 -1 -1 0
1;
#X obj 74 640 moses;
#X obj 135 464 + 0;
#X obj 132 188 + 0, f 5;
#X obj 135 738 + 0;
#X floatatom 135 782 5 0 0 0 - - -, f 5;
#X floatatom 133 512 5 0 0 0 - - -, f 5;
#X floatatom 140 242 5 0 0 0 - - -, f 5;
#X obj 360 97 ctlin;
#X obj 477 96 bendin;
#X obj 535 97 pgmin;
#X obj 627 96 touchin;
#X obj 722 91 sysexin;
#X obj 469 153 bendout;
#X obj 352 153 ctlout;
#X obj 545 151 pgmout;
#X obj 624 150 touchout;
#X floatatom 469 129 5 0 0 0 - - -, f 5;
#X floatatom 508 129 5 0 0 0 - - -, f 5;
#X floatatom 351 129 5 0 0 0 - - -, f 5;
#X floatatom 390 129 5 0 0 0 - - -, f 5;
#X floatatom 430 129 5 0 0 0 - - -, f 5;
#X floatatom 545 127 5 0 0 0 - - -, f 5;
#X floatatom 584 127 5 0 0 0 - - -, f 5;
#X floatatom 624 126 5 0 0 0 - - -, f 5;
#X floatatom 669 126 5 0 0 0 - - -, f 5;
#X floatatom 722 126 5 0 0 0 - - -, f 5;
#X floatatom 762 124 5 0 0 0 - - -, f 5;
#X connect 0 0 72 0;
#X connect 0 1 81 0;
#X connect 0 2 3 0;
#X connect 1 0 20 1;
#X connect 2 0 20 0;
#X connect 3 0 11 0;
#X connect 4 0 21 0;
#X connect 5 0 21 0;
#X connect 6 0 8 0;
#X connect 8 0 19 1;
#X connect 9 0 10 0;
#X connect 10 0 78 1;
#X connect 11 0 13 0;
#X connect 12 0 13 1;
#X connect 13 0 85 1;
#X connect 14 0 19 2;
#X connect 15 0 59 0;
#X connect 16 0 17 0;
#X connect 16 0 18 0;
#X connect 19 0 7 0;
#X connect 20 0 21 0;
#X connect 20 0 19 0;
#X connect 21 0 85 0;
#X connect 21 1 6 1;
#X connect 21 2 6 2;
#X connect 22 0 71 0;
#X connect 22 1 79 0;
#X connect 22 2 25 0;
#X connect 23 0 73 1;
#X connect 24 0 73 0;
#X connect 25 0 33 0;
#X connect 26 0 39 0;
#X connect 27 0 39 0;
#X connect 28 0 30 0;
#X connect 30 0 38 1;
#X connect 31 0 32 0;
#X connect 32 0 76 1;
#X connect 33 0 35 0;
#X connect 34 0 35 1;
#X connect 35 0 84 1;
#X connect 36 0 38 2;
#X connect 37 0 61 0;
#X connect 38 0 29 0;
#X connect 39 0 84 0;
#X connect 39 1 28 1;
#X connect 39 2 28 2;
#X connect 40 0 70 0;
#X connect 40 1 83 0;
#X connect 40 2 43 0;
#X connect 41 0 74 1;
#X connect 42 0 74 0;
#X connect 43 0 51 0;
#X connect 44 0 57 0;
#X connect 45 0 57 0;
#X connect 46 0 48 0;
#X connect 48 0 56 1;
#X connect 49 0 50 0;
#X connect 50 0 77 1;
#X connect 51 0 53 0;
#X connect 52 0 53 1;
#X connect 53 0 86 1;
#X connect 54 0 56 2;
#X connect 55 0 63 0;
#X connect 56 0 47 0;
#X connect 57 0 86 0;
#X connect 57 1 46 1;
#X connect 57 2 46 2;
#X connect 59 0 14 0;
#X connect 59 1 80 0;
#X connect 61 0 36 0;
#X connect 61 1 75 0;
#X connect 63 0 54 0;
#X connect 63 1 82 0;
#X connect 64 0 65 0;
#X connect 65 0 49 0;
#X connect 66 0 69 0;
#X connect 67 0 68 0;
#X connect 68 0 9 0;
#X connect 69 0 31 0;
#X connect 70 1 42 0;
#X connect 71 1 24 0;
#X connect 72 1 2 0;
#X connect 73 0 39 0;
#X connect 73 0 38 0;
#X connect 74 0 57 0;
#X connect 74 0 56 0;
#X connect 75 0 79 1;
#X connect 76 0 28 0;
#X connect 76 0 88 0;
#X connect 77 0 46 0;
#X connect 77 0 87 0;
#X connect 78 0 6 0;
#X connect 78 0 89 0;
#X connect 79 1 23 0;
#X connect 80 0 81 1;
#X connect 81 1 1 0;
#X connect 82 0 83 1;
#X connect 83 1 41 0;
#X connect 84 0 76 0;
#X connect 85 0 78 0;
#X connect 86 0 77 0;
#X connect 90 0 101 0;
#X connect 90 1 102 0;
#X connect 90 2 103 0;
#X connect 91 0 99 0;
#X connect 91 1 100 0;
#X connect 92 0 104 0;
#X connect 92 1 105 0;
#X connect 93 0 106 0;
#X connect 93 1 107 0;
#X connect 94 0 108 0;
#X connect 94 1 109 0;
#X connect 99 0 95 0;
#X connect 100 0 95 1;
#X connect 101 0 96 0;
#X connect 102 0 96 1;
#X connect 103 0 96 2;
#X connect 104 0 97 0;
#X connect 105 0 97 1;
#X connect 106 0 98 0;
#X connect 107 0 98 1;
