#N canvas 852 44 854 893 10;
#X obj 55 63 notein;
#X floatatom 66 122 0 0 0 0 - - -;
#X floatatom 25 122 0 0 0 0 - - -;
#X floatatom 132 98 5 0 0 0 - - -, f 5;
#X msg 75 146 stop;
#X msg 113 146 clear;
#X obj 53 227 pack 0 0 0;
#X obj 61 311 noteout;
#X obj 57 257 list-rot 1;
#X obj 288 64 vradio 15 0 0 15 empty empty Base\ Chan 0 -8 0 10 -258049
-1 -258049 0;
#X floatatom 289 298 5 0 0 0 - - -, f 5;
#X obj 156 138 - 1;
#X obj 183 137 tgl 15 0 empty empty empty 17 7 0 10 -262144 -1 -1 0
1;
#X obj 156 160 spigot;
#X obj 211 185 tgl 15 0 empty empty empty 17 7 0 10 -262144 -1 -1 1
1;
#X obj 211 115 key;
#X obj 235 30 key;
#X obj 215 67 bng 15 250 50 0 empty empty empty 0 -6 0 8 -262144 -1
-1;
#X floatatom 235 67 5 0 0 0 - - -, f 5;
#X obj 54 285 mux 0 1;
#X obj 13 144 pack 0 0;
#X obj 44 182 poly 5 0;
#X text 238 114 'a' 'z';
#X obj 211 137 route 97 122;
#X obj 268 12 loadbang;
#X msg 268 34 0;
#X obj 10 98 moses 1;
#X obj 140 220 +;
#X obj 238 190 tgl 15 0 empty empty empty 17 7 0 10 -262144 -1 -1 0
1;
#X obj 68 94 moses;
#X obj 132 188 + 0, f 5;
#X floatatom 140 242 5 0 0 0 - - -, f 5;
#X connect 0 0 26 0;
#X connect 0 1 29 0;
#X connect 0 2 3 0;
#X connect 1 0 20 1;
#X connect 2 0 20 0;
#X connect 3 0 11 0;
#X connect 4 0 21 0;
#X connect 5 0 21 0;
#X connect 6 0 8 0;
#X connect 8 0 19 1;
#X connect 9 0 10 0;
#X connect 10 0 27 1;
#X connect 11 0 13 0;
#X connect 12 0 13 1;
#X connect 13 0 30 1;
#X connect 14 0 19 2;
#X connect 15 0 23 0;
#X connect 16 0 17 0;
#X connect 16 0 18 0;
#X connect 19 0 7 0;
#X connect 20 0 21 0;
#X connect 20 0 19 0;
#X connect 21 0 30 0;
#X connect 21 1 6 1;
#X connect 21 2 6 2;
#X connect 23 0 14 0;
#X connect 23 1 28 0;
#X connect 24 0 25 0;
#X connect 25 0 9 0;
#X connect 26 1 2 0;
#X connect 27 0 6 0;
#X connect 27 0 31 0;
#X connect 28 0 29 1;
#X connect 29 1 1 0;
#X connect 30 0 27 0;
