#N canvas 0 46 960 1011 10;
#X obj 294 50 notein;
#X floatatom 303 129 0 0 0 0 - - -;
#X floatatom 272 129 0 0 0 0 - - -;
#X floatatom 465 117 0 0 0 0 - - -;
#X obj 569 110 vradio 15 0 0 16 empty empty empty 0 -8 0 10 -262144
-1 -1 0;
#X floatatom 561 365 5 0 0 0 - - -, f 5;
#X floatatom 242 265 15 0 0 0 - - -, f 15;
#X obj 327 234 counter;
#X obj 303 173 t b;
#X obj 338 174 t b;
#X obj 303 151 moses 1;
#X obj 407 166 bng 15 250 50 0 empty empty empty 17 7 0 10 -262144
-1 -1;
#X obj 409 185 t 0;
#X obj 282 197 bng 15 250 50 0 empty empty empty 17 7 0 10 -262144
-1 -1;
#X obj 369 199 bng 15 250 50 0 empty empty empty 17 7 0 10 -262144
-1 -1;
#X msg 303 195 dec;
#X msg 338 196 inc;
#X obj 405 143 loadbang;
#X obj 475 301 +;
#X obj 465 139 spigot;
#X obj 541 112 tgl 15 0 empty empty empty 17 7 0 10 -262144 -1 -1 1
1;
#X obj 541 132 inv;
#X obj 541 154 tgl 15 0 empty empty empty 17 7 0 10 -262144 -1 -1 0
1;
#X obj 502 236 spigot;
#X floatatom 475 323 5 0 0 0 - - -, f 5;
#X obj 158 360 pack 0 0 0;
#X obj 361 116 s vel;
#X obj 235 310 r vel;
#X obj 487 264 - 1;
#X obj 144 492 tabwrite notes;
#X obj 403 114 s pitch;
#X obj 836 672 r pitch;
#X obj 246 178 s off;
#X obj 899 640 r off;
#N canvas 0 0 450 300 (subpatch) 0;
#X array notes 100 float 22 #000dff #0300ff;
#X coords 0 16 100 0 400 140 1;
#X restore 151 738 graph;
#X obj 853 756 tabread notes;
#X text 50 520 record channel playing note;
#X floatatom 883 831 5 0 0 0 - - -, f 5;
#X obj 882 808 loadbang;
#X obj 903 672 t 1;
#X obj 369 175 s on;
#X obj 952 642 r on;
#X obj 952 672 t 0;
#X obj 933 704 tgl 15 0 empty empty empty 17 7 0 10 -262144 -1 -1 1
1;
#X obj 145 275 r pitch;
#X obj 120 445 noteout;
#X obj 851 865 pack 0 0 0;
#X obj 854 921 noteout;
#X obj 544 87 loadbang;
#X obj 910 918 print read;
#X obj 45 491 print write;
#N canvas 0 0 450 300 (subpatch) 0;
#X array channels 15 float 22 #ff0000 #ff0000;
#X coords 0 127 15 0 400 140 1;
#X restore 147 918 graph;
#X obj 642 11 loadbang;
#X obj 164 388 unpack 0 0 0;
#X msg 902 151 clear;
#X obj 959 808 tabwrite notes;
#X obj 960 773 unpack 0 0 0;
#X floatatom 877 779 5 0 0 0 - - -, f 5;
#X obj 855 732 spigot;
#X obj 798 756 pipe 20;
#X obj 151 320 spigot;
#X obj 871 1057 int;
#X obj 871 1035 line;
#X msg 871 1002 127 1000;
#X obj 871 1079 tabread notes;
#X obj 871 1107 moses 1;
#X obj 897 1139 print notes;
#X msg 944 1000 0;
#X obj 977 971 t b;
#X obj 977 993 print ----;
#X obj 852 288 list-delete;
#X obj 749 139 list-filter;
#X obj 850 316 list-find;
#X msg 650 42 1 2 3 4 5 6 7 8 9 10;
#X obj 798 250 print using chans:;
#X obj 323 316 s numNotes;
#X text 423 260 comment;
#X obj 830 31 r numNotes;
#X obj 835 138 !=;
#X obj 662 200 print avail chans:;
#X obj 878 55 r off;
#X obj 926 55 r on;
#X obj 905 100 tgl 15 0 empty empty empty 17 7 0 10 -262144 -1 -1 0
1;
#X obj 829 74 spigot;
#X obj 927 78 t 1;
#X obj 868 184 list cat;
#X obj 878 78 t 0 b;
#X obj 826 105 t b f;
#X floatatom 462 503 5 0 0 0 - - -, f 5;
#X floatatom 581 504 5 0 0 0 - - -, f 5;
#X floatatom 501 501 5 0 0 0 - - -, f 5;
#X floatatom 540 502 5 0 0 0 - - -, f 5;
#X floatatom 623 503 5 0 0 0 - - -, f 5;
#X floatatom 742 504 5 0 0 0 - - -, f 5;
#X floatatom 662 501 5 0 0 0 - - -, f 5;
#X floatatom 701 502 5 0 0 0 - - -, f 5;
#X floatatom 784 503 5 0 0 0 - - -, f 5;
#X floatatom 903 504 5 0 0 0 - - -, f 5;
#X floatatom 823 501 5 0 0 0 - - -, f 5;
#X floatatom 862 502 5 0 0 0 - - -, f 5;
#X floatatom 304 503 5 0 0 0 - - -, f 5;
#X floatatom 421 502 5 0 0 0 - - -, f 5;
#X floatatom 343 501 5 0 0 0 - - -, f 5;
#X floatatom 382 502 5 0 0 0 - - -, f 5;
#X obj 324 443 route 1 2 3 4 5 6 7 8 9 10 11 12 13 14 15 16;
#X obj 304 524 t 1;
#X obj 343 522 t 2;
#X obj 382 523 t 3;
#X obj 421 523 t 4;
#X obj 395 378 pack 0 0;
#X connect 0 0 2 0;
#X connect 0 0 30 0;
#X connect 0 1 1 0;
#X connect 0 1 26 0;
#X connect 0 2 3 0;
#X connect 1 0 10 0;
#X connect 3 0 19 0;
#X connect 4 0 5 0;
#X connect 5 0 23 0;
#X connect 6 0 75 0;
#X connect 7 0 6 0;
#X connect 7 0 18 0;
#X connect 7 0 109 0;
#X connect 8 0 15 0;
#X connect 9 0 16 0;
#X connect 10 0 8 0;
#X connect 10 0 32 0;
#X connect 10 1 9 0;
#X connect 10 1 40 0;
#X connect 11 0 12 0;
#X connect 12 0 7 3;
#X connect 15 0 7 0;
#X connect 15 0 13 0;
#X connect 16 0 7 0;
#X connect 16 0 14 0;
#X connect 17 0 11 0;
#X connect 18 0 24 0;
#X connect 19 0 28 0;
#X connect 20 0 19 1;
#X connect 20 0 21 0;
#X connect 21 0 22 0;
#X connect 22 0 23 1;
#X connect 23 0 28 0;
#X connect 25 0 53 0;
#X connect 27 0 25 1;
#X connect 27 0 60 1;
#X connect 28 0 18 1;
#X connect 31 0 58 0;
#X connect 33 0 39 0;
#X connect 35 0 57 0;
#X connect 35 0 46 2;
#X connect 37 0 46 1;
#X connect 38 0 37 0;
#X connect 39 0 43 0;
#X connect 41 0 42 0;
#X connect 42 0 43 0;
#X connect 43 0 58 1;
#X connect 44 0 60 0;
#X connect 48 0 20 0;
#X connect 52 0 73 0;
#X connect 53 0 29 1;
#X connect 53 2 29 0;
#X connect 54 0 85 1;
#X connect 56 0 55 1;
#X connect 56 2 55 0;
#X connect 58 0 59 0;
#X connect 58 0 35 0;
#X connect 59 0 46 0;
#X connect 60 0 25 0;
#X connect 60 0 109 1;
#X connect 61 0 64 0;
#X connect 62 0 61 0;
#X connect 63 0 62 0;
#X connect 64 0 65 0;
#X connect 65 1 66 0;
#X connect 67 0 62 0;
#X connect 67 0 68 0;
#X connect 68 0 69 0;
#X connect 68 0 63 0;
#X connect 71 1 78 0;
#X connect 73 0 71 0;
#X connect 77 0 83 0;
#X connect 78 0 71 1;
#X connect 80 0 86 0;
#X connect 81 0 84 0;
#X connect 82 0 83 1;
#X connect 83 0 87 0;
#X connect 84 0 82 0;
#X connect 86 0 82 0;
#X connect 87 0 71 0;
#X connect 87 1 78 1;
#X connect 100 0 105 0;
#X connect 101 0 108 0;
#X connect 102 0 106 0;
#X connect 103 0 107 0;
#X connect 104 0 100 0;
#X connect 104 1 102 0;
#X connect 104 2 103 0;
#X connect 104 3 101 0;
#X connect 109 0 104 0;
