#N canvas 300 195 575 486 10;
#X obj 235 41 notein;
#X floatatom 244 78 0 0 0 0 - - -;
#X floatatom 213 78 0 0 0 0 - - -;
#X floatatom 276 78 0 0 0 0 - - -;
#X msg 247 164 stop;
#X msg 289 164 clear;
#X obj 225 245 pack 0 0 0;
#X obj 229 403 noteout;
#X obj 229 275 list-rot 1;
#X obj 494 32 vradio 15 0 0 15 empty empty Base\ Chan 0 -8 0 10 -258049
-1 -258049 0;
#X floatatom 495 266 5 0 0 0 - - -, f 5;
#X obj 304 206 +;
#X obj 336 96 - 1;
#X obj 419 119 tgl 15 0 empty empty empty 17 7 0 10 -262144 -1 -1 1
1;
#X obj 336 118 spigot;
#X obj 391 143 tgl 15 0 empty empty empty 17 7 0 10 -262144 -1 -1 1
1;
#X obj 391 73 key;
#X obj 142 405 print note;
#X obj 391 95 route 32 10;
#X obj 73 28 key;
#X obj 53 65 bng 15 250 50 0 empty empty empty 0 -6 0 8 -262144 -1
-1;
#X floatatom 73 65 5 0 0 0 - - -, f 5;
#X obj 216 200 poly 8 0;
#X obj 176 313 mux 0 1;
#X obj 197 142 pack 0 0;
#X obj 353 265 spigot;
#X connect 0 0 2 0;
#X connect 0 1 1 0;
#X connect 0 2 3 0;
#X connect 1 0 24 1;
#X connect 2 0 24 0;
#X connect 3 0 12 0;
#X connect 4 0 22 0;
#X connect 5 0 22 0;
#X connect 6 0 8 0;
#X connect 8 0 23 1;
#X connect 9 0 10 0;
#X connect 10 0 11 1;
#X connect 11 0 6 0;
#X connect 12 0 14 0;
#X connect 13 0 14 1;
#X connect 14 0 11 1;
#X connect 15 0 23 2;
#X connect 16 0 18 0;
#X connect 18 0 15 0;
#X connect 18 1 13 0;
#X connect 19 0 20 0;
#X connect 19 0 21 0;
#X connect 22 0 11 0;
#X connect 22 1 6 1;
#X connect 22 2 6 2;
#X connect 23 0 7 0;
#X connect 24 0 23 0;
#X connect 24 0 22 0;
