#N canvas 419 0 840 893 10;
#X floatatom 402 434 5 0 127 0 - - -, f 5;
#X obj 400 465 ctlout 48 1;
#X floatatom 313 382 5 0 127 0 - - -, f 5;
#X obj 314 411 ctlout 16 1;
#X floatatom 335 132 5 700 1200 0 - - -, f 5;
#X obj 361 379 / 4;
#X obj 317 352 i;
#X obj 360 350 - 700;
#X obj 395 378 % 4;
#X obj 402 410 * 32;
#X obj 317 75 i;
#X obj 575 36 inlet;
#X obj 535 36 inlet;
#X obj 527 392 * 16;
#X obj 568 437 +;
#X floatatom 376 132 5 1 16 0 - - -, f 5;
#X floatatom 586 463 5 0 0 0 - - -, f 5;
#X obj 519 464 s \$0-chan;
#X obj 438 433 r \$0-chan;
#X obj 424 378 r \$0-chan;
#X obj 318 43 inlet;
#X obj 311 132 tgl 15 0 empty empty empty 17 7 0 10 -262144 -1 -1 1
1;
#X obj 186 395 ctlout 80 1;
#X obj 179 352 * 127;
#X obj 225 355 r \$0-chan;
#X obj 161 45 inlet;
#X text 164 26 txOn;
#X obj 297 156 hradio 15 1 0 8 empty empty empty 0 -8 0 10 -262144
-1 -1 3;
#X text 536 16 dev;
#X text 581 16 chan;
#X text 318 27 stat;
#X obj 437 24 loadbang;
#X msg 437 46 1;
#X msg 399 46 700;
#X obj 297 176 hsl 115 15 1 16 0 0 empty empty empty -2 -8 0 10 -262144
-1 -1 7600 1;
#X obj 297 196 i;
#X obj 569 292 t b;
#X obj 588 547 outlet;
#X obj 589 506 change;
#X text 642 505 actual midi addy;
#X connect 0 0 1 0;
#X connect 2 0 3 0;
#X connect 4 0 7 0;
#X connect 5 0 6 0;
#X connect 6 0 2 0;
#X connect 7 0 5 0;
#X connect 7 0 8 0;
#X connect 8 0 9 0;
#X connect 9 0 0 0;
#X connect 10 0 4 0;
#X connect 11 0 34 0;
#X connect 12 0 27 0;
#X connect 13 0 14 0;
#X connect 14 0 16 0;
#X connect 14 0 17 0;
#X connect 15 0 14 1;
#X connect 15 0 36 0;
#X connect 16 0 38 0;
#X connect 18 0 1 2;
#X connect 19 0 3 2;
#X connect 20 0 10 0;
#X connect 21 0 23 0;
#X connect 23 0 22 0;
#X connect 24 0 22 2;
#X connect 25 0 21 0;
#X connect 27 0 13 0;
#X connect 31 0 32 0;
#X connect 31 0 33 0;
#X connect 32 0 34 0;
#X connect 33 0 4 0;
#X connect 34 0 35 0;
#X connect 35 0 15 0;
#X connect 36 0 14 0;
#X connect 38 0 37 0;
#X coords 0 -1 1 1 125 84 1 295 110;
