#N canvas 0 0 1679 893 10;
#X obj 181 104 vsl 15 96 0 1 0 0 empty empty empty 0 -9 0 10 -258113
-1 -1 0 1;
#X obj 202 104 vsl 15 96 0 1 0 0 empty empty empty 0 -9 0 10 -4160
-1 -1 0 1;
#X obj 223 104 vsl 15 96 0 1 0 0 empty empty empty 0 -9 0 10 -4034
-1 -1 0 1;
#X obj 270 104 vsl 15 96 0 1 0 0 empty empty empty 0 -9 0 10 -258113
-1 -1 0 1;
#X obj 291 104 vsl 15 96 0 1 0 0 empty empty empty 0 -9 0 10 -4160
-262144 -1 0 1;
#X obj 312 104 vsl 15 96 0 1 0 0 empty empty empty 0 -9 0 10 -4034
-1 -1 0 1;
#X obj 500 375 spigot;
#X obj 531 333 tgl 30 0 empty empty empty 17 7 0 10 -262144 -1 -1 0
127;
#X text 67 9 flicker between two values;
#X obj 67 32 inlet;
#X obj 520 284 inlet;
#X obj 67 54 t b;
#X obj 521 307 t b;
#X obj 162 87 vsl 15 128 0 1 0 0 empty empty empty 0 -9 0 10 -262144
-1 -1 12700 1;
#X obj 165 270 *;
#X obj 229 270 *;
#X obj 197 269 *;
#X obj 243 401 outlet;
#X obj 333 104 vsl 15 96 0 1 0 0 empty empty empty 0 -9 0 10 -262144
-1 -1 9500 1;
#X obj 196 303 pack f f f f;
#X text 197 85 R B G A;
#X obj 244 104 vsl 15 96 0 1 0 0 empty empty empty 0 -9 0 10 -262144
-1 -1 9500 1;
#X text 287 85 R B G A;
#X obj 269 269 *;
#X obj 333 269 *;
#X obj 301 268 *;
#X obj 302 301 pack f f f f;
#X text 184 208 master;
#X obj 161 348 + 1;
#X obj 278 11 loadbang;
#X msg 282 36 1;
#X obj 242 353 switch 3;
#X obj 98 307 count 3;
#X obj 359 104 vsl 15 96 0 1 0 0 empty empty empty 0 -9 0 10 -258113
-1 -1 0 1;
#X obj 380 104 vsl 15 96 0 1 0 0 empty empty empty 0 -9 0 10 -4160
-262144 -1 0 1;
#X obj 401 104 vsl 15 96 0 1 0 0 empty empty empty 0 -9 0 10 -4034
-1 -1 0 1;
#X obj 422 104 vsl 15 96 0 1 0 0 empty empty empty 0 -9 0 10 -262144
-1 -1 9500 1;
#X text 376 85 R B G A;
#X obj 358 269 *;
#X obj 422 269 *;
#X obj 390 268 *;
#X obj 391 301 pack f f f f;
#X obj 220 27 inlet;
#X text 427 69 En;
#X text 293 68 Lvl;
#X connect 0 0 14 1;
#X connect 1 0 16 1;
#X connect 2 0 15 1;
#X connect 3 0 23 1;
#X connect 4 0 25 1;
#X connect 5 0 24 1;
#X connect 6 0 17 0;
#X connect 7 0 6 1;
#X connect 9 0 11 0;
#X connect 10 0 12 0;
#X connect 11 0 18 0;
#X connect 11 0 5 0;
#X connect 11 0 4 0;
#X connect 11 0 3 0;
#X connect 11 0 21 0;
#X connect 11 0 2 0;
#X connect 11 0 1 0;
#X connect 11 0 0 0;
#X connect 11 0 13 0;
#X connect 11 0 32 0;
#X connect 11 0 33 0;
#X connect 11 0 34 0;
#X connect 11 0 35 0;
#X connect 11 0 36 0;
#X connect 12 0 7 0;
#X connect 13 0 14 0;
#X connect 13 0 16 0;
#X connect 13 0 15 0;
#X connect 13 0 23 0;
#X connect 13 0 25 0;
#X connect 13 0 24 0;
#X connect 13 0 38 0;
#X connect 13 0 40 0;
#X connect 13 0 39 0;
#X connect 14 0 19 0;
#X connect 15 0 19 1;
#X connect 16 0 19 2;
#X connect 18 0 26 3;
#X connect 19 0 31 1;
#X connect 21 0 19 3;
#X connect 23 0 26 0;
#X connect 24 0 26 1;
#X connect 25 0 26 2;
#X connect 26 0 31 2;
#X connect 28 0 31 0;
#X connect 29 0 30 0;
#X connect 30 0 13 0;
#X connect 30 0 21 0;
#X connect 30 0 18 0;
#X connect 30 0 36 0;
#X connect 31 0 6 0;
#X connect 32 0 28 0;
#X connect 33 0 38 1;
#X connect 34 0 40 1;
#X connect 35 0 39 1;
#X connect 36 0 41 3;
#X connect 38 0 41 0;
#X connect 39 0 41 1;
#X connect 40 0 41 2;
#X connect 41 0 31 3;
#X connect 42 0 13 0;
#X coords 0 -1 1 1 300 160 1 151 64;
