#N canvas 0 0 1679 893 10;
#X obj 181 104 vsl 15 96 0 1 0 0 empty empty empty 0 -9 0 10 -258113
-1 -1 0 1;
#X obj 202 104 vsl 15 96 0 1 0 0 empty empty empty 0 -9 0 10 -4160
-1 -1 0 1;
#X obj 223 104 vsl 15 96 0 1 0 0 empty empty empty 0 -9 0 10 -4034
-1 -1 0 1;
#X obj 265 104 vsl 15 96 0 1 0 0 empty empty empty 0 -9 0 10 -258113
-1 -1 0 1;
#X obj 286 104 vsl 15 96 0 1 0 0 empty empty empty 0 -9 0 10 -4160
-262144 -1 0 1;
#X obj 307 104 vsl 15 96 0 1 0 0 empty empty empty 0 -9 0 10 -4034
-1 -1 0 1;
#X obj 969 610 spigot;
#X obj 1000 568 tgl 30 0 empty empty empty 17 7 0 10 -262144 -1 -1
0 127;
#X obj 33 25 inlet;
#X obj 989 519 inlet;
#X obj 33 47 t b;
#X obj 990 542 t b;
#X obj 162 87 vsl 15 128 0 1 0 0 empty empty empty 0 -9 0 10 -262144
-1 -1 12700 1;
#X obj 165 270 *;
#X obj 229 270 *;
#X obj 197 269 *;
#X obj 712 636 outlet;
#X obj 328 104 vsl 15 96 0 1 0 0 empty empty empty 0 -9 0 10 -262144
-1 -1 9500 1;
#X obj 196 303 pack f f f f;
#X obj 244 104 vsl 15 96 0 1 0 0 empty empty empty 0 -9 0 10 -262144
-1 -1 9500 1;
#X obj 269 269 *;
#X obj 333 269 *;
#X obj 301 268 *;
#X obj 302 301 pack f f f f;
#X text 184 208 master;
#X obj 161 348 + 1;
#X obj 278 11 loadbang;
#X msg 282 36 1;
#X obj 349 104 vsl 15 96 0 1 0 0 empty empty empty 0 -9 0 10 -258113
-1 -1 0 1;
#X obj 370 104 vsl 15 96 0 1 0 0 empty empty empty 0 -9 0 10 -4160
-262144 -1 0 1;
#X obj 391 104 vsl 15 96 0 1 0 0 empty empty empty 0 -9 0 10 -4034
-1 -1 0 1;
#X obj 412 104 vsl 15 96 0 1 0 0 empty empty empty 0 -9 0 10 -262144
-1 -1 9500 1;
#X obj 358 269 *;
#X obj 422 269 *;
#X obj 390 268 *;
#X obj 391 301 pack f f f f;
#X obj 98 307 count \$1;
#X text 33 2 flicker between values;
#X obj 147 22 inlet;
#X obj 433 104 vsl 15 96 0 1 0 0 empty empty empty 0 -9 0 10 -258113
-1 -1 0 1;
#X obj 454 104 vsl 15 96 0 1 0 0 empty empty empty 0 -9 0 10 -4160
-1 -1 0 1;
#X obj 475 104 vsl 15 96 0 1 0 0 empty empty empty 0 -9 0 10 -4034
-1 -1 0 1;
#X obj 515 104 vsl 15 96 0 1 0 0 empty empty empty 0 -9 0 10 -258113
-1 -1 0 1;
#X obj 536 104 vsl 15 96 0 1 0 0 empty empty empty 0 -9 0 10 -4160
-262144 -1 0 1;
#X obj 557 104 vsl 15 96 0 1 0 0 empty empty empty 0 -9 0 10 -4034
-1 -1 0 1;
#X obj 453 269 *;
#X obj 517 269 *;
#X obj 485 268 *;
#X obj 578 104 vsl 15 96 0 1 0 0 empty empty empty 0 -9 0 10 -262144
-1 -1 9500 1;
#X obj 484 302 pack f f f f;
#X obj 494 104 vsl 15 96 0 1 0 0 empty empty empty 0 -9 0 10 -262144
-1 -1 9500 1;
#X text 534 85 R B G A;
#X obj 557 268 *;
#X obj 621 268 *;
#X obj 589 267 *;
#X obj 590 300 pack f f f f;
#X obj 599 104 vsl 15 96 0 1 0 0 empty empty empty 0 -9 0 10 -258113
-1 -1 0 1;
#X obj 620 104 vsl 15 96 0 1 0 0 empty empty empty 0 -9 0 10 -4160
-262144 -1 0 1;
#X obj 641 104 vsl 15 96 0 1 0 0 empty empty empty 0 -9 0 10 -4034
-1 -1 0 1;
#X obj 662 104 vsl 15 96 0 1 0 0 empty empty empty 0 -9 0 10 -262144
-1 -1 9500 1;
#X obj 646 268 *;
#X obj 710 268 *;
#X obj 678 267 *;
#X obj 679 300 pack f f f f;
#X obj 683 104 vsl 15 96 0 1 0 0 empty empty empty 0 -9 0 10 -258113
-1 -1 0 1;
#X obj 704 104 vsl 15 96 0 1 0 0 empty empty empty 0 -9 0 10 -4160
-1 -1 0 1;
#X obj 725 104 vsl 15 96 0 1 0 0 empty empty empty 0 -9 0 10 -4034
-1 -1 0 1;
#X obj 767 104 vsl 15 96 0 1 0 0 empty empty empty 0 -9 0 10 -258113
-1 -1 0 1;
#X obj 788 104 vsl 15 96 0 1 0 0 empty empty empty 0 -9 0 10 -4160
-262144 -1 0 1;
#X obj 809 104 vsl 15 96 0 1 0 0 empty empty empty 0 -9 0 10 -4034
-1 -1 0 1;
#X obj 750 268 *;
#X obj 814 268 *;
#X obj 782 267 *;
#X obj 830 104 vsl 15 96 0 1 0 0 empty empty empty 0 -9 0 10 -262144
-1 -1 9500 1;
#X obj 781 301 pack f f f f;
#X obj 746 104 vsl 15 96 0 1 0 0 empty empty empty 0 -9 0 10 -262144
-1 -1 9500 1;
#X obj 854 267 *;
#X obj 918 267 *;
#X obj 886 266 *;
#X obj 887 299 pack f f f f;
#X obj 851 104 vsl 15 96 0 1 0 0 empty empty empty 0 -9 0 10 -258113
-1 -1 0 1;
#X obj 872 104 vsl 15 96 0 1 0 0 empty empty empty 0 -9 0 10 -4160
-262144 -1 0 1;
#X obj 893 104 vsl 15 96 0 1 0 0 empty empty empty 0 -9 0 10 -4034
-1 -1 0 1;
#X obj 914 104 vsl 15 96 0 1 0 0 empty empty empty 0 -9 0 10 -262144
-1 -1 9500 1;
#X obj 943 267 *;
#X obj 1007 267 *;
#X obj 975 266 *;
#X obj 976 299 pack f f f f;
#X obj 711 588 switch 9;
#X floatatom 147 44 5 0 9 0 - - -, f 5;
#X obj 89 25 inlet;
#X text 910 71 En;
#X text 672 68 Num;
#X text 410 70 Lvl;
#X connect 0 0 13 1;
#X connect 1 0 15 1;
#X connect 2 0 14 1;
#X connect 3 0 20 1;
#X connect 4 0 22 1;
#X connect 5 0 21 1;
#X connect 6 0 16 0;
#X connect 7 0 6 1;
#X connect 8 0 10 0;
#X connect 9 0 11 0;
#X connect 10 0 17 0;
#X connect 10 0 5 0;
#X connect 10 0 4 0;
#X connect 10 0 3 0;
#X connect 10 0 19 0;
#X connect 10 0 2 0;
#X connect 10 0 1 0;
#X connect 10 0 0 0;
#X connect 10 0 12 0;
#X connect 10 0 28 0;
#X connect 10 0 29 0;
#X connect 10 0 30 0;
#X connect 10 0 31 0;
#X connect 10 0 36 0;
#X connect 10 0 39 0;
#X connect 10 0 83 0;
#X connect 10 0 82 0;
#X connect 10 0 81 0;
#X connect 10 0 80 0;
#X connect 10 0 75 0;
#X connect 10 0 73 0;
#X connect 10 0 69 0;
#X connect 10 0 68 0;
#X connect 10 0 67 0;
#X connect 10 0 66 0;
#X connect 10 0 65 0;
#X connect 10 0 64 0;
#X connect 10 0 59 0;
#X connect 10 0 58 0;
#X connect 10 0 57 0;
#X connect 10 0 56 0;
#X connect 10 0 50 0;
#X connect 10 0 48 0;
#X connect 10 0 44 0;
#X connect 10 0 43 0;
#X connect 10 0 42 0;
#X connect 10 0 41 0;
#X connect 10 0 40 0;
#X connect 11 0 7 0;
#X connect 12 0 13 0;
#X connect 12 0 15 0;
#X connect 12 0 14 0;
#X connect 12 0 20 0;
#X connect 12 0 22 0;
#X connect 12 0 21 0;
#X connect 12 0 32 0;
#X connect 12 0 34 0;
#X connect 12 0 33 0;
#X connect 12 0 86 0;
#X connect 12 0 85 0;
#X connect 12 0 84 0;
#X connect 12 0 78 0;
#X connect 12 0 77 0;
#X connect 12 0 76 0;
#X connect 12 0 72 0;
#X connect 12 0 71 0;
#X connect 12 0 70 0;
#X connect 12 0 62 0;
#X connect 12 0 61 0;
#X connect 12 0 60 0;
#X connect 12 0 54 0;
#X connect 12 0 53 0;
#X connect 12 0 52 0;
#X connect 12 0 47 0;
#X connect 12 0 46 0;
#X connect 12 0 45 0;
#X connect 13 0 18 0;
#X connect 14 0 18 1;
#X connect 15 0 18 2;
#X connect 17 0 23 3;
#X connect 18 0 88 1;
#X connect 19 0 18 3;
#X connect 20 0 23 0;
#X connect 21 0 23 1;
#X connect 22 0 23 2;
#X connect 23 0 88 2;
#X connect 25 0 88 0;
#X connect 26 0 27 0;
#X connect 27 0 12 0;
#X connect 27 0 19 0;
#X connect 27 0 17 0;
#X connect 27 0 31 0;
#X connect 27 0 50 0;
#X connect 27 0 83 0;
#X connect 27 0 73 0;
#X connect 27 0 75 0;
#X connect 27 0 59 0;
#X connect 27 0 48 0;
#X connect 28 0 32 1;
#X connect 29 0 34 1;
#X connect 30 0 33 1;
#X connect 31 0 35 3;
#X connect 32 0 35 0;
#X connect 33 0 35 1;
#X connect 34 0 35 2;
#X connect 35 0 88 3;
#X connect 36 0 25 0;
#X connect 38 0 89 0;
#X connect 39 0 45 1;
#X connect 40 0 47 1;
#X connect 41 0 46 1;
#X connect 42 0 52 1;
#X connect 43 0 54 1;
#X connect 44 0 53 1;
#X connect 45 0 49 0;
#X connect 46 0 49 1;
#X connect 47 0 49 2;
#X connect 48 0 55 3;
#X connect 49 0 88 4;
#X connect 50 0 49 3;
#X connect 52 0 55 0;
#X connect 53 0 55 1;
#X connect 54 0 55 2;
#X connect 55 0 88 5;
#X connect 56 0 60 1;
#X connect 57 0 62 1;
#X connect 58 0 61 1;
#X connect 59 0 63 3;
#X connect 60 0 63 0;
#X connect 61 0 63 1;
#X connect 62 0 63 2;
#X connect 63 0 88 6;
#X connect 64 0 70 1;
#X connect 65 0 72 1;
#X connect 66 0 71 1;
#X connect 67 0 76 1;
#X connect 68 0 78 1;
#X connect 69 0 77 1;
#X connect 70 0 74 0;
#X connect 71 0 74 1;
#X connect 72 0 74 2;
#X connect 73 0 79 3;
#X connect 74 0 88 7;
#X connect 75 0 74 3;
#X connect 76 0 79 0;
#X connect 77 0 79 1;
#X connect 78 0 79 2;
#X connect 79 0 88 8;
#X connect 80 0 84 1;
#X connect 81 0 86 1;
#X connect 82 0 85 1;
#X connect 83 0 87 3;
#X connect 84 0 87 0;
#X connect 85 0 87 1;
#X connect 86 0 87 2;
#X connect 87 0 88 9;
#X connect 88 0 6 0;
#X connect 89 0 36 1;
#X connect 90 0 12 0;
#X coords 0 -1 1 1 780 160 1 156 66;
