#N canvas 960 0 960 1009 10;
#X obj 498 27 hradio 15 1 1 16 empty empty empty 0 -8 0 10 -262144
-1 -1 2;
#X obj 85 275 notein;
#X floatatom 85 343 5 0 0 0 - - -, f 5;
#X floatatom 101 322 5 0 0 0 - - -, f 5;
#X floatatom 118 301 5 0 0 0 - - -, f 5;
#X floatatom 644 49 5 0 0 0 - - -, f 5;
#X obj 638 77 ==;
#X floatatom 842 452 5 0 0 0 - - -, f 5;
#X obj 834 479 int;
#X obj 839 430 line;
#X obj 314 11 vsl 15 128 15 512 0 1 empty empty empty 0 -9 0 10 -262144
-1 -1 1916 1;
#X obj 539 78 spigot;
#X obj 86 421 s note;
#X obj 124 344 s vel;
#X obj 139 322 s chan;
#X obj 538 50 r note;
#X obj 589 48 r chan;
#X obj 705 532 print note>;
#X floatatom 167 415 5 0 0 0 value - -, f 5;
#X floatatom 239 401 5 0 0 0 controller - -, f 5;
#X floatatom 223 358 5 0 0 0 channel - -, f 5;
#X obj 181 377 ctlin;
#X floatatom 698 156 5 0 0 0 - - -, f 5;
#X text 255 597 header format:totLen \, del \, note \, del \, note
\, etc...;
#X obj 85 368 moses 10;
#X obj 84 397 moses 109;
#X obj 838 500 pack \$1 \$2;
#X obj 852 401 pack \$1 \$2;
#X obj 338 239 * 1000;
#X obj 338 264 / 0.271;
#X obj 338 286 i;
#X msg 263 126 1000;
#X floatatom 263 148 5 0 0 0 - - -, f 5;
#X obj 263 169 /;
#X floatatom 263 191 5 0 0 0 - - -, f 5;
#X floatatom 262 245 5 0 0 0 - - -, f 5;
#X text 338 128 bpm;
#X floatatom 314 149 5 0 0 0 - - -, f 5;
#X obj 314 170 / 60;
#X obj 314 192 t b;
#X text 231 191 mspb;
#X text 213 245 mspppq;
#X msg 222 96 12;
#X floatatom 222 146 5 0 0 0 - - -, f 5;
#X msg 227 121 6;
#X msg 221 69 18;
#X msg 219 47 24;
#X msg 182 29 30;
#X msg 177 10 36;
#X text 195 144 ppq;
#X obj 222 167 t b;
#X obj 338 308 print masterTempo>;
#X text 373 289 mystery timer;
#X obj 262 266 * 255;
#X floatatom 262 288 5 0 0 0 - - -, f 5;
#X msg 930 402 2;
#X obj 825 398 t b;
#X obj 824 343 r resetTime;
#X msg 822 369 0;
#X obj 262 309 s maxTime;
#X obj 892 371 r maxTime;
#X obj 862 524 t b;
#X obj 900 526 s resetTime;
#X msg 113 68 40;
#X msg 112 91 60;
#X msg 112 113 90;
#X msg 113 140 115;
#X msg 118 161 135;
#X msg 125 182 240;
#X obj 96 219 s tempoSet;
#X obj 347 11 r tempoSet;
#X obj 255 222 / 24;
#X obj 84 42 loadbang;
#X obj 220 20 loadbang;
#X obj 528 645 tgl 15 0 empty empty empty 17 7 0 10 -262144 -1 -1 0
1;
#X obj 495 668 spigot;
#X msg 495 690 add \$1' \$2';
#X obj 605 293 s noteVal;
#X obj 903 471 r noteVal;
#X obj 756 432 r bNoteWrite;
#X obj 759 500 s bNoteWrite;
#X obj 683 434 bng 67 250 50 0 empty empty empty 17 7 0 10 -262144
-1 -1;
#X msg 147 29 64;
#X msg 142 10 128;
#X obj 884 432 r granularity;
#X obj 222 266 / 4;
#X obj 162 284 s granularity;
#X obj 661 111 last-x 2;
#X obj 662 132 list split 1;
#X obj 496 49 r vel;
#X text 495 4 L Voice;
#X obj 398 57 r vel;
#X obj 398 79 moses 1;
#X obj 400 152 t b;
#X obj 437 103 t b;
#X obj 398 101 == 0;
#X obj 398 126 &&;
#X msg 398 182 127;
#X obj 494 78 spigot;
#X obj 495 104 last-x 2;
#X obj 496 125 list split 1;
#X floatatom 530 153 5 0 0 0 - - -, f 5;
#X obj 530 174 select 0;
#X msg 542 227 127;
#X obj 623 254 i;
#X floatatom 662 154 5 0 0 0 - - -, f 5;
#X floatatom 491 151 5 0 0 0 - - -, f 5;
#X obj 674 179 ==;
#X obj 572 199 t b;
#X obj 539 201 t b;
#X obj 674 201 tgl 15 0 empty empty empty 17 7 0 10 -262144 -1 -1 1
1;
#X obj 542 249 spigot;
#X obj 566 272 t b;
#X obj 525 294 s bNoteWrite;
#X obj 769 31 hradio 15 1 1 16 empty empty empty 0 -8 0 10 -262144
-1 -1 3;
#X floatatom 915 53 5 0 0 0 - - -, f 5;
#X obj 909 81 ==;
#X obj 848 131 spigot;
#X obj 809 54 r note;
#X obj 860 52 r chan;
#X floatatom 969 160 5 0 0 0 - - -, f 5;
#X obj 876 297 s noteVal;
#X obj 932 115 last-x 2;
#X obj 933 136 list split 1;
#X obj 767 53 r vel;
#X obj 765 82 spigot;
#X obj 766 108 last-x 2;
#X obj 767 129 list split 1;
#X floatatom 801 157 5 0 0 0 - - -, f 5;
#X obj 801 178 select 0;
#X obj 894 258 i;
#X floatatom 933 158 5 0 0 0 - - -, f 5;
#X floatatom 762 155 5 0 0 0 - - -, f 5;
#X obj 945 183 ==;
#X obj 843 203 t b;
#X obj 810 205 t b;
#X obj 945 205 tgl 15 0 empty empty empty 17 7 0 10 -262144 -1 -1 0
1;
#X obj 813 253 spigot;
#X obj 837 276 t b;
#X obj 796 298 s bNoteWrite;
#X text 766 8 V Voice;
#X msg 813 231 255;
#X obj 849 104 + 128;
#X obj 759 476 select 255;
#X msg 857 373 255;
#X text 509 373 Stop recording;
#X text 511 352 start recording;
#X msg 888 721 read \$1.txt cr;
#X obj 805 526 s toTxt;
#X obj 434 644 r toTxt;
#X msg 413 357 symbol start;
#X msg 423 374 symbol stop;
#X msg 436 394 symbol write;
#X msg 447 413 symbol read;
#X obj 393 521 s startRec;
#X obj 555 616 r startRec;
#X obj 489 616 r stopRec;
#X obj 452 544 s stopRec;
#X obj 494 524 s writeRec;
#X obj 466 496 route start stop write read erase;
#X obj 553 546 s readRec;
#X obj 584 525 s eraseRec;
#X msg 458 432 symbol erase;
#X obj 634 576 r writeRec;
#X text 527 451 The name of file/riff;
#X text 589 470 <---;
#X obj 555 641 t 1;
#X obj 888 698 r readRec;
#X obj 493 714 t b;
#X obj 419 736 counter;
#X floatatom 419 758 5 0 0 0 - - -, f 5;
#X obj 470 705 bng 15 250 50 0 empty empty empty 17 7 0 10 -262144
-1 -1;
#X obj 419 779 * 2;
#X obj 419 801 + 1;
#X floatatom 419 823 5 0 0 0 - - -, f 5;
#X obj 489 638 t 0;
#X obj 416 677 r startRec;
#X obj 825 856 textfile;
#X obj 403 874 s cArraySize;
#X obj 770 633 r cArraySize;
#X msg 754 591 add2 unsigned char code \$1 [;
#X obj 754 613 t b;
#X msg 885 759 print;
#X obj 789 613 s writeCArraySize;
#X obj 448 800 r writeCArraySize;
#X obj 578 700 list cat;
#X msg 576 675 \$1 \$2;
#X obj 444 853 i;
#X msg 621 674 clear;
#X obj 716 876 t b;
#X obj 750 561 r writeRec;
#X msg 767 656 add2 \$1 ] = ! \$1;
#X obj 777 678 t b;
#X obj 783 700 add2_comma;
#X msg 576 794 add2 \$1;
#X obj 570 925 t b;
#X obj 647 899 add2_comma;
#X obj 649 924 spigot;
#X obj 716 899 tgl 15 0 empty empty empty 17 7 0 10 -262144 -1 -1 0
1;
#X obj 649 946 t b;
#X msg 649 968 add;
#X obj 797 724 t b;
#X msg 798 748 add;
#X obj 574 746 list append;
#X obj 574 726 until;
#X obj 574 768 list split 1;
#X obj 569 951 spigot;
#X obj 611 929 tgl 15 0 empty empty empty 17 7 0 10 -262144 -1 -1 0
1;
#X obj 667 775 t b;
#X obj 809 772 t b;
#X obj 586 855 counter;
#X obj 568 829 t b;
#X obj 597 876 - 2;
#X obj 586 898 <;
#X obj 630 809 r stopRec;
#X msg 910 826 clear;
#X obj 909 784 r eraseRec;
#X obj 909 803 t b;
#X obj 630 831 bng 15 250 50 0 empty empty empty 17 7 0 10 -262144
-1 -1;
#X obj 697 790 pipe 500;
#X msg 697 812 add ?;
#X msg 641 631 write \$1.txt cr;
#X text 81 550 pd poor text world means:! = open? = close curlies...
;
#X obj 638 607 pipe s 1000;
#X msg 465 472 \$1 symbol testRiff;
#X connect 0 0 5 0;
#X connect 1 0 2 0;
#X connect 1 1 3 0;
#X connect 1 2 4 0;
#X connect 2 0 24 0;
#X connect 3 0 13 0;
#X connect 4 0 14 0;
#X connect 5 0 6 1;
#X connect 6 0 11 1;
#X connect 6 0 98 1;
#X connect 7 0 8 1;
#X connect 8 0 26 0;
#X connect 9 0 7 0;
#X connect 9 0 143 0;
#X connect 10 0 37 0;
#X connect 11 0 87 0;
#X connect 11 0 104 1;
#X connect 15 0 11 0;
#X connect 16 0 6 0;
#X connect 21 0 18 0;
#X connect 21 1 19 0;
#X connect 21 2 20 0;
#X connect 22 0 107 1;
#X connect 24 1 25 0;
#X connect 25 0 12 0;
#X connect 26 0 61 0;
#X connect 26 0 148 0;
#X connect 27 0 9 0;
#X connect 28 0 29 0;
#X connect 29 0 30 0;
#X connect 30 0 51 0;
#X connect 31 0 32 0;
#X connect 32 0 33 0;
#X connect 33 0 34 0;
#X connect 34 0 71 0;
#X connect 35 0 28 0;
#X connect 35 0 53 0;
#X connect 35 0 85 0;
#X connect 37 0 38 0;
#X connect 38 0 39 0;
#X connect 38 0 33 1;
#X connect 39 0 31 0;
#X connect 42 0 43 0;
#X connect 43 0 50 0;
#X connect 43 0 71 1;
#X connect 44 0 43 0;
#X connect 45 0 43 0;
#X connect 46 0 43 0;
#X connect 47 0 43 0;
#X connect 48 0 43 0;
#X connect 50 0 34 0;
#X connect 53 0 54 0;
#X connect 54 0 59 0;
#X connect 55 0 9 2;
#X connect 56 0 144 0;
#X connect 57 0 58 0;
#X connect 58 0 9 0;
#X connect 58 0 56 0;
#X connect 60 0 27 1;
#X connect 61 0 62 0;
#X connect 63 0 69 0;
#X connect 64 0 69 0;
#X connect 65 0 69 0;
#X connect 66 0 69 0;
#X connect 67 0 69 0;
#X connect 68 0 69 0;
#X connect 70 0 10 0;
#X connect 71 0 35 0;
#X connect 72 0 65 0;
#X connect 73 0 46 0;
#X connect 74 0 75 1;
#X connect 75 0 76 0;
#X connect 75 0 186 0;
#X connect 76 0 168 0;
#X connect 78 0 26 1;
#X connect 79 0 8 0;
#X connect 81 0 80 0;
#X connect 82 0 43 0;
#X connect 83 0 43 0;
#X connect 84 0 9 2;
#X connect 85 0 86 0;
#X connect 87 0 88 0;
#X connect 88 0 105 0;
#X connect 88 1 22 0;
#X connect 89 0 98 0;
#X connect 91 0 92 0;
#X connect 92 0 95 0;
#X connect 92 1 94 0;
#X connect 93 0 97 0;
#X connect 95 0 96 0;
#X connect 96 0 93 0;
#X connect 98 0 99 0;
#X connect 99 0 100 0;
#X connect 100 0 106 0;
#X connect 100 1 101 0;
#X connect 101 0 102 0;
#X connect 102 0 109 0;
#X connect 102 1 108 0;
#X connect 103 0 111 0;
#X connect 104 0 77 0;
#X connect 104 0 112 0;
#X connect 105 0 107 0;
#X connect 107 0 110 0;
#X connect 108 0 104 0;
#X connect 109 0 103 0;
#X connect 110 0 111 1;
#X connect 111 0 104 0;
#X connect 112 0 113 0;
#X connect 114 0 115 0;
#X connect 115 0 116 1;
#X connect 116 0 117 1;
#X connect 116 0 125 1;
#X connect 117 0 122 0;
#X connect 117 0 130 1;
#X connect 118 0 142 0;
#X connect 119 0 116 0;
#X connect 120 0 133 1;
#X connect 122 0 123 0;
#X connect 123 0 131 0;
#X connect 123 1 120 0;
#X connect 124 0 125 0;
#X connect 125 0 126 0;
#X connect 126 0 127 0;
#X connect 127 0 132 0;
#X connect 127 1 128 0;
#X connect 128 0 129 0;
#X connect 129 0 135 0;
#X connect 129 1 134 0;
#X connect 130 0 121 0;
#X connect 130 0 138 0;
#X connect 131 0 133 0;
#X connect 133 0 136 0;
#X connect 134 0 130 0;
#X connect 135 0 141 0;
#X connect 136 0 137 1;
#X connect 137 0 130 0;
#X connect 138 0 139 0;
#X connect 141 0 137 0;
#X connect 142 0 117 0;
#X connect 143 0 80 0;
#X connect 144 0 27 0;
#X connect 147 0 177 0;
#X connect 149 0 75 0;
#X connect 150 0 224 0;
#X connect 151 0 224 0;
#X connect 152 0 224 0;
#X connect 153 0 224 0;
#X connect 155 0 166 0;
#X connect 156 0 175 0;
#X connect 159 0 154 0;
#X connect 159 1 157 0;
#X connect 159 2 158 0;
#X connect 159 3 160 0;
#X connect 159 4 161 0;
#X connect 162 0 224 0;
#X connect 163 0 223 0;
#X connect 166 0 74 0;
#X connect 167 0 147 0;
#X connect 168 0 169 0;
#X connect 169 0 170 0;
#X connect 170 0 172 0;
#X connect 171 0 169 3;
#X connect 172 0 173 0;
#X connect 173 0 174 0;
#X connect 174 0 187 1;
#X connect 174 0 212 0;
#X connect 175 0 74 0;
#X connect 175 0 188 0;
#X connect 176 0 171 0;
#X connect 179 0 191 0;
#X connect 180 0 177 0;
#X connect 180 0 181 0;
#X connect 181 0 183 0;
#X connect 182 0 177 0;
#X connect 184 0 187 0;
#X connect 185 0 203 1;
#X connect 186 0 185 0;
#X connect 187 0 178 0;
#X connect 188 0 185 1;
#X connect 189 0 198 0;
#X connect 190 0 180 0;
#X connect 191 0 177 0;
#X connect 191 0 192 0;
#X connect 192 0 193 0;
#X connect 193 0 177 0;
#X connect 193 0 201 0;
#X connect 194 0 177 0;
#X connect 194 0 195 0;
#X connect 195 0 206 0;
#X connect 196 0 177 0;
#X connect 196 0 197 0;
#X connect 197 0 199 0;
#X connect 198 0 197 1;
#X connect 199 0 200 0;
#X connect 200 0 177 0;
#X connect 201 0 202 0;
#X connect 202 0 177 0;
#X connect 202 0 209 0;
#X connect 203 0 205 0;
#X connect 204 0 203 0;
#X connect 205 0 194 0;
#X connect 205 0 189 0;
#X connect 205 0 211 0;
#X connect 205 1 203 1;
#X connect 205 2 208 0;
#X connect 206 0 196 0;
#X connect 207 0 206 1;
#X connect 208 0 204 1;
#X connect 208 0 219 0;
#X connect 209 0 204 0;
#X connect 210 0 213 0;
#X connect 211 0 210 0;
#X connect 212 0 213 1;
#X connect 213 0 207 0;
#X connect 214 0 218 0;
#X connect 215 0 177 0;
#X connect 216 0 217 0;
#X connect 217 0 215 0;
#X connect 218 0 210 3;
#X connect 219 0 220 0;
#X connect 220 0 177 0;
#X connect 221 0 177 0;
#X connect 223 0 221 0;
#X connect 224 0 159 0;
