#N canvas 960 0 960 1009 10;
#X obj 756 58 hradio 15 1 1 16 empty empty empty 0 -8 0 10 -262144
-1 -1 2;
#X obj 781 223 hradio 15 1 1 16 empty empty empty 0 -8 0 10 -262144
-1 -1 3;
#X obj 549 114 notein;
#X floatatom 549 182 5 0 0 0 - - -, f 5;
#X floatatom 565 161 5 0 0 0 - - -, f 5;
#X floatatom 582 140 5 0 0 0 - - -, f 5;
#X floatatom 754 116 5 0 0 0 - - -, f 5;
#X obj 507 58 bng 15 250 50 0 empty empty empty 17 7 0 10 -262144 -1
-1;
#X text 771 86 L Voice;
#X floatatom 760 273 5 0 0 0 - - -, f 5;
#X text 796 245 V Voice;
#X obj 514 331 change;
#X obj 735 304 ==;
#X obj 666 117 + 128;
#X obj 875 327 metro;
#X floatatom 875 374 5 0 0 0 - - -, f 5;
#X floatatom 270 496 5 0 0 0 - - -, f 5;
#X obj 271 534 int;
#X obj 265 469 line;
#X floatatom 666 149 5 0 0 0 - - -, f 5;
#X obj 871 301 tgl 15 0 empty empty empty 17 7 0 10 -262144 -1 -1 0
1;
#X obj 314 11 vsl 15 128 15 512 0 1 empty empty empty 0 -9 0 10 -262144
-1 -1 1916 1;
#X obj 874 351 count 255;
#X obj 738 152 ==;
#X obj 670 181 spigot;
#X obj 680 326 spigot;
#X obj 658 88 r note;
#X obj 550 260 s note;
#X obj 588 183 s vel;
#X obj 603 161 s chan;
#X obj 679 298 r note;
#X obj 704 267 r chan;
#X obj 707 86 r chan;
#X msg 952 323 0;
#X obj 850 626 sel 0;
#X msg 852 659 127;
#X obj 364 619 print note>;
#X floatatom 680 567 5 0 0 0 value - -, f 5;
#X floatatom 680 598 5 0 0 0 controller - -, f 5;
#X floatatom 678 647 5 0 0 0 channel - -, f 5;
#X obj 726 547 ctlin;
#X obj 726 701 pack 176 0 0;
#X obj 726 733 print ctl>;
#X obj 726 583 t b f;
#X obj 726 647 f;
#X obj 781 590 + 175;
#X floatatom 680 348 5 0 0 0 - - -, f 5;
#X floatatom 670 203 5 0 0 0 - - -, f 5;
#X text 711 425 header format:totLen \, del \, note \, del \, note
\, etc...;
#X obj 273 838 textfile;
#X msg 356 819 print;
#X obj 251 899 print message;
#X obj 313 872 print done;
#X msg 411 669 clear;
#X msg 419 742 write /home/dead/Desktop/test.txt cr;
#X obj 191 712 t b;
#X msg 196 665 symbol testRiff;
#X msg 197 690 set unsigned char code \$1 [x] = !;
#X msg 394 785 read /home/dead/Desktop/test.txt cr;
#X obj 670 224 s noteWrite;
#X obj 549 207 moses 10;
#X obj 548 236 moses 109;
#X obj 503 379 r noteWrite;
#X msg 416 696 add ?;
#X obj 421 721 t b;
#X msg 189 742 add t x';
#X text 835 427 pd poor text world means:' = \, ! = openCurly? =
closeCurlyx = length of C array;
#X text 836 500 add2_comma is a thingbut incurs timing hell;
#X obj 468 568 pack \$1 \$2;
#X msg 466 607 add t \$1' \$2';
#X obj 238 517 t b;
#X obj 278 440 pack \$1 \$2;
#X text 350 471 granularity;
#X obj 387 253 * 1000;
#X obj 387 278 / 0.271;
#X obj 387 300 i;
#X msg 263 126 1000;
#X floatatom 263 148 5 0 0 0 - - -, f 5;
#X obj 263 169 /;
#X floatatom 263 191 5 0 0 0 - - -, f 5;
#X floatatom 262 245 5 0 0 0 - - -, f 5;
#X text 338 128 bpm;
#X floatatom 314 149 5 0 0 0 - - -, f 5;
#X obj 314 170 / 60;
#X obj 314 192 t b;
#X text 231 191 mspb;
#X text 213 245 mspppq;
#X msg 222 96 12;
#X floatatom 222 146 5 0 0 0 - - -, f 5;
#X msg 227 121 6;
#X msg 221 69 18;
#X msg 219 47 24;
#X msg 182 29 30;
#X msg 177 10 36;
#X text 195 144 ppq;
#X obj 222 167 t b;
#X obj 387 322 print masterTempo>;
#X text 422 303 mystery timer;
#X obj 262 266 * 255;
#X floatatom 262 288 5 0 0 0 - - -, f 5;
#X msg 321 473 2;
#X obj 248 430 t b;
#X obj 251 379 r resetTime;
#X msg 248 408 0;
#X obj 262 309 s maxTime;
#X obj 318 410 r maxTime;
#X obj 189 482 r noteWrite;
#X obj 466 629 t b;
#X obj 270 636 s resetTime;
#X obj 489 678 s resetTime;
#X obj 207 589 tgl 15 0 empty empty empty 17 7 0 10 -262144 -1 -1 0
1;
#X msg 283 412 256;
#X obj 267 569 > 255;
#X msg 442 9 40;
#X msg 441 32 60;
#X msg 443 56 90;
#X msg 442 81 115;
#X msg 447 102 135;
#X msg 454 123 240;
#X obj 425 160 s tempoSet;
#X obj 347 11 r tempoSet;
#X obj 255 222 / 24;
#X obj 491 15 loadbang;
#X obj 220 20 loadbang;
#X obj 682 377 s noteWrite;
#X obj 463 544 moses 256;
#X connect 0 0 6 0;
#X connect 1 0 9 0;
#X connect 2 0 3 0;
#X connect 2 1 4 0;
#X connect 2 2 5 0;
#X connect 3 0 60 0;
#X connect 4 0 28 0;
#X connect 5 0 29 0;
#X connect 6 0 23 1;
#X connect 9 0 12 1;
#X connect 12 0 25 1;
#X connect 13 0 19 0;
#X connect 14 0 22 0;
#X connect 16 0 17 1;
#X connect 17 0 125 0;
#X connect 18 0 16 0;
#X connect 18 0 112 0;
#X connect 19 0 24 0;
#X connect 20 0 14 0;
#X connect 21 0 82 0;
#X connect 22 0 15 0;
#X connect 23 0 24 1;
#X connect 24 0 47 0;
#X connect 25 0 46 0;
#X connect 26 0 13 0;
#X connect 30 0 25 0;
#X connect 31 0 12 0;
#X connect 32 0 23 0;
#X connect 33 0 15 0;
#X connect 34 0 35 0;
#X connect 40 0 37 0;
#X connect 40 0 43 0;
#X connect 40 1 38 0;
#X connect 40 1 41 1;
#X connect 40 2 39 0;
#X connect 40 2 45 0;
#X connect 43 0 44 0;
#X connect 43 1 41 2;
#X connect 44 0 41 0;
#X connect 45 0 44 1;
#X connect 46 0 124 0;
#X connect 47 0 59 0;
#X connect 49 0 51 0;
#X connect 49 1 52 0;
#X connect 50 0 49 0;
#X connect 53 0 49 0;
#X connect 54 0 49 0;
#X connect 55 0 65 0;
#X connect 56 0 57 0;
#X connect 57 0 49 0;
#X connect 57 0 55 0;
#X connect 58 0 49 0;
#X connect 60 1 61 0;
#X connect 61 0 27 0;
#X connect 62 0 68 1;
#X connect 63 0 49 0;
#X connect 63 0 64 0;
#X connect 64 0 54 0;
#X connect 65 0 49 0;
#X connect 68 0 69 0;
#X connect 68 0 36 0;
#X connect 69 0 107 0;
#X connect 70 0 17 0;
#X connect 71 0 18 0;
#X connect 73 0 74 0;
#X connect 74 0 75 0;
#X connect 75 0 96 0;
#X connect 76 0 77 0;
#X connect 77 0 78 0;
#X connect 78 0 79 0;
#X connect 79 0 121 0;
#X connect 80 0 73 0;
#X connect 80 0 98 0;
#X connect 82 0 83 0;
#X connect 83 0 84 0;
#X connect 83 0 78 1;
#X connect 84 0 76 0;
#X connect 87 0 88 0;
#X connect 88 0 95 0;
#X connect 88 0 121 1;
#X connect 89 0 88 0;
#X connect 90 0 88 0;
#X connect 91 0 88 0;
#X connect 92 0 88 0;
#X connect 93 0 88 0;
#X connect 95 0 79 0;
#X connect 98 0 99 0;
#X connect 99 0 104 0;
#X connect 100 0 18 2;
#X connect 101 0 111 0;
#X connect 102 0 103 0;
#X connect 103 0 18 0;
#X connect 103 0 101 0;
#X connect 105 0 71 1;
#X connect 106 0 70 0;
#X connect 107 0 109 0;
#X connect 111 0 71 0;
#X connect 112 0 110 0;
#X connect 113 0 119 0;
#X connect 114 0 119 0;
#X connect 115 0 119 0;
#X connect 116 0 119 0;
#X connect 117 0 119 0;
#X connect 118 0 119 0;
#X connect 120 0 21 0;
#X connect 121 0 80 0;
#X connect 122 0 115 0;
#X connect 123 0 91 0;
#X connect 125 0 68 0;
